<svg xmlns="http://www.w3.org/2000/svg" viewBox="0 0 1663.98 174"><defs><style>.cls-1{fill:none;}.cls-2{fill:#fff;}</style></defs><title>graphic_01_sprinkles</title><g id="Layer_2" data-name="Layer 2"><g id="base"><rect class="cls-1" y="127.96" width="22.27" height="22.27"/><circle class="cls-2" cx="11.13" cy="139.09" r="11.13"/><rect class="cls-1" x="60.97" y="146.43" width="17.26" height="17.26"/><circle class="cls-2" cx="69.6" cy="155.06" r="8.63"/><rect class="cls-1" x="94.34" y="109.24" width="17.61" height="17.61"/><circle class="cls-2" cx="103.15" cy="118.04" r="8.81"/><rect class="cls-1" x="129.28" y="113.29" width="25.46" height="25.46"/><circle class="cls-2" cx="142.01" cy="126.02" r="12.73"/><rect class="cls-1" x="187.36" y="154.26" width="19.74" height="19.74"/><circle class="cls-2" cx="197.23" cy="164.13" r="9.87"/><rect class="cls-1" x="249.87" y="136.4" width="17.43" height="17.43"/><circle class="cls-2" cx="258.58" cy="145.11" r="8.71"/><rect class="cls-1" x="286.03" y="112.6" width="19.98" height="19.98"/><circle class="cls-2" cx="296.02" cy="122.59" r="9.99"/><rect class="cls-1" x="327.05" y="140.1" width="23.53" height="23.53"/><circle class="cls-2" cx="338.82" cy="151.87" r="11.76"/><rect class="cls-1" x="374.21" y="147.76" width="23.89" height="23.89"/><circle class="cls-2" cx="386.15" cy="159.71" r="11.94"/><rect class="cls-1" x="400.88" y="106.36" width="26.12" height="26.12"/><circle class="cls-2" cx="413.94" cy="119.42" r="13.06"/><rect class="cls-1" x="454.67" y="103.37" width="19.14" height="19.14"/><circle class="cls-2" cx="464.25" cy="112.94" r="9.57"/><rect class="cls-1" x="503.28" y="108.17" width="18.99" height="18.99"/><circle class="cls-2" cx="512.78" cy="117.66" r="9.5"/><rect class="cls-1" x="562.12" y="119.99" width="20.42" height="20.42"/><circle class="cls-2" cx="572.33" cy="130.2" r="10.21"/><rect class="cls-1" x="591.46" y="139.61" width="19.07" height="19.07"/><circle class="cls-2" cx="600.99" cy="149.15" r="9.54"/><rect class="cls-1" x="617.62" y="74.24" width="19.7" height="19.7"/><circle class="cls-2" cx="627.47" cy="84.09" r="9.85"/><rect class="cls-1" x="665.37" y="116.64" width="25.63" height="25.63"/><circle class="cls-2" cx="678.18" cy="129.45" r="12.81"/><rect class="cls-1" x="728.35" y="77.7" width="23.28" height="23.28"/><circle class="cls-2" cx="739.99" cy="89.34" r="11.64"/><rect class="cls-1" x="768.31" y="61.34" width="21.2" height="21.2"/><circle class="cls-2" cx="778.91" cy="71.93" r="10.6"/><rect class="cls-1" x="833.58" y="63.07" width="21.64" height="21.64"/><circle class="cls-2" cx="844.4" cy="73.89" r="10.82"/><rect class="cls-1" x="857.12" y="67.52" width="19.03" height="19.03"/><circle class="cls-2" cx="866.64" cy="77.04" r="9.52"/><rect class="cls-1" x="874.82" y="38.63" width="23.19" height="23.19"/><circle class="cls-2" cx="886.41" cy="50.22" r="11.59"/><rect class="cls-1" x="914.56" y="91.84" width="25.46" height="25.46"/><circle class="cls-2" cx="927.29" cy="104.57" r="12.73"/><rect class="cls-1" x="929.51" y="40.5" width="24.71" height="24.71"/><circle class="cls-2" cx="941.87" cy="52.86" r="12.36"/><rect class="cls-1" x="1000.89" y="74.4" width="23.46" height="23.46"/><circle class="cls-2" cx="1012.62" cy="86.14" r="11.73"/><rect class="cls-1" x="1042.75" y="58.48" width="17.52" height="17.52"/><circle class="cls-2" cx="1051.51" cy="67.24" r="8.76"/><rect class="cls-1" x="1075.81" y="7.03" width="24.2" height="24.2"/><circle class="cls-2" cx="1087.91" cy="19.13" r="12.1"/><rect class="cls-1" x="1103.31" y="36.72" width="19.26" height="19.26"/><circle class="cls-2" cx="1112.94" cy="46.35" r="9.63"/><rect class="cls-1" x="1146.89" y="3.97" width="20.81" height="20.81"/><circle class="cls-2" cx="1157.3" cy="14.38" r="10.41"/><rect class="cls-1" x="1213.57" y="18.65" width="25.28" height="25.28"/><circle class="cls-2" cx="1226.21" cy="31.29" r="12.64"/><rect class="cls-1" x="1247.35" y="15.24" width="17.67" height="17.67"/><circle class="cls-2" cx="1256.19" cy="24.08" r="8.84"/><rect class="cls-1" x="1289.66" width="20.69" height="20.69"/><circle class="cls-2" cx="1300" cy="10.34" r="10.34"/><rect class="cls-1" x="1357.08" y="10.13" width="20.93" height="20.93"/><circle class="cls-2" cx="1367.54" cy="20.6" r="10.47"/><rect class="cls-1" x="1420.43" y="32.3" width="22.54" height="22.54"/><circle class="cls-2" cx="1431.7" cy="43.57" r="11.27"/><rect class="cls-1" x="1473.23" y="10.16" width="18.43" height="18.43"/><circle class="cls-2" cx="1482.45" cy="19.38" r="9.22"/><rect class="cls-1" x="1503.08" y="40.94" width="25.79" height="25.79"/><circle class="cls-2" cx="1515.98" cy="53.83" r="12.9"/><rect class="cls-1" x="1561.44" y="76.71" width="17.29" height="17.29"/><circle class="cls-2" cx="1570.08" cy="85.35" r="8.64"/><rect class="cls-1" x="1607.04" y="55.95" width="18.59" height="18.59"/><circle class="cls-2" cx="1616.34" cy="65.24" r="9.3"/><rect class="cls-1" x="1637.69" y="94.51" width="26.29" height="26.29"/><circle class="cls-2" cx="1650.84" cy="107.66" r="13.14"/></g></g></svg>