<svg xmlns="http://www.w3.org/2000/svg" viewBox="0 0 60 60"><defs><style>.cls-1{fill:#6f76b7;}.cls-2{fill:#c2c2e3;}.cls-3{fill:#e2e2f3;}.cls-4{fill:#9a9dce;}.cls-5{fill:#9699cc;}.cls-6{fill:#4252a0;}.cls-7{fill:#fff;}.cls-8{fill:#334798;}</style></defs><title>icons_02_visualDesign</title><g id="Layer_2" data-name="Layer 2"><g id="base"><g id="Page-1"><path id="Shape" class="cls-1" d="M16.49,46.52l-4.68,2.34a.5.5,0,0,1-.67-.67l2.34-4.68c.75.17,3.06-.67,3.58-.15S16.32,45.77,16.49,46.52Z"/><path class="cls-2" d="M42.9,43.49a1.05,1.05,0,0,1,.23-.36,1,1,0,0,1,1.41,0L47.43,46l-.59-7.67A41.88,41.88,0,0,1,37.65,32L37,31.33a2.67,2.67,0,0,1,.56.77l-.76.76L32.1,37.54a2.67,2.67,0,0,1-.77-.56l.66.67A38.83,38.83,0,0,1,37.92,46c.28.5.43.8.43.8l7.67.59-2.89-2.89A1,1,0,0,1,42.9,43.49Zm-1.72-2.31a1,1,0,1,1,0-1.41A1,1,0,0,1,41.18,41.18Z"/><path class="cls-3" d="M44.43,45l-.16-2.08-.43-5.59a46.05,46.05,0,0,1-7.06-4.49L32.1,37.54a2.67,2.67,0,0,1-.77-.56l.66.67A38.83,38.83,0,0,1,37.92,46l8,1Z"/><path class="cls-3" d="M36.63,36.63l-1.81-1.81,2.72-2.72A3.93,3.93,0,0,1,36.63,36.63Z"/><path class="cls-4" d="M36.63,36.63a3.93,3.93,0,0,1-4.53.91l2.72-2.72Z"/><path class="cls-1" d="M36.63,36.63a4.13,4.13,0,0,1-3.29,1.26,3.2,3.2,0,0,1-1.24-.35,2.67,2.67,0,0,1-.77-.56l-4.15-4.15L24.35,30,11.22,16.87a3,3,0,0,1,0-4.24l1.41-1.41a3,3,0,0,1,4.24,0L37,31.33a2.67,2.67,0,0,1,.56.77A3.93,3.93,0,0,1,36.63,36.63Z"/><path class="cls-5" d="M33.63,37.63l-.29.26a3.2,3.2,0,0,1-1.24-.35,2.67,2.67,0,0,1-.77-.56l-4.15-4.15L24.35,30,11.22,16.87a3,3,0,0,1,0-4.24l1.2-1.2a2.92,2.92,0,0,1,1.45.79L34,32.33a2.67,2.67,0,0,1,.56.77A3.93,3.93,0,0,1,33.63,37.63Z"/><rect id="Rectangle-path" class="cls-2" x="1" y="1" width="6" height="6" rx="1"/><rect class="cls-2" x="27" y="1" width="6" height="6" rx="1"/><rect class="cls-2" x="53" y="1" width="6" height="6" rx="1"/><rect class="cls-2" x="1" y="27" width="6" height="6" rx="1"/><rect class="cls-2" x="53" y="27" width="6" height="6" rx="1"/><rect class="cls-2" x="1" y="53" width="6" height="6" rx="1"/><rect class="cls-3" x="1" y="1" width="4" height="6" rx="1"/><rect class="cls-3" x="1" y="27" width="4" height="6" rx="1"/><rect class="cls-3" x="1" y="53" width="4" height="6" rx="1"/><rect class="cls-2" x="27" y="53" width="6" height="6" rx="1"/><rect class="cls-3" x="27" y="1" width="4" height="6" rx="1"/><rect class="cls-3" x="27" y="53" width="4" height="6" rx="1"/><rect class="cls-2" x="53" y="53" width="6" height="6" rx="1"/><rect class="cls-3" x="53" y="1" width="4" height="6" rx="1"/><rect class="cls-3" x="53" y="27" width="4" height="6" rx="1"/><rect class="cls-3" x="53" y="53" width="4" height="6" rx="1"/><path class="cls-1" d="M48.65,17,42.4,23.26l-2-2L36.86,17.5,43,11.35a3,3,0,0,1,3.92-.27,2.08,2.08,0,0,1,.32.27l1.41,1.41A3,3,0,0,1,48.65,17Z"/><path class="cls-5" d="M46.65,15l-6.21,6.22L36.86,17.5,43,11.35a3,3,0,0,1,3.92-.27A3,3,0,0,1,46.65,15Z"/><path class="cls-2" d="M21.78,43.87l-5.29,2.65a4,4,0,0,0-3-3l.61-1.21,2-4.08c.61.2,3.75.39,4.68.7L21,39C22.76,40.09,21.11,41.86,21.78,43.87Z"/><path class="cls-3" d="M20.78,41.87l-5.29,2.65a3.93,3.93,0,0,0-1.4-2.22l2-4.08c.61.2,3.75.39,4.68.7A6.68,6.68,0,0,0,20.78,41.87Z"/><path class="cls-6" d="M36.75,17.61a.58.58,0,0,0-.12.1"/><path class="cls-3" d="M42.4,23.26l-.11.11L21.78,43.87a8.93,8.93,0,0,0-5.65-5.65L36.75,17.61l.11-.11a3,3,0,0,1,4,.21l.71.71.71.71A3,3,0,0,1,42.4,23.26Z"/><path class="cls-2" d="M42.4,23.26l-.11.11L21.78,43.87a8.92,8.92,0,0,0-2.16-3.49l22-22,.71.71A3,3,0,0,1,42.4,23.26Z"/><path class="cls-7" d="M1.62,59h3a1,1,0,0,1-1-1V54a1,1,0,0,1,1-1h-3a1,1,0,0,0-1,1v4A1,1,0,0,0,1.62,59Z"/><path class="cls-7" d="M1.62,33h3a1,1,0,0,1-1-1V28a1,1,0,0,1,1-1h-3a1,1,0,0,0-1,1v4A1,1,0,0,0,1.62,33Z"/><path class="cls-7" d="M1.62,7h3a1,1,0,0,1-1-1V2a1,1,0,0,1,1-1h-3a1,1,0,0,0-1,1V6A1,1,0,0,0,1.62,7Z"/><path class="cls-8" d="M36.63,37.63a1,1,0,0,1-.71-.29l-2.63-2.63a1,1,0,0,1,1.42-1.42l2.63,2.63A1,1,0,0,1,37.55,37,1,1,0,0,1,36.63,37.63Z"/><path class="cls-8" d="M6,8H2A2,2,0,0,1,0,6V2A2,2,0,0,1,2,0H6A2,2,0,0,1,8,2V6A2,2,0,0,1,6,8ZM2,2V6H6V2Z"/><path class="cls-8" d="M32,8H28a2,2,0,0,1-2-2V2a2,2,0,0,1,2-2h4a2,2,0,0,1,2,2V6A2,2,0,0,1,32,8ZM28,2V6h4V2Z"/><path class="cls-8" d="M58,8H54a2,2,0,0,1-2-2V2a2,2,0,0,1,2-2h4a2,2,0,0,1,2,2V6A2,2,0,0,1,58,8ZM54,2V6h4V2Z"/><path class="cls-8" d="M6,34H2a2,2,0,0,1-2-2V28a2,2,0,0,1,2-2H6a2,2,0,0,1,2,2v4A2,2,0,0,1,6,34ZM2,28v4H6V28Z"/><path class="cls-8" d="M58,34H54a2,2,0,0,1-2-2V28a2,2,0,0,1,2-2h4a2,2,0,0,1,2,2v4A2,2,0,0,1,58,34Zm-4-6v4h4V28Z"/><path class="cls-8" d="M6,60H2a2,2,0,0,1-2-2V54a2,2,0,0,1,2-2H6a2,2,0,0,1,2,2v4A2,2,0,0,1,6,60ZM2,54v4H6V54Z"/><path class="cls-8" d="M32,60H28a2,2,0,0,1-2-2V54a2,2,0,0,1,2-2h4a2,2,0,0,1,2,2v4A2,2,0,0,1,32,60Zm-4-6v4h4V54Z"/><path class="cls-8" d="M58,60H54a2,2,0,0,1-2-2V54a2,2,0,0,1,2-2h4a2,2,0,0,1,2,2v4A2,2,0,0,1,58,60Zm-4-6v4h4V54Z"/><path class="cls-8" d="M4,28a1,1,0,0,1-1-1V7A1,1,0,0,1,5,7V27A1,1,0,0,1,4,28Z"/><path class="cls-8" d="M4,54a1,1,0,0,1-1-1V33a1,1,0,0,1,2,0V53A1,1,0,0,1,4,54Z"/><path class="cls-8" d="M56,28a1,1,0,0,1-1-1V7a1,1,0,0,1,2,0V27A1,1,0,0,1,56,28Z"/><path class="cls-8" d="M56,54a1,1,0,0,1-1-1V33a1,1,0,0,1,2,0V53A1,1,0,0,1,56,54Z"/><path class="cls-8" d="M53,5H33a1,1,0,0,1,0-2H53a1,1,0,0,1,0,2Z"/><path class="cls-8" d="M27,5H7A1,1,0,0,1,7,3H27a1,1,0,0,1,0,2Z"/><path class="cls-8" d="M53,57H33a1,1,0,0,1,0-2H53a1,1,0,0,1,0,2Z"/><path class="cls-8" d="M27,57H7a1,1,0,0,1,0-2H27a1,1,0,0,1,0,2Z"/><path class="cls-8" d="M10.47,50.53a1,1,0,0,1-.85-.47,1,1,0,0,1,0-1l5.66-11.31a1,1,0,0,1,.19-.26L42.29,10.64a4.09,4.09,0,0,1,5.65,0l1.42,1.42a4,4,0,0,1,0,5.65L22.49,44.58a1,1,0,0,1-.26.19L10.92,50.43A1,1,0,0,1,10.47,50.53ZM17,38.81,12.7,47.3l8.49-4.24L47.94,16.3a2,2,0,0,0,0-2.83l-1.41-1.41a2,2,0,0,0-2.83,0Z"/><path class="cls-8" d="M42.29,24.37a1,1,0,0,1-.92-.62,1,1,0,0,1,.21-1.09,2,2,0,0,0,0-2.83l-1.41-1.41a2,2,0,0,0-2.83,0A1,1,0,0,1,35.92,17a4,4,0,0,1,5.66,0L43,18.42a4,4,0,0,1,0,5.66A1,1,0,0,1,42.29,24.37Z"/><polygon class="cls-7" points="11.93 16.16 21.12 25.36 25.06 29.29 23.64 30.71 19.7 26.77 10.51 17.58 11.93 16.16"/><path class="cls-8" d="M14.76,20.41a1,1,0,0,0,0-1.42l-2.83-2.83-1.42,1.42,2.83,2.83A1,1,0,0,0,14.76,20.41Z"/><path class="cls-8" d="M23.64,30.71l1.42-1.42-4.65-4.64a1,1,0,0,0-1-.29,1,1,0,0,0-.72.72,1,1,0,0,0,.29,1Z"/><path class="cls-8" d="M17.58,21.82a1,1,0,0,0-.7-.3l-.19,0a.6.6,0,0,0-.19.06.46.46,0,0,0-.17.09l-.16.13a1,1,0,0,0-.3.7,1,1,0,0,0,1.38.92.93.93,0,0,0,.33-.21,1,1,0,0,0,.3-.71,1,1,0,0,0-.3-.7Z"/><path class="cls-8" d="M30,25.35a1,1,0,0,1-.71-.29L16.16,11.93a2,2,0,0,0-2.82,0l-1.41,1.41a2,2,0,0,0,0,2.82,1,1,0,0,1-1.42,1.42,4,4,0,0,1,0-5.66l1.41-1.41a4,4,0,0,1,5.66,0L30.71,23.64a1,1,0,0,1,.21,1.09A1,1,0,0,1,30,25.35Z"/><path class="cls-8" d="M37.65,33a1,1,0,0,1-.7-.29l-2-2a1,1,0,0,1,1.42-1.41l2,2a1,1,0,0,1-.7,1.72Z"/><path class="cls-8" d="M32,38.65a1,1,0,0,1-.71-.3l-2-2a1,1,0,0,1,1.42-1.41l2,2A1,1,0,0,1,32.92,38a1,1,0,0,1-.93.62Z"/><path class="cls-8" d="M21.78,44.87a1,1,0,0,1-1-.68,7.94,7.94,0,0,0-5-5,1,1,0,0,1-.67-.75,1,1,0,0,1,.32-1,1,1,0,0,1,1-.2,9.94,9.94,0,0,1,6.29,6.29,1,1,0,0,1-.14.9,1,1,0,0,1-.81.41Z"/><path class="cls-8" d="M16.49,47.52a1,1,0,0,1-1-.78,3,3,0,0,0-2.26-2.26,1,1,0,0,1,.44-1.95,5,5,0,0,1,3.77,3.77,1,1,0,0,1-1,1.22Z"/><path class="cls-8" d="M19.66,41.34a1,1,0,0,1-.92-.62A1,1,0,0,1,19,39.63L29.56,29A1,1,0,0,1,31,30.44L20.37,41.05A1,1,0,0,1,19.66,41.34Z"/><path class="cls-8" d="M33.1,27.9a1,1,0,0,1-.92-.62,1,1,0,0,1,.21-1.09l8.49-8.48a1,1,0,0,1,1.41,1.41L33.8,27.61A1,1,0,0,1,33.1,27.9Z"/><path class="cls-8" d="M47.54,48.54h-.07l-9.19-.7a1,1,0,0,1-.82-.55,40.68,40.68,0,0,0-6.18-8.93,1,1,0,0,1-.26-1,1,1,0,0,1,.71-.71,1,1,0,0,1,1,.26A41,41,0,0,1,39,45.88l7.47.58L45.89,39a41,41,0,0,1-9-6.28,1,1,0,1,1,1.41-1.41,41.22,41.22,0,0,0,8.93,6.17,1,1,0,0,1,.55.82l.71,9.19a1,1,0,0,1-.26.76,1,1,0,0,1-.74.32Z"/><path class="cls-8" d="M48.08,49.08a1,1,0,0,1-.71-.3l-4.24-4.24a1,1,0,0,1,1.41-1.41l4.24,4.24A1,1,0,0,1,49,48.46,1,1,0,0,1,48.08,49.08Z"/><circle id="Oval" class="cls-8" cx="40.47" cy="40.47" r="1"/></g></g></g></svg>