<svg xmlns="http://www.w3.org/2000/svg" xmlns:xlink="http://www.w3.org/1999/xlink" viewBox="0 0 60 60"><defs><style>.cls-1{fill:#9699cc;}.cls-2{fill:url(#linear-gradient);}.cls-3{fill:#f1d0da;}.cls-4{fill:#6f76b7;}.cls-5{fill:#c2c2e3;}.cls-6{fill:#e2e2f3;}.cls-7{fill:#fff;}.cls-8{fill:#334798;}</style><linearGradient id="linear-gradient" x1="3189.08" y1="5002.02" x2="3189.23" y2="5001.93" gradientTransform="matrix(196.27, 0, 0, -332.8, -625896.13, 1664692.39)" gradientUnits="userSpaceOnUse"><stop offset="0" stop-color="#cccce8"/><stop offset="0.17" stop-color="#cccce8"/><stop offset="0.2" stop-color="#cccce8"/><stop offset="0.2" stop-color="#d2d2eb"/><stop offset="0.2" stop-color="#e2e2f3"/><stop offset="0.2" stop-color="#fdf8fa"/><stop offset="0.2" stop-color="#efeff8"/><stop offset="0.2" stop-color="#f1f1f9"/><stop offset="0.25" stop-color="#f1f1f9"/><stop offset="0.26" stop-color="#f1f1f9"/><stop offset="0.26" stop-color="#cccce8"/><stop offset="0.4" stop-color="#cccce8"/><stop offset="0.42" stop-color="#cccce8"/><stop offset="0.42" stop-color="#d2d2eb"/><stop offset="0.42" stop-color="#e2e2f3"/><stop offset="0.42" stop-color="#fdf8fa"/><stop offset="0.42" stop-color="#efeff8"/><stop offset="0.42" stop-color="#f1f1f9"/><stop offset="0.49" stop-color="#f1f1f9"/><stop offset="0.5" stop-color="#f1f1f9"/><stop offset="0.5" stop-color="#fdf9fa"/><stop offset="0.5" stop-color="#dcdcf0"/><stop offset="0.5" stop-color="#d2d2eb"/><stop offset="0.5" stop-color="#cecee9"/><stop offset="0.5" stop-color="#cccce8"/><stop offset="0.71" stop-color="#cccce8"/><stop offset="0.74" stop-color="#cccce8"/><stop offset="0.74" stop-color="#f1f1f9"/><stop offset="0.83" stop-color="#f1f1f9"/><stop offset="0.85" stop-color="#f1f1f9"/><stop offset="0.85" stop-color="#cccce8"/></linearGradient></defs><title>icons_02_uiux</title><g id="Layer_2" data-name="Layer 2"><g id="base"><g id="Page-1"><path id="Shape" class="cls-1" d="M43,17V53H17V32.48l.33-16.84A3,3,0,0,1,20,14H40a3,3,0,0,1,1.74.56,2.91,2.91,0,0,1,.8.84A3,3,0,0,1,43,17Z"/><path class="cls-2" d="M40,17V53H17V32.48l.33-16.84A3,3,0,0,1,20,14H37a3,3,0,0,1,1.74.56,2.91,2.91,0,0,1,.8.84A3,3,0,0,1,40,17Z"/><path class="cls-3" d="M39.08,50.28l-1.16-.48a7.93,7.93,0,0,0,0-2.23l1.15-.48a2,2,0,0,0-1.53-3.7l-1.15.48a7.63,7.63,0,0,0-1.59-1.57l.48-1.17a1.91,1.91,0,0,0,0-1.52,2,2,0,0,0-3.69,0l-.48,1.17a8,8,0,0,0-2.24,0L28.4,39.6a2,2,0,0,0-2.61-1.08,2,2,0,0,0-1.08,2.62l.48,1.15a7.89,7.89,0,0,0-1.58,1.58l-1.16-.48a2,2,0,0,0-2.61,1.08,1.94,1.94,0,0,0,0,1.53,2,2,0,0,0,1.08,1.09l1.16.48a7.58,7.58,0,0,0,0,2.23l-1.16.48A1.88,1.88,0,0,0,20,51H40A2,2,0,0,0,39.08,50.28Zm-8.31.25a2,2,0,1,1,1.08-2.61A2,2,0,0,1,30.77,50.53Z"/><path class="cls-4" d="M20.93,43.4a.78.78,0,0,0-.2.11l.88.36a6.82,6.82,0,0,1,.49-.58A1.88,1.88,0,0,0,20.93,43.4Zm8-2.65.16,0v0Zm5.85,1.55.48-1.17a1.91,1.91,0,0,0,0-1.52,2,2,0,0,0-1.08-1.09,2,2,0,0,0-1.76.13,2,2,0,0,1,.84,1,1.91,1.91,0,0,1,0,1.52l-.48,1.17a7.63,7.63,0,0,1,1.59,1.57l1.15-.48a1.61,1.61,0,0,1,.36-.1A6.89,6.89,0,0,0,34.81,42.3Zm4.27,8-1.16-.48a7.93,7.93,0,0,0,0-2.23l1.15-.48a2,2,0,0,0-1.53-3.7l-.27.11a1.92,1.92,0,0,1,.88,1,2,2,0,0,1-1.08,2.61l-1.15.48a7.93,7.93,0,0,1,0,2.23l1.16.48A2,2,0,0,1,38,51h2A2,2,0,0,0,39.08,50.28Z"/><path class="cls-5" d="M28.87,40.74v0h0Zm8.21,2.66a1.88,1.88,0,0,0-1.17-.11,6.82,6.82,0,0,1,.49.58l.88-.37Z"/><path class="cls-1" d="M37.08,50.28l-1.16-.48a7.93,7.93,0,0,0,0-2.23l1.15-.48a2,2,0,0,0,1.08-2.61,1.92,1.92,0,0,0-.88-1l-.88.37a6.82,6.82,0,0,0-.49-.58,1.61,1.61,0,0,0-.36.1l-1.15.48a7.63,7.63,0,0,0-1.59-1.57l.48-1.17a1.91,1.91,0,0,0,0-1.52,2,2,0,0,0-.84-1,2,2,0,0,0-.85,1l-.48,1.17a7.37,7.37,0,0,0-2,0v0l-.16,0h-.08v0L28.4,39.6a2,2,0,0,0-2.61-1.08l-.25.13a2,2,0,0,0-.83,2.49l.48,1.15a7.89,7.89,0,0,0-1.58,1.58l-1.16-.48a1.4,1.4,0,0,0-.35-.1,6.82,6.82,0,0,0-.49.58l-.88-.36a1.82,1.82,0,0,0-.89,1,1.94,1.94,0,0,0,0,1.53,2,2,0,0,0,1.08,1.09l1.16.48a7.58,7.58,0,0,0,0,2.23l-1.16.48A1.88,1.88,0,0,0,20,51H38A2,2,0,0,0,37.08,50.28Zm-6.31.25A2,2,0,0,1,29,50.41a1.92,1.92,0,0,1-.86-1A2,2,0,0,1,29,47a.92.92,0,0,1,.24-.13,2,2,0,1,1,1.53,3.69Z"/><path class="cls-5" d="M43,51v5a3,3,0,0,1-3,3H20a3,3,0,0,1-3-3V51Z"/><path class="cls-6" d="M40,51v5a3,3,0,0,1-3,3H20a3,3,0,0,1-3-3V51Z"/><path class="cls-4" d="M13,52a3,3,0,0,1-3,3,2.85,2.85,0,0,1-1-.18,3,3,0,0,1,0-5.64A2.85,2.85,0,0,1,10,49,3,3,0,0,1,13,52Z"/><ellipse id="Oval" class="cls-1" cx="9" cy="52" rx="2" ry="2.82"/><path class="cls-5" d="M8.44,42.08l-5.5,4.71a1.23,1.23,0,0,1-1.28.06A1.24,1.24,0,0,1,1,45.75v-9.5a1.22,1.22,0,0,1,.91-1.2,1.18,1.18,0,0,1,1,.16L8.44,40a1.25,1.25,0,0,1,0,2.08Z"/><path class="cls-6" d="M6.44,41.08,1,45.74V36.25a1.22,1.22,0,0,1,.91-1.2l4.53,4a1.25,1.25,0,0,1,0,2.08Z"/><path class="cls-4" d="M59,22v8a2,2,0,0,1-2,2H54a2,2,0,0,0,2-2V22a2,2,0,0,0-2-2h3A2,2,0,0,1,59,22Z"/><path class="cls-1" d="M56,22v8a2,2,0,0,1-2,2H38l-8,4,4-8V22a2,2,0,0,1,2-2H54A2,2,0,0,1,56,22Z"/><path class="cls-5" d="M23,24a9,9,0,0,1-9,9,9.48,9.48,0,0,1-1.5-.12,9,9,0,0,1,0-17.76A9.48,9.48,0,0,1,14,15,9,9,0,0,1,23,24Z"/><ellipse class="cls-6" cx="12.5" cy="24" rx="7.5" ry="8.88"/><path class="cls-7" d="M19.63,59h3a3,3,0,0,1-3-3V46.36a2,2,0,0,1-.16-1.85,1,1,0,0,1,.16-.25V32.52a9.06,9.06,0,0,1-3,.52V56A3,3,0,0,0,19.63,59Z"/><path class="cls-7" d="M12.13,15.16a9,9,0,0,0,0,17.76,9.29,9.29,0,0,0,1.5.12,7.9,7.9,0,0,0,1.45-.13,9,9,0,0,1,0-17.74A10.15,10.15,0,0,0,13.63,15,9.29,9.29,0,0,0,12.13,15.16Z"/><path class="cls-7" d="M17.36,15.08a8.82,8.82,0,0,1,2.59.61,3,3,0,0,1,2.67-1.64h-3A3,3,0,0,0,17.36,15.08Z"/><path class="cls-7" d="M8.63,54.86a2.77,2.77,0,0,0,1,.18,3,3,0,0,0,1.5-.41,3,3,0,0,1,0-5.17A3,3,0,0,0,9.63,49a2.77,2.77,0,0,0-1,.18,3,3,0,0,0,0,5.64Z"/><path class="cls-7" d="M2.57,46.83l1.07-.92s0-.08,0-.12v-9.5s0-.07,0-.1l-1.07-.94a1.28,1.28,0,0,0-1-.16,1.24,1.24,0,0,0-.91,1.2v9.5a1.27,1.27,0,0,0,.66,1.1A1.25,1.25,0,0,0,2.57,46.83Z"/><path class="cls-8" d="M40,60H20a4,4,0,0,1-4-4V32.48a1,1,0,0,1,2,0V56a2,2,0,0,0,2,2H40a2,2,0,0,0,2-2V33H38.24l-7.79,3.9a1,1,0,0,1-1.35-1.34l3.9-7.8V22a3,3,0,0,1,3-3h6V17a2,2,0,0,0-2-2H20a2,2,0,0,0-1.78,1.09,1,1,0,0,1-.84.58,1,1,0,0,1-.91-.46,1,1,0,0,1,0-1A4,4,0,0,1,20,13H40a4,4,0,0,1,4,4v3a1,1,0,0,1-1,1H36a1,1,0,0,0-1,1v6a1,1,0,0,1-.1.45l-2.66,5.31,5.32-2.66A1.13,1.13,0,0,1,38,31h5a1,1,0,0,1,1,1V56A4,4,0,0,1,40,60Z"/><path class="cls-8" d="M43,52H17a1,1,0,0,1,0-2H43a1,1,0,0,1,0,2Z"/><path class="cls-8" d="M32,19H28a1,1,0,0,1,0-2h4a1,1,0,0,1,0,2Z"/><path class="cls-8" d="M32,56H28a1,1,0,0,1,0-2h4a1,1,0,0,1,0,2Z"/><path class="cls-8" d="M30,51.69a3,3,0,1,1,1.15-.23A3.19,3.19,0,0,1,30,51.69Zm0-4a.83.83,0,0,0-.38.07,1,1,0,1,0,1.38.83,1,1,0,0,0-1-.9Z"/><path class="cls-8" d="M30,51.69a3,3,0,1,1,1.15-.23A3.19,3.19,0,0,1,30,51.69Zm0-4a.83.83,0,0,0-.38.07,1,1,0,1,0,1.38.83,1,1,0,0,0-1-.9Z"/><path class="cls-8" d="M20,52a1,1,0,0,1-.88-.53,1,1,0,0,1,0-1,3,3,0,0,1,1.34-1.1l.47-.19a7.53,7.53,0,0,1,0-.95l-.47-.2a3,3,0,0,1,2.29-5.55l.48.2A8.59,8.59,0,0,1,24,42l-.19-.46a3,3,0,0,1,1.62-3.92,3,3,0,0,1,2.32,0,2.9,2.9,0,0,1,1.59,1.6l.2.49a7.69,7.69,0,0,1,1,0l.2-.48a3,3,0,0,1,5.54,0,2.92,2.92,0,0,1,0,2.3L36,42a8.61,8.61,0,0,1,.68.67l.47-.2a2.94,2.94,0,0,1,2.31,0,2.86,2.86,0,0,1,1.6,1.62A3,3,0,0,1,39.46,48l-.47.2a7.53,7.53,0,0,1,0,1l.48.2a3,3,0,0,1,1.32,1.08,1,1,0,0,1-1.66,1.12.9.9,0,0,0-.42-.35l-1.17-.48a1,1,0,0,1-.6-1.08,7,7,0,0,0,0-1.94,1,1,0,0,1,.61-1.06l1.15-.48a1,1,0,0,0-.76-1.85l-1.15.48a1,1,0,0,1-1.18-.32,6.54,6.54,0,0,0-1.37-1.36,1,1,0,0,1-.35-1.2l.48-1.17a.89.89,0,0,0,0-.75,1,1,0,0,0-.53-.55,1,1,0,0,0-.78,0,1,1,0,0,0-.53.53l-.48,1.17a1,1,0,0,1-1.07.61,7.64,7.64,0,0,0-2,0,1,1,0,0,1-1.05-.6L27.48,40a1,1,0,0,0-1.31-.54,1,1,0,0,0-.53,1.31l.48,1.15a1,1,0,0,1-.33,1.18,7.16,7.16,0,0,0-1.37,1.38,1,1,0,0,1-1.19.33l-1.16-.48a1,1,0,0,0-1.3.54,1,1,0,0,0,0,.76,1,1,0,0,0,.54.55l1.17.48a1,1,0,0,1,.6,1.07,7,7,0,0,0,0,1.94,1,1,0,0,1-.61,1.07l-1.16.48a.94.94,0,0,0-.42.34A1,1,0,0,1,20,52Zm10-.31a3,3,0,1,1,1.15-.23A3.19,3.19,0,0,1,30,51.69Zm0-4a.83.83,0,0,0-.38.07,1,1,0,1,0,1.38.83A1,1,0,0,0,30,47.69Z"/><path class="cls-8" d="M34,12a1,1,0,0,1-1-1V8H10a1,1,0,0,1,0-2H34a1,1,0,0,1,1,1v4A1,1,0,0,1,34,12Z"/><path class="cls-8" d="M26,12a1,1,0,0,1-1-1V7a1,1,0,0,1,2,0v4A1,1,0,0,1,26,12Z"/><path class="cls-8" d="M30,11a1,1,0,0,1-1-1V7a1,1,0,0,1,2,0v3A1,1,0,0,1,30,11Z"/><path class="cls-8" d="M36,8H34a1,1,0,0,1,0-2h2a1,1,0,0,1,0,2Z"/><path class="cls-8" d="M10,56a4,4,0,1,1,4-4A4,4,0,0,1,10,56Zm0-6a2,2,0,1,0,2,2A2,2,0,0,0,10,50Z"/><path class="cls-8" d="M2.25,48A2.25,2.25,0,0,1,0,45.75v-9.5a2.25,2.25,0,0,1,3.5-1.87l.1.08,5.46,4.75a2.25,2.25,0,0,1,0,3.66L3.59,47.55l-.1.07A2.19,2.19,0,0,1,2.25,48Zm0-12a.27.27,0,0,0-.12,0,.23.23,0,0,0-.13.22v9.5a.24.24,0,0,0,.11.21.26.26,0,0,0,.24,0l5.44-4.66.1-.07a.26.26,0,0,0,0-.42l-.1-.08L2.35,36l-.1,0Z"/><path class="cls-8" d="M57,33H43a1,1,0,0,1,0-2H57a1,1,0,0,0,1-1V22a1,1,0,0,0-1-1H43a1,1,0,0,1,0-2H57a3,3,0,0,1,3,3v8A3,3,0,0,1,57,33Z"/><path class="cls-8" d="M30,37a1,1,0,0,1-.85-.47,1,1,0,0,1,0-1L33,27.76V22a3,3,0,0,1,3-3h7a1,1,0,0,1,0,2H36a1,1,0,0,0-1,1v6a1,1,0,0,1-.1.45l-2.66,5.31,5.32-2.66A1.13,1.13,0,0,1,38,31h5a1,1,0,0,1,0,2H38.24l-7.79,3.9A1,1,0,0,1,30,37Z"/><path class="cls-8" d="M40,25H38a1,1,0,0,1,0-2h2a1,1,0,0,1,0,2Z"/><path class="cls-8" d="M54,25H45a1,1,0,0,1,0-2h9a1,1,0,0,1,0,2Z"/><path class="cls-7" d="M14,16a8,8,0,0,0-8,7.49A8,8,0,0,0,14,32v2A10,10,0,0,1,7.39,16.5,10.11,10.11,0,0,1,14,14Z"/><path class="cls-8" d="M9.26,16.36a1,1,0,0,0,1.3.42A8,8,0,0,1,14,16V14a10,10,0,0,0-4.3,1,.95.95,0,0,0-.44,1.38Z"/><path class="cls-8" d="M14,34V32a8,8,0,0,1-6-2.72A7.91,7.91,0,0,1,6.07,23a6.35,6.35,0,0,1,.16-.87,1.06,1.06,0,0,0-.68-1.19,1,1,0,0,0-1.26.72,8,8,0,0,0-.2,1.09A10,10,0,0,0,14,34Z"/><path class="cls-8" d="M7.79,19A1,1,0,0,0,8,18.29l0-.19a1.07,1.07,0,0,0-.07-.19.56.56,0,0,0-.09-.17l-.13-.15A.89.89,0,0,0,7,17.31,1.09,1.09,0,0,0,6,18.5a.85.85,0,0,0,.15.37,1.07,1.07,0,0,0,.28.28,1.19,1.19,0,0,0,.74.16A1,1,0,0,0,7.79,19Z"/><path class="cls-8" d="M14,34a1,1,0,0,1,0-2,8,8,0,0,0,0-16,1,1,0,0,1,0-2,10,10,0,0,1,0,20Z"/><path class="cls-8" d="M14,29a5,5,0,0,1-4.33-2.5,1,1,0,0,1,0-1,1,1,0,0,1,1.74,0,3,3,0,0,0,5.18,0,1,1,0,0,1,1.74,0,1,1,0,0,1,0,1A5,5,0,0,1,14,29Z"/><path class="cls-8" d="M17,30a1,1,0,0,1-.84-.46l-1-1.54a1,1,0,0,1-.05-1,1,1,0,0,1,.84-.55,1,1,0,0,1,.89.47l1,1.54A1,1,0,0,1,17,30Z"/><path class="cls-8" d="M47,8a1,1,0,0,1-1-1V5a1,1,0,0,1,2,0V7A1,1,0,0,1,47,8Z"/><path class="cls-8" d="M45,10H43a1,1,0,0,1,0-2h2a1,1,0,0,1,0,2Z"/><path class="cls-8" d="M47,14a1,1,0,0,1-1-1V11a1,1,0,0,1,2,0v2A1,1,0,0,1,47,14Z"/><path class="cls-8" d="M51,10H49a1,1,0,0,1,0-2h2a1,1,0,0,1,0,2Z"/><path class="cls-8" d="M9,8A4,4,0,0,1,6.13,6.78a1,1,0,0,1-.26-.91,1,1,0,0,1-.66-.62A3.81,3.81,0,0,1,5,4,4,4,0,1,1,9,8ZM7.13,5.13a1,1,0,0,1,.44.27A2,2,0,1,0,7,4a1.84,1.84,0,0,0,.09.57A1,1,0,0,1,7.13,5.13Z"/><path class="cls-8" d="M9,14a4,4,0,0,1-4-4,3.81,3.81,0,0,1,.21-1.25,1,1,0,0,1,.66-.62,1,1,0,0,1,.26-.91A4,4,0,1,1,9,14ZM7.13,8.87a1,1,0,0,1,0,.56A1.84,1.84,0,0,0,7,10a2,2,0,1,0,3.1-1.68,2,2,0,0,0-2.53.28A1,1,0,0,1,7.13,8.87Z"/><path class="cls-8" d="M4,11A4,4,0,1,1,6.83,9.83,4,4,0,0,1,4,11ZM4,5A2,2,0,1,0,6,7,2,2,0,0,0,4,5Z"/><circle class="cls-8" cx="11" cy="22" r="1"/><circle class="cls-8" cx="17" cy="22" r="1"/></g></g></g></svg>