<svg xmlns="http://www.w3.org/2000/svg" viewBox="0 0 60 60"><defs><style>.cls-1{fill:#c2c2e3;}.cls-2{fill:#e2e2f3;}.cls-3{fill:#fff;}.cls-4{fill:#6f76b7;}.cls-5{fill:#9699cc;}.cls-6{fill:#334798;}</style></defs><title>icons_02_photogrphy</title><g id="Layer_2" data-name="Layer 2"><g id="base"><g id="Page-1"><path id="Shape" class="cls-1" d="M14,11v5H6V11A2,2,0,0,1,8,9h4A2,2,0,0,1,14,11Z"/><path class="cls-2" d="M11,11v5H6V11A2,2,0,0,1,8,9H9A2,2,0,0,1,11,11Z"/><path class="cls-1" d="M50,19l-5.45,2H33.45L28,19l3.25-8.11a3.11,3.11,0,0,1,.2-.41L33.53,9h0A2.7,2.7,0,0,1,34,9H44a3,3,0,0,1,2.78,1.89Z"/><path class="cls-2" d="M47,19l-5.45,2h-8.1L28,19l3.25-8.11a3.11,3.11,0,0,1,.2-.41L33.53,9h0A2.7,2.7,0,0,1,34,9H41a3,3,0,0,1,2.78,1.89Z"/><path class="cls-2" d="M37,7.12a6,6,0,0,0-3.18,1.66L33.54,9h0A6.09,6.09,0,0,0,32.12,12,.1.1,0,0,1,32,12a.1.1,0,0,1-.09-.07,5.57,5.57,0,0,0-.48-1.48s0,0,0,0a5.79,5.79,0,0,0-.76-1.2,5,5,0,0,0-.43-.49,5.92,5.92,0,0,0-2.6-1.52,5.45,5.45,0,0,0-.58-.14A.1.1,0,0,1,27,7a.1.1,0,0,1,.07-.1l.08,0a6,6,0,0,0,4.2-3.12,6.49,6.49,0,0,0,.57-1.71A.1.1,0,0,1,32,2a.1.1,0,0,1,.1.07,5.88,5.88,0,0,0,1.66,3.18,7.84,7.84,0,0,0,.61.54,5.5,5.5,0,0,0,.5.34A5.67,5.67,0,0,0,37,6.93.1.1,0,0,1,37,7,.1.1,0,0,1,37,7.12Z"/><path class="cls-3" d="M35,6.12l-.07,0a5.93,5.93,0,0,0-3.11,1.64L31.54,8h0a6.08,6.08,0,0,0-.84,1.23,5,5,0,0,0-.43-.49,5.92,5.92,0,0,0-2.6-1.52,4.1,4.1,0,0,0-.5-.35,6,6,0,0,0,4.2-3.12,6.14,6.14,0,0,0,.42.47A5.93,5.93,0,0,0,34.39,5.8c.19,0,.38.1.57.13A.1.1,0,0,1,35,6,.1.1,0,0,1,35,6.12Z"/><path class="cls-1" d="M59,54a5,5,0,0,1-5,5H14c2.76,0,5-6.24,5-9H47.39Z"/><path class="cls-2" d="M56,54a5,5,0,0,1-5,5H14c2.76,0,5-6.24,5-9H44.39Z"/><path class="cls-1" d="M59,24,45.17,28H19V19H54A5,5,0,0,1,59,24Z"/><path class="cls-2" d="M56,24,42.17,28H19V19H51A5,5,0,0,1,56,24Z"/><polygon class="cls-1" points="59 24 59 54 47.39 54 45.17 24 59 24"/><polygon class="cls-2" points="56 24 56 54 47.39 54 45.17 24 56 24"/><polygon class="cls-2" points="31.61 54 19 54 19 24 33.83 24 31.61 54"/><rect id="Rectangle-path" class="cls-1" x="1" y="21" width="18" height="33"/><rect class="cls-2" x="1" y="21" width="15" height="33"/><path class="cls-1" d="M45.17,24a16.4,16.4,0,0,0-5.67-1c-.5,0-1,0-1.48.06a16.88,16.88,0,0,1,4.15.94A16.5,16.5,0,0,1,38,55.93c.5,0,1,.07,1.5.07a16.5,16.5,0,0,0,5.67-32Z"/><path class="cls-1" d="M51.2,35.11A12.5,12.5,0,0,0,39.5,27a12.12,12.12,0,0,0-1.48.09,12.5,12.5,0,0,1,0,24.82A12.79,12.79,0,0,0,39.5,52a12.41,12.41,0,0,0,4.39-.8A12.49,12.49,0,0,0,51.2,35.11Z"/><path class="cls-2" d="M42.17,24A16.88,16.88,0,0,0,38,23.06s0,0,0,0a16.88,16.88,0,0,0-4.15.94A16.5,16.5,0,0,0,38,55.93,16.5,16.5,0,0,0,42.17,24Zm1.72,27.2a12.41,12.41,0,0,1-4.39.8A12.79,12.79,0,0,1,38,51.91a12.28,12.28,0,0,1-3.65-1A12.5,12.5,0,0,1,38,27.09,12.12,12.12,0,0,1,39.5,27a12.5,12.5,0,0,1,4.39,24.2Z"/><path class="cls-4" d="M43.89,51.2a12.48,12.48,0,0,1-9.56-.32l.1-1L35.16,43l.24-2.3,2.06,2.54,1.45,1.8,3.86,4.75Z"/><path class="cls-1" d="M42.77,49.81a12.2,12.2,0,0,1-4.27.76,12.5,12.5,0,0,1-4.07-.68L35.16,43l.24-2.3,2.06,2.54,1.45,1.8Z"/><path class="cls-1" d="M38.28,35.4l-2.54,2.06-1.8,1.45-6.14,5a12.48,12.48,0,0,1,.32-9.56l7.86.83Z"/><polygon class="cls-4" points="43.6 38.28 43.26 41.54 40.72 43.6 37.46 43.26 35.4 40.72 35.74 37.46 38.28 35.4 41.54 35.74 43.6 38.28"/><path class="cls-4" d="M44.67,28.12,43.84,36l-.24,2.3-.74-.91-1.32-1.63-1.45-1.8L36,28.87l-.87-1.07A12.48,12.48,0,0,1,44.67,28.12Z"/><path class="cls-1" d="M43.67,29.73l-.81,7.64-1.32-1.63-1.45-1.8L36,28.87A12.41,12.41,0,0,1,43.67,29.73Z"/><path class="cls-4" d="M52,39.5a12.46,12.46,0,0,1-1.12,5.17L49,44.47,43,43.84l-2.3-.24,2.54-2.06,1.8-1.45L49.6,36.4l1.6-1.29A12.41,12.41,0,0,1,52,39.5Z"/><path class="cls-1" d="M50,39.5a12.34,12.34,0,0,1-1,5L43,43.84l-2.3-.24,2.54-2.06,1.8-1.45L49.6,36.4A12,12,0,0,1,50,39.5Z"/><path class="cls-1" d="M35.74,37.46l-.34,3.26L35.16,43l-.83,7.86a12.58,12.58,0,0,1-6.53-7l6.14-5Z"/><path class="cls-1" d="M41.54,35.74l-3.26-.34L36,35.16l-7.86-.83a12.58,12.58,0,0,1,7-6.53l5,6.14Z"/><path class="cls-4" d="M51.2,35.11l-6.14,5-1.8,1.45.09-.83.25-2.43.24-2.3.65-6.17.18-1.69A12.58,12.58,0,0,1,51.2,35.11Z"/><path class="cls-1" d="M49.33,35.86l-6,4.85.25-2.43.24-2.3.65-6.17A12.59,12.59,0,0,1,49.33,35.86Z"/><path class="cls-4" d="M50.88,44.67a12.58,12.58,0,0,1-7,6.53l-1-1.28-3.94-4.86-1.45-1.8,3.26.34,2.3.24,5.75.61Z"/><path class="cls-1" d="M48.77,44.45a12.62,12.62,0,0,1-5.92,5.47l-3.94-4.86-1.45-1.8,3.26.34,2.3.24Z"/><polygon class="cls-4" points="44.55 19 33.45 19 35.71 14 42.29 14 44.55 19"/><polygon class="cls-5" points="41.55 19 33.45 19 35.71 14 39.29 14 41.55 19"/><path class="cls-1" d="M19,19v3H1V19a5,5,0,0,1,5-5h8A5,5,0,0,1,19,19Z"/><path class="cls-2" d="M16,19v3H1V19a5,5,0,0,1,5-5h5A5,5,0,0,1,16,19Z"/><path class="cls-1" d="M19,52v2a5,5,0,0,1-5,5H6a5,5,0,0,1-5-5V52Z"/><path class="cls-2" d="M16,52v2a5,5,0,0,1-5,5H6a5,5,0,0,1-5-5V52Z"/><path class="cls-3" d="M5.62,59h3a5,5,0,0,1-5-5V19a5,5,0,0,1,5-5V11a2,2,0,0,1,2-2h-3a2,2,0,0,0-2,2v3a5,5,0,0,0-5,5V54a5,5,0,0,0,5,5Z"/><polygon class="cls-3" points="0 54 0 41 0 19 2 19 2 41 2 54 0 54"/><path class="cls-6" d="M1,49a1,1,0,0,0-1,1v4H2V50A1,1,0,0,0,1,49Z"/><path class="cls-6" d="M2,19H0V42a1,1,0,0,0,2,0Z"/><path class="cls-6" d="M0,46a1.05,1.05,0,0,0,.29.71l.15.12.18.09A.64.64,0,0,0,.8,47L1,47a1.05,1.05,0,0,0,.71-.29,1.15,1.15,0,0,0,.21-.33,1,1,0,0,0-.21-1.09,1.15,1.15,0,0,0-.33-.21A1,1,0,0,0,1,45a1.05,1.05,0,0,0-.71.29A1.05,1.05,0,0,0,0,46Z"/><polygon class="cls-3" points="2 19 2 32 2 54 0 54 0 32 0 19 2 19"/><path class="cls-6" d="M1,24a1,1,0,0,0,1-1V19H0v4A1,1,0,0,0,1,24Z"/><path class="cls-6" d="M0,54H2V31a1,1,0,0,0-2,0Z"/><path class="cls-6" d="M2,27a1.05,1.05,0,0,0-.29-.71l-.15-.12a.76.76,0,0,0-.18-.09L1.2,26,1,26a1.05,1.05,0,0,0-.71.29,1.15,1.15,0,0,0-.21.33,1,1,0,0,0,.21,1.09,1.15,1.15,0,0,0,.33.21A1,1,0,0,0,1,28a1.05,1.05,0,0,0,.71-.29A1,1,0,0,0,2,27Z"/><polygon class="cls-3" points="2 22 2 35 2 54 0 54 0 35 0 22 2 22"/><path class="cls-6" d="M1,27a1,1,0,0,0,1-1V22H0v4A1,1,0,0,0,1,27Z"/><path class="cls-6" d="M0,54H2V34a1,1,0,0,0-2,0Z"/><path class="cls-6" d="M2,30a1.05,1.05,0,0,0-.29-.71l-.15-.12a.76.76,0,0,0-.18-.09L1.2,29,1,29a1.05,1.05,0,0,0-.71.29,1.15,1.15,0,0,0-.21.33,1,1,0,0,0,.21,1.09,1.15,1.15,0,0,0,.33.21A1,1,0,0,0,1,31a1.05,1.05,0,0,0,.71-.29A1,1,0,0,0,2,30Z"/><path class="cls-6" d="M54,60H6a6,6,0,0,1-6-6,1,1,0,0,1,2,0,4,4,0,0,0,4,4H54a4,4,0,0,0,4-4V24a4,4,0,0,0-4-4H19a1,1,0,0,1,0-2H54a6,6,0,0,1,6,6V54A6,6,0,0,1,54,60Z"/><path class="cls-6" d="M14,60H6a6,6,0,0,1-6-6,1,1,0,0,1,2,0,4,4,0,0,0,4,4h8a4,4,0,0,0,4-4V19a4,4,0,0,0-4-4H6a4,4,0,0,0-4,4,1,1,0,0,1-2,0,6,6,0,0,1,6-6h8a6,6,0,0,1,6,6V54A6,6,0,0,1,14,60Z"/><path class="cls-6" d="M14,15H6a1,1,0,0,1-1-1V11A3,3,0,0,1,8,8h4a3,3,0,0,1,3,3v3A1,1,0,0,1,14,15ZM7,13h6V11a1,1,0,0,0-1-1H8a1,1,0,0,0-1,1Z"/><path class="cls-6" d="M59,55H47.39a1,1,0,0,1,0-2H58V25H45.17a1,1,0,0,1,0-2H59a1,1,0,0,1,1,1V54A1,1,0,0,1,59,55Z"/><path class="cls-6" d="M33.83,25H28a1,1,0,0,1,0-2h5.83a1,1,0,0,1,0,2Z"/><path class="cls-6" d="M31.61,55H19a1,1,0,0,1-1-1V24a1,1,0,0,1,1-1h3a1,1,0,0,1,0,2H20V53H31.61a1,1,0,0,1,0,2Z"/><path class="cls-6" d="M19,55a1,1,0,0,1-1-1V23H1a1,1,0,0,1,0-2H19a1,1,0,0,1,1,1V54A1,1,0,0,1,19,55Z"/><path class="cls-6" d="M39.5,57A17.5,17.5,0,1,1,56.75,42.55,17.51,17.51,0,0,1,39.5,57Zm0-33a15.06,15.06,0,0,0-5.32.94,15.5,15.5,0,1,0,10.64,0A15.06,15.06,0,0,0,39.5,24Zm0,29a13.49,13.49,0,0,1-5.59-1.21,13.73,13.73,0,0,1-7-7.55,13.5,13.5,0,1,1,24.93.84,13.72,13.72,0,0,1-7.55,7.06A13.44,13.44,0,0,1,39.5,53Zm0-25a11.38,11.38,0,0,0-4,.74,11.63,11.63,0,0,0-6.43,6,11.5,11.5,0,0,0-.3,8.79,11.73,11.73,0,0,0,6,6.43,11.5,11.5,0,0,0,8.79.3,11.65,11.65,0,0,0,6.44-6,11.5,11.5,0,0,0,.3-8.79,11.63,11.63,0,0,0-6-6.43A11.34,11.34,0,0,0,39.5,28Zm1.22,16.6h-.1l-3.26-.35a.94.94,0,0,1-.67-.36l-2.06-2.54a1,1,0,0,1-.22-.73l.34-3.26a1,1,0,0,1,.36-.68l2.54-2.06a1,1,0,0,1,.74-.21l3.26.34a1,1,0,0,1,.67.36l2.06,2.54a1,1,0,0,1,.22.73l-.34,3.26a1,1,0,0,1-.37.68l-2.54,2.06A1,1,0,0,1,40.72,44.6ZM38,42.31l2.43.25L42.31,41l.25-2.43L41,36.69l-2.44-.26L36.69,38l-.25,2.44Z"/><path class="cls-6" d="M34.33,51.88a1,1,0,0,1-.42-.09,13.73,13.73,0,0,1-7-7.55,1,1,0,0,1,.31-1.13l7.94-6.43a1,1,0,0,1,1.62.88L35.32,51a1,1,0,0,1-1,.9ZM29,44.2a11.6,11.6,0,0,0,4.48,5.1l1-9.55Z"/><path class="cls-6" d="M27.8,44.89a1.09,1.09,0,0,1-.26,0,1.06,1.06,0,0,1-.68-.61,13.5,13.5,0,0,1,.35-10.33,1,1,0,0,1,1-.58l10.15,1.07a1,1,0,0,1,.86.71,1,1,0,0,1-.33,1.06L28.43,44.67A1,1,0,0,1,27.8,44.89Zm.95-9.49a11.55,11.55,0,0,0-.43,6.78l7.45-6Z"/><path class="cls-6" d="M41.54,36.74h-.1L28,35.33a1,1,0,0,1-.76-.51,1,1,0,0,1,0-.9,13.67,13.67,0,0,1,7.54-7.06,1,1,0,0,1,1.13.31l6.43,7.94a1,1,0,0,1-.77,1.63ZM29.7,33.49l9.55,1L34.8,29A11.73,11.73,0,0,0,29.7,33.49Z"/><path class="cls-6" d="M43.6,39.28a1,1,0,0,1-.78-.37L34.33,28.43a1,1,0,0,1,.43-1.56,13.48,13.48,0,0,1,10.32.34,1,1,0,0,1,.58,1L44.59,38.38a1,1,0,0,1-1,.9Zm-6.78-11,6,7.46.75-7A11.55,11.55,0,0,0,36.82,28.32Z"/><path class="cls-6" d="M43.26,42.54a1,1,0,0,1-.74-.33,1,1,0,0,1-.25-.77L43.68,28a1,1,0,0,1,1.4-.8,13.65,13.65,0,0,1,7.06,7.55,1,1,0,0,1-.31,1.13l-7.94,6.43A1,1,0,0,1,43.26,42.54ZM45.51,29.7l-1,9.55L50,34.8A11.78,11.78,0,0,0,45.51,29.7Z"/><path class="cls-6" d="M50.88,45.67h-.11L40.62,44.6a1,1,0,0,1-.86-.71,1,1,0,0,1,.33-1.06l10.48-8.49a1,1,0,0,1,.89-.19,1,1,0,0,1,.67.61,13.46,13.46,0,0,1-.34,10.33A1,1,0,0,1,50.88,45.67Zm-7.66-2.81,7,.74a11.47,11.47,0,0,0,.44-6.78Z"/><path class="cls-6" d="M43.89,52.2a1,1,0,0,1-.78-.37l-6.43-7.94a1,1,0,0,1-.1-1.11,1,1,0,0,1,1-.51L51,43.68a1,1,0,0,1,.8,1.41,13.68,13.68,0,0,1-7.54,7A1,1,0,0,1,43.89,52.2Zm-4.14-7.7L44.2,50a11.73,11.73,0,0,0,5.1-4.48Z"/><path class="cls-6" d="M39.5,53a13.49,13.49,0,0,1-5.59-1.21,1,1,0,0,1-.57-1l1.07-10.16a1,1,0,0,1,.71-.86,1,1,0,0,1,1.06.33l8.49,10.48a1,1,0,0,1,.18.89,1,1,0,0,1-.61.68A13.44,13.44,0,0,1,39.5,53Zm-4.1-2.75a11.55,11.55,0,0,0,6.78.43l-6-7.45Z"/><path class="cls-6" d="M40.72,44.6h-.1l-3.26-.35a.94.94,0,0,1-.67-.36l-2.06-2.54a1,1,0,0,1-.22-.73l.34-3.26a1,1,0,0,1,.36-.68l2.54-2.06a1,1,0,0,1,.74-.21l3.26.34a1,1,0,0,1,.67.36l2.06,2.54a1,1,0,0,1,.22.73l-.34,3.26a1,1,0,0,1-.37.68l-2.54,2.06A1,1,0,0,1,40.72,44.6ZM38,42.31l2.43.25L42.31,41l.25-2.43L41,36.69l-2.44-.26L36.69,38l-.25,2.44Z"/><path class="cls-6" d="M19,53H1a1,1,0,0,1,0-2H19a1,1,0,0,1,0,2Z"/><path class="cls-6" d="M50,20H28a1,1,0,0,1-.93-1.37l3.25-8.11a4,4,0,0,1,.22-.46A1,1,0,0,1,32.33,10a1,1,0,0,1,0,1l-.12.26L29.48,18h19l-2.7-6.74A2,2,0,0,0,44,10H34l-.31,0a1,1,0,0,1-1-.31,1,1,0,0,1-.18-1,1,1,0,0,1,.78-.65A4,4,0,0,1,34,8H44a4,4,0,0,1,3.71,2.52l3.25,8.11a1,1,0,0,1-.1.93A1,1,0,0,1,50,20Z"/><path class="cls-6" d="M44.55,20a1,1,0,0,1-.91-.59l-2-4.41H36.35l-2,4.41a1,1,0,0,1-1.82-.82l2.26-5a1,1,0,0,1,.91-.59h6.58a1,1,0,0,1,.91.59l2.26,5a1,1,0,0,1,0,.76,1,1,0,0,1-.93.65Z"/><path class="cls-6" d="M57.59,3.41a1,1,0,0,1-.71-1.7L58.29.29a1,1,0,0,1,1.4,0,1,1,0,0,1,0,1.4L58.29,3.12A1,1,0,0,1,57.59,3.41Z"/><path class="cls-6" d="M54.76,3.41a1,1,0,0,1-.71-.29L52.64,1.71a1,1,0,0,1,0-1.42,1,1,0,0,1,1.42,0l1.41,1.42a1,1,0,0,1,.22,1.09A1,1,0,0,1,54.76,3.41Z"/><path class="cls-6" d="M53.34,7.66A1,1,0,0,1,52.42,7,1,1,0,0,1,52.64,6l1.41-1.41a1,1,0,0,1,1-.26,1,1,0,0,1,.7.7,1,1,0,0,1-.26,1L54.05,7.36A1,1,0,0,1,53.34,7.66Z"/><path class="cls-6" d="M59,7.66a1,1,0,0,1-.71-.3L56.88,6a1,1,0,0,1,1.41-1.41L59.71,6A1,1,0,0,1,59,7.66Z"/><path class="cls-6" d="M32,13.05A1.1,1.1,0,0,1,31,12.14a5.05,5.05,0,0,0-4-4,1.1,1.1,0,0,1,0-2.16,5,5,0,0,0,4-4,1.09,1.09,0,0,1,2.15,0,4.87,4.87,0,0,0,1.38,2.64A5,5,0,0,0,37.13,6a1.09,1.09,0,0,1,0,2.15,5,5,0,0,0-4,4,1.1,1.1,0,0,1-1.07.91Zm-.89-1.27h0ZM29.63,7A7.25,7.25,0,0,1,31,8.08,7.5,7.5,0,0,1,32,9.41,7.16,7.16,0,0,1,34.41,7a6.83,6.83,0,0,1-1.34-1,6.83,6.83,0,0,1-1-1.34A7,7,0,0,1,29.63,7Zm3.29-4.76h0Z"/><path class="cls-6" d="M5,29a1,1,0,0,1-1-1V26a1,1,0,0,1,2,0v2A1,1,0,0,1,5,29Z"/><path class="cls-6" d="M5,45a1,1,0,0,1-1-1V32a1,1,0,0,1,2,0V44A1,1,0,0,1,5,45Z"/><circle id="Oval" class="cls-6" cx="25" cy="24" r="1"/></g></g></g></svg>