<svg xmlns="http://www.w3.org/2000/svg" xmlns:xlink="http://www.w3.org/1999/xlink" viewBox="0 0 60 60"><defs><style>.cls-1{fill:#9699cc;}.cls-2{fill:#cecee9;}.cls-3{fill:url(#linear-gradient);}.cls-4{fill:#dadaef;}.cls-5{fill:#fff;}.cls-6{fill:#334798;}</style><linearGradient id="linear-gradient" x1="2798.19" y1="4878.64" x2="2798.28" y2="4878.48" gradientTransform="matrix(426.66, 0, 0, -247.46, -1193876.7, 1207299.58)" gradientUnits="userSpaceOnUse"><stop offset="0" stop-color="#cccce8"/><stop offset="0.17" stop-color="#cccce8"/><stop offset="0.2" stop-color="#cccce8"/><stop offset="0.2" stop-color="#d2d2eb"/><stop offset="0.2" stop-color="#e2e2f3"/><stop offset="0.2" stop-color="#f1d0da"/><stop offset="0.2" stop-color="#efeff8"/><stop offset="0.2" stop-color="#f1f1f9"/><stop offset="0.25" stop-color="#f1f1f9"/><stop offset="0.26" stop-color="#f1f1f9"/><stop offset="0.26" stop-color="#cccce8"/><stop offset="0.4" stop-color="#cccce8"/><stop offset="0.42" stop-color="#cccce8"/><stop offset="0.42" stop-color="#d2d2eb"/><stop offset="0.42" stop-color="#e2e2f3"/><stop offset="0.42" stop-color="#f1d0da"/><stop offset="0.42" stop-color="#efeff8"/><stop offset="0.42" stop-color="#f1f1f9"/><stop offset="0.49" stop-color="#f1f1f9"/><stop offset="0.5" stop-color="#f1f1f9"/><stop offset="0.5" stop-color="#f2d4de"/><stop offset="0.5" stop-color="#dcdcf0"/><stop offset="0.5" stop-color="#d2d2eb"/><stop offset="0.5" stop-color="#cecee9"/><stop offset="0.5" stop-color="#cccce8"/><stop offset="0.71" stop-color="#cccce8"/><stop offset="0.74" stop-color="#cccce8"/><stop offset="0.74" stop-color="#f1f1f9"/><stop offset="0.83" stop-color="#f1f1f9"/><stop offset="0.85" stop-color="#f1f1f9"/><stop offset="0.85" stop-color="#cccce8"/></linearGradient></defs><title>icons_02_marketing</title><g id="Layer_2" data-name="Layer 2"><g id="base"><path class="cls-1" d="M4,9H56a3,3,0,0,1,3,3V47a3,3,0,0,1-3,3H4a3,3,0,0,1-3-3V12A3,3,0,0,1,4,9Z"/><path class="cls-2" d="M4,9H53a3,3,0,0,1,3,3V47a3,3,0,0,1-3,3H4a3,3,0,0,1-3-3V12A3,3,0,0,1,4,9Z"/><path class="cls-1" d="M46,58a1,1,0,0,1-1,1H15a1,1,0,0,1-1-1,2.61,2.61,0,0,1,1.17-2.33A5.27,5.27,0,0,1,18,55H42C44.21,55,46,55.79,46,58Z"/><path class="cls-2" d="M43,58a1,1,0,0,1-1,1H15a1,1,0,0,1-1-1,2.61,2.61,0,0,1,1.17-2.33A5.27,5.27,0,0,1,18,55H39C41.21,55,43,55.79,43,58Z"/><path class="cls-1" d="M41,55H19l2-5H39Z"/><path class="cls-3" d="M48,13h5a2,2,0,0,1,2,2V40a2,2,0,0,1-2,2H7a2,2,0,0,1-2-2V15a2,2,0,0,1,2-2Z"/><path class="cls-4" d="M55,38v2a2,2,0,0,1-2,2H7a2,2,0,0,1-2-2V38h5a3,3,0,0,1,3-3,2.85,2.85,0,0,1,1.08.21A4,4,0,0,1,20,32.54l4-3.38,3.86-1.29,1.25,2.5a1,1,0,0,0,.89.55,1,1,0,0,0,.9-.55l1.24-2.5L36,29.16l4,3.38a4,4,0,0,1,5.92,2.67A2.88,2.88,0,0,1,47,35a3,3,0,0,1,3,3Z"/><path class="cls-1" d="M36.15,24.23l3.3,1.65a1,1,0,0,1,.55.89v3.88a1,1,0,0,1-1.69.72L36,29.16l-3.86-1.29H27.86L24,29.16l-2.31,2.21a1,1,0,0,1-1.08.2,1,1,0,0,1-.61-.92V26.77a1,1,0,0,1,.55-.89l3.3-1.65Z"/><path class="cls-1" d="M27.26,26.68l.6,1.19,1.25,2.5a1,1,0,0,0,.89.55,1,1,0,0,0,.9-.55l1.24-2.5.6-1.19Z"/><path class="cls-1" d="M21.41,19,15.6,20.56a1,1,0,0,1-.95-.24,1,1,0,0,1-.29-.94l1.52-6.85a1,1,0,0,1,.63-.72l5.73-2.15Z"/><path class="cls-1" d="M37.76,9.66l5.74,2.15a1,1,0,0,1,.62.72l1.52,6.85a1,1,0,0,1-.28.94,1,1,0,0,1-1,.24L38.59,19Z"/><path class="cls-2" d="M39,15c0,7.73-4,12.16-9,12.16S21,22.73,21,15c0-5.38,4.36-10.9,7-13.25a3,3,0,0,1,4,0C34.65,4.1,39,9.62,39,15Z"/><path class="cls-2" d="M34,15a4,4,0,1,1-4-4A4,4,0,0,1,34,15Z"/><path class="cls-4" d="M34.86,4.88A10.36,10.36,0,0,1,30,6a10.36,10.36,0,0,1-4.86-1.12A22.36,22.36,0,0,1,28,1.76a3,3,0,0,1,4,0A22.36,22.36,0,0,1,34.86,4.88Z"/><path class="cls-5" d="M4,50H7a3,3,0,0,1-3-3V12A3,3,0,0,1,7,9H4a3,3,0,0,0-3,3V47A3,3,0,0,0,4,50Z"/><path class="cls-5" d="M22.55,9h3A25,25,0,0,1,29.6,3.15l.07-.07c.47-.51.93-1,1.34-1.33a3.36,3.36,0,0,1,.49-.35A3,3,0,0,0,28,1.75c-.41.37-.87.82-1.34,1.33l-.07.07A25,25,0,0,0,22.55,9Z"/><path class="cls-5" d="M18,55a5.27,5.27,0,0,0-2.83.67A2.61,2.61,0,0,0,14,58a1,1,0,0,0,1,1h3a1,1,0,0,1-1-1,2.61,2.61,0,0,1,1.17-2.33A5.27,5.27,0,0,1,21,55h1l2-5H21l-2,5Z"/><path class="cls-5" d="M2,12V47H0V12Z"/><path class="cls-6" d="M1,17a1,1,0,0,0,1-1V12a2,2,0,0,1,2-2H14a1,1,0,0,0,0-2H4a4,4,0,0,0-4,4v4A1,1,0,0,0,1,17Z"/><path class="cls-6" d="M1.38,19.08,1.2,19,1,19a1,1,0,0,0-.71.29.93.93,0,0,0-.21.33,1,1,0,0,0,.21,1.09,1.15,1.15,0,0,0,.33.21A1,1,0,0,0,1,21a1.1,1.1,0,0,0,.71-.29,1,1,0,0,0,0-1.42l-.15-.12A.76.76,0,0,0,1.38,19.08Z"/><path class="cls-6" d="M56,8H46a1,1,0,0,0,0,2H56a2,2,0,0,1,2,2V47a2,2,0,0,1-2,2H4a2,2,0,0,1-2-2V24a1,1,0,0,0-2,0V47a4,4,0,0,0,4,4H19.52l-1.2,3H18c-3.13,0-5,1.49-5,4a2,2,0,0,0,2,2H45a2,2,0,0,0,2-2c0-2.51-1.87-4-5-4h-.32l-1.2-3H56a4,4,0,0,0,4-4V12A4,4,0,0,0,56,8ZM45,58H15c0-.5,0-2,3-2H42C45,56,45,57.5,45,58Zm-5.48-4h-19l1.2-3H38.33Z"/><path class="cls-6" d="M25,45a1,1,0,0,0,0,2H35a1,1,0,0,0,0-2Z"/><path class="cls-6" d="M30,10a5,5,0,1,0,5,5A5,5,0,0,0,30,10Zm0,8a3,3,0,1,1,3-3A3,3,0,0,1,30,18Z"/><path class="cls-6" d="M44.14,21.53a2.33,2.33,0,0,0,.53.07,2,2,0,0,0,1.95-2.44L45.1,12.31a2,2,0,0,0-1.25-1.44l-5.36-2A26.18,26.18,0,0,0,32.66,1a4,4,0,0,0-5.31,0,26,26,0,0,0-5.83,7.86l-5.36,2a2,2,0,0,0-1.25,1.44l-1.53,6.85a2.05,2.05,0,0,0,.39,1.69,2,2,0,0,0,1.56.75,2.33,2.33,0,0,0,.53-.07l4.85-1.32a13.15,13.15,0,0,0,1.65,3.64L20.1,25A2,2,0,0,0,19,26.77v4.34A4.79,4.79,0,0,0,18,31a5,5,0,0,0-4.59,3,4,4,0,0,0-4.27,3H6V15a1,1,0,0,1,1-1h5a1,1,0,0,0,0-2H7a3,3,0,0,0-3,3V40a3,3,0,0,0,3,3H53a3,3,0,0,0,3-3V15a3,3,0,0,0-3-3H48a1,1,0,0,0,0,2h5a1,1,0,0,1,1,1V37H50.86a4,4,0,0,0-4.27-3A5,5,0,0,0,42,31a4.86,4.86,0,0,0-1,.11V26.77A2,2,0,0,0,39.9,25l-2.26-1.14a12.89,12.89,0,0,0,1.66-3.64Zm-1-8.79,1.53,6.86-4.94-1.35A19.62,19.62,0,0,0,40,15a12.87,12.87,0,0,0-.56-3.65ZM30,26.16a7.19,7.19,0,0,1-2.43-.43C24.16,24.46,22,20.47,22,15c0-3.07,1.6-6.31,3.46-8.88A11.8,11.8,0,0,0,30,7a11.77,11.77,0,0,0,4.54-.88C36.4,8.69,38,11.93,38,15,38,21.67,34.79,26.16,30,26.16Zm.91,1.95L30,29.92l-.9-1.81c.29,0,.59.05.9.05S30.61,28.13,30.91,28.11ZM28.67,2.5a2,2,0,0,1,2.66,0,19.91,19.91,0,0,1,1.92,2A10.24,10.24,0,0,1,30,5a10.28,10.28,0,0,1-3.25-.52,22.44,22.44,0,0,1,1.92-2ZM15.34,19.6l1.52-6.86,3.71-1.39A12.88,12.88,0,0,0,20,15a19.62,19.62,0,0,0,.27,3.25ZM21,26.77l2.64-1.32a8.86,8.86,0,0,0,2.65,1.89l-2.6.87,0,0a1.05,1.05,0,0,0-.29.17s0,0-.06,0h0L21,30.65Zm23.94,8.64a1,1,0,0,0,.52.68,1,1,0,0,0,.85,0A1.84,1.84,0,0,1,47,36a2,2,0,0,1,2,2,1,1,0,0,0,1,1h4v1a1,1,0,0,1-1,1H7a1,1,0,0,1-1-1V39h4a1,1,0,0,0,1-1,2,2,0,0,1,2-2,1.8,1.8,0,0,1,.69.13,1,1,0,0,0,.86,0,1,1,0,0,0,.51-.68A3,3,0,0,1,18,33a3.05,3.05,0,0,1,1,.21,1,1,0,0,0,.68.74,1,1,0,0,0,1-.23L23,31.5V37a1,1,0,0,0,2,0V29.88l2.35-.79.86,1.72a2,2,0,0,0,3.58,0l.86-1.72,2.35.79V37a1,1,0,0,0,2,0V31.5l2.31,2.22a1,1,0,0,0,1,.24,1,1,0,0,0,.68-.75A3.05,3.05,0,0,1,42,33,3,3,0,0,1,44.94,35.41ZM39,30.65l-2.29-2.2h0s0,0-.06,0a1,1,0,0,0-.28-.17l0,0-2.6-.87a8.86,8.86,0,0,0,2.65-1.89L39,26.77Z"/></g></g></svg>