<svg xmlns="http://www.w3.org/2000/svg" viewBox="0 0 64.99 63.91"><defs><style>.cls-1{fill:#e2e2f3;}.cls-2{fill:#6f76b7;}.cls-3{fill:#9699cc;}.cls-4{fill:#c2c2e3;}.cls-5{fill:#cccce8;}.cls-6{fill:#fcf3f6;}.cls-7{fill:#fff;}.cls-8{fill:#334798;}</style></defs><title>icons_02_illustration</title><g id="Layer_2" data-name="Layer 2"><g id="base"><g id="Page-1"><path id="Shape" class="cls-1" d="M61.74,22.75c0,.81-1.86,1.61-1.5,2.3l-6.08,2L52,22.75l2.17-4.34,6.08,2C59.88,21.13,61.74,21.93,61.74,22.75Z"/><rect id="Rectangle-path" class="cls-1" x="5.42" y="18.41" width="11.91" height="8.67"/><path class="cls-2" d="M9.75,18.41v8.67H3.25a2.18,2.18,0,0,1-2.17-2.17V20.58a2.18,2.18,0,0,1,2.17-2.17Z"/><path class="cls-3" d="M7.58,18.41v8.67H3.25a2.18,2.18,0,0,1-2.17-2.17V20.58a2.18,2.18,0,0,1,2.17-2.17Z"/><rect class="cls-4" x="14.08" y="18.41" width="40.08" height="8.67"/><rect class="cls-1" x="14.08" y="18.41" width="36.83" height="8.67"/><path class="cls-2" d="M63.91,22.75a1.53,1.53,0,0,1-1,1.43l-2.64.87a5.15,5.15,0,0,1-.67-2.3,5.16,5.16,0,0,1,.67-2.31l2.64.88A1.51,1.51,0,0,1,63.91,22.75Z"/><path class="cls-5" d="M28.16,23.83l-6.5.07a4,4,0,0,1,.77-.07Z"/><path class="cls-4" d="M22.43,23.83a3.59,3.59,0,0,0-.47,0l-.3,0v-.07Z"/><path class="cls-4" d="M47.66,19.5V34.66a9.47,9.47,0,0,1,0,1.07,15,15,0,0,1-3.06,7.87l-4.08,5.5a3.11,3.11,0,0,0-.39,1.55V61.74A1.08,1.08,0,0,1,39,62.82H33.58a1.08,1.08,0,0,0,1.08-1.08V50.65a3.21,3.21,0,0,1,.39-1.55l4.08-5.5a15,15,0,0,0,3.07-7.87c0-.35,0-.71,0-1.07V19.5a3.24,3.24,0,0,0-1-2.3,3.76,3.76,0,0,0-.67-.52,16.63,16.63,0,0,1,3.79-.43,3.24,3.24,0,0,1,3.25,3.25Z"/><path class="cls-1" d="M44.41,19.5V34.66c0,.36,0,.72,0,1.07A15.09,15.09,0,0,1,41.3,43.6l-4.08,5.5a3.11,3.11,0,0,0-.39,1.55V61.74a1.08,1.08,0,0,1-1.09,1.08H23.83a1.08,1.08,0,0,1-1.08-1.08V48a3.3,3.3,0,0,0-.35-1.45L15.81,36a3.22,3.22,0,0,1-.1-2.65l2.69-6.76a4.45,4.45,0,0,1,1.59-2,4.13,4.13,0,0,1,1.67-.68l6.5-.07h-6.5V19.5a3.25,3.25,0,0,1,1-2.3,3.43,3.43,0,0,1,.67-.52,3.27,3.27,0,0,1,1.62-.43,3,3,0,0,1,1.63.44,3.26,3.26,0,0,1,1.62,2.81,3.14,3.14,0,0,1,.2-1.09,3.2,3.2,0,0,1,3.05-2.16,3.34,3.34,0,0,1,1.63.43,4.15,4.15,0,0,1,.67.52,3.27,3.27,0,0,1,.76,1.21,3.13,3.13,0,0,1,.19,1.09,2.92,2.92,0,0,1,.2-1.09,3.2,3.2,0,0,1,3-2.16,3.27,3.27,0,0,1,1.62.43,3.83,3.83,0,0,1,.68.52A3.12,3.12,0,0,1,41,18.41a2.92,2.92,0,0,1,.2,1.09,3.13,3.13,0,0,1,.19-1.09,3.21,3.21,0,0,1,1.43-1.73,3.83,3.83,0,0,1,.68.52A3.24,3.24,0,0,1,44.41,19.5Z"/><polygon class="cls-4" points="28.16 23.83 21.66 23.91 21.66 23.87 21.95 23.86 24.91 23.83 28.16 23.83"/><path class="cls-5" d="M28.16,23.83l-6.5.07a4,4,0,0,1,.77-.07Z"/><path class="cls-6" d="M52,6.42a.11.11,0,0,1,.1.1.11.11,0,0,1-.1.11,6.51,6.51,0,0,0-5.25,5.24.09.09,0,0,1-.1.1.1.1,0,0,1-.1-.1,6.51,6.51,0,0,0-5.25-5.24.11.11,0,0,1-.09-.11.11.11,0,0,1,.09-.1A6.5,6.5,0,0,0,46.5,1.18a.1.1,0,0,1,.2,0,6.41,6.41,0,0,0,1.81,3.44A6.39,6.39,0,0,0,52,6.42Z"/><path class="cls-7" d="M22,46.62a3.2,3.2,0,0,1,.35,1.45V61.78a1.08,1.08,0,0,0,1.08,1.09h3.25a1.08,1.08,0,0,1-1.08-1.09V48.07a3.2,3.2,0,0,0-.35-1.45L18.66,36a3.21,3.21,0,0,1-.11-2.66L21,27.12H17.78L15.3,33.35A3.21,3.21,0,0,0,15.41,36Z"/><path class="cls-7" d="M3.93,25V20.63a2.17,2.17,0,0,1,2.16-2.17H2.84A2.17,2.17,0,0,0,.68,20.63V25a2.16,2.16,0,0,0,2.16,2.16H6.09A2.16,2.16,0,0,1,3.93,25Z"/><path class="cls-8" d="M41.35,19.5H41a1.09,1.09,0,0,1,0-2.17h.39a1.09,1.09,0,1,1,0,2.17Z"/><path class="cls-8" d="M28.36,19.5H28a1.09,1.09,0,1,1,0-2.17h.39a1.09,1.09,0,0,1,0,2.17Z"/><path class="cls-8" d="M34.86,19.5h-.39a1.09,1.09,0,1,1,0-2.17h.39a1.09,1.09,0,0,1,0,2.17Z"/><path class="cls-8" d="M44.41,31.41a4.33,4.33,0,0,1-4.33-4.33V19.5a4.33,4.33,0,1,1,8.66,0v7.58A4.33,4.33,0,0,1,44.41,31.41Zm0-14.08a2.17,2.17,0,0,0-2.17,2.17v7.58a2.17,2.17,0,0,0,4.34,0V19.5A2.17,2.17,0,0,0,44.41,17.33Z"/><path class="cls-8" d="M37.91,31.41a4.33,4.33,0,0,1-4.33-4.33V19.5a4.33,4.33,0,1,1,8.66,0v7.58A4.33,4.33,0,0,1,37.91,31.41Zm0-14.08a2.17,2.17,0,0,0-2.17,2.17v7.58a2.17,2.17,0,0,0,4.34,0V19.5A2.17,2.17,0,0,0,37.91,17.33Z"/><path class="cls-8" d="M34.66,28.16a1.08,1.08,0,0,1-1.08-1.08V19.5a2.17,2.17,0,1,0-4.34,0v4.33a1.08,1.08,0,0,1-2.16,0V19.5a4.33,4.33,0,1,1,8.66,0v7.58A1.08,1.08,0,0,1,34.66,28.16Z"/><path class="cls-8" d="M21.66,25a1.08,1.08,0,0,1-1.08-1.09V19.5a4.33,4.33,0,1,1,8.66,0v4.33a1.08,1.08,0,0,1-2.16,0V19.5a2.17,2.17,0,1,0-4.33,0v4.4A1.09,1.09,0,0,1,21.66,25Z"/><path class="cls-7" d="M21.66,61.74v-14a2.12,2.12,0,0,0-.14-.55l-.06-.13,0-.07-.23-.37-.89-1.44-1.8-2.9L14.9,36.54l1.84-1.15,3.59,5.79,1.8,2.9.9,1.44.22.36a2.19,2.19,0,0,1,.16.3l.12.26a4.12,4.12,0,0,1,.27,1.1,5.12,5.12,0,0,1,0,.56V61.74Z"/><path class="cls-8" d="M22.75,56.32a1.09,1.09,0,0,0-1.09,1.09v4.33h2.17V57.41A1.09,1.09,0,0,0,22.75,56.32Z"/><path class="cls-8" d="M16.74,35.39,14.9,36.54l3.59,5.78,1.8,2.9.89,1.44.23.37,0,.07.06.13a2.12,2.12,0,0,1,.14.55c0,.19,0,.61,0,1a1.09,1.09,0,0,0,2.17,0c0-.37,0-.67,0-1.2a4.54,4.54,0,0,0-.27-1.1l-.12-.26c-.05-.1-.1-.2-.16-.3L23,45.52l-.89-1.44-1.8-2.9Z"/><path class="cls-8" d="M21.66,53.07a1.14,1.14,0,0,0,.32.77l.16.13a.87.87,0,0,0,.19.1l.2.07.22,0a1.14,1.14,0,0,0,.76-.32,1,1,0,0,0,.23-.35,1.09,1.09,0,0,0-.23-1.19,1.15,1.15,0,0,0-.35-.22,1,1,0,0,0-.41-.09,1.08,1.08,0,0,0-1.09,1.08Z"/><path class="cls-8" d="M39,63.91H23.83a2.17,2.17,0,0,1-2.17-2.17,1.09,1.09,0,0,1,2.17,0H39V50.64a4.33,4.33,0,0,1,.52-2l.08-.14,4.09-5.51a14,14,0,0,0,2.86-7.29c0-.32,0-.66,0-1V26a1.08,1.08,0,1,1,2.16,0v8.66c0,.39,0,.77,0,1.15a16.22,16.22,0,0,1-3.28,8.43l-4,5.44a2.15,2.15,0,0,0-.23,1v11.1A2.17,2.17,0,0,1,39,63.91Z"/><path class="cls-8" d="M33.58,43.33a1.09,1.09,0,0,1-1.09-1.09c0-6.72-7.88-9.78-8-9.82a1.08,1.08,0,0,1,.38-2.09h3.25c3.09,0,4.89-1.41,5.36-4.18a1.06,1.06,0,0,0-.24-.85,1.08,1.08,0,0,0-.84-.39h-10a3.25,3.25,0,0,0-3,2.05l-2.7,6.75a2.15,2.15,0,0,0,.08,1.77,1.12,1.12,0,0,1-.06,1.09,1.09,1.09,0,0,1-1,.48,1.06,1.06,0,0,1-.9-.6,4.31,4.31,0,0,1-.15-3.55l2.7-6.75a5.39,5.39,0,0,1,5-3.4h10a3.25,3.25,0,0,1,2.49,1.15,3.19,3.19,0,0,1,.72,2.61A6.72,6.72,0,0,1,29,32.46c2.62,1.85,5.62,5,5.62,9.78A1.08,1.08,0,0,1,33.58,43.33Z"/><path class="cls-8" d="M41.35,19.5H41a1.09,1.09,0,0,1,0-2.17h.39a1.09,1.09,0,1,1,0,2.17Z"/><path class="cls-8" d="M28.36,19.5H28a1.09,1.09,0,1,1,0-2.17h.39a1.09,1.09,0,0,1,0,2.17Z"/><path class="cls-8" d="M18.19,28.16H3.25A3.24,3.24,0,0,1,0,24.91V20.58a3.25,3.25,0,0,1,3.25-3.25H21.86a1.09,1.09,0,0,1,0,2.17H3.25a1.08,1.08,0,0,0-1.08,1.08v4.33A1.08,1.08,0,0,0,3.25,26H18.19a1.08,1.08,0,0,1,0,2.16Z"/><path class="cls-8" d="M34.86,19.5h-.39a1.09,1.09,0,1,1,0-2.17h.39a1.09,1.09,0,0,1,0,2.17Z"/><path class="cls-8" d="M54.16,28.16h-6.5a1.08,1.08,0,1,1,0-2.16H54l8.56-2.85a.43.43,0,0,0,0-.81L54,19.5H47.46a1.09,1.09,0,0,1,0-2.17h6.7a1,1,0,0,1,.34.06l8.72,2.9a2.59,2.59,0,0,1,0,4.91L54.5,28.11A1.33,1.33,0,0,1,54.16,28.16Z"/><path class="cls-8" d="M34.66,28.16h-.24a1.08,1.08,0,1,1,0-2.16h.24a1.08,1.08,0,0,1,0,2.16Z"/><path class="cls-8" d="M54.16,28.16a1.08,1.08,0,0,1-1.09-1.08V18.41a1.09,1.09,0,0,1,2.17,0v8.67A1.08,1.08,0,0,1,54.16,28.16Z"/><path class="cls-8" d="M9.75,28.16a1.08,1.08,0,0,1-1.08-1.08V18.41a1.08,1.08,0,1,1,2.16,0v8.67A1.08,1.08,0,0,1,9.75,28.16Z"/><path class="cls-8" d="M14.08,28.16A1.08,1.08,0,0,1,13,27.08V18.41a1.08,1.08,0,1,1,2.16,0v8.67A1.08,1.08,0,0,1,14.08,28.16Z"/><path class="cls-8" d="M60.25,26.14a1.07,1.07,0,0,1-1-.58,5.93,5.93,0,0,1-.8-2.81,6,6,0,0,1,.8-2.82,1.08,1.08,0,1,1,1.91,1,3.9,3.9,0,0,0-.54,1.8,3.89,3.89,0,0,0,.54,1.79,1.09,1.09,0,0,1-1,1.6Z"/><path class="cls-8" d="M14.08,6.5A1.08,1.08,0,0,1,13,5.42V3.25a1.08,1.08,0,0,1,2.16,0V5.42A1.08,1.08,0,0,1,14.08,6.5Z"/><path class="cls-8" d="M11.91,8.67H9.75a1.09,1.09,0,0,1,0-2.17h2.16a1.09,1.09,0,1,1,0,2.17Z"/><path class="cls-8" d="M14.08,13A1.08,1.08,0,0,1,13,11.91V9.75a1.08,1.08,0,0,1,2.16,0v2.16A1.08,1.08,0,0,1,14.08,13Z"/><path class="cls-8" d="M18.41,8.67H16.25a1.09,1.09,0,1,1,0-2.17h2.16a1.09,1.09,0,1,1,0,2.17Z"/><path class="cls-8" d="M50.91,48.74a1.08,1.08,0,0,1-1.09-1.08V45.49a1.09,1.09,0,0,1,2.17,0v2.17A1.08,1.08,0,0,1,50.91,48.74Z"/><path class="cls-8" d="M48.74,50.91H46.58a1.09,1.09,0,1,1,0-2.17h2.16a1.09,1.09,0,0,1,0,2.17Z"/><path class="cls-8" d="M50.91,55.24a1.08,1.08,0,0,1-1.09-1.08V52A1.09,1.09,0,0,1,52,52v2.17A1.08,1.08,0,0,1,50.91,55.24Z"/><path class="cls-8" d="M55.24,50.91H53.07a1.09,1.09,0,0,1,0-2.17h2.17a1.09,1.09,0,0,1,0,2.17Z"/><path class="cls-8" d="M10.38,37.46a1.08,1.08,0,0,1-.76-1.85l1.53-1.53a1.08,1.08,0,0,1,1.53,1.53l-1.53,1.53A1.06,1.06,0,0,1,10.38,37.46Z"/><path class="cls-8" d="M7.32,37.46a1.07,1.07,0,0,1-.77-.32L5,35.61a1.08,1.08,0,0,1,1.53-1.53l1.53,1.53a1.08,1.08,0,0,1-.76,1.85Z"/><path class="cls-8" d="M5.79,42.06A1.09,1.09,0,0,1,5,40.21l1.53-1.53a1.08,1.08,0,0,1,1.53,1.53L6.55,41.74A1.09,1.09,0,0,1,5.79,42.06Z"/><path class="cls-8" d="M11.91,42.06a1.09,1.09,0,0,1-.76-.32L9.62,40.21a1.08,1.08,0,0,1,.48-1.83,1.06,1.06,0,0,1,1.05.3l1.53,1.53a1.08,1.08,0,0,1-.77,1.85Z"/><path class="cls-8" d="M46.6,13.05a1.2,1.2,0,0,1-1.16-1,5.45,5.45,0,0,0-4.38-4.37,1.18,1.18,0,0,1,0-2.33A5.45,5.45,0,0,0,45.44,1a1.18,1.18,0,0,1,2.33,0,5.31,5.31,0,0,0,1.5,2.86,5.35,5.35,0,0,0,2.87,1.51,1.18,1.18,0,0,1,0,2.33,5.43,5.43,0,0,0-4.37,4.37A1.2,1.2,0,0,1,46.6,13.05ZM44,6.52a7.34,7.34,0,0,1,1.45,1.15A7.53,7.53,0,0,1,46.6,9.11a7.64,7.64,0,0,1,1.15-1.45,7.23,7.23,0,0,1,1.44-1.14,7.29,7.29,0,0,1-1.45-1.14A7.29,7.29,0,0,1,46.6,3.93,7.64,7.64,0,0,1,44,6.52Z"/></g></g></g></svg>