<svg xmlns="http://www.w3.org/2000/svg" xmlns:xlink="http://www.w3.org/1999/xlink" viewBox="0 0 60 60"><defs><style>.cls-1{fill:#c2c2e3;}.cls-2{fill:#e2e2f3;}.cls-3{fill:#9699cc;}.cls-4{fill:url(#linear-gradient);}.cls-5{fill:#fff;}.cls-6{fill:#6f76b7;}.cls-7{fill:#334798;}</style><linearGradient id="linear-gradient" x1="2795.39" y1="5004.94" x2="2795.49" y2="5004.8" gradientTransform="matrix(384, 0, 0, -247.47, -1073430.58, 1238571.21)" gradientUnits="userSpaceOnUse"><stop offset="0" stop-color="#cccce8"/><stop offset="0.17" stop-color="#cccce8"/><stop offset="0.2" stop-color="#cccce8"/><stop offset="0.2" stop-color="#d2d2eb"/><stop offset="0.2" stop-color="#e2e2f3"/><stop offset="0.2" stop-color="#fdf8fa"/><stop offset="0.2" stop-color="#efeff8"/><stop offset="0.2" stop-color="#f1f1f9"/><stop offset="0.25" stop-color="#f1f1f9"/><stop offset="0.26" stop-color="#f1f1f9"/><stop offset="0.26" stop-color="#cccce8"/><stop offset="0.4" stop-color="#cccce8"/><stop offset="0.42" stop-color="#cccce8"/><stop offset="0.42" stop-color="#d2d2eb"/><stop offset="0.42" stop-color="#e2e2f3"/><stop offset="0.42" stop-color="#fdf8fa"/><stop offset="0.42" stop-color="#efeff8"/><stop offset="0.42" stop-color="#f1f1f9"/><stop offset="0.49" stop-color="#f1f1f9"/><stop offset="0.5" stop-color="#f1f1f9"/><stop offset="0.5" stop-color="#fdf9fa"/><stop offset="0.5" stop-color="#dcdcf0"/><stop offset="0.5" stop-color="#d2d2eb"/><stop offset="0.5" stop-color="#cecee9"/><stop offset="0.5" stop-color="#cccce8"/><stop offset="0.71" stop-color="#cccce8"/><stop offset="0.74" stop-color="#cccce8"/><stop offset="0.74" stop-color="#f1f1f9"/><stop offset="0.83" stop-color="#f1f1f9"/><stop offset="0.85" stop-color="#f1f1f9"/><stop offset="0.85" stop-color="#cccce8"/></linearGradient></defs><title>icons_02_webDesign</title><g id="Layer_2" data-name="Layer 2"><g id="base"><g id="Page-1"><polygon id="Shape" class="cls-1" points="33 55 25.04 58 23.53 57.44 17 55 19.67 49 23.41 45.97 24.88 44.79 30.33 49 33 55"/><polygon class="cls-2" points="30 55 23.53 57.44 17 55 19.67 49 23.41 45.97 27.33 49 30 55"/><path class="cls-1" d="M49,40v6a3,3,0,0,1-3,3H4a3,3,0,0,1-3-3V40Z"/><path class="cls-2" d="M46,40v6a3,3,0,0,1-3,3H4a3,3,0,0,1-3-3V40Z"/><path class="cls-1" d="M35,57a2,2,0,0,1-2,2H17a2,2,0,0,1,0-4H33A2,2,0,0,1,35,57Z"/><path class="cls-2" d="M32,57a2,2,0,0,1-2,2H17a2,2,0,0,1,0-4H30A2,2,0,0,1,32,57Z"/><path class="cls-3" d="M49,38v4H1V16a3,3,0,0,1,3-3H27l.64.73.54.61Z"/><path class="cls-4" d="M46,38v4H1V16a3,3,0,0,1,3-3H27l-.36.73.54.61Z"/><path class="cls-2" d="M59,7V36a2,2,0,0,1-2,2H29a2,2,0,0,1-2-2V7Z"/><path class="cls-5" d="M56,7V36a2,2,0,0,1-2,2H29a2,2,0,0,1-2-2V7Z"/><path class="cls-6" d="M59,3V9H27V3a2,2,0,0,1,2-2H57A2,2,0,0,1,59,3Z"/><path class="cls-3" d="M56,3V9H27V3a2,2,0,0,1,2-2H54A2,2,0,0,1,56,3Z"/><path class="cls-5" d="M17.63,57a2,2,0,0,1,2-2l2.68-6h-3l-2.68,6a2,2,0,0,0,0,4h3A2,2,0,0,1,17.63,57Z"/><path class="cls-5" d="M3.62,46V16a3,3,0,0,1,3-3h-3a3,3,0,0,0-3,3V46a3,3,0,0,0,3,3h3A3,3,0,0,1,3.62,46Z"/><polygon class="cls-5" points="2 16 2 29 2 46 0 46 0 29 0 16 2 16"/><path class="cls-7" d="M1,21a1,1,0,0,0,1-1V16H0v4A1,1,0,0,0,1,21Z"/><path class="cls-7" d="M0,46H2V28a1,1,0,0,0-2,0Z"/><path class="cls-7" d="M2,24a1.05,1.05,0,0,0-.29-.71l-.15-.12a.76.76,0,0,0-.18-.09L1.2,23,1,23a1.05,1.05,0,0,0-.71.29,1.15,1.15,0,0,0-.21.33,1,1,0,0,0,.21,1.09,1.15,1.15,0,0,0,.33.21A1,1,0,0,0,1,25a1.05,1.05,0,0,0,.71-.29A1.05,1.05,0,0,0,2,24Z"/><path class="cls-7" d="M1,17a1,1,0,0,1-1-1,4,4,0,0,1,4-4H27a1,1,0,0,1,0,2H4a2,2,0,0,0-2,2A1,1,0,0,1,1,17Z"/><path class="cls-7" d="M46,50H4a4,4,0,0,1-4-4,1,1,0,0,1,2,0,2,2,0,0,0,2,2H46a2,2,0,0,0,2-2V38a1,1,0,0,1,2,0v8A4,4,0,0,1,46,50Z"/><path class="cls-7" d="M33,60H17a3,3,0,0,1,0-6H33a3,3,0,0,1,0,6ZM17,56a1,1,0,0,0,0,2H33a1,1,0,0,0,0-2Z"/><path class="cls-7" d="M33,56H17a1,1,0,0,1-.84-.45,1,1,0,0,1-.07-1l2.66-6a1,1,0,0,1,.92-.59H30.33a1,1,0,0,1,.92.59l2.66,6a1,1,0,0,1-.07,1A1,1,0,0,1,33,56ZM18.54,54H31.46l-1.78-4H20.32Z"/><path class="cls-7" d="M49,43H1a1,1,0,0,1,0-2H49a1,1,0,0,1,0,2Z"/><path class="cls-7" d="M25,50a1,1,0,0,1-1-1V47a1,1,0,0,1,2,0v2A1,1,0,0,1,25,50Z"/><path class="cls-7" d="M57,39H29a3,3,0,0,1-3-3V3a3,3,0,0,1,3-3H57a3,3,0,0,1,3,3V36A3,3,0,0,1,57,39ZM29,2a1,1,0,0,0-1,1V36a1,1,0,0,0,1,1H57a1,1,0,0,0,1-1V3a1,1,0,0,0-1-1Z"/><path class="cls-7" d="M59,10H27a1,1,0,0,1,0-2H59a1,1,0,0,1,0,2Z"/><path class="cls-7" d="M55,22H31a1,1,0,0,1-1-1V13a1,1,0,0,1,1-1H55a1,1,0,0,1,1,1v8A1,1,0,0,1,55,22ZM32,20H54V14H32Z"/><path class="cls-7" d="M31,22a1,1,0,0,1-1-.84,1,1,0,0,1,.66-1.11l24-8a1,1,0,0,1,1,.2,1,1,0,0,1,.32.95,1,1,0,0,1-.66.75l-24,8A1.19,1.19,0,0,1,31,22Z"/><path class="cls-7" d="M55,22a1.19,1.19,0,0,1-.32-.05l-24-8A1,1,0,0,1,30,13.2a1,1,0,0,1,1.3-1.15l24,8A1,1,0,0,1,56,21.16,1,1,0,0,1,55,22Z"/><path class="cls-7" d="M42,26H31a1,1,0,0,1,0-2H42a1,1,0,0,1,0,2Z"/><path class="cls-7" d="M55,26H46a1,1,0,0,1,0-2h9a1,1,0,0,1,0,2Z"/><path class="cls-7" d="M55,30H31a1,1,0,0,1,0-2H55a1,1,0,0,1,0,2Z"/><path class="cls-7" d="M38,34H31a1,1,0,0,1,0-2h7a1,1,0,0,1,0,2Z"/><path class="cls-7" d="M55,34H43a1,1,0,0,1,0-2H55a1,1,0,0,1,0,2Z"/><path class="cls-7" d="M15,18H6a1,1,0,0,1,0-2h9a1,1,0,0,1,0,2Z"/><path class="cls-7" d="M21,18H19a1,1,0,0,1,0-2h2a1,1,0,0,1,0,2Z"/><circle id="Oval" class="cls-7" cx="31" cy="5" r="1"/><circle class="cls-7" cx="35" cy="5" r="1"/><circle class="cls-7" cx="39" cy="5" r="1"/></g></g></g></svg>