<svg xmlns="http://www.w3.org/2000/svg" viewBox="0 0 444.33 580.18"><defs><style>.cls-1{fill:#334798;}.cls-2{fill:#a5d6cc;}.cls-3{fill:#e35f3d;}.cls-4{fill:#989fd0;}.cls-5{fill:#4354a1;}.cls-6{fill:#e3603d;}.cls-7{fill:#e25f3d;}.cls-8{fill:#f39685;}.cls-9{fill:#e998a4;}.cls-10{fill:#6f2c20;}.cls-11{fill:#762922;}.cls-12{fill:#782c24;}.cls-13{fill:#e4e4f4;}.cls-14{fill:#7a2d24;}.cls-15{fill:#f6beae;}.cls-16{fill:#792e25;}.cls-17{fill:#792d25;}.cls-18{fill:#a6d5cc;}.cls-19{fill:#7d3129;}.cls-20{fill:#833e34;}.cls-21{fill:#7d322a;}.cls-22{fill:#7c3129;}.cls-23{fill:#d74234;}.cls-24{fill:#813830;}.cls-25{fill:#e3e3f3;}.cls-26{fill:#fdfefe;}.cls-27{fill:#dbdbef;}.cls-28{fill:#712f23;}.cls-29{fill:#fefefe;}.cls-30{fill:#722f23;}.cls-31{fill:#fdfefd;}.cls-32{fill:#fdfdfd;}.cls-33{fill:#fcfdfd;}.cls-34{fill:#fbfcfc;}.cls-35{fill:#fafafa;}.cls-36{fill:#fcfcfb;}.cls-37{fill:#fafbfa;}.cls-38{fill:#f8f7f7;}.cls-39{fill:#f8f9fd;}.cls-40{fill:#772a22;}.cls-41{fill:#48a1d5;}</style></defs><title>illustration_04_schedule</title><g id="Layer_2" data-name="Layer 2"><g id="base"><path class="cls-1" d="M224.22,149.36c-6,6-11.95,12.2-18.36,17.85A169.55,169.55,0,0,1,188,181.1a38.06,38.06,0,0,1-23.6,6.78,110.29,110.29,0,0,1-19.84-2.38c-.6-.19-1.32-.29-1.12.62.15.65.93.95,1.53,1.3,8.9,5,17.12,11.16,26,16.24,6.31,3.6,12.79,7,20.16,7.78a60.77,60.77,0,0,0,14.78-.38c-10.81,2.47-23.27-.12-35-7.33-9.12-5.61-17.88-11.8-27.23-17-.84-.47-1.57-1.25-2.68-.84a40.89,40.89,0,0,0-10.24-2.78c-3.36-.2-6.73-.11-10.1-.05l-.92,0a2.73,2.73,0,0,0-3,.06,14.94,14.94,0,0,0-6.55,2.49,13.16,13.16,0,0,0-4.67,8.28,121.69,121.69,0,0,0-1.75,27.61c.27,8.07,1.31,16.06,2.12,24.08,1.27,12.67,1.69,25.31-.89,37.89a4.09,4.09,0,0,1-1.84,3.14c-11.13,6.58-23,10.16-36,8.79a140.12,140.12,0,0,1-38.19-9.57,80.07,80.07,0,0,0-9.4-3.45c-4.25-1.14-6.1-.35-8.19,3.56-2.44,4.58-2.25,9.27-.42,14a37.94,37.94,0,0,0,8,11.95c6,6.47,13.19,11.49,20.79,15.9A133.47,133.47,0,0,0,61.18,338c6.08-1.72,11.09-5.32,15.82-9.29,9.35-7.83,16-17.67,20.72-28.84-5.9,13.76-14.44,25.37-27.16,33.64-2,1.34-4.22,2.48-6.36,3.68-.82.47-2.1.87-.56,2a7.62,7.62,0,0,1,2.73,1,48.67,48.67,0,0,1-10.72,3.6,137.53,137.53,0,0,1-23,3.2c-7.45.5-14.95.47-22.35,1.64a20.39,20.39,0,0,0-6.48,1.89c-3.1,1.63-4.24,4.11-3.62,7.59.86,4.84,3.38,8.76,6.72,12.22,5,5.21,11.2,8.61,17.81,11.29a104.11,104.11,0,0,0,27.15,6.53,170.73,170.73,0,0,0,23.27,1.18c14.9-.3,29.62-1.88,44-6.06.56-.16,1.15-.23,1.72-.34,4.2-.36,7.9-2.23,11.67-3.84,2.16-.93,4.22-2.1,6.34-3.12q.39-.18.75-.39a104.91,104.91,0,0,0,12.8-8.25c1.42-1.34,3-2.43,4.52-3.71,13.2-12,23-26.47,30.77-42.37A202.63,202.63,0,0,0,200.87,286c.45-1.8,1-3.59,1.29-5.42.37-2.56,1.74-3.59,4.28-3.88a72.75,72.75,0,0,0,22.33-6.84,26.94,26.94,0,0,0,4.51-2.73c1.29-.81,1.62-2.09,1.87-3.5,1.41-7.85,5.55-13.33,13.15-16.44,4.29-1.76,8.67-3.77,11.86-7.48,3.21-6.15,6.58-12.22,9.78-18.39.41-2.07,2.84-3.64,1.55-6.15l-.15-.16c-3.17-1.5-5.5-4.08-8-6.41-5.38-5-10.2-10.63-15.93-15.28-.82-.67-1.47-1.66-2.77-1.34-2.67,1.59-4.86,3.84-7.49,5.57.38-4,1.7-7.88,1.23-12a8.38,8.38,0,0,0-2.42-3.21,9.1,9.1,0,0,1-2.44-3.89c-.45-1.7-.24-3.06,1.76-3.62.91-.26,1.91-.5,2.27-1.59-.77-4.14-3.56-7.32-5.33-11s-3.92-7.42-6-11C225.73,150.46,225.46,149.39,224.22,149.36Z"/><path class="cls-2" d="M200.15,286.07c-2.38,7.69-4.75,15.39-7.81,22.85C186,324.47,177.91,339,167.13,352c-3.33,4-7.16,7.55-10.78,11.28.14,4-1.91,7.32-3,10.93a1.32,1.32,0,0,1-1.89.87c-1-.39-.8-1.16-.59-2,.54-2.08,2.32-3.91,1.27-6.31l-12.83,8.31c2.51,1.24,2.76,3,1.63,5.46-.83,1.75-1.25,3.69-1.92,5.52-.31.85-.7,1.74-1.87,1.31s-1-1.32-.74-2.22c.62-2.26,1.73-4.35,2.35-6.61.31-1.09,1-2.15.37-3.35-6,2.89-12.1,5.37-18.3,7.67-.2,1.76.24,3.09,2.24,3.4,1.36.22,1.46.95,1,2.12-.57,1.57-.82,3.26-1.48,4.77-1.24,2.82-1.14,5.74-1.17,8.69a236.86,236.86,0,0,1-1.57,25.25c-.27,2.24-.65,4.46-.79,6.72a2.34,2.34,0,0,0,1.64,2.7c2,.8,2,.89,1.31,2.94-.92,2.8-1.92,5.57-2.83,8.37-.33,1-.67,1.9-2,1.77-1.12-.1-1.49.44-1.73,1.49-1.09,4.58-2.75,9-4.22,13.47-.37,1.14-1,2.22.58,3,.49.24.51.75.35,1.29-1.09,3.56-2.13,7.14-3.26,10.69-.35,1.11-1.22.66-2,.42-1.47-.48-2.53-.31-3.4,1.27a94.32,94.32,0,0,1-21,26.2c.69.72,1.83,1,1.26,2.48-1.21,3.2-2.1,6.53-3,9.83-.38,1.38-1,1.38-2.17,1s-2.43-.57-1.86-2.31,1.13-3.55,1.72-5.32c.25-.74.65-1.45.16-2.32-1.48.35-2.53,1.46-3.77,2.21-1.46.89-2.73,1.57-4.56.52-1.67-1-3.15-.25-4.22,1.41-1.21,1.85-1.06,3.37.49,4.87,1.39,1.74,3.6,1.9,5.43,2.77,4.26,2,8.24,4.6,12.53,6.57,1.05.48,2,1.29,3.3,1,.67-.44.75-1.51,1.52-1.7,1.25-.3,2.12.17,2,1.65-.07.84-.62,1.68,0,2.52,5,2.9,10.13,5.36,15.26,7.93.94.47,1.86,1.1,3,.85,1.3-1.06,1.39-2.71,2-4.11.31-.74.58-1.55,1.61-1.25s1.11,1.15.91,2.11c-.39,1.85-1.77,3.5-1.12,5.56,5.31,3.37,11.18,5.68,16.62,8.82a1.69,1.69,0,0,0,1.43.06c2.06-2.58,2.7-5.69,3.25-8.83-.4-1.48-1.84-1.67-2.92-2.25-8-4.33-15.57-9.54-23.49-14.1-1.09-.63-2.09-1.51-3.48-1.37a1.85,1.85,0,0,0-1,.57c-.5.59-1,1.21-1.91.83s-.91-1.31-.82-2.18a3.57,3.57,0,0,0-.06-1.13c-1-1.85-3.07-2.14-4.48-3.18,1.54.35,2.71,2.27,4.74,1.6,1.49-1.2,1.53-3.09,2.23-4.67.41-.94.86-1.93,2.1-1.43s.54,1.47.41,2.29c-.34,2-1.54,3.82-1.23,6,1.57,2.15,4.06,3,6.23,4.25,3.78,2.21,7.2,5.06,11.4,6.54,1.64-1.83,1.88-4.26,2.72-6.43.56-1.45.93-3,1.56-4.42a1.32,1.32,0,0,1,1.9-.81c.81.34.83,1,.57,1.71-1,2.76-2,5.53-2.82,8.34-.63,2-2.42.61-3.44,1.36-.35,1.21.66,1.56,1.37,2,5.4,3,10.5,6.57,16.83,8.13-1.38-.09-2.42-1.24-3.67-.37-1,3.27-2.81,6.34-2.27,10a18.56,18.56,0,0,0,10.1,4c.88.09,1.76.17,2.37-.69,3.21-4,2.48-7.68-2.45-12.07.89-1.72,3-2.24,3.94-3.92-.57-.44-.83.14-1.16.37a1.62,1.62,0,0,1-2.16,0c-.66-.61-.08-1.28.13-1.9,1-3.07,2.07-6.14,3.17-9.18.59-1.63.84-1.68,2.66-1.07s1.82.61,1.25,2.49c-.72,2.41-1.85,4.7-2.27,7.41,12.72-10,42.66-41.19,53.39-65.47,1.22,0,1.37,1.64,2.61,1.68,1.28-1,1-3,2.18-4,.53-1.36-.74-1.9-1.36-2.57A171,171,0,0,0,183,448.26c-.73-.54-1.39-1.51-2.57-1.05a7.45,7.45,0,0,0-1.2,2.66c-.32.84-.61,1.8-1.81,1.43s-1-1.26-.76-2.18a27,27,0,0,0,1.23-4.23c-.45-1.8-2.14-2.53-3.36-3.52C168,436,162.1,430,156.13,424.05c-.81-.81-1.45-1.93-2.84-1.89-1,.29-1.14,1.22-1.52,2s-.19,2-1.55,1.62-1.23-1.5-.92-2.63a35.76,35.76,0,0,0,1.4-4.44c-.66-1.79-2.13-3-3.23-4.5-5.45-7.35-10.8-14.74-13.16-23.81-.47-1.81-.57-3.67-.94-4.94A44,44,0,0,0,138,399.82c.56,1.09.9,2.45,2.36,2.82,2.06-.87,1.8-3,2.55-4.63.34-.7.42-1.5.71-2.23.35-.9.95-1.58,2-1.13s.72,1.28.48,2c-1.1,3.43-2.28,6.84-3.15,10.34,1.88,4.05,4.16,7.79,8.07,10.25.65-.53.69-1.36,1-2.07s.73-1.17,1.53-1a1.38,1.38,0,0,1,1.1,1.75,30.14,30.14,0,0,1-1.45,4.09c0,1.26.94,1.86,1.68,2.61a268.42,268.42,0,0,0,20.68,19.51c.81.66,1.49,1.65,2.78,1.05.65-.64.75-1.57,1.16-2.33a1.48,1.48,0,0,1,1.94-.84c1,.36.85,1.16.59,1.94a33.54,33.54,0,0,1-1.6,3.44c.8,2.2,3,3.08,4.59,4.27,8.34,6.09,15.68,13.24,22.78,20.67.34.35.63.75,1.21.6.92-.71,1.08-1.82,1.51-2.79.31-.72.79-1.11,1.61-.81A1.3,1.3,0,0,1,213,469c-.39,1.71-1.2,3.3-1.51,5,1.64,4,4.73,6.93,7.12,10.37,8.71,12.56,14.7,26.26,16.77,36.09-1.68-8.59-7.26-21.12-14.62-32.93-.36-.57-.61-1.55-1.7-1.24a9.2,9.2,0,0,0,.58,10.63,8.09,8.09,0,0,1,.91,1.84c1.17,3.19,2.56,6.16,7,6.48-2.84,4-1.07,7.37.4,10.78.81,1.88,1.2,4,2.32,5.68s1.2,3.48,1.91,5.17a48.8,48.8,0,0,1,2,5.21c.78,2.66-.09,5.25-.68,7.8-.45,2-.33,3.65,1.11,5.1a1.39,1.39,0,0,0,.87-.82c.88-1.87,2.51-2.25,4-1,.62.51.33,1,.14,1.58-.48,1.39-.94,2.78-1.46,4.15a1.24,1.24,0,0,0,.57,1.74c1.29.57,2.28-.26,3.3-.77q32.84-16.35,65.61-32.81c2.09-1,4.26-2,5.85-3.88a9.27,9.27,0,0,0,.35-9,7.23,7.23,0,0,0-7.59-3.93c-1.62.24-2.3,1.3-2.81,2.66a44,44,0,0,1-1.93,5.25c-.34.65-.87,1.1-1.68.74a1.17,1.17,0,0,1-.58-1.51c3.69-15.2-1.35-29.56-4.23-44.12-.26-1.32-.45-2.75-1.65-3.68-1.22.05-1.17,1.14-1.49,1.9-1.1,2.63-1.91,5.37-2.86,8.06-.29.84-.62,1.84-1.79,1.51s-1-1.29-.73-2.18c.81-2.53,1.78-5,2.49-7.57.64-2.32,2.66-1,3.9-1.73.92-1.1.41-2.24.07-3.35a176.24,176.24,0,0,0-11.64-28.94,2.15,2.15,0,0,0-.14-.26c-.54-.92-.9-2.3-2.1-2.22-1.38.1-1.09,1.65-1.42,2.6a37.2,37.2,0,0,1-1.72,4.7c-.4.78-1,1.28-1.9.86s-.76-1.09-.54-1.79c.67-2.15,1.33-4.31,2.18-6.41.22-.54.45-1.18,1.17-1.16,2.26.09,1.6-1.33,1-2.28a87.3,87.3,0,0,0-6.59-10.12c-1.26-1.57-2.27-1.8-3.08.37-.29.78-.46,1.94-1.7,1.56a1.5,1.5,0,0,1-.74-2.43c2.56-4,.25-6.65-2.1-9.56-5.87-7.25-11.28-14.86-16.79-22.4-.61-.83-1-2-2.4-1.87-1.56.73-1.7,2.32-2.13,3.69-.6,1.86-1,3.79-1.73,5.62-.31.78-.73,1.49-1.71,1.23s-1-1-.82-1.89c.68-2.66,1.57-5.27,2.41-7.88s2.64-.23,3.88-.72c.7-.78.19-1.47-.24-2.09-2.56-3.66-5.16-7.28-7.65-11a2.31,2.31,0,0,0-2.13-1.29c-1.47.81-1.49,2.42-2.07,3.72-.39.87-.85,1.62-2,1.19s-.8-1.23-.54-2a31.85,31.85,0,0,1,2.4-6.26,2.5,2.5,0,0,0-.59-2.44c-2-2.73-3.42-5.87-5.89-8.24-.63-.07-.56-.52-.49-1a32.25,32.25,0,0,0-4.9-8c-7.09-9.28-10.58-20-13.25-31.14-1.58-6.59-3.21-13.16-5.16-19.65C201.56,287.8,201.68,286.38,200.15,286.07Z"/><path class="cls-3" d="M312.88,513.17c-8.18,5.14-17,9-25.63,13.32-16.16,8.13-32.38,16.16-48.57,24.23a70.84,70.84,0,0,0,4.56,7.51c2.31.3,4.17-1,6-1.93,18.28-8.95,36.7-17.6,55-26.49,9.11-4.42,18.17-9,27.26-13.41a14.47,14.47,0,0,0,3.75-2.31c.49-.46.95-1.13,1.76-.73a2.22,2.22,0,0,1,1.11,2,3.26,3.26,0,0,1-1.92,3.36,37,37,0,0,1-4.67,2.52c-3.33,1.2-5.53,3.09-5.05,7-.39,3.91-.74,7.83-1.17,11.74-.15,1.37.24,2.07,1.73,1.91a17.4,17.4,0,0,1,1.77,0H424.8c1.06,0,2.16.27,3.4-.44-.52-3.8-1-7.68-1.58-11.55q-2.52-17.51-5.08-35-2.84-19.54-5.65-39.1c-.77-5.35-1.5-10.7-2.25-16.05-1-1.09-2.3-1-3.57-1q-36,0-72.05,0a7.7,7.7,0,0,0-2.34.28c-2,.79-2.17,2.68-2.31,4.41-1,11.45-2.07,22.9-3.11,34.34-.83,9.1-1.69,18.2-2.48,27.3-.3,3.57-.6,3.71-4.26,4.41S315.86,510.3,312.88,513.17Z"/><path class="cls-4" d="M259.69,239.34a8.77,8.77,0,0,1-2.86,2.41,106.87,106.87,0,0,1-10.89,5.77c-7,3.11-10.37,9-11.55,16.23a3.87,3.87,0,0,1-1.25,2.78c.61,2.41.25,4.9.72,7.34a31.9,31.9,0,0,0,7.89,15.6,18.31,18.31,0,0,0,7.27,4.9c1.29.49,2.62.86,3.93,1.27,5.08,1.57,6.51,3.37,6.53,8.77a132.34,132.34,0,0,0,.84,13.23c1.33,12.74,10.14,21.55,23.22,24,4.21.78,8.43.56,12.65.72,4,.16,8.08.38,11.63,2.7a5.11,5.11,0,0,1,2.53,3.11c1.7,7.18,6.47,12.22,11.83,16.85,6.77,5.85,14.22,10.89,20.56,17.26a16.87,16.87,0,0,1,2.5,2.9c2.33,3.77,2,6-1.26,9-5.32,4.85-5.05,14.59.51,18.78,4.77,1.54,9.71.65,14.56,1,1.39-.75.81-1.88.41-2.82-1.82-4.26-.3-7.64,2.69-10.65a37,37,0,0,0,5.9-6.94,10,10,0,0,0,0-11.11c-2.7-4.36-6.94-6.88-11.15-9.39-2.19-1.3-4.49-2.41-6.93-3.82,6.88.75,13.59.8,20.12,2.55,5.79,1.55,9.76,5.28,12.67,10.3a11,11,0,0,1,1,8c-1.44,6.9-4.92,12.79-8.92,18.43-.79,1.13-1.72,2.16-2.41,3.34-.52.87-1.4,1.86,0,2.78,2.85.72,5.79.23,8.66.72a1.61,1.61,0,0,0,1.94-.89c9.41-6,14.44-14.84,16.38-25.52,1.74-9.62-.82-17.94-8.78-24.13a47,47,0,0,0-21-9.54,20.8,20.8,0,0,0-3.53-.23c-5.31,0-10.62.09-15.93,0a36.48,36.48,0,0,1-21.71-7.23,6.17,6.17,0,0,1-2.79-5.4,57.29,57.29,0,0,1,2.93-19.1,47.26,47.26,0,0,0,2.59-10.25c.46-4.75-1.84-7.84-5.72-10.08-3.26-1.89-6.9-2.82-10.43-4s-7.36-2.1-10.89-3.62c-1.08-.47-2.15-1-3.21-1.48a12.28,12.28,0,0,1-7.05-9.53,57.17,57.17,0,0,1-.44-15.28,91,91,0,0,1,4.83-23.27c.64-1.75,1.31-3.5,1.84-5.29a24.14,24.14,0,0,0-15.95-29.75A16.76,16.76,0,0,0,277,210a4.61,4.61,0,0,0-3.44,2.39c-.61,1-.76,2.29-2.05,2.76.25,1.18-.48,2.06-.91,3s-.85,2-1.27,3c1.85,5.07-.52,9-3.6,12.6A43.69,43.69,0,0,1,259.69,239.34Z"/><path class="cls-4" d="M126.09,85.19c1.77,2.37,4.4,3.21,7.21,3.53a53.31,53.31,0,0,1,12,2.88,10.45,10.45,0,0,1,7.46,9.6c.5,5.34,3.33,8.93,8.09,11.07a45.93,45.93,0,0,0,19.68,4.34,11.69,11.69,0,0,0,10.15-5.56,36.31,36.31,0,0,0,5.63-16.27,21.21,21.21,0,0,0-1.35-8.67c-1.19-3.54-2.38-7.07-3.54-10.62a11.7,11.7,0,0,1-.79-4.32,3.19,3.19,0,0,1,2.14-2.9c1.28-.56,2.29.06,3.09,1.06a18.88,18.88,0,0,1,1.54,2.16A17.09,17.09,0,0,0,209,79.81c.48.11,1,.18,1.44.27a2.07,2.07,0,0,1,2,2.38c-.1,2.87.79,5.62,1.42,8.38a18.24,18.24,0,0,0,5.63,9.5c.92.83,1.27,1.51.37,2.7-4.32,5.72-5.05,12.25-3.77,19a61.37,61.37,0,0,0,8.22,20.7,2.33,2.33,0,0,0,.42.41c2.23-2.42,4.68-4.65,6.53-7.41,0-.08,0-.16,0-.24a21.63,21.63,0,0,0-1.64-5.68,68.13,68.13,0,0,1-2.74-13.55,10.27,10.27,0,0,1,0-2.35c.49-4.45,2-5.28,5.92-3.26,3,1.52,6.14,2.69,8.85,4.67,3.39,2.49,3.92,5.64,1.52,8.29-1.5,1.66-3.57,1.87-5.63,2.18a8,8,0,0,0-6.23,7.24,2.82,2.82,0,0,0,.68,2.13l.26.23c1.39.56,2.54-.24,3.76-.64a6.06,6.06,0,0,1,3.09-.45,2.6,2.6,0,0,0,1.53-.2h0a3.15,3.15,0,0,1,2.51-.55,11.54,11.54,0,0,0,9.55-4.44,17,17,0,0,0,3.93-12,10,10,0,0,0-4.48-7.64,32.4,32.4,0,0,0-7.06-3.66,38.89,38.89,0,0,1-6.19-3.07c1.35-.45,2.22-.76,3.11-1,2.53-.76,5.07-1.53,7.62-2.23,6.05-1.65,9.8-5.77,11.73-11.47,2.66-7.89,1.24-15.12-4.54-21.29A16.4,16.4,0,0,0,248,62.24a30.05,30.05,0,0,0-12.56.25c-3,.6-5.89,1.3-9.37,2.08,1-2,1.86-3.76,2.77-5.42,1.55-2.85,3-5.75,4.34-8.7,3-6.47-1.38-14.45-6.39-17.27-4.25-2.38-8.62-2.2-13.14-1.48-5,.8-10,2.11-15.13,2.1a20.44,20.44,0,0,1-5-.67A10.08,10.08,0,0,1,187,28.05c-2-3.56-3-7.45-4.12-11.32A54.6,54.6,0,0,0,179.5,7,12.6,12.6,0,0,0,172.84.65c-2.2-.88-4.47-.66-6.71-.51-5.59.35-11.65,5-13.39,10.13-.68,2-.27,2.82,1.75,3.56a12.77,12.77,0,0,0,4.67.51,8.62,8.62,0,0,1,8.42,5.32c1.51,3.1,2.67,6.34,4,9.49.44,1,.88,2,1.27,3,2.58,6.6,7.83,9.48,14.47,10.58,4.3.7,8.62.49,12.94.51,3.54,0,7.09,0,10.63,0a11.13,11.13,0,0,1,3.47.58c3.67,1.19,5,3.43,4.21,7.19a88.07,88.07,0,0,1-2.9,9.27,45.47,45.47,0,0,0-2.09,7.66,3.57,3.57,0,0,1-3,3.42,4.4,4.4,0,0,1-4.74-1.54,22.83,22.83,0,0,1-2.39-4.4c-2.43-4.87-5.28-6.4-10.66-5.77a33.26,33.26,0,0,0-4.95.67c-5.49,1.46-7.61,4.73-6.52,10.32.93,4.82,2.46,9.49,3.76,14.22a20.87,20.87,0,0,1-1,14.39A9.6,9.6,0,0,1,172.61,105c-6.42-1.5-11.07-5.32-13.12-11.54-2.28-6.91-7-10.66-13.71-12.42a65.41,65.41,0,0,1-9.3-2.78c-2.68-1.15-3.11-2-2.34-4.79.4-1.46.87-2.92-.59-4s-3.23-1.83-5.22-1c-3.07,1.24-4.54,3.7-5,6.77A13.07,13.07,0,0,0,126.09,85.19Zm96.34-7.41c4.7-2.2,9.32-4.6,14.45-5.76,7.32-1.64,13.39,3.2,13.41,10.72,0,3.82-1.09,5.47-4.69,6.91a26.68,26.68,0,0,1-2.79.9c-4.14,1.19-8.39,2.06-12.27,4-1.48.75-2.35.32-3.23-.81a29.65,29.65,0,0,1-5.74-11.17,21.7,21.7,0,0,1-.25-2.92A1.74,1.74,0,0,1,222.43,77.78Z"/><path class="cls-5" d="M335,439.54c1,0,2,.12,2.94.12h75.66q-1-8.81-2.08-17.61c-.87-1.26-2.23-1.15-3.47-1.11-10.49.35-21-.47-31.45-.73-10.86-.28-21.73-.62-32.57-1.52-2.51-.21-5.09-.61-7.53.52-1.58,1.94-.87,4.32-1.17,6.48a99.12,99.12,0,0,0-1,10.75A4.79,4.79,0,0,0,335,439.54Z"/><path class="cls-6" d="M109.44,541.24,91.56,532A22.93,22.93,0,0,0,87.68,530c-5.35-2.79-10.7-5.55-16-8.38a6.13,6.13,0,0,0-3-.73c0-1.54-1.07-1.23-2-1.07-2.1,1.85-4.42,3.55-4.91,6.6a2.46,2.46,0,0,0,1.34,3.19c.68.4,1.38.75,2.09,1.1q41.13,20.55,82.25,41.13a21.59,21.59,0,0,0,3.23,1.43c1.13.25,2.19,1,3.43.5,4.13,0,5.68-2.08,4.3-5.94-1.51-4.19-4.58-6.93-8.54-8.76a25.28,25.28,0,0,0-2.5-.84,17.14,17.14,0,0,1-9.43-2.27c-.9-.55-1.89-1-2.84-1.43a19.09,19.09,0,0,0-4.08-2.19l-17.68-9A14.28,14.28,0,0,0,109.44,541.24Z"/><path class="cls-7" d="M336.65,419.52c4.54-.31,9,.33,13.55.54,19.86.91,39.72,1.68,59.6,1.88.59,0,1.17.08,1.76.12L431,422a67.13,67.13,0,0,0,10.6-.47c1.19-.2,2.67-.34,2.69-1.74s-1.57-1.74-2.66-1.87c-2.93-.37-5.88-.55-8.82-.71q-24.45-1.28-48.92-2.51a8.79,8.79,0,0,1-.87-.15l-11.16-.59c-4-1.84-8.2-1.55-12.38-.61-5.08-.34-10.2-.14-15.26-.91-4.13-1.59-8.51-.93-12.77-1.4-6.32-.69-12.71.11-19.05-.55a6,6,0,0,0-2.61.34c-2.29.8-4.23,3.18-3.92,5,.42,2.45,2.48,2.91,4.42,3.17a140,140,0,0,0,20.26.82C332.61,419.73,334.68,420.66,336.65,419.52Z"/><path class="cls-6" d="M152.23,148.07a19.9,19.9,0,0,1,3.15,3.87,48.45,48.45,0,0,0,5.91,7,13.89,13.89,0,0,0,2.58,1.93c1.91,1.1,3.49.9,4.83-.47a4.07,4.07,0,0,0,.58-5.37,20.68,20.68,0,0,0-3.44-3.62c-1-.92-2.22-1.66-2.46-3.32,1.23-.27,2.05.56,3,.89a14.07,14.07,0,0,0,2.23.71c1,.16,1.45-.43,1.2-1.42a6.54,6.54,0,0,0-2.45-3.24,46.79,46.79,0,0,0-15.2-8.83c-4.08-1.39-8.19-2.77-12.6-2.76-6.43,0-11.65,2.4-15.46,7.64-2.86,3.94-2.88,8.45-2.38,13a9.57,9.57,0,0,0,1.62,5c1.64,2.17,3.46,2.26,5.54.22,1.27-1.24,2-2.9,3.24-4.18,2.14-2.21,3.66-2.19,5.63.13,1,1.12,1.7,2.41,2.62,3.55s2.06,2.42,3.7,1.49,1-2.36.59-3.7a12,12,0,0,1-.89-3.67c1.05-.39,1.49.5,2.16.79,1,.46,2.06.83,3,0s.93-2.06.53-3.25c-.5-1.44-1.95-2.53-1.55-4.5C149.78,145.9,150.63,147.8,152.23,148.07Z"/><path class="cls-4" d="M232.43,176.78c0,2.19,1.07,3.87,2.38,5.48,1,1.21,2.38,2,3.14,3.42.17.18.33.35.51.51,2,1.74,4.33,1.59,6.78,1h0c.25-.14.57-.29.66-.55,1.36-4.18,4.49-6.35,8.51-7.52,4.33-.8,8.66-1.55,13-2.42a50.43,50.43,0,0,0,8.19-2.26c1.1-.42,2.2-.84,3.26-1.36,5.92-2.92,5.54-8.88,2.34-12.51-3.86-4.39-8.9-6.63-14.39-8.07a20.38,20.38,0,0,0-4.35-.63c-4.05-.17-7.55.93-10.3,4-1.33.76-1.46,2.1-1.41,3.35.15,3.42-1.7,5.56-4.44,7.06a7.31,7.31,0,0,0-3.58,3.71c-.92,2.22-3.46,2.06-5.17,3.14l-.21.14a5.73,5.73,0,0,1-3,1A2.18,2.18,0,0,0,232.43,176.78Zm20.89-5.44a.79.79,0,0,1-1.09-.57c-.13-1,.59-1.22,1.2-1.48a12.1,12.1,0,0,0,6.41-6.91c.27-.62.56-1.25.88-1.85a2.53,2.53,0,0,1,2.69-1.4,7.78,7.78,0,0,1,5.5,3,2.9,2.9,0,0,1-.23,4.21,9,9,0,0,1-3.43,2.17C261.41,170.07,257.28,170.35,253.32,171.34Zm-6.92,5.6a1.6,1.6,0,0,1,1.12,0c.36.17.38.64.29,1-.24,1-.48,2-.8,3.35C244.77,179.07,244.65,177.73,246.4,176.94Z"/><path class="cls-8" d="M154.07,573.72a13,13,0,0,0-3.13-1.13c-1.44.43-2.42-.63-3.5-1.17L64.51,530c-1-.51-1.92-1.4-3.21-1.19A8.29,8.29,0,0,0,58,533.17c-.94,2.22-.56,3.14,1.68,4.21Q74.9,544.71,90.19,552q17.55,8.31,35.17,16.5,11.73,5.47,23.5,10.88c3.29,1.52,5,1,6.74-2.28.41-.78.73-1.6,1.08-2.4C156,573.6,154.73,574.54,154.07,573.72Z"/><path class="cls-9" d="M152.23,148.07a9.55,9.55,0,0,0-3.9-3.45c-1-.56-1.46-.11-1.52.93a6.51,6.51,0,0,0,1.3,3.84c1.31,2.12,1.45,3.3.39,3.91-1.56.89-2.53-.35-3.56-1.22-.43-.37-.74-.94-1.58-.91-1.16,1.7,0,3.32.36,4.94.18.86.81,1.59.74,2.52a1.28,1.28,0,0,1-2.06,1.11,5.34,5.34,0,0,1-1.82-1.9c-.9-1.29-1.73-2.64-2.73-3.84-1.61-1.93-3.81-2-5.64-.23A31.2,31.2,0,0,0,129,158c-1.81,2.44-3.11,2.65-5.69,1-1.87.31-1.19-1.8-2.46-2.45a72.73,72.73,0,0,0,.18,9,4.65,4.65,0,0,1,0,2c-1.48,5.14-2.6,10.38-4.34,15.45a7.67,7.67,0,0,0,3-.06c.84-1.59,2.43-1.36,3.81-1.45a42.56,42.56,0,0,1,11.94,1.34l1.38.27c-2.11-2-2.32-4.26-2.55-6.56-.15-1.4.08-2.15,1.54-2.08,6.44.34,10.37-3.53,13.67-8.28,2.4-3.45,4.66-7,5.3-11.36a4.85,4.85,0,0,0-.93-3.79C153.2,150.14,152.05,149.46,152.23,148.07Z"/><path class="cls-9" d="M237.34,173.3c1.76.38,3.24-.43,4.7-1.19.58-.3,1.41-.91,1.42-1.4.08-2.36,1.93-2.88,3.49-3.82,2.82-1.7,5-3.86,4.46-7.56-.16-1.23.45-2.29.74-3.42-.18-1.77-1.37-2.94-2.31-4.31s.36-3-.55-4.48a9.37,9.37,0,0,0-.89-1.51c-1.59-1.76-3.47-3.17-4.55-5.5-.64-1.41-2.06-2.43-2.11-4.26,0-.58-.72-1.13-1.1-1.69l-1.1-.39c-1.19.44-2.53-.19-3.7.48l-3.33,1a1.6,1.6,0,0,0-1.67.63,4.15,4.15,0,0,1-.76.89,13,13,0,0,0-5.35,6.4,20.92,20.92,0,0,0-.51,6.16c2.38,4.27,4.8,8.53,7.15,12.81C233.39,165.86,235.35,169.59,237.34,173.3Z"/><path class="cls-8" d="M326.53,528.19c.1-.17.31-.34.3-.49-.35-3.17,1.66-4.42,4.17-5.44a52.71,52.71,0,0,0,5.51-2.79c3.15-1.7,3.48-4.55.89-7.13a9.46,9.46,0,0,0-.92-.67c-2.13,3.15-5.64,4.28-8.83,5.86q-17.83,8.84-35.73,17.52c-14.41,7-28.86,13.86-43.3,20.78-1.77.84-3.59,1.6-5.38,2.4a14.51,14.51,0,0,0,.61,2c.75,1.61,1.63,3.39,3.12,4.16,1.26.66,2.67-.82,3.94-1.47q36.33-18.37,72.62-36.81a5.6,5.6,0,0,1,2.71-1.07C326.78,526,326.15,527.16,326.53,528.19Z"/><path class="cls-9" d="M254.43,179.15a8,8,0,0,0-8.38,5.73c-.21.65-.41,1.3-.61,1.94-.84,1.68-1.78,3.35-.38,5.19,6,5.23,11.51,11,17.28,16.46,2.28,2.16,4.58,4.31,6.79,6.54a1.32,1.32,0,0,0,2.21,0,7,7,0,0,1,1-2.74c2.55-4.22,2.49-8.72,1.58-13.38a4.67,4.67,0,0,0-3.11-3.91,3,3,0,0,1-2.33-3.22,4.48,4.48,0,0,0-3.27-4.71c-1-.3-1.26-1.07-1.73-1.81-1.32-2.09-3-3.67-5.76-3.23-1.4.22-2.21-.21-2.51-1.65C255.15,179.92,254.71,179.55,254.43,179.15Z"/><path class="cls-6" d="M314,189c.65-1.11,1.3-2.22,2-3.32-1-1.53.83-.71,1-1.25l3.32-5.37-25.42-7.93c4.51,9,9,17.27,13.44,25.76,2.16-2,3.07-4.75,5-6.69.53-.86-.67-.92-.69-1.51C313,189.11,313.39,189.4,314,189Z"/><path class="cls-10" d="M178,443.22a186.84,186.84,0,0,1-18.9-17c-1.92-1.93-3.72-4-5.57-6-.5-1.39-1.1-2.68-2.68-3.13a58,58,0,0,1-7.57-10,7.6,7.6,0,0,0-2.87-4.66,36.47,36.47,0,0,1-6.44-19.77c-1.32.2-1.11,1.14-1.08,1.84a29.51,29.51,0,0,0,1.38,7.79c2.15,6.83,5.84,12.83,10,18.57,2,2.69,4.08,5.26,6.13,7.89a4.82,4.82,0,0,0,3.07,3.61c3.28,3.23,6.48,6.55,9.86,9.67,4.69,4.33,9.5,8.5,14.26,12.74a3.82,3.82,0,0,0,3.14,2.51c10.15,7.46,19.81,15.48,27.93,25.18a17.27,17.27,0,0,1,2.71,3.31,30.29,30.29,0,0,0,6.83,9.2,2.64,2.64,0,0,1,.85,1.36,106.34,106.34,0,0,1,16.5,38.41c.26,1.24.57,2.47.86,3.7,0,0,.16.06.48.17.66-.81.32-1.72.15-2.63-2.51-13.39-7.81-25.67-14.86-37.26-3.12-5.13-6.78-9.86-10.34-14.68-.25-1.76-1.48-2.68-2.94-3.4a178.43,178.43,0,0,0-26.06-23.37c-.71-.53-1.35-1.13-2-1.7A3.16,3.16,0,0,0,178,443.22Z"/><path class="cls-11" d="M354.92,307.41c.91-.46.89-1.29,1-2,1.39-9.79-3.23-18.2-12.22-22.36a51.42,51.42,0,0,0-9.55-2.93A56.16,56.16,0,0,1,322.2,276l-.78-.41c-7.85-4.14-10.55-9.8-8.88-18.55,1-5.22,2.69-10.26,4.08-15.37a70.87,70.87,0,0,0,2.54-13.6c1-14.37-5.21-26.44-18.45-31.79-.87-.35-1.72-1-2.76-.51-.2.88.45.94,1,1.13,14.4,5.09,20.25,18.09,18.91,32.08-.67,7-2.77,13.65-4.67,20.36A55.27,55.27,0,0,0,311,260.25c-.49,6.79,2.31,11.77,8,15.3,4.56,2.84,9.61,4.41,14.76,5.74a65.68,65.68,0,0,1,7.65,2.12c9.71,3.78,14.25,11,13.4,21.43C354.7,305.63,354.1,306.49,354.92,307.41Z"/><path class="cls-12" d="M328.73,290.41c.53,1.15,1.33.83,1.95.95,4.75.87,8.68,3,11.39,7.15a13.2,13.2,0,0,1,1.78,10.72,66.59,66.59,0,0,1-3.48,9.69,48.8,48.8,0,0,0-3,9.24c-1.41,7.6,2.21,13.32,9.68,15a24,24,0,0,0,9.09.35c.36-.06.86-.08.86-.58,0-.73-.59-.69-1.06-.61a24.41,24.41,0,0,1-7.63-.18c-7.36-1.11-11.09-6.41-9.73-13.72a46.8,46.8,0,0,1,2.88-9,88.6,88.6,0,0,0,3.5-9.68c2.82-10.42-6-19.22-15.39-19.64A2.7,2.7,0,0,0,328.73,290.41Z"/><path class="cls-13" d="M141,185.84c10.26,5.43,19.56,12.44,29.59,18.25,2.56,1.48,5.2,2.78,7.83,4.11,7.47,3.78,15.41,4.46,23.56,3.77,2.64-.22,5.27-.65,7.9-1a2,2,0,0,0,1.66-.86c-.77-.76-1.68-.36-2.38-.22a79.31,79.31,0,0,1-13.5,1.08,37.4,37.4,0,0,1-16.8-3.83,134.68,134.68,0,0,1-15.62-8.91c-6.2-4-12.26-8.19-18.73-11.74-.67-.37-1.34-.77.06-1-.72-.82-1.79-.58-2.69-.83S141,185.27,141,185.84Z"/><path class="cls-14" d="M314,189c-1.1-.37-1.69-1.85-3.35-1.57.34,1.6,2,1.71,2.65,2.77,7,6.07,12.62,13,14.15,22.44a65,65,0,0,1-.11,19.4,103.73,103.73,0,0,1-3.07,14.7,1.74,1.74,0,0,0,0,1.7c.87.24.91-.43,1.06-1,3-11.07,4.92-22.24,3.52-33.79-.95-7.77-4.68-14.08-9.84-19.7C317.39,192.27,315.65,190.67,314,189Z"/><path class="cls-15" d="M61.3,528.81q43.24,21.6,86.5,43.18c.92.46,1.85,1.74,3.14.6-10.72-5.31-21.45-10.58-32.14-15.92q-27.24-13.6-54.44-27.26c-1.33-.66-2.77-1.15-2.63-3C61,527.07,61.34,528,61.3,528.81Z"/><path class="cls-16" d="M240.82,37.11c.79-1.7.13-2.82-.17-3.88-2.8-9.87-10.66-14.35-21.3-12.17-3.17.66-6.3,1.51-9.46,2.23a34.29,34.29,0,0,1-3.49.57c-7.64.95-12.79-4.07-13.38-11.54-.07-.89.28-1.89-.27-2.57-.71-.12-.85.22-.88.47-.65,7.35,4,15.11,12.88,15a41.84,41.84,0,0,0,9.56-1.68,52.44,52.44,0,0,1,8.07-1.63c8.71-.79,14.87,3.44,17.18,11.88A7.77,7.77,0,0,0,240.82,37.11Z"/><path class="cls-17" d="M23.81,273.72c2.63,3.65,15.78,9.49,27.86,12.62,9.93,2.56,24.13,2,28.93-.73,0-.68-.48-.81-1-.67-13.59,3.8-26.62,1.4-39.43-3.55a76.86,76.86,0,0,1-14.73-7.31A1.73,1.73,0,0,0,23.81,273.72Z"/><path class="cls-13" d="M63.64,339.16c-.41-.52-.64-1,.21-1.34,1.33-.63,2.63-1.32,3.92-2,14.1-8,23.46-20.07,30-34.61.48-1.07.83-2.19,1.21-3.3,0-.13-.14-.34-.23-.55-1.22.1-1.11,1.25-1.4,2a78.35,78.35,0,0,1-17,25.64,61.47,61.47,0,0,1-16.82,11.8c-.79.38-1.56.82-2.33,1.23C62.23,337.87,62.53,339.34,63.64,339.16Z"/><path class="cls-18" d="M218.16,485a65.25,65.25,0,0,0-6.83-9.2c-.46,1.63-.31,3.63-2.74,4.22l5.46,6.51c1.11-.18.63-1.58,1.57-1.93S217.29,485.07,218.16,485Z"/><path class="cls-19" d="M317,184.45c-1.18-.06-2-1.58-3.46-1,.33,1.39,1.89,1.27,2.44,2.24a40.19,40.19,0,0,1,15,16.55c.37.72.14,2.46,1.51,1.88.89-.38-.1-1.59-.43-2.31-2.94-6.53-7.75-11.53-13.25-15.93Z"/><path class="cls-20" d="M4.79,345.38c9.36-2.36,19-1.65,28.51-2.77-1.72-1.59-3.67-.53-5.49-.62a58.11,58.11,0,0,0-5.9.15q-3,.17-5.89.45c-2,.18-3.91.39-5.86.68S6.32,343.72,4.79,345.38Z"/><path class="cls-21" d="M258.39,60.48c.43-.54,0-.9-.3-1.24A11.42,11.42,0,0,0,250,55.6c-1.76,0-3.52.13-5.29.16a15,15,0,0,1-2.92-.1c-1.85-.33-2.43-1.23-2.26-3.12a8.06,8.06,0,0,1,.81-2.5c.25-.59.89-1.1.41-1.86a5.91,5.91,0,0,0-2.44,5.88c.36,1.8,1.73,2.86,4.17,3a40.68,40.68,0,0,0,5.29-.19A11.45,11.45,0,0,1,257.18,60a3.68,3.68,0,0,0,1,.56S258.31,60.53,258.39,60.48Z"/><path class="cls-22" d="M45.25,275.08c-.07,1,.83,1,1.41,1.15a59.1,59.1,0,0,0,22.88,2.7,2.76,2.76,0,0,0,.85-.15.7.7,0,0,0,.32-.39.47.47,0,0,0-.43-.61,12.75,12.75,0,0,0-2,0A58.42,58.42,0,0,1,46.82,275a4.53,4.53,0,0,0-1.15-.24C45.54,274.76,45.39,275,45.25,275.08Z"/><path class="cls-23" d="M177.63,156.83a1.77,1.77,0,0,0,1.82-1.19,1.62,1.62,0,0,0-.83-2,21.54,21.54,0,0,0-4.82-2c-.61-.22-.94.17-.92.74C172.93,154.31,175.72,156.9,177.63,156.83Z"/><path class="cls-24" d="M28.24,266.13a1.16,1.16,0,0,0,.59.94,42.8,42.8,0,0,0,9.58,5.55c.35.15.74.37,1-.12a.68.68,0,0,0-.4-.95A58.66,58.66,0,0,1,32,267.81c-1-.65-1.9-1.37-2.87-2A.59.59,0,0,0,28.24,266.13Z"/><path class="cls-9" d="M120.61,183l10.11.05A26.45,26.45,0,0,0,120.61,183Z"/><path class="cls-25" d="M233.58,255.06c-.69-.35-1-.33-1.19-.1-5.94,5.88-13.37,8.89-21.28,10.84-11.28,2.78-22.75,3-34.28,2.1A98.32,98.32,0,0,1,152,263a59.75,59.75,0,0,1-7.59-3.25c-.43-.22-.85-.51-1.48-.06.33,1.18,1.49,1.36,2.36,1.78a73.32,73.32,0,0,0,17.33,5.62,124,124,0,0,0,38.14,1.69c8.54-.93,16.85-2.93,24.45-7.16A25.5,25.5,0,0,0,233.58,255.06Z"/><path class="cls-26" d="M152.13,366.81a33.65,33.65,0,0,1-2.18,6.63c-.43,1.1-.54,2,1,2.44,2.06.62,2.43.67,3-.93,1.18-3.29,2.26-6.63,3.39-9.95.33-1-.05-1.49-1-1.71A23.69,23.69,0,0,0,152.13,366.81Z"/><path class="cls-27" d="M233.52,200.77c-4.27,2-8.5,4-13,6.23,1.87.41,1.87.41,4.75-1,1.49-.74,3-1.42,4.43-2.26S232.65,202.39,233.52,200.77Z"/><path class="cls-28" d="M122.1,535.12l-17.21-10.51c-1.11-1.21-2.26-2.35-4.1-2.22L95,519.66c-.35-.17-.74-.42-1,0-.44.6.12.85.52,1.07,1.93,1.08,4.06,1.79,5.8,3.22a6.08,6.08,0,0,0,4.19,2.29,95.45,95.45,0,0,1,12,6.93c5.71,3.64,11.55,7,17.45,10.33,1,1.07,2,2,3.65,1.46,1.64.37,3.2,1.4,5.07.56-7.28-2.25-13.79-6-20-10.15A.33.33,0,0,0,122.1,535.12Z"/><path class="cls-29" d="M195.11,360A118.11,118.11,0,0,0,191,371.37c-.62,1.74.84,1.67,1.73,2s1.75.72,2.22-.8c1-3.18,2.22-6.29,3.29-9.44.66-2,.6-2-1.37-2.71A17.23,17.23,0,0,0,195.11,360Z"/><path class="cls-29" d="M162.28,413.13a15,15,0,0,0,3.77,1.44c1.52-3.69,2.71-7.41,4-11.1.48-1.37-.11-1.77-1.12-2.17-2.06-.83-2.21-.83-3,1.22C164.71,406,163.53,409.54,162.28,413.13Z"/><path class="cls-29" d="M216.54,447.85c.26,1.47,1.48,1.47,2.44,1.83s1.43-.05,1.73-1c1.07-3.26,2.22-6.49,3.26-9.76.51-1.57.25-1.75-1.55-2.45-1.3-.5-1.93-.28-2.37,1.12-.9,2.9-2,5.74-3,8.61C216.88,446.79,216.71,447.35,216.54,447.85Z"/><path class="cls-29" d="M127.52,486c.31,1.51,1.64,1.33,2.54,1.75s1.24,0,1.52-.79c1.17-3.42,2.37-6.82,3.57-10.22.27-.77.6-1.51-.6-1.81s-2.53-1.31-3.13.13C129.92,478.67,128.78,482.41,127.52,486Z"/><path class="cls-29" d="M175.47,383.83c.58.18.93-.19,1.1-.66,1.3-3.57,2.61-7.14,3.82-10.75.48-1.42-.87-1.56-1.71-1.84s-1.73-.87-2.19.46c-1.22,3.5-2.46,7-3.62,10.51C172.49,382.71,173.67,383.69,175.47,383.83Z"/><path class="cls-29" d="M109.43,496c0,1.48,1.08,1.35,1.82,1.68s1.71.62,2.16-.55.94-2.56,1.39-3.84c.74-2.11,1.45-4.24,2.22-6.34.3-.83.45-1.58-.63-1.85s-2.44-1.44-3.07.08C111.82,488.75,110.67,492.48,109.43,496Z"/><path class="cls-29" d="M185.75,390.65c-.75-.14-1.1.37-1.3.93-1.27,3.51-2.53,7-3.72,10.55-.45,1.31.73,1.37,1.51,1.65s1.91.86,2.45-.54,1.13-2.93,1.66-4.4q.89-2.5,1.7-5C188.72,391.74,188,390.74,185.75,390.65Z"/><path class="cls-29" d="M275,470.12c-.74-.31-1.26-.59-1.81-.76-1.82-.54-2.22-.38-2.85,1.39-1.07,3-2,6.14-3.12,9.15-.67,1.77.47,1.89,1.6,2.36s1.9.34,2.35-1.06C272.34,477.5,273.68,473.85,275,470.12Z"/><path class="cls-29" d="M253.83,443.29l1.86.78a1.79,1.79,0,0,0,2.73-1.23q1.65-4.83,3.32-9.66c.5-1.43-.54-1.67-1.49-1.93s-1.82-1.1-2.36.48C256.57,435.57,255.2,439.4,253.83,443.29Z"/><path class="cls-29" d="M150.54,493.52c-.09,1,.85,1.15,1.51,1.43,2,.85,2.19.76,2.9-1.28,1.09-3.13,2.08-6.3,3.26-9.4.45-1.19,0-1.74-1-1.92s-2.14-1.51-2.76.08C153.06,486.06,151.86,489.77,150.54,493.52Z"/><path class="cls-29" d="M125.05,417.09c-.12,1.5,1.09,1.59,2.07,2s1.66.06,2-.95c1.13-3.35,2.23-6.7,3.39-10,.5-1.42-.49-1.77-1.42-2s-1.9-1.08-2.44.44q-1.75,5-3.49,10A4.77,4.77,0,0,0,125.05,417.09Z"/><path class="cls-29" d="M198.33,458.09c.17,1.27,1.29,1.28,2.16,1.61s1.54.45,1.9-.6c1.18-3.41,2.41-6.81,3.49-10.26.5-1.58-.79-1.89-1.94-2.33s-1.63.14-1.95,1.05c-1.14,3.22-2.25,6.46-3.37,9.68C198.52,457.52,198.43,457.8,198.33,458.09Z"/><path class="cls-29" d="M137.75,455.34c0,1.42,1.16,1.26,1.88,1.61.9.45,1.71.5,2.14-.63.7-1.83,1.4-3.65,2-5.5.55-1.56,1-3.16,1.57-4.73.35-1,0-1.58-.95-1.72s-2.19-1.5-2.81,0C140.18,448,139,451.77,137.75,455.34Z"/><path class="cls-26" d="M243.94,473c-.08,1.25.94,1.27,1.75,1.55s1.69.87,2.22-.35c.43-1,.79-2,1.14-3,.79-2.31,1.54-4.63,2.35-6.94.42-1.18.4-2-1.1-2.38-1.24-.34-2.24-.77-2.8.87-1.06,3.15-2.16,6.28-3.25,9.42C244.15,472.46,244.05,472.74,243.94,473Z"/><path class="cls-29" d="M235.14,423.19c-1.17,3.92-2.17,7.58-3.38,11.17-.63,1.86.7,1.84,1.71,2.29,1.25.56,1.9.32,2.29-1.11.85-3.09,1.76-6.18,2.87-9.19.56-1.53.09-2.2-1.26-2.6C236.72,423.56,236.06,423.42,235.14,423.19Z"/><path class="cls-29" d="M206.06,329.73c-.87-.13-1.24.43-1.48,1.12-1.14,3.33-2.25,6.66-3.39,10-.51,1.48.59,1.59,1.51,1.9s1.87.86,2.37-.57c1.2-3.41,2.42-6.81,3.57-10.24C209,330.77,207.76,329.75,206.06,329.73Z"/><path class="cls-29" d="M124.65,453.93a1,1,0,0,0-1.17.6c-1.27,3.59-2.54,7.19-3.71,10.82-.38,1.16.67,1.48,1.49,1.78,1,.37,2,.41,2.46-.79.62-1.54,1.17-3.11,1.72-4.68s1-3,1.46-4.46C127.54,455.15,126.82,454.1,124.65,453.93Z"/><path class="cls-29" d="M158.12,394.93c.2,1.24,1.41,1.24,2.37,1.6s1.46,0,1.74-.91c1-3.37,2-6.74,3.13-10.07.41-1.22-.19-1.75-1.1-1.89s-2.14-1.46-2.73.23c-1.23,3.49-2.27,7.06-3.38,10.59A2.07,2.07,0,0,0,158.12,394.93Z"/><path class="cls-26" d="M245.8,525.65c1.38-3.94,2.72-7.79,4.08-11.63a1,1,0,0,0-.34-1.25c-1.88-1.43-3.3-1-4.07,1.18-1,2.85-1.84,5.76-2.94,8.56-.57,1.47-.23,2.19,1.18,2.59C244.35,525.29,245,525.45,245.8,525.65Z"/><path class="cls-29" d="M241.41,404.56c-.07,1.72,1.19,1.75,2.15,2.15,1.15.49,1.62-.09,1.94-1.06,1.09-3.25,2.13-6.52,3.31-9.74.57-1.56-.37-1.93-1.43-2.28s-2-.85-2.5.84c-.95,3.09-2.11,6.11-3.18,9.16C241.57,404,241.46,404.37,241.41,404.56Z"/><path class="cls-29" d="M256.77,511.3c.33,1.26,1.53,1.26,2.49,1.63a1.06,1.06,0,0,0,1.57-.76c1.16-3.33,2.36-6.65,3.48-10,.5-1.51-.46-2-1.73-2.48s-1.94-.06-2.35,1.22c-1,3.17-2.12,6.31-3.19,9.47C257,510.67,256.87,511,256.77,511.3Z"/><path class="cls-29" d="M254.07,413.22c-.57-.09-.86.32-1,.79-1.12,3.44-2.25,6.86-3.29,10.32-.5,1.69.95,1.84,2,2.26s1.74,0,2.09-1.18c.84-2.9,1.82-5.77,2.73-8.66C257.32,414.49,256.43,413.24,254.07,413.22Z"/><path class="cls-29" d="M229.43,419.13a.86.86,0,0,0,1.16-.59c1.16-3.63,2.28-7.28,3.43-10.92.18-.57-.08-.88-.54-1.18-2-1.35-3.1-1.06-3.82,1.21-.87,2.7-1.66,5.42-2.48,8.13C226.45,418.19,227,419,229.43,419.13Z"/><path class="cls-29" d="M122.1,535.12a.63.63,0,0,0,.48.24c3.4.86,3.4.86,4.59-2.59.82-2.41,1.64-4.82,2.48-7.22.64-1.86.6-2-1-2.61-2-.76-2.31-.69-2.89,1C124.48,527.67,123.31,531.4,122.1,535.12Z"/><path class="cls-29" d="M140.38,493.11l-3.77-1.48c-1.4,4-2.74,7.84-4.09,11.67-.12.37-.3.76.06,1.07a4.94,4.94,0,0,0,3,1.1c.94.06,1-1,1.27-1.72C138,500.27,139.16,496.76,140.38,493.11Z"/><path class="cls-29" d="M200.24,377.93c-.74-.18-1.11.24-1.3.85q-1.65,5.31-3.26,10.62c-.08.25-.09.69,0,.8a5.7,5.7,0,0,0,3,1.09c1.06.1,1.09-.93,1.31-1.61.89-2.79,1.74-5.59,2.58-8.39C203.3,378.94,202.65,378,200.24,377.93Z"/><path class="cls-29" d="M275.23,501.81c.7.28,1.32.54,1.95.78,1.3.51,2,0,2.42-1.28,1-3.16,2-6.32,2.95-9.48.54-1.74-.82-1.84-1.91-2.26s-1.74-.39-2.1,1C277.57,494.32,276,497.9,275.23,501.81Z"/><path class="cls-26" d="M185.56,419.92c0,1.37,1.12,1.38,1.84,1.71s1.57.5,2-.45a23.54,23.54,0,0,0,1-2.45c.94-2.68,1.84-5.37,2.8-8,.36-1,0-1.6-.91-1.74s-2.21-1.5-2.82,0C188,412.6,186.82,416.34,185.56,419.92Z"/><path class="cls-29" d="M239.67,454.67c-.18,2.15,1.12,2,1.93,2.39a1.36,1.36,0,0,0,2.06-.95c.65-2.05,1.24-4.12,1.87-6.18.4-1.31.81-2.62,1.25-3.92.32-.95.05-1.54-.95-1.7s-2.31-1.34-2.85.12C241.64,448,240.62,451.67,239.67,454.67Z"/><path class="cls-29" d="M277,450.7c.17,1.18,1.18,1.17,2,1.45s1.48.71,2-.3a6.35,6.35,0,0,0,.38-.79c1.08-3.24,2.11-6.49,3.25-9.71.36-1,.35-1.62-.86-1.92s-2.24-1.11-3,.53c-.23.54-.4,1.1-.59,1.65l-2.79,8C277.3,450,277.15,450.35,277,450.7Z"/><path class="cls-29" d="M139.12,375.23c-1.16,3.31-2.35,6.61-3.48,9.93-.8,2.35-.47,2.82,1.9,3.43,1.22.32,1.51-.3,1.82-1.25.95-3,2-5.9,3-8.87.73-2.26.67-2.35-1.6-3.09a11,11,0,0,0-1.43-.26Z"/><path class="cls-29" d="M218.8,367.61c-1-.1-1.15.66-1.36,1.27-1.15,3.32-2.23,6.65-3.36,10-.24.68-.54,1.37.46,1.61s2.14,1.38,3.17,0a5.89,5.89,0,0,0,.68-1.6c.92-2.67,1.83-5.35,2.76-8C221.88,368.81,221.06,367.64,218.8,367.61Z"/><path class="cls-29" d="M246.89,542.46c3.8,1.44,3.62,1.87,4.93-2.15q1.23-3.76,2.31-7.56c.49-1.68.35-1.7-1.53-2.36-1.34-.47-2-.52-2.48,1.19C249.13,535.23,247.75,538.78,246.89,542.46Z"/><path class="cls-29" d="M129.79,435.21c0,1.53,1.07,1.68,2,1.92s1.79.31,2.14-.89.66-2.25,1-3.37c.7-2.24,1.36-4.5,2.14-6.71.47-1.31-.44-1.69-1.25-1.8s-2-1.38-2.53.12C132,428.07,130.91,431.73,129.79,435.21Z"/><path class="cls-29" d="M175.67,420.77a1.32,1.32,0,0,0-1.52,1.07c-1.05,3.37-2,6.74-3.12,10.1-.38,1.19.16,1.57,1.18,1.82s2.24,1.11,2.76-.42c1.16-3.42,2.17-6.9,3.14-10.38C178.44,421.77,177.33,420.87,175.67,420.77Z"/><path class="cls-29" d="M143.25,525.79a1.18,1.18,0,0,0,1.29-.95c1.13-3.35,2.31-6.68,3.4-10,.48-1.45-.68-1.82-1.7-2.26-1.18-.52-1.86-.14-2.26,1-1.13,3.24-2.31,6.47-3.4,9.73C140.11,524.69,141.37,525.81,143.25,525.79Z"/><path class="cls-29" d="M100,496.93A1.4,1.4,0,0,0,98.48,498c-1.16,3.32-2.36,6.63-3.44,10-.47,1.48.82,1.75,1.8,2.19a1.38,1.38,0,0,0,2.11-.84c1.18-3.31,2.38-6.62,3.47-10C102.86,498,101.78,497,100,496.93Z"/><path class="cls-29" d="M213,416c-.72,0-1,.41-1.2,1-1.06,3.45-2.2,6.87-3.22,10.32-.43,1.45.85,1.47,1.74,1.76s1.7.89,2.13-.47c1.13-3.53,2.27-7.05,3.34-10.59C216.12,417,214.56,415.89,213,416Z"/><path class="cls-29" d="M173.58,500.83c-.1,1.55,1.1,1.38,1.81,1.68s1.78.65,2.18-.57c1.14-3.52,2.27-7.05,3.32-10.6.37-1.22-.67-1.42-1.53-1.62s-1.81-1.06-2.24.19C175.83,493.59,174.7,497.32,173.58,500.83Z"/><path class="cls-29" d="M167.78,364.42c.18,1,1.17,1,1.94,1.39,1.26.59,2,.3,2.42-1q1.56-4.89,3.24-9.75c.3-.86.42-1.49-.7-1.76s-2.21-1.23-3.07.3a11.49,11.49,0,0,0-.61,1.64c-.9,2.49-1.81,5-2.7,7.45C168.11,363.2,168,363.78,167.78,364.42Z"/><path class="cls-29" d="M168.72,452.38c-.82-.33-1.44-.59-2.07-.82a1.57,1.57,0,0,0-2.33,1c-1.15,3.33-2.3,6.67-3.48,10-.26.71,0,1.06.57,1.43,2.19,1.41,3,1.18,3.82-1.25C166.4,459.33,167.53,455.9,168.72,452.38Z"/><path class="cls-29" d="M226.34,454.12c-1.23-.36-1.51.22-1.69.78q-1.62,5.19-3.2,10.39c-.4,1.31.65,1.43,1.46,1.71s2,.88,2.47-.5c1.19-3.53,2.27-7.1,3.37-10.66.22-.72-.27-1.13-.85-1.33A12.62,12.62,0,0,0,226.34,454.12Z"/><path class="cls-29" d="M292.8,459.68l-.29-.08c-3.36-1.17-3.36-1.17-4.44,2.06-.87,2.6-1.76,5.18-2.6,7.79-.53,1.67-.35,1.94,1.34,2.53s1.9.56,2.53-1.18c1.09-3,2.18-6.07,3.21-9.13a9.47,9.47,0,0,0,.22-2Z"/><path class="cls-26" d="M188.36,458.86c-.81-.18-1.09.3-1.28.91-1.06,3.45-2.1,6.9-3.22,10.34-.29.87,0,1.23.74,1.59,2.26,1.17,2.8,1,3.55-1.35.86-2.7,1.65-5.41,2.48-8.12C191.3,460,190.6,459,188.36,458.86Z"/><path class="cls-29" d="M210.6,347.76a.81.81,0,0,0-1.18.5c-1.17,3.61-2.43,7.19-3.39,10.85-.42,1.62,1.28,1.62,2.33,2s1.47-.27,1.75-1.25c.85-3,1.82-5.95,2.7-8.93C213.45,348.77,212.93,348.05,210.6,347.76Z"/><path class="cls-29" d="M147.2,461.49c-.84,0-1.21.54-1.43,1.24-1,3.27-2,6.56-3.06,9.81-.45,1.37.2,1.7,1.31,2s2.18.93,2.69-.59c1.09-3.24,2.12-6.51,3-9.81C150.19,462.58,149,461.47,147.2,461.49Z"/><path class="cls-29" d="M252.24,493.64c.1,1.12,1.14,1.11,1.9,1.45,1.18.53,1.93.39,2.34-1.07.93-3.28,2-6.52,3-9.77.44-1.37-.49-1.79-1.46-2-.82-.2-1.94-1.06-2.43.48-1.12,3.53-2.19,7.07-3.29,10.61A2.53,2.53,0,0,1,252.24,493.64Z"/><path class="cls-29" d="M188.31,488.19c-.18,1.48.75,1.52,1.43,1.82.85.36,1.72.64,2.36-.3a6.83,6.83,0,0,0,.73-1.6c.9-2.68,1.81-5.37,2.67-8.07.61-1.94.5-2.11-1.35-2.75s-1.77-.61-2.46,1.29c-1,2.85-2,5.71-3,8.56C188.51,487.6,188.35,488.06,188.31,488.19Z"/><path class="cls-29" d="M234.28,474.42c-.86-.1-1.17.53-1.4,1.19-1.13,3.33-2.22,6.68-3.38,10-.46,1.32.52,1.55,1.33,1.74s1.9,1.22,2.46-.31c1.31-3.58,2.59-7.17,3.79-10.78C237.36,475.43,235.72,474.39,234.28,474.42Z"/><path class="cls-29" d="M183,351.24c-.07,1.69,1.24,1.5,2,1.88a1.25,1.25,0,0,0,1.9-.75q1.7-5.3,3.28-10.63c.41-1.39-.88-1.21-1.59-1.55-1-.48-1.93-.67-2.37.65-.77,2.31-1.46,4.65-2.19,7Z"/><path class="cls-29" d="M193.57,440.48c.28,1.28,1.55,1.27,2.46,1.72s1.32-.12,1.56-.82c1.18-3.42,2.31-6.86,3.48-10.28.48-1.4-.55-1.75-1.47-2s-1.92-1-2.43.49q-1.75,5.13-3.47,10.28A5.73,5.73,0,0,0,193.57,440.48Z"/><path class="cls-29" d="M157.21,431.38c-.71,0-1,.56-1.15,1.11q-1.62,5-3.17,10.06c-.4,1.32.5,1.64,1.51,2s2,.58,2.42-.7q1.67-5.14,3.17-10.36C160.29,432.46,158.69,431.29,157.21,431.38Z"/><path class="cls-29" d="M155.2,511.83c.76.32,1.28.56,1.82.77,1.33.52,2.26.22,2.7-1.25,1-3.16,2-6.32,3-9.48.38-1.26-.33-1.85-1.45-2-.94-.13-2-.95-2.56.8C157.61,504.4,156.38,508.08,155.2,511.83Z"/><path class="cls-29" d="M218.47,397.7a5.24,5.24,0,0,0,.72.47c3,1.08,3.07,1.08,4.09-2,.84-2.6,1.66-5.21,2.43-7.83.54-1.83.35-1.93-1.62-2.65-1.43-.53-1.9,0-2.27,1.28C220.77,390.49,219.62,394,218.47,397.7Z"/><path class="cls-29" d="M262.47,463.16a.87.87,0,0,0,.5,1c1.77,1.17,3.2.68,3.87-1.38,1-3,1.89-5.95,2.82-8.93.37-1.2-.23-1.82-1.31-2.18s-2.19-.49-2.64.9c-1.07,3.34-2.07,6.71-3.1,10.06C262.55,462.78,262.52,463,262.47,463.16Z"/><path class="cls-29" d="M165.54,481.83c.57.24.91.42,1.28.54,2.4.81,2.42.81,3.22-1.63.87-2.7,1.73-5.41,2.54-8.14.62-2.05-.6-3.41-2.75-3.16a1.11,1.11,0,0,0-1,.93C168,474.2,166.31,477.8,165.54,481.83Z"/><path class="cls-29" d="M234.31,503.29c-.07,1.83,1.4,1.73,2.42,2.12s1.4-.3,1.65-1.11c1-3.17,1.9-6.35,2.88-9.51a1.71,1.71,0,0,0-1.29-2.45c-1.47-.47-2.19-.21-2.69,1.27-1,3-1.88,5.95-2.81,8.93C234.39,502.82,234.35,503.11,234.31,503.29Z"/><path class="cls-29" d="M203.72,410.08c.28,1.34,1.64,1.11,2.54,1.54s1.24-.05,1.51-.86c1.11-3.35,2.28-6.68,3.4-10,.41-1.2-.16-1.78-1.3-2.13s-2-.75-2.5.53c-1.27,3.49-2.41,7-3.61,10.57A2.28,2.28,0,0,0,203.72,410.08Z"/><path class="cls-29" d="M244.37,377c-.38-.3-.75-.62-1.15-.91-1.94-1.44-2.61-1.29-3.34.94-1,3-1.75,6-2.8,9-.62,1.74.38,1.92,1.58,2.38s1.93.35,2.36-1.08c1-3.48,2.2-6.91,3.32-10.35Z"/><path class="cls-26" d="M293.68,490.21c1.05-3.09,2-5.87,2.93-8.64a5,5,0,0,0-.16-4,1.9,1.9,0,0,0-1.89-1.13c-.67,0-.85.74-1,1.27-1.08,3-2.15,6.08-3.17,9.14-.69,2.1-.63,2.17,1.47,2.89C292.38,489.94,293,490,293.68,490.21Z"/><path class="cls-29" d="M118,516c-.2,1.43.75,1.7,1.57,2,1,.33,2,.31,2.42-.93.53-1.58,1-3.18,1.51-4.77s1-3,1.37-4.5c.47-1.74.13-2.05-1.64-2.76-1.54-.61-1.93.2-2.28,1.35-.92,3-1.86,6-2.79,9C118.07,515.65,118,515.94,118,516Z"/><path class="cls-30" d="M285.24,514.54c3-2.49,6.49-4.46,9.07-7.53-2.9.88-4.8,3.35-7.47,4.58a9,9,0,0,0-5.38,3.73,77.89,77.89,0,0,1-9.22,5.68c-2-.14-3.14,1.16-4.36,2.39a57.17,57.17,0,0,1-13.22,6c1.92.6,1.92.59,3.22.18,3.09-1,5.86-2.69,8.86-3.88,2.28-.07,3.81-1.5,5.35-2.92a65.65,65.65,0,0,1,7.66-4.65A9.49,9.49,0,0,0,285.24,514.54Z"/><path class="cls-26" d="M140.37,402.47a14.19,14.19,0,0,0,2.87,4.66c1.34-1.57,1.35-3.62,2-5.45s1.12-3.77,1.86-5.58c.57-1.39.08-2-1.17-2.4-1.57-.51-2.36-.28-2.83,1.07-.74,2.12-1.37,4.29-2,6.45A2,2,0,0,1,140.37,402.47Z"/><path class="cls-29" d="M137.55,545a17,17,0,0,0-3.65-1.46,87.2,87.2,0,0,1-2.92,8.8,4.71,4.71,0,0,0,4.08,2.19C135.62,551.23,137.14,548.23,137.55,545Z"/><path class="cls-31" d="M272.09,522.81a22.43,22.43,0,0,0-5.35,2.92c-.48,1.77-.91,3.56-1.44,5.31s.78,1.66,1.74,2,1.81.67,2.22-.79C270.14,529.1,271.14,526,272.09,522.81Z"/><path class="cls-26" d="M100.79,522.39a12.43,12.43,0,0,0,4.11,2.22c.74-2.8,1.49-5.6,2.27-8.51-.7-.28-1.32-.55-2-.78-1.27-.46-2,0-2.45,1.28C102.13,518.54,101.45,520.46,100.79,522.39Z"/><path class="cls-26" d="M234.27,362.61a1.63,1.63,0,0,0-1.08-1.56c-.51-.55-.82-1.23-1.27-1.82l0,0c-.28.08-.76.08-.81.24-.92,2.47-1.88,4.92-2.61,7.45-.37,1.27,1,1.18,1.75,1.5s1.77.63,2.2-.57C233.11,366.13,233.68,364.37,234.27,362.61Z"/><path class="cls-32" d="M109.44,541.24a3.88,3.88,0,0,0,3.86,2c.62-1.95,1.26-3.89,1.85-5.85.41-1.37,0-1.73-2-2.45-1.16-.43-1.56,0-1.88,1C110.75,537.77,110.07,539.5,109.44,541.24Z"/><path class="cls-32" d="M281.46,515.32a27.64,27.64,0,0,0,5.38-3.73c.08-.48.12-1,.24-1.44.45-1.92,0-2.68-1.87-3.1-.79-.18-1.48,0-1.67.77C282.9,510.34,281.3,512.59,281.46,515.32Z"/><path class="cls-32" d="M180.69,447.32a14.09,14.09,0,0,0-3.14-2.51c-.88,1.2-1.09,2.68-1.59,4-.89,2.42-.45,3.08,2,3.56a1.11,1.11,0,0,0,1.5-.92C179.82,450.1,180.27,448.71,180.69,447.32Z"/><path class="cls-33" d="M153.43,422.4a16.83,16.83,0,0,0-3.07-3.61c-1.27,1.55-1.47,3.55-2.17,5.33-.6,1.54.57,2,1.72,2.42,1.32.52,1.91,0,2.29-1.25A6.31,6.31,0,0,1,153.43,422.4Z"/><path class="cls-33" d="M208.86,470.68a18.71,18.71,0,0,0,2.94,3.4c1.12-1.64,1.4-3.62,2.1-5.42.64-1.63-.7-1.68-1.67-2.06s-1.85-.71-2.24.76C209.69,468.49,209.24,469.58,208.86,470.68Z"/><path class="cls-32" d="M178,443.22a11.74,11.74,0,0,0,2.82,2.39c1.55-1.36,1.93-3.31,2.4-5.13.29-1.12-1-.93-1.65-1.23-.93-.44-2-.56-2.49.63A34.24,34.24,0,0,0,178,443.22Z"/><path class="cls-34" d="M150.81,417.12a14,14,0,0,0,2.68,3.12c1.44-1.25,1.54-3.13,2.08-4.76s-1.12-1.68-2.12-2.14-1.67-.2-1.92,1C151.32,415.24,151.05,416.18,150.81,417.12Z"/><path class="cls-35" d="M285.24,514.54a37.73,37.73,0,0,0-5.49,3.62c-.22,1.89,1.33,1.93,2.46,2.23,1.3.35,1.67-.76,2-1.69C284.6,517.34,285.44,516.07,285.24,514.54Z"/><path class="cls-36" d="M87.68,530A3.74,3.74,0,0,0,91.56,532c0-.09,0-.18.08-.28,1.2-3.7,1.2-3.7-2.92-4.43Z"/><path class="cls-37" d="M104.5,526.23a11.45,11.45,0,0,0-4.19-2.29c-.14.65-.25,1.31-.44,1.95s-.38,1.36.32,1.81a4.23,4.23,0,0,0,3,.63c.24,0,.46-.57.58-.91A2.18,2.18,0,0,1,104.5,526.23Z"/><path class="cls-38" d="M267.88,523.39a18.49,18.49,0,0,0,4.36-2.39,4,4,0,0,0-.69-.5c-2.44-1.07-3-.8-3.56,1.74A10.92,10.92,0,0,0,267.88,523.39Z"/><path class="cls-29" d="M166.56,524.62c.81-.94,1.64-1.87,2.45-2.81.42-.49,1.16-1,.22-1.62a1.26,1.26,0,0,0-2,.43c-.53,1.11-.87,2.3-1.3,3.46Z"/><path class="cls-39" d="M224.87,348.64c-.45.06-1,0-.89.74a.27.27,0,0,0,.2.19c.73,0,.61-.53.66-1Z"/><path class="cls-29" d="M235.84,134.25c1.23-.2,2.54.21,3.7-.48C238.29,133.78,237,133.33,235.84,134.25Z"/><path class="cls-40" d="M254.8,333.1c-.69.8-.3,1.54-.11,2.28,2.24,8.51,7.86,13.82,15.92,16.82,4.43,1.65,9.15,2.21,13.68,3.51,2.82.82,5.65,1.64,8.44,2.58a14.82,14.82,0,0,1,8.94,7.64c.83,1.67,1.85,3.24,2.8,4.85,4.56,7.76,11.95,11,20.31,12.67a2.17,2.17,0,0,0,.88,0c.15,0,.27-.24.4-.37-.05-.88-.76-.69-1.3-.8a40,40,0,0,1-8.15-2.5,23.27,23.27,0,0,1-11.34-9.91c-.87-1.54-1.81-3-2.61-4.61a16.26,16.26,0,0,0-9.39-8,127.58,127.58,0,0,0-16.17-4.42,34.89,34.89,0,0,1-11.26-4.19A21.62,21.62,0,0,1,256,335.49c-.2-.75-.46-1.48-.71-2.22C255.26,333.22,255.12,333.21,254.8,333.1Z"/><path class="cls-41" d="M247.34,309.94c-.84,3,0,5.75.1,8.57.15,3.42.67,6.83,1,10.25.19,1.73.46,1.91,2,1.07,2.4-1.32,4.76-2.73,7.48-4.31Z"/><path class="cls-22" d="M323.93,392.34c0-.54-.46-.58-.82-.62-9.64-.86-16.82-6-22.89-13.12-1.15-1.34-2.18-2.77-3.29-4.15-.26-.32-.61-.54-1-.15a.6.6,0,0,0,0,.8l.15.25c6.46,8.8,14.14,15.83,25.5,17.46C322.39,392.92,322.39,392.92,323.93,392.34Z"/><path class="cls-2" d="M231.92,359.23a2.12,2.12,0,0,0,1.27,1.82A2.16,2.16,0,0,0,231.92,359.23Z"/></g></g></svg>