<svg xmlns="http://www.w3.org/2000/svg" viewBox="0 0 614.53 582.01"><defs><style>.cls-1{fill:#e2603d;}.cls-2{fill:#a5d6cc;}.cls-3{fill:#f39785;}.cls-4{fill:#e998a4;}.cls-5{fill:#3d519f;}.cls-6{fill:#e2b13b;}.cls-7{fill:#67150f;}.cls-8{fill:#d73d30;}.cls-9{fill:#681711;}.cls-10{fill:#661610;}.cls-11{fill:#671711;}.cls-12{fill:#e3603e;}.cls-13{fill:#e3613e;}.cls-14{fill:#691711;}.cls-15{fill:#681712;}.cls-16{fill:#681812;}.cls-17{fill:#681813;}.cls-18{fill:#691913;}.cls-19{fill:#6b1b15;}.cls-20{fill:#e46745;}.cls-21{fill:#3f52a0;}.cls-22{fill:#6c1d18;}.cls-23{fill:#e57050;}.cls-24{fill:#e67454;}.cls-25{fill:#e67658;}.cls-26{fill:#fffdfc;}.cls-27{fill:#fffcfb;}.cls-28{fill:#fffdfd;}.cls-29{fill:#fffcfc;}.cls-30{fill:#fffbfb;}.cls-31{fill:#6a1711;}.cls-32{fill:#fef9f8;}.cls-33{fill:#fefaf9;}.cls-34{fill:#fffbfa;}.cls-35{fill:#fdf4f1;}.cls-36{fill:#661711;}.cls-37{fill:#691610;}.cls-38{fill:#671a13;}.cls-39{fill:#671c14;}.cls-40{fill:#e06548;}</style></defs><title>illustration_03_what we do</title><g id="Layer_2" data-name="Layer 2"><g id="base"><path class="cls-1" d="M456,445.58c6.35,2.54,12.6,5.38,19.37,6.7,3.37.66,6.76,1.11,10.06-.46,2.16-1,3.55-2.59,3.55-5.06a3,3,0,0,1,2.74-3.31c6.57-1.1,13-1.8,18.68,3.14,3.84,3.35,8.74,3.94,13.4,2.9A16.69,16.69,0,0,1,537.11,452c2.32,1.46,4.72,2.77,7.08,4.15.27-1.16-.63-1.74-1.26-2.42q-12.21-13.24-24.32-26.6Q492,397.93,465.43,368.82q-25.74-28.23-51.51-56.44a6.48,6.48,0,0,1-1.56-2.09c5.65,6.12,11,12,16.34,17.88q27.57,30.18,55.12,60.39,26.48,29,52.9,58,5.35,5.85,10.7,11.7c.48.52.79,1.36,1.76,1.17,1.23,0,2.11.95,3.26,1.12.57.09,1.24.42,1.7-.24a1.59,1.59,0,0,0-.07-1.76,29.58,29.58,0,0,0-3.85-5.07c-21.43-24.71-43.55-48.79-65.65-72.89q-47.74-52.07-95.68-104c-16.73-18.14-33.57-36.19-50.54-54.48-.62,1.19-1.17,2.26-1.73,3.31-.19.36-.38.82-.88.74s-.61-.63-.6-1.14a8.6,8.6,0,0,1,0-1.43c.78-4.41-1.09-7.77-4.05-10.79-1.25-1.26-2.25-2.76-3.42-4.1-.68-.78-.34-1.1.44-1.2a4.21,4.21,0,0,1,1.62.11,9.79,9.79,0,0,1,2.86,1.11c4.47,3.22,9.73,4.27,14.88,5.66.62.17,1.62.07,1.62.94s-1,.72-1.61,1-1.42.49-2.35.8c2.6,2.28,5.08,4.39,7.49,6.58a93.07,93.07,0,0,1,11.87,12.52,1.61,1.61,0,0,0,2.49.57c5.71-3,11.47-5.85,17.26-8.69,1.14-.55,1.22-.9.38-1.84-1.6-1.78-3.05-3.68-4.79-5.82-.65,1.51-1.19,2.79-1.75,4.06-.19.43-.35,1-1,.88s-.55-.7-.56-1.16c-.07-4.11-.1-8.22-.22-12.33,0-1.31.44-1.56,1.59-1.25,3.84,1.05,7.69,2.06,11.53,3.09.47.12,1,.22,1,.83s-.63.62-1.07.72c-1.27.28-2.55.53-4.14.86,2,2.63,4,5.08,5.88,7.56.54.71,1,.37,1.59.09,4.35-2.17,8.69-4.38,13.07-6.51,1.31-.64.84-1.43.52-2.36-3.25-9.38-8.61-17.56-14.45-25.46-.89-1.22-1.8-2.43-2.8-3.55-.55-.61-.91-2.33-2.27-.56-.46.61-1-.12-.91-.73.55-2.75-1.37-4.27-2.9-6a210.84,210.84,0,0,0-62.56-47.55,2.79,2.79,0,0,0-3.3.26c4,4.85,7.93,9.66,11.86,14.5.44.54,1.36,1,.9,1.87s-1.26.33-1.9.22c-1.25-.24-1.9.18-2.1,1.47-.08.56,0,1.38-.79,1.53s-1.08-.72-1.47-1.22c-3.84-4.82-7.65-9.67-11.63-14.73-.66,1.43-1.22,2.67-1.79,3.89-.2.42-.29,1-.92.92s-.53-.73-.56-1.17c-.22-3.83-.53-7.66-.58-11.5a2.34,2.34,0,0,0-1.78-2.47C293.9,119.54,281,116,268,112.7q-7.77-2-15.57-3.81c-.57-.14-1.24-.74-1.76.24-.33.61-.89.32-1.15-.12-.75-1.24-2.05-1.29-3.22-1.55-9.75-2.19-19.57-4.07-29.43-5.7a8,8,0,0,1-1.15-.34c-1.61-1.18-3.35-.7-5.07-.38-.43.51-.72,1.16-1.51,1.28a2.58,2.58,0,0,0-2.28,2.06c-.25,1-.76.8-1.29.19-1.2-1.41-2.26-2.92-3.43-4.36a27.14,27.14,0,0,0-7.34-1.65c-1.48.17-1.88,1.06-1.78,2.45a21.45,21.45,0,0,1-1.08,9.53c-1.69,4.34-5.12,6.72-9.32,8.06C172,122,161.85,118,156.16,108.32c-.81-1.36-1.51-2.77-2.18-4.2-1.14-1.75-2.49-3.36-3.47-5.22a1.58,1.58,0,0,0-1.22-1A112.16,112.16,0,0,1,134,95.07a126.39,126.39,0,0,1-15.12-4.94c2.42,3.09,4.52,5.76,6.6,8.45.4.51,1.17,1,.8,1.73s-1.11.53-1.68.45c-1.25-.18-1.5.56-1.74,1.5-.15.62,0,1.54-.89,1.68s-1.08-.75-1.47-1.26q-5.55-7.14-11-14.33c-.17-.21-.37-.39-.78-.81-.55,1.06-1,2-1.54,2.91-.44.71-.52,2.11-1.51,1.91S105,90.87,105,90c-.06-1.85-.15-3.7-.08-5.55a1.94,1.94,0,0,0-1.09-2C89.21,73.8,77.49,62,67.27,48.55A217.21,217.21,0,0,1,54.46,29.68c-.66-1.08-1.15-1.34-2.35-.58-4.63,2.92-9.35,5.71-14.2,8.65,1.5,1,3.17,1,4.66,1.56.44.16,1.09.17,1.12.75,0,.77-.72.69-1.21.8-1.25.29-2.5.53-4.06.85l9.14,11.18c1.09,1.32,2.17,2.65,3.27,4,.35.42.85.82.55,1.42s-.83.42-1.3.4c-1.46,0-2.55.33-2.69,2,0,.53-.16,1.23-.77,1.33s-.9-.54-1.23-.95C41.78,56.52,38.12,52,34.6,47.33c-1-1.37-1.52-1.14-2.15.19-.36.74-.8,1.44-1.23,2.14-.24.38-.44.94-1,.79s-.45-.75-.46-1.2l-.19-6.42c-5.64,3.42-10.95,6.66-16.28,9.85a1.1,1.1,0,0,0-.53,1.37C14.26,63,16,71.87,19.5,80.31a7.69,7.69,0,0,0,.72,1c0-1.76,0-3.23,0-4.7,0-1,.38-1.35,1.38-1.08q6,1.62,11.91,3.2c.41.11.85.23.85.73s-.5.58-.89.66c-1.33.29-2.67.56-4,.83-.12.84.47,1.2.83,1.66,3.46,4.43,6.95,8.84,10.4,13.28.39.51,1.21.92,1,1.69s-1.19.49-1.82.53c-1.19.07-1.94.42-1.89,1.8,0,.5.09,1.26-.56,1.41s-1-.55-1.41-1q-5.62-6.83-11.23-13.67c-.3-.36-.63-.71-1-1.12a3.4,3.4,0,0,0-.66,4,525.94,525.94,0,0,0,36.56,74.24c7.92,13.38,15.76,26.8,23.95,40a4.36,4.36,0,0,0,3,2.21c2.28.5,4.52,1.17,6.76,1.79.57.16,1.44.11,1.45.88s-.85.73-1.41.86c-1.13.26-2.28.48-3.39.71-.21.85.43,1.19.78,1.63,3.45,4.44,6.94,8.84,10.41,13.27.41.52,1.19,1,.88,1.73s-1.21.5-1.86.47c-1.28-.06-1.5.41-.85,1.44,5,7.95,10,15.89,15.19,24.28,0-1.78.11-3.08,0-4.38s.37-1.49,1.46-1.19c3.9,1.05,7.81,2.08,11.71,3.14.46.12,1,.26,1,.88s-.66.6-1.1.7c-1.26.28-2.53.53-4.12.86l5.17,6.6q3.32,4.2,6.61,8.42c.36.46,1.06.88.73,1.56s-1,.5-1.5.45a1.6,1.6,0,0,0-2,1.54c-.11.61,0,1.55-.9,1.65s-1.06-.79-1.46-1.3c-3.57-4.51-7.11-9.05-10.7-13.56-.28-.36-.5-1.23-1.17-.78s-.36,1,0,1.63c4.6,7.9,9.59,15.51,16.11,22,.63.62,1.34,1.16,2,1.73,1.7,2.18,4.21,2.73,6.7,3.19a36.1,36.1,0,0,0,11.27,0c5.78-.74,11.62-.81,17.41-1.56a203.09,203.09,0,0,1,22.32-1.83c17.42-.3,34.27,2.85,50.74,8.27,8.93,2.93,17.92,5.67,26.9,8.41a3.6,3.6,0,0,0,2.6.21c.85-.73.64-1.73.68-2.67s0-1.91,0-2.87c.06-2.09.12-2.17,2.1-1.63,3.4.91,6.83,1.75,10.65,2.86a16.52,16.52,0,0,1-3.53,1.13c-1,.36-1.31,1-.65,1.87,1.5,1.94,2.73,4.11,4.73,5.63,6.57,2.17,13.43,3.14,20.12,4.83a139.2,139.2,0,0,0,15.69,3c1.12.15,2.27.64,3.38-.08.36-.76-.11-1.32-.51-1.86-1.07-1.43-2.15-2.86-3.33-4.2s-1.86-1.34-3,.24c-.48.64-.66,1.5-1.65,2.09-.13-3.91-.21-7.65-.2-11.39,0-.86.53-1.23,1.38-1.06,3.61.75,7.22,1.46,11.2,2.65-1.37.69-2.42.95-3.36,1.45s-1.23,1.05-.64,1.81c3.08,3.94,5.81,8.15,9.45,11.64a47,47,0,0,0,9.18.54A113,113,0,0,0,365.78,312a6.63,6.63,0,0,0,2.52-.79c.86-.81.25-1.52-.22-2.16-1.17-1.61-2.4-3.18-3.7-4.68-1.16-1.34-1.72-1.23-2.57.32a6.54,6.54,0,0,1-1.28,2.31c-.6-1.15-.37-2.32-.43-3.41-.12-2.59-.37-5.18-.43-7.79,0-1,.27-1.69,1.39-1.44,3.66.81,7.25,1.88,11.15,2.91a6.45,6.45,0,0,1-3.26,1.56c-.82.29-1.46.79-.83,1.66a63.31,63.31,0,0,0,7.54,8.89c.08.09.25.08.39.09a58.23,58.23,0,0,0,11.07-4.89c1.33-.7,2.61-1.51,3.9-2.31,1.82-1.13,2.14-1,3.13.86,2.91,5.6,5.53,11.34,8.15,17.09,6.65,14.61,13,29.37,19.29,44.12a8.5,8.5,0,0,0,.85,1.64,2.55,2.55,0,0,0,1.79.9c3.8.58,6.69,2.7,9.16,5.48,5.6,6.33,10.55,13.16,15.52,20,6.59,9,13.89,17.49,21.2,25.94,3.46,4,6.94,8,10.16,12.15a28.23,28.23,0,0,1,3,4.89c1,2.14.48,3-2,3-.87,0-1.78-.34-2.6.24.07,1.17.07,1.17,1.71,3.3-1.83-1.22-2.47-3.48-4.42-4.43-4.76-.87-9.41-2.2-14.08-3.46a3.15,3.15,0,0,0-2-.29c-.24.26-.21.61-.33,1.1-.63-.67-.86-1.53-1.5-2.05-1.16-.49-2.2-1.43-3.61-.93-.29.16-.41,1.1-.94.21a6.11,6.11,0,0,0-1.34-2c-.72-.51-1.42-1-2.18-1.48s-1.11-.07-1.19.71c.82,3.63,2.65,6.89,3.89,10.36.53,1.49,1.19,2.92,1.84,4.36C454.9,444.66,455.17,445.4,456,445.58Z"/><path class="cls-2" d="M423,366.13c-9.14-21.15-17.95-42.44-28.24-63.08-1.47-2.93-1.51-2.95-4.3-1.19a90.29,90.29,0,0,1-14.65,7.25c-.67.3-1.36-.06-2,.06a14,14,0,0,0-3.33.73c-.59.36-1.31.43-1.9.81a112.68,112.68,0,0,1-31.84,2,12.07,12.07,0,0,0-1.73-.57,25.76,25.76,0,0,0-5-.49c-.78.42-1.56-.11-2.34,0A129.21,129.21,0,0,1,307.37,308c-6.27-1.54-12.59-2.9-18.89-4.34-.92,0-1.43-.83-2.19-1.14-2.5-1-5.36-1-7.48-3-.71-.68-1.8.35-2.75.22-.57.15-1.08-.16-1.62-.24-6.72-1.6-13.28-3.77-19.84-5.91-13.15-4.28-26.31-8.48-40.12-10.2a145.88,145.88,0,0,0-35.19-.14c-10.54,1.24-21.11,2.25-31.71,2.79a19.39,19.39,0,0,1-11.16-3c1.44,3.76,4,6.87,6.12,10.18a540.25,540.25,0,0,0,35.75,48.44A414.48,414.48,0,0,0,212,378.19a262,262,0,0,0,27.36,22.94c11.59,8.36,24.41,14.38,37.26,20.36a346.69,346.69,0,0,0,64.91,22.62c1.53.37,3.09.59,4.63.88.41-1-.33-1.56-.79-2.18-8.24-11.24-16.24-22.64-23.78-34.36q-4.4-6.84-8.75-13.71c3.91,5.69,7.47,11.61,11.29,17.36,7.34,11,14.84,21.95,22.88,32.48.45.59.69,1.55,1.76,1.44,3-.14,5.88,1,8.84,1.39.48.06.92.77,1.29,1.24q14.38,18.12,28.74,36.23,11.82,14.89,23.71,29.73c.94,1.16.86,2.56,1.25,3.85,2.14,7.07,5.77,12.93,12.74,16.25a103.51,103.51,0,0,0,13.56,5.3,3.92,3.92,0,0,0,2,1c13,3,24.3.24,33.34-10a32.81,32.81,0,0,0,7.31-14.09,4.51,4.51,0,0,0,.13-2.62,72.3,72.3,0,0,0,.12-10.2,20.73,20.73,0,0,0-6.53-13.77,17.35,17.35,0,0,1-4-6.71c-4.71-12.3-9.67-24.51-14.73-36.67a10.51,10.51,0,0,1-.37-1.39c-2.2-4.46-3.79-9.18-5.75-13.75-.43-1-.79-2-1.18-3.05a7,7,0,0,0-.77-3.16c-6.34-15.47-12.62-31-19.22-46.33-.05-.12-.08-.26-.12-.39a3.86,3.86,0,0,0-.25-.64c-1.43-3.16-2.75-6.38-4.08-9.59A7.26,7.26,0,0,0,423,366.13Z"/><path class="cls-3" d="M481.59,514.32a35.45,35.45,0,0,1-9.75,18.35c-7.75,7.67-17,10.16-27.59,8.47-1.81-.29-3.6-.75-5.4-1.13,1.29,2.85,3.49,5.06,5.42,7.45,9.54,11.81,20.43,22.14,33.44,30.12,1,.64,2.3.93,3.07,2,3,1.8,7.57,0,8.74-3.37,1.08-3.15.68-6.37.46-9.57a105.57,105.57,0,0,0-3-16.38,155.2,155.2,0,0,0-4.26-15,41.83,41.83,0,0,1,2.05,6.29A177.41,177.41,0,0,1,489.62,563a32.65,32.65,0,0,1,.26,12.23c-.49,2.34-1.53,4.08-4.1,4.53a1.51,1.51,0,0,0-1.4,1,18.1,18.1,0,0,0,6,1.19c3.48,0,5.83-1.8,6.56-5.25a27.87,27.87,0,0,0-.05-10.22,230.23,230.23,0,0,0-10.48-39.46c-1.22-3.48-2.39-7-3.59-10.48A4.48,4.48,0,0,0,481.59,514.32Z"/><path class="cls-4" d="M11.29,49c.7,3.6.71,3.62,3.23,2.1C26.76,43.74,39,36.3,51.26,28.92c1.37-.82,1.62-1.41.57-2.74-2.28-2.9-3.85-6.32-6.55-8.94A20.76,20.76,0,0,0,41.08,14c-2.81-1.61-5.49-1-7.34,1.72-.23.33-.45.69-.68,1-2.3,3.51-2.61,3.6-6.42,1.92-3.15-1.4-6.16.19-7.42,4-.66,2-1.21,4.08-1.8,6.11A2.7,2.7,0,0,1,15,30.89c-2.44.23-3.35,1.86-3.75,4A43.33,43.33,0,0,0,11.29,49Z"/><path class="cls-5" d="M195.14,99l6.79,1.35a2.84,2.84,0,0,0,1.67.77c1.72.37,3.49.3,5.24.53.61,0,1.26.1,1.79-.36l5.13.09c1-.13,1.9-.24,2.84-.41a6.06,6.06,0,0,0,4.73-8.52c-1.82-4.56-5.46-6.83-10.09-7.78a30.12,30.12,0,0,0-7.35-.3,32.48,32.48,0,0,1-18.14-5c-2.41-1.45-4.8-2.93-7.19-4.4-3.41,2.43-7.33,3.89-11,5.87a4,4,0,0,0-1.64,1.18c-.33,1.15.55,1.76,1.17,2.42,6.39,6.78,14.29,11.12,23,14.16C193.1,99,194.14,98.8,195.14,99Z"/><path class="cls-4" d="M408.51,222.59c-1-5.57-1.05-5.59-5.28-3.47Q385.62,228,368,236.85c-1.14.57-2,.84-.83,2.51a66,66,0,0,1,4.11,7.55c.54,1,1.22,1.85,2.53,1.71s1.78-1.14,2.13-2.21c.26-.78.5-1.57.72-2.36s.46-1.52,1.33-1.64a1.9,1.9,0,0,1,1.81,1.16c.82,1.41,1.43,3,2.29,4.35,1.65,2.72,4.23,2.6,5.68-.27.76-1.52,1.26-3.17,2-4.73.89-2,2-2.31,3.71-1,1.3,1,2.46,2.17,3.68,3.25a10.08,10.08,0,0,0,3,1.84c3.48,1.39,6,.27,7.26-3.25a40.37,40.37,0,0,0,1.83-15.4A26.89,26.89,0,0,0,408.51,222.59Z"/><path class="cls-6" d="M168,82.37c3.37-1.7,6.72-3.42,10.1-5.08A5.14,5.14,0,0,0,180.56,75c-.12-3-1.91-5.37-3.13-7.94s-2.62-4.95-3.85-7.47c-.71-1.45-1.55-1.55-2.72-.61a12.86,12.86,0,0,0-3.44,4.32c-.93,1.85-2.34,2.16-4.12,1.6-2.35-.74-4.68-1.56-7-2.29-2.16-.67-3.21-.18-4,2-.85,2.32-1.56,4.68-2.35,7s-1.56,2.85-4.11,2.7a19.3,19.3,0,0,0-5.92.28c-1.48.37-1.93,1.11-1.21,2.53,2.14,4.21,4.28,8.41,6.33,12.66A3.36,3.36,0,0,0,148.36,92c.95.38,1.73-.14,2.53-.5,3-1.38,5.9-2.93,8.83-4.41,2-1.07,4-2,6-3A4,4,0,0,0,168,82.37Z"/><path class="cls-7" d="M549.18,459.39q-24.6-26.92-49.2-53.87-41-44.88-81.88-89.77c-1.62-1.78-3.23-3.55-4.88-5.29-.43-.45-.86-1.45-1.59-.83s.21,1.22.6,1.66Q421.1,321,430,330.72l62.06,68q25.29,27.72,50.61,55.41c.55.6,1,1.28,1.53,1.92,3.64,3.41,6.78,7.29,10.18,10.92.28.3.57.59.86.88s.75,1.2,1.43.52-.17-1-.48-1.31c-2-2.23-4-4.42-6.07-6.63C549.79,460.13,549.49,459.76,549.18,459.39Z"/><path class="cls-8" d="M526,472.54a3,3,0,0,0,.47,1.22,32.82,32.82,0,0,0,9.46,8c2.61,1.37,5.91-.32,7.93-3.49a5.63,5.63,0,0,0-1.09-7.42c-2-1.83-4.11-3.62-6.23-5.35a5.58,5.58,0,0,0-6.86-.55A7.47,7.47,0,0,0,526,472.54Z"/><path class="cls-9" d="M493.31,373.05c.6.64,1,1.05,1.34,1.45Q523.33,404.74,552,435q30,31.67,60.11,63.28c.58.61,1.22,2.16,2,1.47,1.18-1-.56-1.71-1.11-2.29q-36.54-38.62-73.18-77.17-22.2-23.38-44.38-46.78c-.28-.3-.58-.59-.87-.87a.48.48,0,0,0-.72,0C493.68,372.78,493.46,372.93,493.31,373.05Z"/><path class="cls-10" d="M3.25,65.41A300.3,300.3,0,0,0,22,123.22a477.71,477.71,0,0,0,28.65,55.31c.18.29.29.67.55.86.42.31.36,1.45,1.24.93s0-1.21-.24-1.69c-1.71-3-3.49-6-5.25-9a423.2,423.2,0,0,1-29.72-61.41A255.77,255.77,0,0,1,3.52,60,124.16,124.16,0,0,1,1.36,32.77c0-.53.3-1.23-.49-1.34-1.12-.15-.7.88-.73,1.31a105,105,0,0,0,1,19.89A125.14,125.14,0,0,0,3.25,65.41Z"/><path class="cls-10" d="M348.72,446c-10.57-13.88-20.44-28.24-29.79-43q-2.85-4.49-5.78-8.92c-.28-.43-.45-1.43-1.28-.92s-.1,1,.22,1.5c8.73,13.75,17.54,27.45,27.15,40.61,2.33,3.19,4.58,6.44,6.87,9.66l12.05,15.79q21.54,28.22,43.9,55.79c.32.4.53,1.59,1.45.86s-.16-1.23-.5-1.65q-17.29-21.36-34.1-43.11C362.08,463.86,355.24,455.06,348.72,446Z"/><path class="cls-11" d="M150.39,330.86l.69,1q18.13,27.09,38.09,52.88a413.06,413.06,0,0,0,31.07,36.3c.56.57,1.18,2.14,2.09,1.22s-.69-1.51-1.25-2.09c-12.3-12.69-23.4-26.4-34.14-40.41-12.19-15.9-23.78-32.22-35-48.81-.31-.46-.41-1.28-1.27-1.07C150.32,330,150.07,330.25,150.39,330.86Z"/><path class="cls-5" d="M235.55,87.15c-1.86.45-3.83.6-5.2,2.21-1.16,1.37-1.19,3,.32,3.65,5,2,10.1,3.51,15.5,1.44a5.2,5.2,0,0,0,1.54-1c2.49-2.16,2.17-4.39-.85-5.66C243.18,86.29,239.37,86.46,235.55,87.15Z"/><path class="cls-12" d="M36.81,99.38c-.15-2.6,1.34-2.38,2.93-2.44-.5-.69-.84-1.22-1.23-1.71q-5-6.39-10-12.77c-1.63-2.08-1.61-2.13,1-2.74.24-.06.48-.15,1.22-.39-3-.8-5.56-1.46-8.09-2.17-.81-.22-1.15-.06-1.12.84.08,2.52.1,5,.15,7.6.28-.06.46,0,.5-.12,1.38-2.34,1.39-2.35,3.19-.15C29,89.82,32.67,94.33,36.81,99.38Z"/><path class="cls-12" d="M116.85,256.93c1.6-1.87,1.6-1.88,3-.06l11.33,14.39c.46-1.43.75-2.87,3.05-2.37l-7.51-9.57c-1.35-1.73-2.72-3.44-4.07-5.17s-1.4-1.88.8-2.37a2.06,2.06,0,0,0,1.18-.59c-2.67-.73-5.34-1.46-8-2.17-.34-.09-.82-.09-.78.36C116.14,251.84,115.19,254.46,116.85,256.93Z"/><path class="cls-13" d="M324.57,148.93c.35-1.81,1.1-3,3.55-2.1-4.26-5.19-8.09-10-12.05-14.64-1.2-1.42-1.13-2.08,1-2.41-2.35-1.86-4.91-2.37-7.73-2.88.13,3,.26,5.87.39,8.79.21-.07.31-.07.33-.11,1.74-2.86,1.74-2.86,3.82-.21Z"/><path class="cls-14" d="M484.38,580.82c5.43-1.38,6.87-3.68,6.54-10.65-.39-8.26-2.3-16.27-4.37-24.23-.94-3.58-2-7.12-3.14-10.64-.19-.6.12-2.11-1.17-1.62-.92.35-.18,1.48,0,2.16a189.23,189.23,0,0,1,6.25,24.7,48,48,0,0,1,1,12.65c-.42,5-1.65,6.11-7.32,6.47a9.54,9.54,0,0,1-1.4-.11c-7-1.22-12.51-5.27-17.76-9.72-1.67-1.41-3.19-3-4.8-4.47-.36-.34-.72-1-1.33-.36s0,.85.35,1.17c5.4,5.4,11.17,10.3,18.34,13.26A17.59,17.59,0,0,0,484.38,580.82Z"/><path class="cls-13" d="M39.54,40.11c-3.28-2.43-5.64-.07-7.92,1.53-1.83,1.29-.14,3.42-1,5.31.57-.22.75-.23.8-.32,1.88-3,1.88-3,4-.23L46.23,60c.24-2.1,1.35-2.82,3.5-2.47L40.85,46.7l-3.27-4c-1.36-1.63-1.31-1.78.77-2.29C38.72,40.35,39.1,40.23,39.54,40.11Z"/><path class="cls-15" d="M28.29,3c.37.95.9.49,1.47.24a20.64,20.64,0,0,1,11-1.79c7.37.88,12.28,5.33,16,11.31,3.51,5.62,6.72,11.41,10.55,16.83,5.11,7.23,11.11,13.69,17.08,20.19.35.39.76,1.29,1.42.51s-.3-1.08-.66-1.47c-6.13-6.72-12.25-13.43-17.49-20.9C63.57,22,60.4,15.52,56.24,9.67c-5.7-8-14.14-11.22-23.16-9a31,31,0,0,0-4,1.47C28.73,2.31,28.16,2.34,28.29,3Z"/><path class="cls-8" d="M572.88,482.49a4.45,4.45,0,0,0,3.64-3.22A4.06,4.06,0,0,0,575,474.7c-1-.78-1.88-1.61-2.85-2.36a4.34,4.34,0,0,0-6.07.6c-2,2.33-1.94,4.78.18,6.54C568.17,481.06,569.9,483.19,572.88,482.49Z"/><path class="cls-15" d="M419.11,219.11c-3.94-18.2-12.62-34-24.51-48.17-.32-.39-.62-1.29-1.4-.7s.09,1.07.4,1.43a117.75,117.75,0,0,1,20.54,34.58A80.51,80.51,0,0,1,419.61,235a4.47,4.47,0,0,0,0,.82c.09.47-.22,1.26.71,1.16.69-.08.55-.65.55-1.13a73.93,73.93,0,0,0-.79-11.89C419.85,222.32,419.44,220.72,419.11,219.11Z"/><path class="cls-5" d="M159.54,86.58,148.36,92c-.26,2.07.58,4,.93,5.94a30.47,30.47,0,0,0,4.23,6.2c1,.88,1.12.07,1.2-.62.18-1.71.28-3.41.6-5.11A27.58,27.58,0,0,1,159,88.64C159.37,88,160,87.43,159.54,86.58Z"/><path class="cls-13" d="M390.35,224.86l-5.75-7.35c-1.7-2.18-1.7-2.18,1.06-2.83.19,0,.37-.13,1-.36l-8.2-2.2c-.86-.23-.91.34-.9.92q.09,3.89.2,7.81c.21,0,.38,0,.42-.1,1.37-2.55,1.38-2.56,3.27-.32a53.28,53.28,0,0,1,3.75,4.62c1,1.48,2,1.9,3.47.76A14.61,14.61,0,0,1,390.35,224.86Z"/><path class="cls-16" d="M25.26,151.78c2.6,5.11,5.17,10.32,7.88,15.45,4.66,8.81,9.41,17.58,14.12,26.36a7,7,0,0,0,.6,1.07c.27.36.27,1.28,1.09.73.66-.43.21-.95-.05-1.42-.65-1.2-1.29-2.41-1.95-3.6q-10.5-19-20.16-38.45c-.13-.25-.28-.48-.38-.73-.19-.46-.37-1-1-.72S25.14,151.27,25.26,151.78Z"/><path class="cls-13" d="M121.68,102.16c.19-1.92.72-2.92,2.38-2.72a27.89,27.89,0,0,0-15-13.64Z"/><path class="cls-17" d="M77.45,223c1-.46.47-.95.15-1.48-2.17-3.54-4.32-7.1-6.48-10.66q-5.31-8.73-10.65-17.44c-.31-.5-.4-1.63-1.35-1s0,1.18.3,1.67q8.42,13.91,16.91,27.77C76.61,222.24,76.68,223,77.45,223Z"/><path class="cls-18" d="M421.14,196.36a64.61,64.61,0,0,0-9.78-18.51c-.91-1.19-1.89-2.33-2.87-3.47-.28-.31-.56-.9-1.16-.45s-.12.93.22,1.32a61.53,61.53,0,0,1,11.1,18.05c.43,1.08.82,2.17,1.25,3.25.15.41.11,1,.87.81S421.21,196.66,421.14,196.36Z"/><path class="cls-19" d="M111.08,72a6.45,6.45,0,0,1,.16-.81c.14-.44-.14-.61-.45-.78-6.45-3.58-11.9-8.44-17.3-13.37-.34-.31-.68-.8-1.2-.32s-.1.86.25,1.18c5.4,4.93,10.84,9.81,17.26,13.43C110.1,71.45,110.4,71.6,111.08,72Z"/><path class="cls-20" d="M89.52,213.16q1.94,3.09,3.88,6.18,1.74,2.78,3.49,5.55c1,1.51,1,1.5,3.15.83L89.93,212.89Z"/><path class="cls-21" d="M233.55,100.78c1.07-.31,2.92-.19,2.91-1.32,0-1.41-1.89-1.16-3-1.41a8.81,8.81,0,0,0-3.65,0,1.43,1.43,0,0,0-1.21,1.62,1.25,1.25,0,0,0,1.29,1.3A9.61,9.61,0,0,0,233.55,100.78Z"/><path class="cls-22" d="M445.59,554.24c.41.55.83,1.17,1.32,1.73,1.69,1.94,3.41,3.86,5.13,5.77.3.33.63.86,1.18.42s.24-.79-.13-1.18a65.14,65.14,0,0,1-6.38-7.4.63.63,0,0,0-.87-.26C445.47,553.5,445.46,553.82,445.59,554.24Z"/><path class="cls-23" d="M90.9,208.38,86,207.05C87,209.67,87,209.67,90.9,208.38Z"/><path class="cls-24" d="M106.13,84c.05,1.89.09,3.37.13,5.12.78-1.28,1.7-2.25,2-3.37S107.1,84.6,106.13,84Z"/><path class="cls-25" d="M345.88,215.22l-4.33-1.15C342.67,215.32,343.72,216.81,345.88,215.22Z"/><path class="cls-3" d="M423,366.13l5.18,12.21a2,2,0,0,1,1.86,1.05c9.28,12.27,18.91,24.25,28.36,36.38a.33.33,0,0,1,.05.42c-7.07-9.17-14.4-18.06-21.3-27.3-2.3-3.08-4.71-6.08-7.11-9.08-.37-.48-.68-1.29-1.59-.9,2.71,6.54,5.45,13.08,8.14,19.64q6.13,15,12.21,29.95c.05.11.19.19.28.28,1.2.12,1.82,1.33,3,1.57.57-1.12-.27-1.94-.63-2.84-.43-1.07-1.07-2-1.49-3.29,1.12,2.28,2.24,4.37,3.26,6.51.26.54.29,1.42,1.3,1.22,1.27-.06,2.22.94,3.45,1,.48-.88-.12-1.56-.47-2.25-.95-1.88-1.94-3.74-2.86-5.64,1.37,2.28,2.45,4.72,3.76,7,.39.68.59,1.58,1.61,1.67,5.24,1.59,10.44,3.33,15.93,3.88.14-1-.64-1.62-1.18-2.27-3-3.69-6.16-7.31-9.16-11,3.37,3.63,6.46,7.51,9.71,11.26,1,1.14,1.7,2.67,3.4,3a30.09,30.09,0,0,0,3.27.22c2.53-.09,3.13-1.2,2-3.49-1.83-3.82-4.54-7-7.23-10.2-7.79-9.22-15.94-18.13-23.28-27.72-5.88-7.67-11.41-15.6-17.54-23.07C432.54,370.26,428.83,366.56,423,366.13Z"/><path class="cls-4" d="M159.54,86.58a31.26,31.26,0,0,0-5.23,17.25c0,.82-.47.36-.79.3,3.63,10.43,12.47,16.65,23.53,16.13,4.83-.24,9.42-1.7,12.91-5.44,3-3.21,3.74-7.18,3.77-11.37a9.5,9.5,0,0,0-.1-2.45c-.37-1.42.3-1.85,1.51-2a60.68,60.68,0,0,1-18.45-8.67,42.86,42.86,0,0,1-8.74-8Z"/><path class="cls-26" d="M181.57,168.74l4.34-.89c.4-.08.88-.15.89-.67s-.39-.67-.81-.78c-4-1.08-8.07-2.17-12.11-3.24-.87-.23-1.29.11-1.27,1q.13,6.38.26,12.75c0,.41,0,.87.48,1s.73-.25.93-.61c.71-1.33,1.4-2.67,2.09-4,.77-.07.93.57,1.23,1Q183,181.17,188.44,188c.35.44.58,1.22,1.37,1,.61-.19.63-.86.72-1.38.2-1.2.65-1.9,2.06-1.48.44.12,1.15.41,1.5-.21s-.25-1.15-.6-1.61c-3.62-4.73-7.27-9.45-10.9-14.18C182.3,169.77,182,169.39,181.57,168.74Z"/><path class="cls-27" d="M250.49,222.74a.77.77,0,0,0,.47.83c.54.2.72-.25.91-.59.33-.6.62-1.22.92-1.84,1-2.09,1-2.09,2.55-.22,3.56,4.34,7.1,8.69,10.69,13,.4.48.67,1.38,1.51,1.16s.64-1,.74-1.57c.23-1.18.68-1.88,2-1.64.5.08,1.17.18,1.43-.47s-.3-1-.62-1.42c-3.51-4.48-7-9-10.57-13.41-1-1.19-1.29-1.82.66-2.14,1.14-.18,3.12.08,3.18-1.17s-1.94-1.05-3-1.38c-3-.91-6.08-1.63-9.1-2.5-1.39-.41-2-.24-1.95,1.43C250.46,214.8,250.45,218.77,250.49,222.74Z"/><path class="cls-28" d="M174.26,212.82l4.85-1.49c.39-.12.82-.26.75-.79s-.42-.49-.75-.57l-12.73-3.22c-1-.25-1.25.23-1.2,1.08q.38,6.34.76,12.7c0,.44.09.87.58.94s.69-.37.86-.75c.57-1.3,1.12-2.61,1.79-4.16,4,5,7.69,9.79,11.47,14.55.45.56.74,1.55,1.57,1.46s.83-1.17,1-1.84c.24-1.1.87-1.21,1.8-1.12.71.07,1.67.5,2.1-.22.54-.92-.55-1.42-1-2-3.48-4.31-7-8.58-10.53-12.87C175.11,214,174.73,213.45,174.26,212.82Z"/><path class="cls-28" d="M208.08,255.07c1.74-.36,3.21-.65,4.68-1,.45-.09,1.06-.08,1-.74,0-.48-.47-.59-.89-.71-4-1.05-7.95-2.13-11.93-3.19-1-.26-1.4.09-1.37,1.15.11,4.18.17,8.36.24,12.54,0,.49,0,1,.61,1.12s.66-.4.84-.76.39-.87.59-1.31c1.25-2.86,1.25-2.86,3.24-.34q5,6.31,9.92,12.61c.33.42.6,1.09,1.21,1s.73-.83.76-1.35c.12-1.74,1.15-1.9,2.55-1.68.49.08,1.15.42,1.52-.19s-.27-1.14-.62-1.58c-3.63-4.56-7.3-9.09-10.95-13.63C209.09,256.48,208.71,255.92,208.08,255.07Z"/><path class="cls-26" d="M67.41,88.64c4.09,5.18,7.94,10.08,11.81,15,.4.49.65,1.41,1.47,1.18.64-.19.65-1,.72-1.61.18-1.58,1.22-1.74,2.5-1.68.52,0,1.18.17,1.47-.44s-.29-1-.62-1.42q-5.46-6.69-11-13.33c-1-1.19-1.44-1.93.67-2.23,1.08-.15,3,0,3-1.1,0-1.38-1.94-1.07-3-1.4-3-.93-6.08-1.64-9.12-2.49-1.25-.36-1.89-.31-1.84,1.32.14,3.9.09,7.81.13,11.71,0,.47,0,1,.6,1.16s.68-.37.88-.71C65.81,91.35,66.54,90.12,67.41,88.64Z"/><path class="cls-26" d="M249.53,254.35c1.62-.33,3-.6,4.29-.89.41-.08.84-.23.87-.72s-.41-.69-.8-.8l-12.11-3.23c-.9-.24-1.27.09-1.26,1,.06,4.11.1,8.21.17,12.32,0,.39,0,.89.53,1s.72-.31.93-.66c.72-1.23,1.43-2.48,2.25-3.9,3.91,5,7.7,9.78,11.52,14.58.48.6.77,1.71,1.72,1.51s.71-1.24.87-1.93a1.39,1.39,0,0,1,1.72-1.27c.57,0,1.34.29,1.67-.4s-.41-1.23-.8-1.73c-3.58-4.59-7.19-9.15-10.78-13.73C250.11,255.23,249.94,254.94,249.53,254.35Z"/><path class="cls-29" d="M291.37,221.92c.05.39.08.77.45.91s.74-.19,1-.54.25-.49.39-.72c2-3.33,2-3.33,4.32-.35q4.77,6.06,9.55,12.12c.36.46.62,1.21,1.39,1,.6-.17.68-.86.73-1.38.15-1.45.87-2,2.32-1.85.57.06,1.39.09,1.68-.51s-.4-1.1-.78-1.56c-3.72-4.57-7.44-9.14-11.23-13.65-.89-1.07-.89-1.55.53-1.85.94-.19,1.85-.49,2.78-.75.4-.12.8-.3.8-.8s-.45-.64-.84-.73l-12-2.74c-.83-.2-1.16.11-1.15.91C291.29,213.61,291.33,217.79,291.37,221.92Z"/><path class="cls-28" d="M57.59,128.17l7.67,9.29c1.61,1.95,3.21,3.92,4.84,5.86.33.39.58,1.08,1.25.83.49-.18.54-.77.52-1.25-.07-1.49.6-2.11,2.09-2,.52.05,1.2.21,1.51-.36s-.25-1.13-.62-1.6c-3.55-4.53-7.09-9.07-10.69-13.56-.92-1.14-1-1.7.65-1.89a23.88,23.88,0,0,0,2.62-.54c.41-.08.85-.22.9-.69s-.42-.67-.81-.78c-4-1.09-8.08-2.16-12.12-3.24-.93-.25-1.29.22-1.28,1.06q.09,6.16.21,12.32c0,.4,0,.9.54,1s.67-.38.85-.75C56.28,130.79,56.82,129.69,57.59,128.17Z"/><path class="cls-26" d="M101.38,131.52c3.92,5,7.67,9.75,11.46,14.5.48.6.76,1.72,1.73,1.49s.76-1.23.88-1.93c.19-1.21.93-1.31,1.92-1.28.66,0,1.54.19,1.89-.47.44-.85-.5-1.31-.94-1.85-3.62-4.46-7.22-8.94-10.94-13.32-1.2-1.4-.66-1.73.74-2a25.83,25.83,0,0,0,2.58-.69c.38-.12.81-.29.77-.81s-.49-.61-.88-.7c-4-.92-8-1.81-12-2.75-.84-.2-1.17.07-1.13.89q.27,6.24.56,12.5a.83.83,0,0,0,.5.83c.52.18.71-.22.9-.59Z"/><path class="cls-26" d="M351.27,173.35c1.5-.31,2.71-.54,3.91-.81.51-.11,1.24,0,1.31-.75s-.66-.78-1.16-.91c-3.83-1-7.68-2-11.51-3.09-1.05-.29-1.54,0-1.51,1.16.12,4.1.2,8.21.28,12.32,0,.48-.11,1,.47,1.23.77.24.87-.49,1.08-.94.54-1.17,1-2.36,1.68-3.82.64.78,1.16,1.37,1.65,2,3.4,4.3,6.78,8.61,10.18,12.9.36.46.61,1.21,1.37,1s.66-.85.72-1.35c.19-1.56,1.05-1.87,2.43-1.58.58.12,1.35.29,1.68-.37s-.33-1-.65-1.41q-5.25-6.86-10.53-13.68C352.26,174.74,351.88,174.19,351.27,173.35Z"/><path class="cls-26" d="M159.33,256c4.13,5.13,8.11,10.09,12.11,15,.46.56.78,1.55,1.62,1.4s.78-1.2.89-1.88c.19-1.21,1-1.32,1.92-1.36.52,0,1.18.24,1.49-.38s-.34-1.11-.7-1.56q-5.55-7.12-11.14-14.22c-.16-.21-.3-.43-.6-.86,1.52-.49,2.91-.93,4.3-1.39.37-.12.85-.17.82-.73s-.46-.63-.87-.72l-11.8-2.71c-.91-.21-1.44,0-1.42,1.06.07,4,.09,8.08.16,12.11,0,.43-.08,1.06.63,1.09.49,0,.67-.4.83-.78Z"/><path class="cls-28" d="M215.75,211.45c1.41-.29,2.8-.56,4.18-.87.32-.06.72-.12.77-.55s-.31-.7-.74-.82L207.86,206c-1.08-.29-1.29.21-1.27,1.18.1,4.18.13,8.35.2,12.53,0,.4,0,.88.49,1s.82-.38,1-.77c.71-1.32,1.38-2.65,2.08-4,1,.45,1.35,1.3,1.88,2,3.37,4.23,6.71,8.49,10.06,12.73.37.47.64,1.24,1.32,1.17s.75-.91.83-1.47c.2-1.31.85-1.95,2.2-1.8.48,0,1,.11,1.29-.4.38-.66-.27-1-.57-1.39-3.46-4.43-7-8.83-10.41-13.26A4.28,4.28,0,0,1,215.75,211.45Z"/><path class="cls-26" d="M135.35,174c3.9,5,7.74,10,11.61,15,.4.52.62,1.4,1.42,1.32s.8-1.06.9-1.67a1.64,1.64,0,0,1,1.94-1.56c.69,0,1.72.24,2-.59s-.59-1.31-1.05-1.87c-3.59-4.4-7.18-8.81-10.85-13.16-1-1.17-.8-1.65.62-1.95.8-.17,1.58-.47,2.37-.7.46-.13,1-.18,1.11-.75s-.56-.72-1-.82c-3.92-.93-7.86-1.83-11.79-2.75-1.07-.26-1.36.33-1.31,1.23.2,3.9.39,7.79.64,11.69,0,.47-.14,1.25.64,1.3s.75-.71,1-1.16A18.54,18.54,0,0,1,135.35,174Z"/><path class="cls-28" d="M266.54,171.32l3.85-.8c.46-.1,1-.12,1-.79s-.49-.63-.87-.73l-12.12-3.23c-.83-.22-1.15.08-1.14.91q.08,6.27.14,12.53a.8.8,0,0,0,.46.84c.54.22.73-.2.95-.53s.28-.47.42-.71c1.95-3.34,1.95-3.34,4.3-.36q4.71,6,9.43,11.94c.4.5.66,1.39,1.48,1.2s.66-1,.74-1.57c.21-1.36.92-1.83,2.26-1.69.58.07,1.39.22,1.7-.41s-.4-1.22-.81-1.73q-5.33-6.54-10.67-13.05A3.61,3.61,0,0,1,266.54,171.32Z"/><path class="cls-29" d="M125.46,213.7l8.25,10c1.39,1.69,2.77,3.39,4.17,5.07.34.41.61,1,1.27.88s.65-.9.63-1.37c-.09-1.55.79-1.77,2-1.79.56,0,1.39.12,1.64-.56s-.45-1.08-.82-1.55c-3.83-4.91-7.69-9.8-11.61-14.8a13.27,13.27,0,0,1,4.05-1.46c.44-.13,1-.2.94-.86s-.52-.6-.9-.68l-11.79-2.76c-1-.24-1.33.18-1.31,1.17.06,4,.08,8.07.12,12.11,0,.42,0,.87.47,1,.64.22.82-.32,1-.74C124.22,216.28,124.77,215.12,125.46,213.7Z"/><path class="cls-28" d="M191.66,129.21c1.41-.29,2.81-.57,4.2-.87.31-.06.71-.11.74-.55s-.27-.71-.72-.83c-4-1.07-8.08-2.16-12.12-3.24-1-.28-1.33.21-1.3,1.19.1,4.11.14,8.23.23,12.34,0,.44-.09,1.07.52,1.2s.86-.51,1.08-1c.52-1.19,1-2.39,1.67-3.85l7.26,8.78,5.23,6.36c.3.36.53.89,1.1.81.78-.12.65-.87.62-1.33-.09-1.65.93-1.79,2.2-1.91,2-.18,2.07-.39.82-2-3.42-4.38-6.88-8.73-10.29-13.1A4.32,4.32,0,0,1,191.66,129.21Z"/><path class="cls-26" d="M304.93,178.35c4,5.2,7.73,10.1,11.51,15,.48.61.77,1.71,1.72,1.55s.75-1.22.9-1.9a1.37,1.37,0,0,1,1.72-1.25c.58,0,1.39.15,1.68-.47s-.34-1.13-.72-1.6c-3.51-4.48-7-9-10.57-13.39-1.26-1.52-.77-2,.82-2.33.81-.16,1.59-.41,2.39-.63.41-.11.8-.31.8-.79s-.52-.61-.89-.7c-4-.92-8-1.81-12-2.74-1-.23-1.26.24-1.24,1.07,0,4,.1,7.94.19,11.92,0,.49-.13,1.22.61,1.33.58.09.73-.53.94-.93C303.46,181.19,304.11,179.92,304.93,178.35Z"/><path class="cls-26" d="M329,260.65,339.56,274c.46.59.95,1.17,1.39,1.78.86,1.15,1.6,1.4,2-.28a2,2,0,0,1,2.22-1.63c.64,0,1.59.17,1.89-.5s-.57-1.32-1-1.86c-3.53-4.36-7.07-8.73-10.71-13-1.18-1.39-1-1.95.71-2.28a18.52,18.52,0,0,0,2.16-.66c.46-.13,1.06-.15,1.06-.77s-.61-.68-1.06-.79c-3.06-.72-6.13-1.44-9.2-2.11-3.76-.83-3.78-.81-3.66,3,.1,3.08.25,6.16.42,9.23,0,.5-.13,1.23.56,1.38s.84-.58,1.06-1C327.93,263.27,328.43,262.07,329,260.65Z"/><path class="cls-28" d="M227.27,132.7c4,5,7.76,9.86,11.58,14.68.45.57.77,1.56,1.58,1.45s.81-1.17.95-1.86a1.47,1.47,0,0,1,1.67-1.38c.58,0,1.36.34,1.68-.38s-.43-1.23-.83-1.74c-3.41-4.38-6.85-8.73-10.28-13.09-1.42-1.82-1.4-1.76.77-2.31,1.07-.27,3,0,3-1.07,0-1.28-1.94-1.06-3-1.39-3.09-.92-6.23-1.66-9.33-2.52-1.11-.31-1.73-.17-1.7,1.14.08,3.91.14,7.81.2,11.71,0,.54-.13,1.21.6,1.34.58.1.74-.5,1-.9C225.8,135.22,226.48,134,227.27,132.7Z"/><path class="cls-28" d="M97.28,166.64l4-.82c.47-.1,1-.18,1-.79s-.52-.61-.9-.71c-4-1.08-8.07-2.14-12.1-3.23-1-.28-1.23.27-1.21,1.06,0,4,.13,8.08.17,12.12,0,.52,0,1,.61,1.14s.63-.42.85-.75c0-.06.06-.13.1-.18.74-1,.71-3,2-3,.74,0,1.59,1.69,2.37,2.64Q99,180,103.79,185.82c.38.46.65,1.24,1.35,1.11s.68-.94.68-1.53c0-1.32.62-1.79,1.92-1.63.58.07,1.39.16,1.71-.43.41-.74-.38-1.23-.77-1.74-3.41-4.37-6.85-8.72-10.27-13.08A3.85,3.85,0,0,1,97.28,166.64Z"/><path class="cls-27" d="M142.63,130.13c4.05,5.15,7.89,10.05,11.76,14.93.36.47.61,1.24,1.32,1.17.91-.08.81-1,.93-1.62.23-1.11.75-1.52,1.87-1.26.57.13,1.36.37,1.66-.3s-.37-1.12-.74-1.59L149,128.21c-.42-.53-.81-1.07-1.32-1.75l3.88-1.21c.52-.16,1.24-.15,1.3-.81s-.7-.76-1.2-.88c-3.79-.9-7.59-1.77-11.39-2.65-1-.25-1.57.11-1.54,1.23.08,3.9.13,7.8.21,11.71,0,.5-.16,1.24.58,1.35s.8-.63,1-1.09C141.22,132.91,141.83,131.69,142.63,130.13Z"/><path class="cls-28" d="M287.75,261.88l9.1,11.07c1.13,1.37,2.24,2.76,3.38,4.13.29.36.52.89,1.1.81s.74-.76.82-1.26c.22-1.27.59-2.21,2.2-2,.48.08,1.2.11,1.4-.54s-.4-1-.72-1.39c-3.54-4.53-7-9.08-10.69-13.53-1.18-1.44-.9-2,.78-2.28a24,24,0,0,0,2.58-.7.75.75,0,0,0,.61-.72c0-.44-.36-.58-.67-.65q-6.19-1.46-12.4-2.86c-.93-.21-.95.5-.95,1.15l.12,12.11c0,.49,0,1,.63,1.12s.66-.42.84-.77C286.47,264.45,287,263.3,287.75,261.88Z"/><path class="cls-29" d="M219.89,176.32c4.21,5.15,8.19,10,12.2,14.89.41.49.73,1.39,1.53,1.12s.56-1.06.55-1.64c0-1.51,1-1.51,2.08-1.57.52,0,1.18.21,1.49-.39s-.28-1.13-.65-1.6c-3.5-4.48-7-9-10.55-13.4-1-1.22-1.26-1.82.67-2.12,1.14-.18,3.19,0,3.19-1.09,0-1.36-2-1.12-3.19-1.46-3-.9-6.09-1.6-9.12-2.48-1.32-.38-1.75.07-1.73,1.34.08,3.84.11,7.67.2,11.51,0,.47-.2,1.22.61,1.3.58.06.76-.5,1-.92C218.7,178.72,219.24,177.62,219.89,176.32Z"/><path class="cls-30" d="M271,136c4,5.12,7.86,10,11.74,14.9.39.5.63,1.41,1.47,1.23s.73-1.08.86-1.71c.22-1.1.67-1.72,1.93-1.51.51.09,1.2.18,1.48-.42s-.36-1.1-.72-1.55c-3.54-4.53-7-9.09-10.67-13.56-1.11-1.36-.91-1.8.73-2.19,1.17-.28,3.17-.1,3.16-1.52,0-1.06-2-.91-3.17-1.19-2.92-.73-5.88-1.3-8.78-2.09-1.47-.4-2-.08-2,1.45.09,3.76.1,7.53.17,11.3,0,.52-.1,1.22.53,1.43s.86-.52,1.12-1C269.59,138.53,270.22,137.4,271,136Z"/><path class="cls-26" d="M327.63,311.61c.64.42,1.16,1.39,2.08.43.17-.87-.46-1.39-.91-2-1.54-2-3.12-4-4.71-6-1.77-2.21-2.29-2.2-4,0,0-1.84,0-3.68,0-5.51,0-1.34.54-1.69,1.77-1.41,1.73.4,3.41,1,5.31,1.26-2.15.93-2.52,1.58-1.45,3,2.55,3.49,5.27,6.85,8,10.21.3.37.79.54,1.13.87a2.28,2.28,0,0,0,1.91.14l-9.6-12.29,4.07-1.3c.45-.14,1-.16,1.08-.77s-.54-.71-1-.81c-3.87-.9-7.74-1.77-11.6-2.68-1.09-.25-1.5.08-1.48,1.21.08,4,.09,7.93.15,11.9,0,.43-.09,1.07.55,1.17s.79-.47,1-.86c.71-1.17,1.4-2.35,2.24-3.78Z"/><path class="cls-29" d="M368.57,310.71c.6.2,1.23.61,1.63-.29.14-.79-.4-1.29-.8-1.81-1.6-2.06-3.17-4.14-4.86-6.12-1.31-1.53-1.83-1.49-3.23.09-.19-1.74-.13-3.45-.31-5.14-.13-1.23.43-1.57,1.62-1.26,2,.54,3.94,1.15,5.84,1.48-.14,0,.24,0,.11,0-2.58.27-3.4,1.26-1.63,3.56,1.93,2.49,4.11,4.78,6,7.3a3.22,3.22,0,0,0,1.29,1c.63.2,1.32.65,1.61-.43L368,299.68l4.23-1.36c.44-.14,1-.22,1-.84,0-.45-.52-.59-.92-.69q-6-1.6-11.89-3.19c-1-.26-1.44.17-1.38,1.17.25,4.1.48,8.2.76,12.29,0,.43-.1,1.06.56,1.17s.75-.44.94-.88c.55-1.24,1.11-2.48,1.77-3.94A90.52,90.52,0,0,1,368.57,310.71Z"/><path class="cls-27" d="M274.44,299.43c.31.64.59,1.34,1.46.6,1-2,.18-4.17.4-6.36,2.39.42,4.62,1.28,6.91,1.72-2.28.69-2.48,1.16-1,3,1.21,1.56,2.25,3.28,3.91,4.45.72.52,1.34,1.34,2.41.8l-4.6-5.78a4.64,4.64,0,0,1-.34-.76c1.46-.3,2.84-.59,4.22-.86.44-.09.84-.28.89-.72s-.44-.64-.82-.75c-4-1.08-8.07-2.12-12.09-3.23-1.39-.39-1.3.52-1.3,1.35C274.42,295.06,274.44,297.25,274.44,299.43Z"/><path class="cls-31" d="M478.7,438.67l-12.16-14.18a3.5,3.5,0,0,0-.37-.49c-.42-.34-.66-1.3-1.42-.71s0,1.06.38,1.47c1.84,2.21,3.71,4.39,5.56,6.6s3.5,4.2,5.24,6.31c1.21,1.38,2.4,2.77,3.64,4.12.34.38.51,1.37,1.33.72s-.16-1.13-.46-1.58C479.93,440.13,479.29,439.42,478.7,438.67Z"/><path class="cls-32" d="M203.59,100.71l-1.66-.32c.81,2.09,2.5,3.54,3.81,5.26.75,1,1.32.32,1.46-.58.24-1.57.93-2.45,2.67-2.31,1.13.1,1.25-.55.76-1.43a2.28,2.28,0,0,0-1.81-.07c-1.23.15-2.89-.23-2.55,2C205.38,102.43,204.81,101.22,203.59,100.71Z"/><path class="cls-33" d="M460,433.79c-1.54-2.89-3.05-5.8-4.61-8.68-.29-.52-.43-1.59-1.38-1-.76.47,0,1.08.24,1.55,1.21,2.45,2.47,4.87,3.71,7.31.26.46.49.95.78,1.4s.31,1.55,1.28,1.11S459.85,434.37,460,433.79Z"/><path class="cls-34" d="M454.51,432c-1.28-2.54-2.53-5.09-3.87-7.59-.29-.55-.3-1.85-1.36-1.3-.81.41,0,1.18.24,1.75.84,1.85,1.7,3.69,2.55,5.54.4.71.8,1.42,1.21,2.13.28.48.31,1.42,1.17,1.06S454.48,432.49,454.51,432Z"/><path class="cls-35" d="M369,263.31c0,1.55,0,3,0,4.46,0,.44-.12,1,.54,1.14s.79-.41,1-.8C371.73,266.43,371.43,265.51,369,263.31Z"/><path class="cls-13" d="M334.82,312.55c-2.4-3.74-5.4-7-8.07-10.56-1.68-2.22-1.71-2.19,1-3.14a7.08,7.08,0,0,0,1-.59l-8.19-1.93c-.88-.2-1,.24-1,1,.07,2.79.08,5.59.11,8.41a1.2,1.2,0,0,0,.25-.08c1-.78.92-2.89,2.32-2.67.92.14,1.64,1.69,2.41,2.64,1.72,2.12,3.42,4.26,5.12,6.39Z"/><path class="cls-36" d="M256.91,315l.53.73,36.93,51.75c.2.28.42.54.6.83s.37.79.89.47.4-.78.1-1.21c-1.49-2.12-3-4.26-4.46-6.36L259,315.67c-.32-.45-.63-.9-1-1.32-.19-.23-.4-.65-.79-.23C257,314.34,256.54,314.48,256.91,315Z"/><path class="cls-13" d="M374.23,309.54c-2-3.05-4.52-5.63-6.74-8.49-1.71-2.2-1.75-2.17.89-2.88a2.49,2.49,0,0,0,1.3-.72c-2.9-.77-5.78-1.58-8.69-2.3-.81-.2-.58.53-.56,1,.11,2.66.25,5.31.38,8,.23-.05.41,0,.45-.1,1.59-2.82,1.58-2.82,3.7-.15,1.73,2.2,3.49,4.38,5.24,6.57Z"/><path class="cls-37" d="M428.48,378.91q9.09,11.52,18.18,23c3.77,4.79,7.49,9.62,11.25,14.41.35.44.58,1.52,1.46.79s-.12-1.1-.44-1.5q-14.37-18.5-28.79-36.94c-.56-.72-1-1.65-1.93-.37Z"/><path class="cls-13" d="M286.07,302.83c-1.13-1.52-2.26-3.05-3.42-4.56-1.51-2-1.52-2,.81-2.47a1.78,1.78,0,0,0,1.11-.61c-2.74-.72-5.48-1.46-8.22-2.16-.91-.23-.59.55-.59.89,0,2,.09,4.07.14,6.11,2-.75,3.43.59,5.08,1.36A32.24,32.24,0,0,0,286.07,302.83Z"/><path class="cls-38" d="M418.74,463.38c7.95-1.09,11.28-7.7,11.91-13.14.06-.57-.13-.72-.58-.82s-.61.25-.68.56c-.22.92-.33,1.88-.58,2.8-1.86,6.68-6.76,10-13.66,9.32a28,28,0,0,1-4.61-.87c-.51-.14-1.28-.68-1.58.22s.66.89,1.15,1C413.15,463.25,416.21,463.9,418.74,463.38Z"/><path class="cls-38" d="M461,529.11a22,22,0,0,0,6.62-4.38A21.62,21.62,0,0,0,474,512.62c.06-.37.66-1.11-.27-1.32s-.88.61-1,1.15a20.4,20.4,0,0,1-12.11,15.42c-.49.24-1.15.3-.86,1.08C460,529.53,460.49,529.18,461,529.11Z"/><path class="cls-39" d="M446.1,530.85c.2,0,.62,0,.54-.65-.1-.9-.83-.59-1.28-.59A28.36,28.36,0,0,1,433.51,527c-1.18-.54-2.31-1.18-3.47-1.75-.37-.18-.74-.83-1.21-.24s.16,1,.58,1.23a29.48,29.48,0,0,0,10.78,4.18A28.78,28.78,0,0,0,446.1,530.85Z"/><path class="cls-29" d="M477.43,534.15l-.46.28L461.15,544a4.51,4.51,0,0,0-.85.57.51.51,0,0,0-.1.73c.53.65,1,.09,1.41-.16l13-7.78,3.35-2c.3-.18.6-.38.37-.8A.74.74,0,0,0,477.43,534.15Z"/><path class="cls-34" d="M480.46,539.66c-.57-1-1.1-.17-1.53.07-3.77,2-7.53,4.14-11.29,6.24-1.31.73-2.61,1.49-3.91,2.25-.38.23-1.06.38-.79,1s.9.34,1.39.07l9.51-5.23c1.91-1.06,3.8-2.16,5.71-3.22C480,540.55,480.56,540.35,480.46,539.66Z"/><path class="cls-40" d="M203.59,100.71A14,14,0,0,0,206.3,104c-.14-2,1.28-2.29,2.52-2.73Z"/><path class="cls-12" d="M174.11,174.4c2.41-3.6,2.42-3.6,4.93-.4l10.13,12.87c.79-.92.5-3.07,3.23-1.85l-10.83-14c-.38-.49-.75-1-1.14-1.45-1-1.15-.76-1.81.76-2a2.72,2.72,0,0,0,1.49-.64c-2.65-.72-5.29-1.45-8-2.14-.93-.24-.8.54-.79,1C174,168.5,174,171.23,174.11,174.4Z"/><path class="cls-13" d="M251.72,220.2l.73-1.25c1.09-2.1,1.19-2.1,2.69-.27,3.89,4.76,7.8,9.51,11.86,14.46.36-1.57.83-2.78,3-2.46-1.06-1.38-1.85-2.43-2.67-3.47l-8.64-11c-1.6-2-1.6-2,.83-2.8a4.91,4.91,0,0,0,.77-.47l-8.63-2.33C251.66,213.74,251.69,216.67,251.72,220.2Z"/><path class="cls-13" d="M181.93,230.73c.28-2,1-3,3.35-2.32-3.93-4.81-7.49-9.21-11.09-13.56-2.29-2.75-2.32-2.73,1-3.66a1.38,1.38,0,0,0,.86-.66l-9.54-2.45c.16,3.2.31,6.17.46,9.17.24,0,.42,0,.46-.07,1.55-2.86,1.55-2.86,3.56-.32Z"/><path class="cls-12" d="M209.5,253.09c-2.5-.67-5-1.3-7.49-2-.89-.25-1.11.06-1.09.84.05,2.67.11,5.33.17,8,.23-.12.39-.15.44-.24,1.34-2.75,1.34-2.75,3.22-.36l11.12,14.13c.15-2.12,1.17-2.79,3.38-2.3-3.1-3.88-5.89-7.37-8.69-10.85-1.11-1.39-2.25-2.76-3.35-4.16-1.36-1.74-1.29-1.9.93-2.39l1.39-.29Z"/><path class="cls-12" d="M64.91,89.91c2.42-3.35,2.42-3.35,4.73-.42,3.47,4.41,6.94,8.81,10.62,13.5.08-2.14,1.15-2.85,3.28-2.76-1.59-2-2.92-3.64-4.28-5.3-2.29-2.81-4.61-5.61-6.92-8.41-2.14-2.61-2.14-2.61,1.37-3.84-3-.81-5.6-1.5-8.18-2.21-.77-.21-.82.29-.81.79C64.77,84,64.84,86.72,64.91,89.91Z"/><path class="cls-13" d="M257.28,272.55c.37-1.61.75-2.89,3-2.3-3.85-4.91-7.35-9.36-10.86-13.82-2.13-2.71-2.14-2.71,1.31-4-2.9-.77-5.45-1.43-8-2.13-1-.27-.94.25-.92,1a62.67,62.67,0,0,0,.53,8.46c.31-.61.64-1.21.92-1.83.68-1.55,1.38-1.36,2.31-.16,3.51,4.55,7.08,9.05,10.63,13.57C256.44,271.64,256.73,271.93,257.28,272.55Z"/><path class="cls-12" d="M301.73,212c-3-.69-5.55-1.27-8.13-1.91-.82-.2-1.13,0-1.11.86.07,2.66.11,5.32.16,8,.29,0,.48,0,.53,0,2-2.67,2-2.67,4.08,0,3.51,4.45,7,8.91,10.77,13.69.06-2.3,1.3-2.85,3.29-2.78l-9.82-12c-.31-.37-.63-.73-.93-1.1C298.16,213.74,298.16,213.74,301.73,212Z"/><path class="cls-12" d="M55.5,129c2-2.92,2-2.9,4.12-.34,3.6,4.4,7.22,8.77,11,13.4-.06-2.21,1.38-2.25,3.1-2.38l-3.38-4.3-8-10.17c-1.56-2-1.56-2,.86-2.64.26-.06.49-.19,1.21-.47l-9-2.41C55.45,122.78,55.47,125.7,55.5,129Z"/><path class="cls-13" d="M99.19,132.39c2.22-2.95,2.22-2.95,4.68.18q4.38,5.56,8.78,11.12c.42.52.69,1.2,1.56,1.5,0-1.94,1.47-2.15,3.18-2.34l-8.57-10.5-3.28-4c-1.39-1.67-1.35-1.78.78-2.53l1.84-.65c-3.21-.74-5.92-1.35-8.62-2-.92-.22-.85.33-.81.93C98.89,126.88,99,129.61,99.19,132.39Z"/><path class="cls-12" d="M352.53,171.44l-8.88-2.38c.05,3.19.1,6.22.15,9.49,1.92-3.12,1.92-3.12,4.16-.26l10.56,13.42c.44-1.71.89-3.24,3.17-2.62q-2.7-3.56-5.39-7.1-2.88-3.77-5.77-7.49c-1.49-1.94-1.49-1.94.86-2.47.37-.09.74-.16,1.11-.23Z"/><path class="cls-13" d="M172.67,270.59c.28-1.84.83-2.93,3-2.42L167.75,258c-1.18-1.51-2.38-3-3.56-4.51-1.53-1.94-1.47-2.1.87-2.74a2.38,2.38,0,0,0,1.27-.74c-2.79-.64-5.58-1.3-8.38-1.92-.5-.11-.75.18-.74.7.06,2.5.1,5,.16,7.77,1.86-2.71,1.88-2.73,3.82-.32C164.92,260.9,168.62,265.55,172.67,270.59Z"/><path class="cls-13" d="M217,209.74c-2.93-.79-5.33-1.37-7.67-2.1-1.33-.41-1.51.08-1.46,1.24a66.37,66.37,0,0,0,.62,8.45,6.51,6.51,0,0,1,.34-1.11c1.49-2.85,1.49-2.85,3.41-.41l11,13.95c.4-1.56.92-2.78,3.13-2.32l-6.61-8.39c-1.64-2.1-3.29-4.2-4.93-6.31-1.52-1.94-1.49-2,1-2.61C216,210.07,216.27,210,217,209.74Z"/><path class="cls-13" d="M133.08,174.93c2-3.29,2-3.3,4.26-.4l10.57,13.62c.71-1.34,1.07-3.19,3.37-2.6q-4.92-6-9.85-12c-.17-.21-.37-.4-.54-.62-.79-1-2.14-2-2.22-3.1-.11-1.46,2.13-.66,2.92-1.9L133.65,166c-.83-.2-1,.1-.94,1C132.9,169.49,133,172,133.08,174.93Z"/><path class="cls-13" d="M267.47,169.44l-8.89-2.36c0,3.22.07,6.27.11,9.42.34-.16.51-.19.57-.28,1.93-2.83,1.93-2.83,4-.15L274,189.68c.21-1.92,1.16-2.77,3.17-2.61-1.49-2.54-3.39-4.38-5-6.43-2.15-2.75-4.43-5.4-6.66-8.09-1.53-1.85-1.5-2,.79-2.46l1.17-.25Z"/><path class="cls-13" d="M138.81,227.73c-.57-2.91,1.35-2.22,2.77-2.63-2.06-2.61-4-5.07-5.91-7.52l-5.44-6.94c-1.43-1.82-1.42-1.82.75-2.59.43-.15.94-.19,1.24-.79l-7.77-1.87c-.74-.18-1.2,0-1.18.86,0,2.59.1,5.18.15,7.81.23-.05.41,0,.45-.1,1.47-2.55,1.44-2.53,3.26-.29q4.78,5.9,9.61,11.75C137.25,226,137.81,226.61,138.81,227.73Z"/><path class="cls-12" d="M199,147.46c-.08-2.4,1.29-2.48,3.24-2.16l-4.84-6.18c-2.24-2.86-4.49-5.71-6.72-8.57-1.58-2-1.56-2.05.9-2.59a1.32,1.32,0,0,0,.88-.52c-2.63-.72-5.26-1.44-7.89-2.14-.85-.22-.88.37-.86,1q.1,3.8.19,7.59c.22,0,.41,0,.44,0,1.44-2.45,1.43-2.45,3.3-.19Z"/><path class="cls-13" d="M311.64,172.5l-9.3-2.12c0,3.19.08,6.19.11,9.24.2-.09.35-.11.4-.19,1.93-3.35,1.94-3.36,4.37-.21,3.43,4.44,6.83,8.9,10.4,13.55.65-1.32,1-2.84,3.17-2.23l-11.07-14.09c-1.88-2.4-1.88-2.4.95-3.46C310.86,172.92,311,172.81,311.64,172.5Z"/><path class="cls-13" d="M335.38,254.67c-2.59-.59-5.06-1.12-7.51-1.73-1.07-.27-1.45-.12-1.33,1.14.23,2.51.26,5,.38,7.68,2.07-3.32,2.06-3.32,4.53-.18q4.5,5.71,9,11.44c.42.52.7,1.18,1.5,1.51.3-1.68,1.43-2.16,3.54-1.67l-8.25-10.08c-1.3-1.58-2.63-3.15-3.92-4.74s-1.36-1.86.7-2.5C334.46,255.4,335,255.43,335.38,254.67Z"/><path class="cls-12" d="M224.73,133.79c.34-.13.43-.14.46-.18,2.06-3,2.06-3,4.39,0l10.47,13.27c.23-1.86,1.11-2.71,2.93-2.57l-10.83-13.77c-2.1-2.67-2.1-2.67,1.53-3.76-3.09-.83-5.73-1.56-8.37-2.25-.86-.22-.65.49-.64.9C224.67,128.16,224.7,130.89,224.73,133.79Z"/><path class="cls-12" d="M89.37,162.42c0,3.12,0,6.05.07,9,.24-.08.41-.09.45-.17,1.44-2.49,1.47-2.52,3.35-.25C96.53,175,99.77,179,103,182.91c.43.52.87,1,1.71,2-.34-2.53,1.35-2.27,2.76-2.7l-7.06-9c-1.43-1.83-2.87-3.66-4.3-5.5s-1.36-1.84.88-2.33a2.25,2.25,0,0,0,1.26-.61Z"/><path class="cls-13" d="M149.23,124.32l-9.15-2.12c0,3.18.06,6.17.09,9.18.19,0,.35,0,.39-.08,2-3.35,2-3.35,4.35-.33l10.26,13c.84-.89.67-2.9,3.24-1.78l-9.6-12.2c-.3-.38-.58-.77-.88-1.14C145.71,126.06,145.71,126.06,149.23,124.32Z"/><path class="cls-12" d="M301,275.68c.78-2,.78-2,2.73-2.57l-3.4-4.35-7.73-9.85c-1.54-2-1.54-2,.74-2.77.39-.14.78-.25,1.79-.58-3.28-.76-6-1.38-8.7-2-.72-.17-.84.23-.84.75,0,2.66.07,5.32.1,8,.27-.11.44-.12.48-.2,1.54-3.08,1.58-2.25,3.27-.22,3.37,4.05,6.69,8.14,10,12.21A4.78,4.78,0,0,0,301,275.68Z"/><path class="cls-12" d="M226.25,170.09l-8.55-2.28c0,3.17.05,6.13.08,9.13.18-.07.33-.08.37-.15,1.57-2.68,1.58-2.69,3.65-.17,3.6,4.39,7.19,8.8,11,13.44.1-2.11,1.59-2.08,3.25-2.24l-7.33-9.32c-1.4-1.78-2.81-3.55-4.2-5.34s-1.33-1.87.85-2.41c.33-.08.64-.19,1-.29Z"/><path class="cls-13" d="M283.87,150.26c.28-1.88.8-2.93,3.07-2.42l-2.69-3.45-8.76-11.16c-1.62-2.08-1.61-2.12.85-2.88l1.69-.52-8.74-2c-1.06-.25-.89.44-.88,1.08,0,2.74.08,5.47.11,8.22.14,0,.29,0,.34-.07,2.17-3.09,2.17-3.09,4.55-.06Z"/></g></g></svg>