<svg xmlns="http://www.w3.org/2000/svg" viewBox="0 0 676.34 605.77"><defs><style>.cls-1{fill:#a5d6cc;}.cls-2{fill:#e3603d;}.cls-3{fill:#3d519f;}.cls-4{fill:#e998a4;}.cls-5{fill:#9fcce4;}.cls-6{fill:#f39785;}.cls-7{fill:#f5ac9f;}.cls-8{fill:#d73d30;}.cls-9{fill:#781f22;}.cls-10{fill:#63afda;}.cls-11{fill:#66b0db;}.cls-12{fill:#63afdc;}.cls-13{fill:#d73d31;}.cls-14{fill:#802c2d;}.cls-15{fill:#66afdd;}.cls-16{fill:#65b0db;}.cls-17{fill:#812c2d;}.cls-18{fill:#fdece8;}.cls-19{fill:#80282a;}.cls-20{fill:#80292b;}.cls-21{fill:#e36240;}.cls-22{fill:#d84134;}.cls-23{fill:#48a2d6;}.cls-24{fill:#6cb2dd;}.cls-25{fill:#4da4d6;}.cls-26{fill:#e26341;}.cls-27{fill:#853435;}.cls-28{fill:#833132;}.cls-29{fill:#f8dcd4;}.cls-30{fill:#87373a;}.cls-31{fill:#843334;}.cls-32{fill:#d74538;}.cls-33{fill:#812d2d;}.cls-34{fill:#822f2f;}.cls-35{fill:#6db2dd;}.cls-36{fill:#e46443;}.cls-37{fill:#843232;}.cls-38{fill:#f7d5cc;}.cls-39{fill:#843234;}.cls-40{fill:#81383a;}.cls-41{fill:#53a6d8;}.cls-42{fill:#54a7d8;}.cls-43{fill:#f49d8d;}.cls-44{fill:#883738;}.cls-45{fill:#f8bdb3;}.cls-46{fill:#e36140;}.cls-47{fill:#fae5e0;}.cls-48{fill:#f6e4dd;}.cls-49{fill:#ecf6f5;}.cls-50{fill:#f4dfd7;}.cls-51{fill:#e9f5f3;}.cls-52{fill:#f9f4f2;}.cls-53{fill:#e46847;}.cls-54{fill:#fbe2dc;}.cls-55{fill:#fbe4df;}.cls-56{fill:#fbe4dd;}.cls-57{fill:#fbe3dd;}.cls-58{fill:#fae5df;}.cls-59{fill:#fae4df;}.cls-60{fill:#f9e2db;}.cls-61{fill:#f9e0da;}.cls-62{fill:#fbe6e0;}.cls-63{fill:#fbe3de;}.cls-64{fill:#f9ded7;}.cls-65{fill:#f7eff4;}.cls-66{fill:#f9e2dd;}.cls-67{fill:#feffff;}.cls-68{fill:#f5f9fd;}.cls-69{fill:#d6d6ed;}.cls-70{fill:#6fb0dc;}.cls-71{fill:#d3d3ec;}.cls-72{fill:#fbfdfd;}.cls-73{fill:#fef0ee;}.cls-74{fill:#8cbdde;}.cls-75{fill:#faebed;}.cls-76{fill:#fdeae6;}.cls-77{fill:#fae7e9;}.cls-78{fill:#f9e6e8;}.cls-79{fill:#fff;}.cls-80{fill:#f49f90;}.cls-81{fill:#e3613f;}</style></defs><title>illustration_01_welcome</title><g id="Layer_2" data-name="Layer 2"><g id="base"><path class="cls-1" d="M543,388.28c1.57,17.46,3.93,34.75,10.11,51.3,2.71,7.28,7.42,13.3,12.2,19.26a428,428,0,0,0,34.87,38.38c4.26,4.16,8.77,8.07,13.17,12.09.77,2-.81,3.12-1.7,4.38-12.24,17.34-24.46,34.69-36.91,51.88-1.62,2.24-2.44,5.25-5.42,6.36a10.84,10.84,0,0,1-12.5-6.61c-2-4.73-5.39-6.78-9.79-8.53-24.31-9.64-48.47-19.62-71.83-31.42-10.61-5.37-20.54-11.61-28.59-20.63a92.43,92.43,0,0,1-14.86-21.82c-.51-1.06-1.07-2.08-1.84-3.57-1.84,4.93-2.52,9.62-3.47,14.23-2.35,11.46-4.12,23-4.11,34.72,0,6.42,1.7,12.49,2.65,18.71,1.27,8.23,2.95,16.47,1.08,24.84-.46,2-1.21,3.91-3.53,4.52-3,2-6.15.41-9.07.06-21.12-2.53-42.27-4.94-63.32-7.95-4.34-2.3-6.65-6-6-10.81a13.66,13.66,0,0,0-2.31-9.46,294.44,294.44,0,0,1-17.22-33.47A21.34,21.34,0,0,1,323.3,511c-.25-4.7,1-9.22,1.52-13.83,1.92-7.15,1.39-14.58,2.47-21.82.08-.58.1-1.18.2-1.75,0-2.33,3.08-3.51,2.38-7,0,.35-.44,1,0,.85.26-.1.37,0,.3.18-.35,1.06,0,2.84-2.14,2.07a6,6,0,0,1-1-3c-.67-11.34-5.05-21.76-8-32.53-2.13-9.52-5.06-18.82-7.73-28.19-.46-1.6-1.54-3.43.52-4.84,6.77-1.88,13.76-1.35,20.64-1.86,15.57-1.13,31.17-2,46.76-2.81,14.76-.77,29.49-2.32,44.29-2.31,3.08.64,6-.93,9.09-.56,7-.77,14.07-1.19,21.12-1.58a20,20,0,0,1,4.24.1c2.51,0,5,.33,7.52-.46a21.12,21.12,0,0,1,5.67-.22c2.29,0,4.6.21,6.83-.56,5.53-.6,11.05-1.41,16.63-.9,2.5,0,5,.33,7.46-.47a18.7,18.7,0,0,1,5-.23c2.48,0,5,.29,7.41-.53,4.41-.46,8.79-1.39,13.26-.91,3.5-.11,7,.42,10.51-.38a6.5,6.5,0,0,1,1.86-.23A3.41,3.41,0,0,1,543,388.28Z"/><path class="cls-2" d="M527.76,388.87l-13.42.84c-5.68.68-5.68.67-7.86-4.62a2.32,2.32,0,0,0-1.1-1.2c-2.54,0-5.07,1.08-7.71,1.62-1.74.37-2.39,1.24-2.05,3,.18.9.2,1.94-.94,2.42l-17,1c-5.91.56-5.93.57-7.25-5a44.21,44.21,0,0,0-1.37-4.79c-3.61.1-6.91,1.48-10.29,2-.57,2,.05,3.57.32,5.19.22,1.32,1.06,2.85-.72,3.83l-25.64,1.42c.43-2.73,3.3-1.6,4.79-3.05-.09-3.48-1.51-6.77-2.13-10.53a44.44,44.44,0,0,0-10.77,2.55c-.16,4,2,7.28,1.65,10.78-.63,1-1.67.48-2.36.92l-59.71,3.48q-21.29,1.23-42.56,2.48c-3.45.2-6.9.47-10.36.7-3-1.9-1.38-4.93-1.8-7.46a36.29,36.29,0,0,1,.55-9.13c-.19-1.84,1.71-2.45,2.34-3.87-.23-1.71-2.05-3-1.48-5q2.88-21.33,7.63-42.29c.42-1.85.69-3.81,2.69-4.78,3.44-.88,6.95-1.51,10.61-2.8-.22-3.55-1.52-6.84-2.31-10.05-1.95-1.48-5.28,1.61-6.11-2.28,1.4-8.36,3.84-16.48,5.92-24.67q3.57-14,7.8-27.9a6.14,6.14,0,0,0-1.87-7A95.25,95.25,0,0,1,322,238.76a6.53,6.53,0,0,1-.41-4.2c.74-5.46-.75-10.39-3.43-15.09a56,56,0,0,0-9.77-13.21c-1.34-1.27-2.36-2.7-2-4.71-.58-2.33,1.7-2,2.68-2.85a10.91,10.91,0,0,1,3.49-2.43c12.34-6.16,24.66-12.37,37-18.51,1.27-.64,2.49-1.44,4-1.27,1.42-.54,2.64-1.12,4.27,0,12.83,9.23,27.4,13.61,43,14.87a158.1,158.1,0,0,1,28,5.23c1.63.87,1.32,1.93.29,3.06-1.09.87-2.72.61-3.75,1.76-.37,1.88.79,3.58.68,5.44a28.82,28.82,0,0,1-1.65,5.84,33.11,33.11,0,0,0-1.64,7.67c-.68,10.11,6.52,15.15,15.76,11.06,7.61-3.37,14.05-8.43,20.11-14.05,1.3-1.21,2.34-3.22,4.73-2.28,5,.21,12.1-2,13.64-4.32,11,3.48,22,7.05,33,10.48,25.55,7.93,51.54,13.18,78.47,12.5.59,0,1.19.09,1.78.13,1.15,1,1.39,2.12.1,3.23-1.25.72-2.75.76-4,1.44a1.63,1.63,0,0,0-.63.73,59.79,59.79,0,0,0,2.39,9.86c2.86.91,5.37-1.33,8.1-.74a3.92,3.92,0,0,1,2.15,2.26c2.14,4.62,4.22,9.27,6.19,14,.88,2.11.34,3.36-2,3.61-2.11.25-1.56,1.72-1.29,3,.69,3.13,1.46,6.24,2.31,9.86-20.41,6.95-41.62,9.16-63,13.93,0,7.39.06,14.77,0,22.15,0,2.36.43,4.78-.47,7.09-2.15,2.44-5.72,1.49-8.33,3.51-.06,3.5,1.14,6.81,2.31,10.22,1.72.06,3.23-.06,4.74.06,2.52-.22,1.78,1.71,1.81,2.93.2,8.59.2,17.17.84,25.74.33,4.52.59,9,.88,13.56.76,1.9-.19,4,.57,5.86v1.19c-2.32,1.2-1.9-1.74-3.84-2.25C535.63,386.08,531.27,386.08,527.76,388.87Z"/><path class="cls-3" d="M136.1,397.64l-6.51-.32c-.9-.39-1.93.09-2.82-.41l-.68-.09c-1.64-.61-3.59,1.49-5.07-.57a20.65,20.65,0,0,1-3.54-.45,13.46,13.46,0,0,0-10.11.84c.24-1.49,1.77-.93,2.17-2.19-2.79-1.59-6.26-1.68-9-3.4-.66-2.32.6-4.05,1.54-5.79,3.66-6.72,8.26-12.85,12.36-19.29s8.17-12.64,11-19.65c1.21-3,2.27-6,2.09-9.35-.24-4.58-2.14-5.7-5.78-3.05-13,9.43-28.31,12.13-43.47,15.56-1.15-1.65-2.16-3.1-3.18-4.54-3.37-2.56-4.62-6.58-6.67-10-4.82-8.06-9.54-16.2-14.24-24.34-.65-1.12-1.49-2.18-1.29-3.61-2.4-5.42-5.89-10.26-8.62-15.79,5.73-2.41,11.32-4.67,16.82-7.11,6.62-2.94,13.23-5.92,19.3-9.92,1.22-1.07,2.57-.47,3.72-.05,3.94,1.44,8,1.18,12.06,1.08,4.31-.11,7.75-2.13,10.66-5.2,13.13-13.84,28-25.59,43.3-36.92a76.07,76.07,0,0,1,9.27-6.11c1.28-.69,2.59-1.91,4.27-.83.77,1.24.3,2.55.2,3.84-.25,3.17.73,4.47,4,5.33,3.63,1,6.11.11,7.29-2.61a10.14,10.14,0,0,0,.72-6.32c-1.26-5.32,2.11-8.36,5.22-11.6,12.94-4.74,26.18-8.2,40-9.25,9.54-.72,19.08-.91,28.51,1.24a7.07,7.07,0,0,1,3.95,2.31c11.43,10.49,23.08,20.74,34.68,31.06,6.95,6.18,13.83,12.46,20.85,18.57,1.22,1.14,2.49,2.24,3.74,3.34,2.39,2.11,2.4,3.46-.13,5.5a69.57,69.57,0,0,1-10.84,6.95c-4.84,2.59-9.85,4.84-14.93,6.94-1,.4-2,.82-2.94,1.31-7.57,3.81-8.62,6.44-5.54,14.21,5.05,12.77,10,25.57,16,38,2.29,4.78,2.73,8.76-1.79,12.3a6.3,6.3,0,0,1-.75.71c-3.77,2.94-6.74,6.83-10.85,9.38-1.37.89-2.6,2-3.89,2.95-4.06,3.5-8.72,6.05-13.36,8.64-1.86,1-3.76,2-5.67,2.85-13.78,6.2-27.56,12.39-42.11,16.67a210.26,210.26,0,0,1-30.23,7c-3.31.68-6.52,2.12-10,1.24-5.05.35-10.06,1.07-15.14,1-6,1.15-12.12-.05-18.18.18C140.31,397.87,138.14,399.08,136.1,397.64Z"/><path class="cls-4" d="M310.38,393.89c.56,2.63-.66,5.47.89,8,2.69,9.71,5.85,19.29,8.1,29.12.24,1,.36,2.1.54,3.15.58,1.18-.11,1.86-1,2.24-4.74,1.87-6.13,6.06-6.34,10.38-.48,10.36-.82,20.77,1.33,31,1.48,7,3.91,13.56,10.59,17.5a2,2,0,0,1,1.21,2q-.78,7.11-1.57,14.23c.1,2.7.61,5.57-2.83,6.79a15.21,15.21,0,0,1-3.92.32q-26.5,0-53,0c-1.89,0-3.86.22-5.45-1.2-2.47-17-6-33.67-12.9-49.5-4.29-9.8-10.94-17.79-18.53-25.11-.94-1.08-.18-2,.32-2.92a83.2,83.2,0,0,0,7.8-18.77c1.09-4,3.38-5.79,7.11-7a368.49,368.49,0,0,0,50.81-21c3.4-1.72,6.64-3.75,10-5.47,1.06-.54,2-1.35,3.28-1.09,1.87,2.4,2.09,5.36,2.74,7.79C309.52,394.08,309.86,393.9,310.38,393.89Z"/><path class="cls-2" d="M163.31,225.85c-14.79,8.44-27.64,19.48-40.62,30.33-4.85,4.06-9.76,8.14-13.74,13-5.94,7.31-13.54,8.17-22,6.66-2.22-.39-4.37-1.12-6.56-1.7-1.61-.78-3.22-1.54-4.83-2.33-4.14-2-8.07-1.36-12,.74s-7.87,3.31-12.38,2.39c-5.34-1.08-7.41-3-8.29-8.37-.2-1.27.09-2.68-1.16-3.71-1.7-.42-2.84.84-4.09,1.64-2.48,1.59-4.63,1.14-6.91-.54-5.52-4.05-7-9.25-5.27-15.76,3.1-11.85,14.09-21.72,26.62-23.71,4-.64,8.06-.91,12-1.89,3.64-.9,5.68-2.85,6.48-6.66,2.57-12.26,14.19-19.11,26.09-15.44,4,1.23,7.83,2.92,11.72,4.44,7.15,2.79,13.5,2.22,19.6-3.13a57.94,57.94,0,0,1,23.35-12.1,26.75,26.75,0,0,1,14.84-.26c2.48.51,2.23,2.24,1.44,3.8-3.38,6.68-6.7,13.45-13.34,17.7a1.28,1.28,0,0,0-.43.7c0,1.55,1.33,2.39,2.36,3.27,3,2.54,4.42,6.2,7.05,9A1.29,1.29,0,0,1,163.31,225.85Z"/><path class="cls-4" d="M94.45,469.3c2.33-4.56,5.93-8.31,8.08-13,2.83-6.18,6.3-12.06,8.46-18.55,2.18-1.25,4.61-1,6.94-1,5.38-.11,10.76,0,16.14,0,12.17-.07,24.23-1.61,36.3-3a9,9,0,0,0,2.36-.79c4.34-1,8.83-1.27,13.14-2.49a54.6,54.6,0,0,0,8.95-1.9c12.21-2.35,23.87-6.6,35.7-10.29,1.87-.58,3.72-1.71,6.15-.8,0,3.55-1.52,6.66-2.77,9.81-2,5-3.93,10-6.82,14.55-.31.48-.4,1.16-1.23.87a3.09,3.09,0,0,0-2.19-3.31c-1.4.88-2,2.37-2.76,3.65a220.19,220.19,0,0,1-40.11,47.81c-14.39,13-30.63,23.47-47.65,32.73-1,.56-2,1.29-3.35.86-3-2.32-4.52-5.79-6.49-8.86-9.13-14.13-18.3-28.24-27.38-42.4C95.18,472,94,470.94,94.45,469.3Z"/><path class="cls-4" d="M308.06,259c-7.61-6.72-15.25-13.41-22.81-20.18q-17.89-16-35.69-32.08c-3.44-4.64-8.71-5.85-13.82-7.34-3.76-1.1-7.55-2.13-10-5.64-.3-2.69,2.39-2.64,3.61-3.92,3.54.6,6.68.21,8.5-3.46a1.88,1.88,0,0,1,2.11-1,4.56,4.56,0,0,0,2.76-.58c3.65-2,4.8-6.74,9-8.28.7-.26.59-1.72.32-2.58.18,3.24-.38,3.88-4.72,5.09-2.63,5.73-4.62,7-9.12,5.59a5.64,5.64,0,0,1-3.08,4.64,7.3,7.3,0,0,1-5.56.42c-.57-.19-1.41-.68-1.52.58-1.27,1.21-2.56,2.37-4.47,2.32-4.2-2-5.13-3.62-4.35-7.61a31.14,31.14,0,0,1,10.68-9.1c4.61-1.87,8.43-5.34,13.41-6.49a27.22,27.22,0,0,0,5-1.48c1-1.23,0-2.82,1.15-3.82,1.76,1.06,1.21,3.27,2.27,4.66,1.25.73,2.6.35,3.88.48a21.72,21.72,0,0,1,12.34,5.09,181.2,181.2,0,0,0,25.92,19.06,78.56,78.56,0,0,1,10.5,7.45c.53.45.95,1.62,2,.67a14.52,14.52,0,0,0,3,4.29,55.89,55.89,0,0,1,11.24,16.39,20.91,20.91,0,0,1,1.71,13.88c-.18.79.25,1.37.39,2-2.58,6.89-6.65,12.89-11.21,18.58C310.63,257.83,309.7,259,308.06,259Z"/><path class="cls-5" d="M94.45,469.3q17.24,26.57,34.45,53.16a13.12,13.12,0,0,1,.89,1.94A3.27,3.27,0,0,1,128,526c-18.84,10-37.84,19.61-57.26,28.39-1,.45-2,1.5-3.22.24-1.39-.33-1.71-1.56-2.12-2.65-5.69-15.31-11.68-30.5-17.26-45.85-.43-1.19-1.23-2.39-.37-3.73a120.3,120.3,0,0,0,30.74-18A118.58,118.58,0,0,0,92,471.15C92.74,470.36,93.14,469.26,94.45,469.3Z"/><path class="cls-5" d="M258.87,517.43q29.28,0,58.57,0c1.54,0,3.08.14,4.63.22a3.53,3.53,0,0,1,.64,3.36c-3,16.73-6.35,33.41-12.2,49.45-.6,1.64-1.05,3.47-2.9,4.32a13.29,13.29,0,0,1-4.6.5q-17.47,0-35,0c-1.86,0-3.84.3-5.43-1.15-.42-7.22-.25-14.46-.77-21.7-.75-10.4-1.41-20.79-2.91-31.12A29.94,29.94,0,0,1,258.87,517.43Z"/><path class="cls-4" d="M52.92,307c5.43,8.14,10,16.81,15,25.21,2.5,4.19,4.82,8.49,7.22,12.74C61.61,350.7,48,356.21,33.69,359.71a85.66,85.66,0,0,1-9.12,1.72c-3.73.51-5.73-1-6.2-4.66a5.39,5.39,0,0,0-2.87-4.24c-1.43-.86-2.88-1.71-4.25-2.66-2-1.4-2.36-3-.78-5.12,2.35-3.17,2-4.61-1.44-6.43a54,54,0,0,0-5.59-2.4c-3.76-1.47-4.51-4.16-1.9-7.2a15.24,15.24,0,0,1,7.61-4.5c5.26-1.53,10.63-2.71,15.85-4.34C34.86,316.8,44,312,52.92,307Z"/><path class="cls-6" d="M262.61,574.16l45.5-.09c1.42-.2,2.63,0,3.26,1.72-1.75,2.17-4.4,3.24-6.32,4.78,2-1.19,4-2.92,6.29-4.21s3.42-.52,3.27,2c-.05.82-.25,1.65-.32,2.48a14.15,14.15,0,0,0-.14,2.87c4.37-4,8.85-6.25,14.07-2.46,3.15,1.12,6.22,2.41,9.25,3.79,1.3.59,2.64,1.18,3.25,2.64,3.4,2,7,3.68,9.73,6.61A10.62,10.62,0,0,1,353.3,605c-1.25,1.06-2.63.68-3.89.66-19.22-.28-38.44-.38-57.64-1-7.74-.25-15.51-.16-23.22-1.15a45,45,0,0,1-4.52-1.06c-2.79-.66-3.8-2.45-3.82-5.22,0-6.23,1.26-12.33,1.77-18.5C262.11,577.22,262.4,575.7,262.61,574.16Z"/><path class="cls-4" d="M353.57,176.49a4.23,4.23,0,0,1-2,1.37q-19.92,10-39.84,19.92a5.07,5.07,0,0,1-2.66.92c-.77-5.69-2.9-11-4.08-16.64-2.62-12.42-4.27-24.92-3.84-37.65a10.14,10.14,0,0,1,.14-2.14c.77-3.08,3.15-3.78,5.47-1.62.61.56,1.09,1.29,2.13,1.41,1.66-.4,1.86-2.24,2.88-3.34s1.92-2.46,3.06-3.49c2.48-2.26,3.95-2,5.67.92,2.11,3.56,3.72,3.84,6.79,1a39.52,39.52,0,0,0,2.77-3.27c1-1.16,1.82-2.77,3.69-2.36a4.92,4.92,0,0,1,3.6,3.63,48.43,48.43,0,0,1,1.78,9.11A63.92,63.92,0,0,0,353.57,176.49Z"/><path class="cls-4" d="M428.91,199.32c.54-.89.86-1.79,0-2.68,4.57.12,8.63,2.52,13.16,3.06,1.39-2,1.35-3.65-.05-5.81-3.87-6-2.52-12,.46-17.93,5.26-2.59,10.72-3.53,16.44-1.86a5.9,5.9,0,0,1,3.81,3.07c2.2,5,5.63,9.68,4.9,15.61-2.12,2.74-4.44,5.24-7.69,6.39a3.22,3.22,0,0,0-.37.8c-.44,4.23,1.48,6.54,5.67,7.21a33.39,33.39,0,0,1,4.7,1.43c-.81,2-3.61,2.71-3.65,5.28-.49,1.46-2.59-.76-2.85,1.25-3.87,1.79-6.19,5.44-9.53,7.91-4.5,3.33-8.93,6.73-14.07,9a17.37,17.37,0,0,1-5.75,1.8c-8.49.73-13.72-6-12.1-15.38.72-4.13,2.25-8,3.42-12,.71-1.8-1-3.39-.4-5.3C425.8,199.76,427.91,200.62,428.91,199.32Z"/><path class="cls-4" d="M590.27,236.57c.86-.85,0-1.76.07-2.64,4.33-.74,8.69-1.36,13-2.27a31,31,0,0,0,16-8.24c1.67-1.67,3.64-4.38,6.32-2.83,2.44,1.42,1.37,4.53,1.42,7,0,1.51-1.34,2.88-.48,4.45.94.58,1.63-.12,2.34-.43,1.23-.53,2.54-1.16,3.7-.2s1,2.67.66,4a38.83,38.83,0,0,1-3.9,9.57,11,11,0,0,0-1.61,3.78c.28.33.4.62.59.67,6.19,1.63,7.4,4.33,3.9,9.76-4.07,6.34-10.06,10.74-16.19,14.89-2.26,1.53-4.71,2.79-7.07,4.17a29.53,29.53,0,0,1-4.29-9.31c-.49-.88-1.41-.43-2.1-.67l1.95-1.27c-2.83-6-4.8-12.36-8.36-18-.42-.56-1.3-.18-1.67-.84-.23-3.62-2.27-6.59-3.56-9.84A6.34,6.34,0,0,1,590.27,236.57Z"/><path class="cls-6" d="M47.77,502.44q9.87,26.12,19.75,52.24c-.47.81-.93,1.63-1.4,2.46-3.19-.48-6-2.28-9.22-2.21,2.86,1.89,6.4,2.16,10,4.3L54.8,561.78c4,2,7.69,2.28,11.29,4.24-1.34,11.46-1.52,23.24-8.91,33.19-2.43.83-2.82-1.3-3.49-2.62-4.12-8.05-6.18-16.73-7.58-25.59-1.84-11.63-2.88-23.36-4.11-35-.89-8.51-1.47-17.05-2.34-25.57a28.91,28.91,0,0,1,.36-6c.23-1.54,1.5-1.24,2.48-1.36C44.25,502.78,46,502.62,47.77,502.44Z"/><path class="cls-6" d="M569.31,571.93q17.57-24.84,35.12-49.67c3-4.28,5.94-8.63,8.91-12.95,4,.54,7.38,2.14,9.39,5.89a5.5,5.5,0,0,1-1.24,3.29c-13.24,20.68-26.65,41.27-39.67,62.1-2.06,3.29-4.62,4.56-8.51,4.65-6.18.14-12.36.91-18.56.54-1.37-.08-3.69.49-3.12-2.38,2.37-5.8,6.26-9,12.93-8C567.09,575.77,569.47,575.48,569.31,571.93Z"/><path class="cls-2" d="M230.2,176.57a83.68,83.68,0,0,0-10.12,8.19c-1.24,2.57-3.71,3.9-5.73,5.7-1.11,1-2.66,1.63-3.1,3.43,1.61,2.22,3.62,2.61,6.16,1.55,2.18-.91,3.85-2.82,6.32-3.13L228,190c.53-.23,1-.27,1.24.39-.74,1.58-2.83,1.79-3.49,3.45-2.35.39-3.87,2.25-5.83,3.33-4.18,2.3-6.39,2.23-10.15-.64-.84-.64-1.55-2.2-2.82-.47.13,1.2,1.58,1.39,1.86,2.49a5,5,0,0,1-2.12,2.4c-1.8-1.5-3.55-2.94-5.28-4.4-.82-.69-1.6-1.43-2.18-1.94-.08-1.7.88-2.27,1.74-3l2.42,1.14c9.09-18.28,18.17-36.54,27.48-55.28l23.23,20-5.31,4.84A91.22,91.22,0,0,1,230.2,176.57Z"/><path class="cls-4" d="M163.31,225.85c-2.77-3.75-4.95-7.95-8.57-11-1.07-.91-2.35-1.68-2.72-3.39.22-.3.43-.95.75-1,4.13-.75,5.7-4.29,7.9-7.13a51.83,51.83,0,0,0,6.1-10.09c.57-1.24,1.27-2.72-.54-3.71,6.23.91,9.61,5.26,12,10.45a28.07,28.07,0,0,1,2.46,11.72,6.21,6.21,0,0,0,.43,3.13c-1.17,2.16-1.78,4.68-4,6.19-1.15.77-.65,1.89-.48,2.92a19.44,19.44,0,0,1-.28,9.16,4.84,4.84,0,0,1-5.32,3.76,17.64,17.64,0,0,1-4.21-.63c-4-1.19-5-2.94-3.93-6.86A7.12,7.12,0,0,0,163.31,225.85Z"/><path class="cls-7" d="M551.63,583.4c.22,1.48,1.34,1.37,2.44,1.44,7.51.46,15-.78,22.46-.74,1.85,0,2.59-1.39,3.44-2.72,8.69-13.63,17.27-27.34,26.17-40.84,5.55-8.43,10.39-17.33,16.59-25.34l4.29,3.37c-5.46,9-10.76,17.73-16.1,26.47-8.32,13.64-16.7,27.25-25,40.93a4.68,4.68,0,0,1-4.25,2.51c-11.16.8-22.3,1.78-33.45,2.67a10.63,10.63,0,0,1-4.33-.19c0-2.56,1.66-3.63,3.53-4.44A8.14,8.14,0,0,0,551.63,583.4Z"/><path class="cls-6" d="M349.21,567.31l60.91,7.54,12.39,1.52-.18,1.26a3.38,3.38,0,0,1-2.9,1.15c-4.67-.07-9.29.7-13.95.81-13.38.3-26.72,1.57-40.09,1.94-10.39.28-20.77,1.09-31.17.93a8.89,8.89,0,0,1-3.51-.55c-.84-.45-1.4-1.19-.72-2C335.11,573.77,341,568.7,349.21,567.31Z"/><path class="cls-7" d="M329.91,580.62c5.28,1.26,10.62.62,15.91.34a47.69,47.69,0,0,1,4.94-.42c9.54.49,19-.52,28.53-.88s19.2-1,28.81-1.47c4.74-.23,9.48-.47,14.23-.56a15.88,15.88,0,0,1,3,4.42c1.21,3,0,5-3.15,5-3.82.08-7.64,0-11.46,0q-33.1,0-66.22,0c-1.26,0-2.64-.46-3.77.57l-13-5.68C328,580.88,328.54,580.07,329.91,580.62Z"/><path class="cls-6" d="M55,600.6c-3.6.79-5.54-1.23-7.08-4.07-3.79-7-5.81-14.6-7.47-22.29-4.37-20.3-7.44-40.75-7-61.6a15.19,15.19,0,0,1,.76-5.64,3.45,3.45,0,0,1,5.12-1.87c1.22,2.33.71,4.91,1,7.36,1.16,11.6,2,23.24,3.33,34.82,1.79,15.23,2.65,30.66,8.55,45.13.68,1.66,1.56,3.22,2.26,4.87C54.85,598.35,55.85,599.32,55,600.6Z"/><path class="cls-3" d="M467.62,192.78c-1.45-1.21-1.63-2.76-1.33-4.51s.32-3.34-1.82-4.05c-1.08-.36-1.05-1.43-1.17-2.39-.6-4.93-3.2-7.32-8.15-7.5-4.32-.16-8.42,1.35-12.68,1.63-1.7-.45-3.6.28-5.19-.8-.42-1,.38-1.34.81-1.81,1.73-1.9,1.15-3.42-.67-4.82-1.24-.94-2.5-1.85-3.65-2.89a4.48,4.48,0,0,1-1.45-4.86c.75-2.52,2-3,4.22-1.62,1.41.89,2.45,2.32,4.18,2.71,5.5-4.88,9.24-5.21,15.88-1.25,7.47,4.46,10.55,11.76,12.47,19.73a19.49,19.49,0,0,1,.09,10.28C468.9,191.53,468.83,192.56,467.62,192.78Z"/><path class="cls-8" d="M647.17,250.35c-2.82-1.51-6.11-2-9.07-3.86l16.3-22.72.81.08c1.58,10.12,3.16,20.24,4.82,30.9L648.61,251c-.48-1.62.34-2.88,1-4.12C648.33,247.62,649.37,250.15,647.17,250.35Z"/><path class="cls-9" d="M225.85,442.66A106.58,106.58,0,0,0,236.34,418c-1.54-.46-2.69.35-3.86.72-10.88,3.52-21.78,7-32.83,9.94-1.49.4-3,1-4.55.64a.89.89,0,0,1-.28-1c1.3-1.64,3.26-1.92,5.09-2.37,25.37-6.26,49.75-15.44,74-25.08,7.55-3,14.79-6.74,22-10.41a57.89,57.89,0,0,0,6.22-3.54c2-1.19,4.08-2.35,6-3.73,1.05-.75,2.21-1.42,2.17-3a5.59,5.59,0,0,0-1.06-2.4c-.64-1-1.32-2-2-3a3.12,3.12,0,0,1-.39-1.74,11.44,11.44,0,0,0-2.25-3.68,5.18,5.18,0,0,1-2-1.87c-.61-.88-1.23-1.75-1.8-2.66a2.65,2.65,0,0,1-.31-1.81,13,13,0,0,0-2.37-3.88c-1-.2-1.42-1-1.94-1.7s-1.09-1.78-1.63-2.67c-.39-.66-.89-1.25-1.32-1.89-.73-1.86-3.15-3-2.23-5.55a.8.8,0,0,0,.45-.31c1.75-.5,2.3.91,3,1.95,5.33,8.2,10.45,16.53,15.72,24.77a6,6,0,0,1,1.16,3.67l2.34,3.83c-.6,1.67-2.07,2.12-3.17,3-.42,2-1.91,2.46-3.68,2.49C286.29,399,264.24,408,241.6,415.53c-2.66.89-4,2.15-4.72,5-2,7.89-5.74,15.12-9.44,22.33a199.27,199.27,0,0,1-28.33,37.77c-1.1,1.16-2,2.62-3.93,2.92C206.7,470.84,217.64,457.76,225.85,442.66Z"/><path class="cls-10" d="M300.56,363.08a1.66,1.66,0,0,1,.81,1.26c-.78,1.59-2.41,1.89-3.85,2.35-32.45,10.42-64.78,21.2-97.25,31.53-10,3.2-20,6.53-30,9.8-25.8,8.45-51.66,16.69-77.43,25.2-1.13.38-2.21.91-3.36,1.23-1.33-.11-2.71-.07-3.72-1.18,13.82-4.57,27.63-9.17,41.47-13.69q41.71-13.6,83.46-27.13l88.22-28.7C299.47,363.57,300,363.31,300.56,363.08Z"/><path class="cls-11" d="M303.61,367.61l1,1.81L255.56,385.3,102.9,434.84c-.68.22-1.34.49-2,.74-.8.08-.92-.44-.92-1.06.86-1.74,2.65-1.95,4.19-2.45,35.66-11.64,71.31-23.3,107-34.74,10.47-3.36,20.88-6.87,31.34-10.26,19.32-6.26,38.61-12.62,58-18.8A10.6,10.6,0,0,1,303.61,367.61Z"/><path class="cls-12" d="M306.88,373.1a1.53,1.53,0,0,1,.81,1.27c-.76,1.45-2.28,1.66-3.6,2.09-37.79,12.5-75.69,24.66-113.53,37-16.48,5.38-33,10.66-49.43,16.14-7.71,2.56-15.45,5-23.24,7.34-1.16,0-2.42.38-3.33-.76,5.67-2.87,11.86-4.26,17.84-6.22q78.73-25.71,157.51-51.22C295.58,376.89,301.23,375,306.88,373.1Z"/><path class="cls-13" d="M430.19,16.13a8,8,0,0,1-8.2-8A8,8,0,0,1,429.83,0a8.14,8.14,0,0,1,8.44,7.88A8.14,8.14,0,0,1,430.19,16.13Z"/><path class="cls-14" d="M612.56,497.1c-5.22-4.94-10.09-9.31-14.68-13.94-7.9-8-15.22-16.53-22.9-24.72-11.32-12.08-17-26.57-19.79-42.54a203.24,203.24,0,0,1-2.88-27.06,9.42,9.42,0,0,1,.27-4c1.67.73,1,2.22,1.06,3.31a175.66,175.66,0,0,0,5.17,37.9,69.22,69.22,0,0,0,14.78,28.7c11.65,13.48,23.94,26.36,36.39,39.09A8.51,8.51,0,0,1,612.56,497.1Z"/><path class="cls-15" d="M136.1,397.64l24.44,0q-21.75,7.15-43.5,14.29-12.58,4.13-25.2,8.18a4.62,4.62,0,0,1-2.67.54l-.28-.86,64.39-21a44.46,44.46,0,0,0-21.16,2.12c-11,4-22.2,7.35-33.33,10.91-1.06.34-2.12,1.28-3.42.5.67-1.47,2.18-1.37,3.34-1.75,11.21-3.7,22.46-7.3,33.68-11C133.7,399.12,135.3,399.12,136.1,397.64Z"/><path class="cls-16" d="M175.68,396.65a60.45,60.45,0,0,1,10-1.24c-7.93,3.31-16.24,5.51-24.38,8.19-25.5,8.41-51,16.68-76.56,25a2.08,2.08,0,0,1-2.06.05c.88-1.31,2.28-1.47,3.51-1.87l87.11-28.43c1-.33,2-.69,3-1.06a.39.39,0,0,0,0-.3A4.71,4.71,0,0,0,175.68,396.65Z"/><path class="cls-17" d="M183.24,495.12c-24.74,23.42-53.74,40-85.16,52.78C128.8,534.07,157.73,517.38,183.24,495.12Z"/><path class="cls-18" d="M55,600.6c-1.71-4.93-4.21-9.53-5.75-14.55-2.75-8.92-3.89-18.11-5-27.31-1.23-10.62-2.44-21.26-3.34-31.91-.61-7.23-1.62-14.43-1.63-21.7l.72-.77c1.3,3.3.87,6.84,1.16,10.23q1.7,20.14,3.89,40.23c1.41,12.8,2.72,25.66,7.89,37.66,1,2.41,1.45,5.35,4.22,6.73A4.74,4.74,0,0,1,55,600.6Z"/><path class="cls-19" d="M114.56,436.17a8.91,8.91,0,0,0,3.49.08,50.57,50.57,0,0,1,14.82-1.18,30.72,30.72,0,0,0,4.6.16c6.38.08,12.67-1,19-1.45a20,20,0,0,0,6.72-.61c2.39.17,4.66-.77,7-.75,1.1,0,2.66-.9,3.26,1-2.9,2.39-6.53,1.65-9.81,2.1-17.48,2.44-35.07,2.56-52.68,2.22-.78-.44-1.95.14-2.81-1.56Z"/><path class="cls-20" d="M647.17,250.35l3-6.63c1,2.79-1,4.85-1.53,7.27A97.52,97.52,0,0,1,640,265c-8.73,12-20.62,19.32-34.47,23.87a5.88,5.88,0,0,1-1.39.25c-.2,0-.42-.19-1.55-.75C623.66,282.34,638.44,269.78,647.17,250.35Z"/><path class="cls-21" d="M539.33,337.17l-1.28.18c-4.06,1.93-4.3,1.85-5.28-2.26a37.3,37.3,0,0,1-1.51-7.88c2.88-.9,5.68-2,9-1.9a65.3,65.3,0,0,1,.21,10.59C540.42,336.55,539.91,336.93,539.33,337.17Z"/><path class="cls-22" d="M322.27,34.7a4.67,4.67,0,0,1,4.52,4.64,4.53,4.53,0,1,1-4.52-4.64Z"/><path class="cls-23" d="M605.66,171.25a4.31,4.31,0,0,1-4.47,4.51,4.46,4.46,0,0,1-4.4-4.64,4.65,4.65,0,0,1,4.35-4.39A4.42,4.42,0,0,1,605.66,171.25Z"/><path class="cls-24" d="M297.18,357.46l1,1.75q-17.85,5.71-35.7,11.42c-1.45.46-2.85,1.25-4.46,1.12a19.58,19.58,0,0,1,5.18-3.49q9.51-3.58,19.23-6.57C287.33,360.18,292.08,358.21,297.18,357.46Z"/><path class="cls-25" d="M371.64,20.12a4.08,4.08,0,0,1-4.2-3.95,4.21,4.21,0,0,1,4.17-4,4.14,4.14,0,0,1,4,3.82A4,4,0,0,1,371.64,20.12Z"/><path class="cls-26" d="M604.68,269c2.5,2.61,3.54,5.89,4.29,9.31a10.74,10.74,0,0,1-4.22,1.73,65,65,0,0,1-2.46-10A3.21,3.21,0,0,1,604.68,269Z"/><path class="cls-27" d="M643.43,185.05l32.67-6.25.24,1.26-32.67,6.28Z"/><path class="cls-28" d="M284.12,102.68l-27,20.56c1-2.69,22.71-19.66,26.5-21.18Z"/><path class="cls-29" d="M539.33,337.17c2-3.6.52-7.38,1-11.24-3.15-.14-5.64,1.05-8.6,1.59.81,3.51,1.58,6.82,2.31,10,1.56.83,2.75-.42,4-.15l.79.71a12.07,12.07,0,0,1-5.54,1.31,116.75,116.75,0,0,1-3.14-12.61,56.7,56.7,0,0,1,10-2.49c1.6,3.84.6,7.85.7,11.78C540.84,336.86,540.12,337.18,539.33,337.17Z"/><path class="cls-25" d="M409.16,127.48a3.58,3.58,0,1,1-7.16.11c.17-2,1.19-3.36,3.37-3.48A3.37,3.37,0,0,1,409.16,127.48Z"/><path class="cls-30" d="M267.1,134.84l30.08-7.15.3,1.27-30.14,7.21Z"/><path class="cls-28" d="M386.21,53.05l26-20.09c-1.07,2.79-21.84,19.18-25.58,20.7Z"/><path class="cls-31" d="M655.17,209.48a5.8,5.8,0,0,1-5.77-5.65,5.89,5.89,0,0,1,5.4-5.68,5.81,5.81,0,0,1,5.91,5.51A5.72,5.72,0,0,1,655.17,209.48Z"/><path class="cls-32" d="M356.1,114.19a3.57,3.57,0,0,1,0-7.14,3.76,3.76,0,0,1,3.74,3.6A3.64,3.64,0,0,1,356.1,114.19Z"/><path class="cls-33" d="M247,117.22q4.72-15.28,9.46-30.58l1.22.38-9.47,30.59Z"/><path class="cls-34" d="M639.93,149.78,609.21,153c1.85-1.7,27-4.65,30.7-4Z"/><path class="cls-28" d="M316.62,79.21,300.36,53.94c2.27.72,15,19.66,17,24.8Z"/><path class="cls-35" d="M121,396.25c1.62.8,3.49-.62,5.07.57l-24.84,8.24c.07-1.75,1.06-1.69,1.76-1.92,5.1-1.69,10.22-3.31,15.29-5.06C119.3,397.73,120.83,397.91,121,396.25Z"/><path class="cls-36" d="M466.28,213.89l-1.49-.54c1.44-2.08,2.79-3.93,5.14-4.74,1.72.61,3.74.56,5.45,2.66C472.38,212.92,469.21,213.07,466.28,213.89Z"/><path class="cls-37" d="M570.2,182.84l-6.69,23.69-1.22-.33,6.61-23.59Z"/><path class="cls-38" d="M527.76,388.87c.15-1.18.29-2.3,1.8-2.63,3.64-.8,7.28-1.69,10.41-2.42,2.16.71.73,3.42,3,3.52l.06.94-3-.11c-1.86-1.39-1.86-1.39-6.88-.73,3.51-.24,3.51-.24,5.63.8C535.16,389.45,531.44,388.76,527.76,388.87Z"/><path class="cls-39" d="M345.48,67.56q4.49,10.93,9,21.87l-1.14.48c-3.12-7.24-6.17-14.5-8.88-21.91Z"/><path class="cls-27" d="M619.36,174.85l14.76-17.58c-.47,3-11,15.94-14.19,18Z"/><path class="cls-40" d="M99.93,434.76c.32.27.64.54.95.82-.47,1-1.37.81-2.17.72-3.92-.45-7.83-.9-11.73-1.44-.75-.1-2.19,0-1.22-1.59l3.49.6C92.9,433.05,96.49,433,99.93,434.76Z"/><path class="cls-41" d="M324.74,102.58a2.09,2.09,0,0,1,2.34,2.11,1.94,1.94,0,0,1-1.81,2.22,2,2,0,0,1-2.5-1.88A2.1,2.1,0,0,1,324.74,102.58Z"/><path class="cls-42" d="M272.36,97.59a2.13,2.13,0,0,1,2.3,2.16,1.92,1.92,0,0,1-1.86,2.17,2,2,0,0,1-2.48-1.92A2.12,2.12,0,0,1,272.36,97.59Z"/><path class="cls-43" d="M60,562.33c1.91-1.17,3.94-1.28,5.89-1.54.9.85.44,1.81.45,2.87C63.88,564.7,62.09,562.81,60,562.33Z"/><path class="cls-44" d="M92.27,550.22a10.26,10.26,0,0,1-6.84,2.7C87.35,551.21,89.8,550.69,92.27,550.22Z"/><path class="cls-38" d="M542.94,386.15c-.93-1.88-.64-3.88-.57-5.86C543.54,382.15,543,384.17,542.94,386.15Z"/><path class="cls-35" d="M126.77,396.91a3.24,3.24,0,0,1,2.82.41A3.11,3.11,0,0,1,126.77,396.91Z"/><path class="cls-45" d="M325.66,497.29c-10.31-5.33-12.45-15-13.79-25.32-1-7.85-.42-15.69-.65-23.53a17.62,17.62,0,0,1,1.64-7.59c1.18-2.73,2.63-5.11,6-5.41.7-.06.88-.71,1-1.29a186.55,186.55,0,0,1,7.54,25.68c.73,3.35.65,6.87.94,10.32.15,2.18-1.44,2.51-3,2.68-2.08.22-3.05-.53-4.56-3.19.83,2.79,2.85,3.53,5.49,3.15.66-.09,1.35-.63,1.95.14.08,7.17-.95,14.27-1.48,21.4A4.4,4.4,0,0,1,325.66,497.29Z"/><path class="cls-46" d="M471,392.35l-5.53.29a15.33,15.33,0,0,1-5.61,0c-3.05-8.35-1-11.18,7.68-10.82.75,0,1.65.11,1.87.8C470.4,385.76,472.1,388.84,471,392.35Z"/><path class="cls-47" d="M423.9,395.22c1.81-.34,1.71-1.5,1.35-2.9-.79-3.1-1.49-6.21-2.26-9.48a118.86,118.86,0,0,1,13-3.3C437,383.8,438,387.91,439,392.1c-1.93,1.58-4.51,1.07-6.32,2.45C429.76,394.47,426.89,395.65,423.9,395.22Z"/><path class="cls-26" d="M506.89,390.22l-4.77.22c-1.38.49-2.81.13-4.22.26-1.95.18-2.33-1.23-2.7-2.64-.42-1.62.38-2.38,1.89-2.78,1.82-.48,3.64-1,5.49-1.37,1.3-.24,3.15-1.52,3.84.14C507.2,385.89,508.92,388,506.89,390.22Z"/><path class="cls-48" d="M471,392.35c0-3.38-1.27-6.47-2-9.93-3.7.07-7,1.33-10.59,2.15.64,2.75,1.2,5.14,1.76,7.52,1.76,1.06,3.61.12,5.32.55-2.31,1-4.73.41-7.1.49.8-3.26-1.52-6.1-1.22-9.63l12.39-3c1.77,3.57,1.74,7.5,3.19,11,1.64.77,3.34.05,4.95.41C475.5,392.91,473.23,392.38,471,392.35Z"/><path class="cls-49" d="M427.61,469.6c-5.14-12-8.22-24.51-10.73-37.23C420.65,444.72,423.82,457.25,427.61,469.6Z"/><path class="cls-50" d="M506.89,390.22c.74-2.11-.58-3.91-.75-6.19-3.72.29-7,1.43-10.25,2.23a5.13,5.13,0,0,0,.67,3.83c1.77.78,3.71,0,5.56.35-2.41,1.13-4.95.46-7.44.5.65-1.81-.89-3.44-.38-5.51,3.89-1.41,8.07-2.11,12.19-3.11,1.63,2.23,1.19,5,2.68,7.39h5.17C511.92,390.87,509.38,390.17,506.89,390.22Z"/><path class="cls-51" d="M412.33,409.41a64.3,64.3,0,0,1,3.33,17C413.56,420.94,412.88,415.19,412.33,409.41Z"/><path class="cls-52" d="M328.26,472.93c-5.6,1.42-8.45-.62-8.21-5.9,3.24,6.09,5,6.76,8.34,3.12,1.12-.76,1.19-2.18,1.94-3.49C331.21,469.54,329.57,471.18,328.26,472.93Z"/><path class="cls-53" d="M538.78,388.24h-8.56c2.92-1.67,6.15-2.2,9.29-2.82a2.39,2.39,0,0,1,.52,2.75Z"/><path class="cls-54" d="M478,367.3c-1.07-4.51-2-8.54-3.05-12.87,4.24-1.59,8.54-2.2,12.93-3.33a98.2,98.2,0,0,1,3,13.09Z"/><path class="cls-55" d="M400.72,256.58c1.1,4.57,2.07,8.59,3.08,12.8-4.19,1.5-8.4,2.13-12.78,3.24-1.67-4-2.11-8.27-3.35-12.69C391.87,258.26,396.13,257.58,400.72,256.58Z"/><path class="cls-55" d="M529.45,244.54c-4.2,1.61-8.42,2.11-12.72,3.32-1.79-4.18-2.1-8.46-3.44-12.68,4.17-1.84,8.46-2.12,12.86-3.57C527.68,235.89,528.33,240.17,529.45,244.54Z"/><path class="cls-56" d="M351.44,298.11l-12.95,3.05a102.07,102.07,0,0,1-3.15-13.07L348.27,285C349.34,289.46,350.34,293.59,351.44,298.11Z"/><path class="cls-57" d="M356,210.8c-1.1-4.56-2.07-8.6-3.11-12.87,4.24-1.63,8.55-2.19,13.05-3.36l3.07,12.7C364.82,209.13,360.45,209.52,356,210.8Z"/><path class="cls-58" d="M388.13,320.7c4.63-1.11,8.68-2.35,13.13-3,1,4.31,2,8.32,3,12.72a113.42,113.42,0,0,1-13,3.24C390.18,329.33,389.2,325.22,388.13,320.7Z"/><path class="cls-59" d="M493.21,324.84A106.21,106.21,0,0,1,505.92,322c1.56,4.09,2.13,8.3,3.27,12.69a113.23,113.23,0,0,1-13,3.09A112.23,112.23,0,0,1,493.21,324.84Z"/><path class="cls-58" d="M566.25,267.37c4.66-1.06,8.59-2.35,13.08-2.91,1,4.27,2,8.38,3.07,12.77a116,116,0,0,1-13.13,3Z"/><path class="cls-58" d="M453,289.19A124.35,124.35,0,0,1,456.19,302c-4.14,1.56-8.34,2.12-12.68,3.27a74.8,74.8,0,0,1-3.25-13Z"/><path class="cls-58" d="M495.32,264.84a114.75,114.75,0,0,1,13-3.24c1.08,4.46,2.08,8.56,3.15,13l-12.82,3.09C497,273.54,496.52,269.31,495.32,264.84Z"/><path class="cls-55" d="M347.78,223.93c1.08,4.51,2.06,8.63,3.12,13.09L338,240.09a120.42,120.42,0,0,1-3.24-12.83C339,225.77,343.17,225.11,347.78,223.93Z"/><path class="cls-56" d="M420.07,361,407,364.09c-1.07-4.39-2.07-8.49-3.16-12.94A120.15,120.15,0,0,1,417,348C418,352.33,419,356.43,420.07,361Z"/><path class="cls-57" d="M424.34,261.46l12.75-3.07c1.68,4.16,2.06,8.51,3.37,12.82a89,89,0,0,1-12.88,3.16A91.26,91.26,0,0,1,424.34,261.46Z"/><path class="cls-57" d="M364.08,315.48c1.06,4.48,2,8.51,3,12.74-4.12,1.55-8.35,2.13-12.79,3.3-1.6-4.14-2.22-8.41-3.28-12.86A98.42,98.42,0,0,1,364.08,315.48Z"/><path class="cls-56" d="M442.39,232.08,455.25,229a105.42,105.42,0,0,1,3.19,13.08l-12.75,3A125.33,125.33,0,0,1,442.39,232.08Z"/><path class="cls-56" d="M314.82,377.7l12.88-3.1a85.39,85.39,0,0,1,3.13,12.94,108.6,108.6,0,0,1-12.73,3.06C316.58,386.37,316,382.15,314.82,377.7Z"/><path class="cls-57" d="M422.27,300.87l-12.86,3a100,100,0,0,1-3.1-12.8c4.23-1.63,8.48-2.07,12.71-3.37A126.72,126.72,0,0,1,422.27,300.87Z"/><path class="cls-58" d="M529.62,265.5l12.8-3.08c1.56,4.19,2.2,8.39,3.33,12.82-4.08,1.5-8.29,2.13-12.74,3.29C531.3,274.42,530.79,270.1,529.62,265.5Z"/><path class="cls-55" d="M333.09,348.28l12.7-3c1.58,4.22,2.18,8.52,3.3,12.91a109.73,109.73,0,0,1-12.89,3.06A98.77,98.77,0,0,1,333.09,348.28Z"/><path class="cls-60" d="M471.71,259.63l3.14,12.94a93.08,93.08,0,0,1-13,3.09,91.13,91.13,0,0,1-3-12.91Z"/><path class="cls-56" d="M373.15,363.19c-1.07-4.45-2.07-8.56-3.16-13.09L382.82,347c1.59,4.19,2.24,8.38,3.29,13Z"/><path class="cls-61" d="M422,321.68l12.78-3.14c1.71,4.18,2.15,8.52,3.49,13.06l-13.2,3.11Z"/><path class="cls-59" d="M384.36,225.72c1.11,4.53,2.08,8.54,3.15,12.92-4.22,1.62-8.53,2.12-13,3.45-1.09-4.51-2.09-8.61-3.12-12.87C375.56,227.5,379.82,227.11,384.36,225.72Z"/><path class="cls-59" d="M421.85,240c-4.2,1.52-8.39,2.19-12.73,3.26-1.61-4.11-2.18-8.33-3.31-12.75,4.17-1.59,8.43-2.29,12.84-3.19A118.23,118.23,0,0,1,421.85,240Z"/><path class="cls-62" d="M364.82,376.44a108.65,108.65,0,0,1,3.11,12.83,114,114,0,0,1-12.69,3.12c-1.61-4.11-2.11-8.34-3.34-12.72A111.9,111.9,0,0,1,364.82,376.44Z"/><path class="cls-59" d="M525,352.86c1.07,4.43,2,8.44,3.09,12.82-4.19,1.61-8.51,2.1-12.79,3.38-1.61-4.38-2.18-8.59-3.35-12.84C516.24,354.61,520.45,354,525,352.86Z"/><path class="cls-59" d="M514.26,308a111.64,111.64,0,0,1-3-12.86A115.66,115.66,0,0,1,524.1,292c1,4.3,2,8.42,3.1,12.78C523,306.23,518.83,306.92,514.26,308Z"/><path class="cls-57" d="M493,242.86l-13,3.15c-1.56-4.12-2.27-8.39-3.27-12.84,4.19-1.55,8.36-2.23,12.73-3.2C491.22,234.08,491.51,238.37,493,242.86Z"/><path class="cls-63" d="M480.26,307.14c-1.08-4.62-2-8.75-3.06-13.08a120.2,120.2,0,0,1,13.08-2.94c1,4.3,2,8.42,3.09,12.84Z"/><path class="cls-59" d="M560.57,233a128,128,0,0,1,3.27,12.89c-4.15,1.48-8.34,2.17-12.7,3.19-1.8-4-2-8.29-3.54-12.84Z"/><path class="cls-57" d="M401.84,390.63c-4.21,1.59-8.44,2.1-12.81,3.37-1.08-4.39-2.08-8.51-3.17-12.93a86,86,0,0,1,13-3.14A92.74,92.74,0,0,1,401.84,390.63Z"/><path class="cls-59" d="M353.14,258.51a104.08,104.08,0,0,1,13-3.14,126.51,126.51,0,0,1,3.2,12.72,124.44,124.44,0,0,1-12.72,3.18C354.87,267.22,354.57,262.94,353.14,258.51Z"/><path class="cls-55" d="M318.41,196.5a112.06,112.06,0,0,1,12.86-3,87.25,87.25,0,0,1,3.22,12.88l-12.91,3.12C320.51,205.11,319.49,200.93,318.41,196.5Z"/><path class="cls-55" d="M405.58,209.52l-12.86,3.06a118.34,118.34,0,0,1-3.14-12.82c4.15-1.55,8.37-2.13,12.7-3.33C403.82,200.67,404.54,204.83,405.58,209.52Z"/><path class="cls-56" d="M372.21,302.17c-1.07-4.39-2-8.41-3.13-12.81A90.54,90.54,0,0,1,382,286.13c1.53,4.19,2.13,8.41,3.27,12.69C381.05,300.36,376.84,301,372.21,302.17Z"/><path class="cls-57" d="M454,349.69c1.1,4.59,2.07,8.69,3.11,13.05l-12.85,3.09c-1.57-4.24-2.13-8.46-3.34-12.76C445.19,351.47,449.37,350.84,454,349.69Z"/><path class="cls-57" d="M462.19,336.53c-1.09-4.5-2.08-8.62-3.12-12.95a94.72,94.72,0,0,1,12.86-3.08c1.52,4.14,2.2,8.31,3.29,12.83Z"/><path class="cls-64" d="M323.5,317.28c0-1-.41-2.15.57-3,0,1.07.52,1.48,1.59,1.2,1.36-.34,2.74-.62,4.38-1a109.84,109.84,0,0,1,3.13,12.91A72.49,72.49,0,0,1,322,330c-1.13-1-2.21-2-.75-3.55,2.56,1.65,5,.52,7.45-.33,1.39-.49,1.54-1.71,1.27-2.95-.41-1.83-.59-3.74-1.61-5.34C326.75,316.88,325,318.55,323.5,317.28Z"/><path class="cls-64" d="M590.27,236.57a2.1,2.1,0,0,1,1.53,1,6.6,6.6,0,0,1-.77.73c-3.51,2.19-4.15,4.57-2.35,8.31a2.1,2.1,0,0,0,2.55,1.34c1.13-.19,2.31-.72,3.4.18.59.16,1.3.12,1.54.9-2.43.58-4.87,1.18-7.31,1.75a6.75,6.75,0,0,1-1,.09,39,39,0,0,1-3-13Z"/><path class="cls-65" d="M306.87,386.76l3.68-2.49c.78,3.22-.37,6.41-.17,9.62l-1,2.55C308.64,392.91,306.87,390.08,306.87,386.76Z"/><path class="cls-66" d="M428.91,199.32c-.41,1.87-2.52,1.06-3.27,2-1,1.87,1.5,3.6-.24,5.25a23.46,23.46,0,0,1-1.48-5.85A11,11,0,0,1,428.91,199.32Z"/><path class="cls-67" d="M297.18,357.46a4.88,4.88,0,0,1-2.47,1.34l-28.87,9.37c-.85.27-1.72,1-2.62.09a156.08,156.08,0,0,0,13.59-8.73c4.42-2.26,9.21-3.52,13.86-5.15,1.44-.5,2.93-1,4.45-.18C295.8,355.29,296.49,356.37,297.18,357.46Z"/><path class="cls-68" d="M291.07,347.39c.34,2.23,2.69,3.35,3.06,5.56-3.85,2.88-8.6,3.27-13,4.66-.48.15-.77-.37-.76-.9Z"/><path class="cls-69" d="M156.45,270.88c5.36,4.82,12.69,2.18,13.48-5.28,1.54,3.32.32,5.94-3.71,7.95C161.88,275.7,158.4,274.82,156.45,270.88Z"/><path class="cls-70" d="M280.39,356.71c2,.89,3.57-.54,5.29-1,2.86-.77,5.64-1.82,8.45-2.75l1,1.25c-4.62,1.46-9.22,3-13.85,4.37-1.45.44-2.85,1.24-4.46,1Z"/><path class="cls-71" d="M217.76,242.22c2,3.45,1.63,5.76-.87,7.89a6.85,6.85,0,0,1-9.42,0C216.36,250.65,218,249.49,217.76,242.22Z"/><path class="cls-45" d="M159.11,502.43c-3.75.35-6.74,2.67-10.16,3.91a20,20,0,0,1-8.09,1,5.52,5.52,0,0,1-5.46-5.51c-.32-4.22,1.52-7.75,4-10.81,4.87-6,9.65-12.05,15.09-17.6,4.81-4.91,10.84-6.09,17.12-6.91a35.25,35.25,0,0,1,6.08,0c4.51.2,6.61,3.2,5.28,7.48-1.76,5.63-5.64,9.89-9.39,14.17a77.86,77.86,0,0,1-11.89,10.76c-.47.35-1.09.66-.42,1.37-2.64,3.08-7.62,2.14-9.4-1.77-.88-1.94-.93-4.42-.16-7.7a5.63,5.63,0,0,0-.51,2.05c0,.71,0,1.43,0,2.15C151.3,499.66,152.7,501,159.11,502.43Z"/><path class="cls-72" d="M173.48,433.41c-3.5-.68-6.83,1-10.3.7.71-2.5,3.12-2.36,4.91-2.94,30.26-10,60.61-19.72,90.89-29.65,11.23-3.68,22.53-7.13,33.72-10.92,1.48-.51,3.11-1.64,4.57.14-15.65,8.58-32.34,14.7-49,21-17.41,6.55-35.29,11.44-53.1,16.6-2.65,1.77-5.91,1.73-8.73,3A43.91,43.91,0,0,1,173.48,433.41Z"/><path class="cls-73" d="M159.11,502.43c-3.57.2-6.7-.41-8-4.36a10.84,10.84,0,0,1,2.28-11.27c1.1,1.08.3,1.71-.15,2.3-1.85,2.44-1.62,5.26-1.18,7.93.71,4.21,5,5.59,9.22,3.18.77-.39,1.48-1.25,2.56-.27A6.84,6.84,0,0,1,159.11,502.43Z"/><path class="cls-74" d="M186.44,431.28a23,23,0,0,1,8.73-3c0,.32,0,.65-.07,1A27.46,27.46,0,0,1,186.44,431.28Z"/><path class="cls-75" d="M229.28,190.34,228,190c-.74-.85-2.25-.8-2.79-2.57,3.09.9,5.62,2.79,8.73,1.82,3.56-1.11,3.43-4,3.39-7.23,1.18,1.41,1.59,3.32,3.58,2.91,3.49-.73,5.12-3.23,5.82-6.46,5.43-1.33,5.67-1.87,3.24-7.17,2,.92,3,2.33,2.8,4.07s-.92,3.41-2.81,3.73a3.66,3.66,0,0,0-3.17,2.81,3.29,3.29,0,0,1-1.43,2c-4.37,1.58-7.9,4.58-11.92,6.73C232.15,191.27,230.67,190.69,229.28,190.34Z"/><path class="cls-76" d="M352.24,600.63,261.45,597l.05-1.28,90.8,3.62Z"/><path class="cls-77" d="M455,200c-3.65,1.3-7,1-9.78-2C448.35,199.63,451.73,199.62,455,200Z"/><path class="cls-21" d="M594.63,248.09l-6,1.31c-1.37-3.27-1.8-6.66-2.61-10.05,1.78-1.32,3.88-1.22,5.75-1.82,1.1,2.63,2.16,5.28,3.32,7.89C595.6,246.49,596,247.41,594.63,248.09Z"/><path class="cls-78" d="M166.59,220.8c2.7,1.12,5.55.75,8.53,1C171.94,223.78,169.46,223.55,166.59,220.8Z"/><path class="cls-79" d="M99.93,434.76c-3.61.34-7.11-.68-10.68-.89.88-1.13,2.25-1.32,3.47-1.72Q189,400.82,285.36,369.51l16-5.17,2.24,3.27c-.81,1.45-2.4,1.45-3.71,1.88q-98.16,31.93-196.33,63.84A11.43,11.43,0,0,0,99.93,434.76Z"/><path class="cls-79" d="M133.3,436.24a95.86,95.86,0,0,1-15.25,0c7.93-3.32,16.24-5.54,24.39-8.2Q224,401.44,305.62,375c.68-.23,1.38-.4,2.07-.59a12.69,12.69,0,0,1,2.36,3.56c0,1.79-1.52,2-2.69,2.38-21.81,7-43.55,14.23-65.33,21.32-22.36,7.27-44.69,14.62-67.06,21.86-10.21,3.31-20.42,6.64-30.59,10.08C140.75,434.8,137,435.38,133.3,436.24Z"/><path class="cls-79" d="M156.7,434.76a115.49,115.49,0,0,1-19.13,1.4c0-1.43,1.24-1.24,2.05-1.5q76-24.92,152-49.59c5.44-1.77,10.81-3.73,16.29-5.33,1-.29,2-.92,3.09-.28l1.22,1.91a46.46,46.46,0,0,1-9.42,6c-16.51,6.17-33.45,11.07-50.17,16.59-29.31,9.66-58.72,19.05-88,28.7A49.2,49.2,0,0,1,156.7,434.76Z"/><path class="cls-12" d="M311,379.46q-24.5,7.95-49,15.9-60.57,19.72-121.13,39.5c-1.12.37-2.2.86-3.3,1.3l-4.27.08c6.69-2.87,13.74-4.74,20.63-7Q212,410.17,270,391.31c12.37-4,24.77-8,37.14-12a5.76,5.76,0,0,0,2.87-1.36Z"/><path class="cls-10" d="M156.7,434.76c9.8-3.8,19.91-6.66,29.88-9.93q49.18-16.12,98.45-32c5.89-1.9,11.68-4.18,17.78-5.44l-5.54,3.38c-1.25-.56-2.36.17-3.45.52q-63.36,20.58-126.71,41.25a11.11,11.11,0,0,0-3.93,1.59A17.5,17.5,0,0,1,156.7,434.76Z"/><path class="cls-80" d="M314,583.35c.41-2.35.72-4.15,1.05-6.09,1.8,0,3.13.85,4.77,1.67A21.45,21.45,0,0,1,314,583.35Z"/><path class="cls-46" d="M435,381c.89,3.66,1.67,6.87,2.49,10.28-3.34,1.58-6.86,1.83-10.37,2.84a78,78,0,0,1-2.57-10.55Z"/><path class="cls-46" d="M323.5,317.28l5.54-1.23a49.81,49.81,0,0,1,2.39,10.29,51.85,51.85,0,0,1-9.51,2.41c-.95-.86-.51-1.64-.71-2.29C322,323.4,322.74,320.34,323.5,317.28Z"/><path class="cls-81" d="M479,365.72c-.85-3.63-1.62-6.92-2.42-10.36a61.1,61.1,0,0,1,10.22-2.55c1.42,3.33,1.76,6.62,2.7,10.09C486.06,364.41,482.57,364.72,479,365.72Z"/><path class="cls-46" d="M389.21,260.75a69,69,0,0,1,10.31-2.52c1.4,3.29,1.81,6.68,2.64,10.15-3.33,1.34-6.73,1.82-10.14,2.66C390.48,267.8,390.23,264.33,389.21,260.75Z"/><path class="cls-46" d="M515,235.73l10.41-2.47c.85,3.53,1.65,6.83,2.47,10.26-3.34,1.42-6.73,1.91-10.26,2.69A52.21,52.21,0,0,1,515,235.73Z"/><path class="cls-81" d="M339.44,299.49A53.71,53.71,0,0,1,337,289.22a46.67,46.67,0,0,1,10.16-2.36c1.28,3.26,1.73,6.55,2.63,10.08A66.72,66.72,0,0,1,339.44,299.49Z"/><path class="cls-81" d="M367.32,206.54a71.27,71.27,0,0,1-10.16,2.5c-1.41-3.36-1.87-6.72-2.72-10.17,3.38-1.38,6.8-1.74,10.24-2.68A57.46,57.46,0,0,1,367.32,206.54Z"/><path class="cls-81" d="M392.46,332.2c-1.44-3.48-1.79-6.91-2.72-10.32,3.33-1.43,6.77-1.73,10.26-2.75a58.75,58.75,0,0,1,2.56,10.28C399.26,330.94,395.82,331.17,392.46,332.2Z"/><path class="cls-81" d="M507.65,333.86l-10.29,2.41c-1.38-3.31-1.87-6.69-2.65-10.31a57,57,0,0,1,10.23-2.49C506.24,326.79,506.75,330.15,507.65,333.86Z"/><path class="cls-81" d="M580.78,276.43l-10.24,2.39A55.06,55.06,0,0,1,568,268.6,46.89,46.89,0,0,1,578.14,266,66.44,66.44,0,0,1,580.78,276.43Z"/><path class="cls-46" d="M441.79,293.17l10.2-2.42c1.36,3.29,1.75,6.69,2.71,10.17-3.29,1.58-6.81,1.83-10.28,2.82A57.75,57.75,0,0,1,441.79,293.17Z"/><path class="cls-81" d="M496.86,265.8a72.66,72.66,0,0,1,10.55-2.64c.85,3.5,1.63,6.72,2.47,10.13-3.21,1.64-6.72,1.71-10.08,2.88C498.08,272.83,497.89,269.28,496.86,265.8Z"/><path class="cls-81" d="M338.79,238.52c-.89-3.65-1.67-6.86-2.49-10.24,3.4-1.39,6.81-1.85,10.27-2.71,1.45,3.27,1.68,6.72,2.8,10.18C346,237.2,342.59,237.61,338.79,238.52Z"/><path class="cls-46" d="M405.61,352l10.18-2.47a51.63,51.63,0,0,1,2.46,10.45,72.71,72.71,0,0,1-10.08,2.47A51.5,51.5,0,0,1,405.61,352Z"/><path class="cls-81" d="M428.3,272.88c-.87-3.67-1.64-6.87-2.43-10.18A62.07,62.07,0,0,1,436.2,260a75.76,75.76,0,0,1,2.56,10.23A61.31,61.31,0,0,1,428.3,272.88Z"/><path class="cls-81" d="M363.09,316.9c.89,3.8,1.64,7,2.42,10.37a70.1,70.1,0,0,1-10.25,2.63c-1.34-3.34-1.84-6.72-2.61-10.17C356,318.18,359.44,317.94,363.09,316.9Z"/><path class="cls-81" d="M444,233l10.27-2.46c1.4,3.31,1.8,6.72,2.7,10.25-3.28,1.41-6.67,1.84-10.16,2.63C445.21,240.16,444.87,236.75,444,233Z"/><path class="cls-46" d="M329.4,386.53a62.66,62.66,0,0,1-10.56,2.52c-.82-3.52-1.58-6.73-2.38-10.14,3.32-1.37,6.7-1.86,10.24-2.71C328.07,379.43,328.46,382.85,329.4,386.53Z"/><path class="cls-81" d="M408,291.74l10-2.38c1.31,3.33,1.8,6.72,2.66,10.26-3.31,1.41-6.79,1.8-10.34,2.69C409.28,298.64,408.21,295.42,408,291.74Z"/><path class="cls-81" d="M541.75,264c.86,3.69,1.64,7,2.47,10.52L533.9,277a56.17,56.17,0,0,1-2.55-10.26C534.62,265.28,538,264.87,541.75,264Z"/><path class="cls-81" d="M345.09,346.76c.87,3.69,1.62,6.91,2.41,10.28-3.28,1.47-6.7,1.77-10.22,2.72a46.61,46.61,0,0,1-2.54-10.27C338,348.1,341.4,347.66,345.09,346.76Z"/><path class="cls-81" d="M473.17,271.59a60.3,60.3,0,0,1-10.24,2.52,64.24,64.24,0,0,1-2.62-10.37l10.28-2.47A77.08,77.08,0,0,1,473.17,271.59Z"/><path class="cls-81" d="M374.09,361.63l-2.46-10.25c3.26-1.62,6.79-1.82,10.27-2.85,1.31,3.4,1.76,6.67,2.67,10.23C381.32,360.25,377.83,360.58,374.09,361.63Z"/><path class="cls-81" d="M426.12,333c-.94-3.61-2-6.76-2.28-10.27a64.65,64.65,0,0,1,10.11-2.5,75.48,75.48,0,0,1,2.56,10.21A60.24,60.24,0,0,1,426.12,333Z"/><path class="cls-46" d="M375.43,240.51c-.89-3.69-1.68-7-2.55-10.6l10.29-2.51c1.47,3.22,1.69,6.57,2.79,10.17C382.8,239.22,379.24,239.33,375.43,240.51Z"/><path class="cls-81" d="M407.42,231.41c3.35-1.38,6.75-1.77,10.14-2.68,1.58,3.35,1.73,6.82,2.83,10.21-3.38,1.45-6.79,1.78-10.27,2.79C408.62,238.4,408.24,234.92,407.42,231.41Z"/><path class="cls-81" d="M364,378a76.41,76.41,0,0,1,2.42,10.53L356,391l-2.51-10.26C356.81,379.24,360.2,378.82,364,378Z"/><path class="cls-81" d="M516.26,367.35c-1.41-3.28-1.64-6.74-2.76-10.12,3.37-1.51,6.8-1.82,10.3-2.79,1.47,3.35,1.92,6.83,2.69,10.37A70.78,70.78,0,0,1,516.26,367.35Z"/><path class="cls-46" d="M515.25,306.44A66.49,66.49,0,0,1,512.76,296a67.64,67.64,0,0,1,10.43-2.42c.83,3.46,1.62,6.76,2.45,10.19A74.53,74.53,0,0,1,515.25,306.44Z"/><path class="cls-81" d="M488.82,231.52c.88,3.67,1.63,6.78,2.46,10.23a67.32,67.32,0,0,1-10.4,2.6,61.35,61.35,0,0,1-2.43-10.25A60.49,60.49,0,0,1,488.82,231.52Z"/><path class="cls-46" d="M478.83,295.06a71.82,71.82,0,0,1,10.22-2.36c1.4,3.29,1.83,6.68,2.73,10.3l-10.28,2.51A65.06,65.06,0,0,1,478.83,295.06Z"/><path class="cls-81" d="M562.34,245.12l-10.26,2.48c-1.52-3.33-1.85-6.83-2.71-10.31,3.41-1.41,6.83-1.73,10.23-2.73C561,238,561.38,241.39,562.34,245.12Z"/><path class="cls-81" d="M398,379.26l2.43,10.4a60.59,60.59,0,0,1-10.49,2.57c-.83-3.37-1.61-6.58-2.46-10C390.68,380.5,394.24,380.4,398,379.26Z"/><path class="cls-46" d="M367.89,267.29l-10.23,2.5c-1.62-3.29-1.86-6.82-2.81-10.27,3.3-1.43,6.64-1.67,10.16-2.84C366.49,260,366.85,263.52,367.89,267.29Z"/><path class="cls-46" d="M320,197.58c3.39-1.37,6.78-1.82,10.26-2.66a52.39,52.39,0,0,1,2.61,10.28,70,70,0,0,1-10.37,2.64C321.65,204.34,320.84,201,320,197.58Z"/><path class="cls-81" d="M391,200.52l10.26-2.5c1.48,3.36,1.86,6.76,2.69,10.29A58.51,58.51,0,0,1,393.48,211C392.63,207.38,391.85,204.06,391,200.52Z"/><path class="cls-81" d="M370.66,290.06l10.51-2.51c.88,3.64,1.68,6.94,2.54,10.52l-10.27,2.52C372,297.27,371.58,293.87,370.66,290.06Z"/><path class="cls-81" d="M442.48,354a68.89,68.89,0,0,1,10.34-2.59,60.29,60.29,0,0,1,2.62,10.19c-3.23,1.29-6.5,1.73-10.1,2.67C443.81,361.16,443.58,357.65,442.48,354Z"/><path class="cls-81" d="M460.7,324.61c3.32-1.39,6.72-1.8,10.21-2.66a54.46,54.46,0,0,1,2.6,10.27,69.5,69.5,0,0,1-10.18,2.62A79.61,79.61,0,0,1,460.7,324.61Z"/></g></g></svg>