<svg xmlns="http://www.w3.org/2000/svg" viewBox="0 0 483.17 444.01"><defs><style>.cls-1{fill:#e15f3d;}.cls-2{fill:#e897a3;}.cls-3{fill:#a4d5cc;}.cls-4{fill:#e1603e;}.cls-5{fill:#f39684;}.cls-6{fill:#d53d30;}.cls-7{fill:#f39685;}.cls-8{fill:#91cdbd;}.cls-9{fill:#65140f;}.cls-10{fill:#a5d6cc;}.cls-11{fill:#469fd4;}.cls-12{fill:#66140f;}.cls-13{fill:#661410;}.cls-14{fill:#68140f;}.cls-15{fill:#3d519f;}.cls-16{fill:#fbfdfd;}.cls-17{fill:#fcfefd;}.cls-18{fill:#f2f7f6;}.cls-19{fill:#fbfdfc;}.cls-20{fill:#fdfaf9;}.cls-21{fill:#fdfcfb;}.cls-22{fill:#fffcfc;}.cls-23{fill:#f7fbfa;}.cls-24{fill:#edf5f3;}</style></defs><title>illustration_02_who we are</title><g id="Layer_2" data-name="Layer 2"><g id="base"><path class="cls-1" d="M177,185.15c-.23-6.58.11-13.19-1.41-19.67a17.14,17.14,0,0,0-3.34-7c-2.63-3.25-6.17-4.46-10.19-4.54-7.14-.13-14,1.39-20.86,3.28-1,.28-1.51.29-1.82-.87-.48-1.81-1.15-3.56-1.74-5.33.11-1.74-.71-3.24-1.24-4.81-2.5-7.35-5.09-14.66-7.63-22q-7.22-20.82-14.46-41.66a7,7,0,0,0-.62-1.29c-.17-1.22-1.43-2.5-.79-3.49S115,76.49,116.1,76c16.8-7.6,32.32-17.51,48.35-26.51a317.4,317.4,0,0,1,75-30.2,219.1,219.1,0,0,1,32.68-5.72,237.1,237.1,0,0,1,31.18-1.36c24.92.66,49.1,5,72,15.2C408.64,42.26,433.1,66.32,449.09,99A113.34,113.34,0,0,1,460.22,138a116.11,116.11,0,0,1-14.93,70.31c-.66,1.15-1.14,1.47-2.48.8a135.42,135.42,0,0,0-14.6-6.57,5.56,5.56,0,0,1-2.08-.53c-15.43-6.22-30.91-12.32-46.32-18.58-3.75-1.52-7.57-2.87-11.31-4.44a2.29,2.29,0,0,0-2.53.34c-3.45,2.62-6.84,5.32-10.54,7.62-10.24,6.39-21.07,11.3-33.14,13a48.35,48.35,0,0,1-27.9-4.22A87.53,87.53,0,0,1,271.47,180c-2.45-2.32-4.89-4.65-7.55-6.73-3.64-2.85-5.5-2.45-7.52,1.66A15.58,15.58,0,0,0,255,181c0,.48,0,1,0,1.45-.21,1.52-1.05,2.1-2.53,1.72a8.48,8.48,0,0,1-2.23-1c-2.66-1.56-5.19-3.33-7.83-4.93a10.87,10.87,0,0,0-2.77-1.22,2.68,2.68,0,0,0-3.54,1.66,11.07,11.07,0,0,0-.87,6.5,43.74,43.74,0,0,0,2.38,7.57c1.32,3.6.38,4.89-3.44,4.65-4.26-.28-6.2,1.26-6.91,5.48a12.16,12.16,0,0,0-.24,3.3c.05.37.28.92-.44,1a243.3,243.3,0,0,1-35-13.44c-3.74-1.77-7.4-3.72-11.09-5.59a5.61,5.61,0,0,1-3-1.48A1.17,1.17,0,0,1,177,185.15Z"/><path class="cls-2" d="M226.51,207.18c.18-1.51,0-3,.27-4.53.51-3,2.26-5.17,4.74-5.79,1.09-.28,2.08.2,3.14.21,3.08,0,3.76-.86,2.69-3.77a47.5,47.5,0,0,1-2.58-8.08,11.22,11.22,0,0,1,1.06-7c.82-1.69,2.26-2.14,4.14-1.48,3,1.07,5.48,3.18,8.21,4.78a20.83,20.83,0,0,0,4.31,2.32c1.43.43,2,.09,2-1.42a23.57,23.57,0,0,1,.64-5.43,12.8,12.8,0,0,1,2.29-4.63,3.08,3.08,0,0,1,4.19-1,23.8,23.8,0,0,1,6,4.63,118.94,118.94,0,0,0,15.86,13.17c7.74,5.09,15.89,9.25,25.22,10.44a57.53,57.53,0,0,0,25.69-3,97.15,97.15,0,0,0,22.17-11c3.38-2.19,6.45-4.78,9.69-7.16a1.34,1.34,0,0,1,1.53-.24l59.6,23.8a5.07,5.07,0,0,1,.74.43c-.29.49.24.43.4.51.92.41,1.86.78,2.79,1.15,2.68,1.09,2.68,1.09,1.14,3.59a62.85,62.85,0,0,1-10.82,12.69.83.83,0,0,1-.76.33,56.56,56.56,0,0,0-10.71-1.36c-7.95.12-14.89,2.66-20.65,8.25a44.75,44.75,0,0,0-9.77,13.14,27.6,27.6,0,0,0-1.73,4.89,2.94,2.94,0,0,1-.79,1.66c-4.82,2.77-10.21,4-15.4,5.84a41.68,41.68,0,0,0-4.61,1.44l-.15.17c-1.13.58-2.47.44-3.59,1.06a3.32,3.32,0,0,1-1.42.33c-2.92.27-5.78.88-8.68,1.22a100.7,100.7,0,0,1-12.75.81c-2.64,0-5.27,0-7.91,0a3,3,0,0,1-.52-.07c-1.33-.4-2.69-.11-4-.22-2.47-.36-5-.46-7.42-.94a10.47,10.47,0,0,0-2.16-.27c-4.24-.74-8.46-1.6-12.66-2.54a5.93,5.93,0,0,0-1.29-.43c-4.09-1.06-8.11-2.33-12.13-3.62a4.43,4.43,0,0,0-1.77-.69c-3.86-1.45-7.71-2.92-11.46-4.63a9.82,9.82,0,0,0-1.89-.87c-4.17-2-8.36-4-12.37-6.36a11.13,11.13,0,0,0-2.07-1.24,125.45,125.45,0,0,1-11-7.22,22.92,22.92,0,0,0-2.44-1.84c-3-2.44-6.05-4.74-8.4-7.82a19.11,19.11,0,0,1-4.15-10.5C226.83,208.36,226.9,207.7,226.51,207.18Z"/><path class="cls-2" d="M113.7,81.29c.89-.24.74.55.88.95q3.83,11,7.63,21.9,7.64,22,15.29,44c.35,1,.71,1.94.15,3a1.14,1.14,0,0,0-1.33-.51c-7.4,1.39-14.87,2.42-22.33,3.4-6.33.84-12.65,1.77-19,2.51a190.6,190.6,0,0,1-31.14,1.16,108.56,108.56,0,0,1-29.78-5.68c-5.47-1.83-11.12-3.1-16.5-5.2-5.1-2-8-6-9.87-10.87a2.81,2.81,0,0,1,.64-3.3c1.43-1.39,1.51-2.07.36-3.79-1.25-1.88-2.69-3.63-3.95-5.51-2.1-3.12-4-6.33-4.62-10.16a7.74,7.74,0,0,1,2.56-7.42,3,3,0,0,0,.92-3.82,29.64,29.64,0,0,1-2.06-6A11.39,11.39,0,0,1,2,90.19a2.93,2.93,0,0,1,3.08-1.93,25.88,25.88,0,0,1,6.22,1.11A102.32,102.32,0,0,0,26.4,91.76a205.71,205.71,0,0,0,22.05,1,212,212,0,0,0,26-1.86A187.9,187.9,0,0,0,109.12,83C110.66,82.51,112.17,81.87,113.7,81.29Z"/><path class="cls-3" d="M227,208.93c1.22,6.85,5,12,10.43,16.16.8.62,1.57,1.27,2.35,1.9a5.7,5.7,0,0,1,.49,3.1V393a15.7,15.7,0,0,1-.1,2.74c-.15.66-.5.89-1.13.49a7.52,7.52,0,0,1-.82-.57,42.35,42.35,0,0,1-7.34-7.07,6.93,6.93,0,0,1-1.77-2.57c-.69-1-1.37-2.09-2.08-3.11a2.82,2.82,0,0,1-.25-1.82q0-66,0-132,0-19.15,0-38.32A3,3,0,0,1,227,208.93Z"/><path class="cls-3" d="M225.38,380.34c-1.15-1.85-2.36-3.67-3.44-5.57-2.85-5-5.61-10-8.16-15.12a5.33,5.33,0,0,1-.59-2.48q0-76.23,0-152.46v-1.45l9.37,3.11c3.11,1,3.11,1,3.11,4.28v169.6Z"/><path class="cls-3" d="M269.44,244.49l11.45,4.62a1.6,1.6,0,0,1,.77,1.46c0,.67,0,1.35,0,2V382.26c0,.92-.06,1.83-.08,2.74,0,2-1.57,3.24-2.35,5,.93-.35.9-1.63,1.91-1.72,0,.53,0,1.07,0,1.59a6.35,6.35,0,0,1-1.83,5.74c-1.31,2.72-3.75,4.28-6.13,5.87a12.34,12.34,0,0,1-3.35,1.61c-.63.2-1.25.32-1.49-.55a10,10,0,0,1-.13-2.31c0-6,.13-12,0-17.93q-.39-14.54-.19-29.06c.49-35.38.06-70.75.22-106.13a7.3,7.3,0,0,1,.11-1.87C268.52,244.72,268.67,244.14,269.44,244.49Z"/><path class="cls-3" d="M199,324.48c0-.73,0-1.45,0-2.17q0-61.12,0-122.24a11,11,0,0,0,0-1.15c-.1-1.07.12-1.32,1.24-.84,3.58,1.53,7.2,3,10.84,4.37.73.28,1,.64.94,1.36,0,.29,0,.58,0,.87V355.33l-.31.07c-1.15-2.56-2.29-5.13-3.46-7.69a26.33,26.33,0,0,0-2-4.31c-1.29-1.71-1.85-3.78-2.68-5.71-1.6-3.77-3.06-7.6-4.48-11.44C198.93,325.68,198.56,325.1,199,324.48Z"/><path class="cls-3" d="M190.62,298.6c-.72-3-1.45-6-2.16-8.94q-1.5-6.37-3-12.75a4.23,4.23,0,0,1-.06-1V192.14c0-.19,0-.38,0-.8l5,2.28c2.22,1,4.44,2.1,6.68,3.1a1.4,1.4,0,0,1,1,1.54c0,.19,0,.38,0,.57V320.65c0,.43,0,.87,0,1.3-.74,0-.71-.67-.86-1.1-.4-1.12-.82-2.24-1.24-3.35q-2.82-8.46-5.22-17.05A6.05,6.05,0,0,1,190.62,298.6Z"/><path class="cls-3" d="M296,253.74l10,2.06,2.67.54a1.61,1.61,0,0,1,.75,1.47c.05.63,0,1.25,0,1.88q0,42.94,0,85.9a14.31,14.31,0,0,1-.09,2.45,3.26,3.26,0,0,1-1.05,1.67,28.19,28.19,0,0,0-4.52,7,2.83,2.83,0,0,0-.36,2.07,1.27,1.27,0,0,1-1.16,1.41c-1.56.24-3.13.39-4.69.63-1.35.21-1.66-.35-1.66-1.66.05-11,0-22,0-33a3.83,3.83,0,0,0-.19-1.84c-.53-.37-.47-.91-.44-1.44.57-8,.88-15.94.73-23.92q-.12-6.85-.71-13.68a5.34,5.34,0,0,1,0-1.44,39.67,39.67,0,0,0,.17-7.47c-.06-6.92,0-13.83,0-20.75C295.49,254.94,295.41,254.22,296,253.74Z"/><path class="cls-4" d="M268.73,403c3.61-.9,6.43-3.07,9-5.66.57-.57,1.11-1.18,1.67-1.77l.12,2.79c.23,4.76.38,9.52.17,14.28a50.44,50.44,0,0,1-1.43,10.58,18.22,18.22,0,0,1-16.14,13.43,20,20,0,0,1-10.26-2.6,20.47,20.47,0,0,1-8.39-8.13,78,78,0,0,1-6.46-14.5c-2.37-7-4.35-14.09-6.13-21.25-.15-.6-.71-1.36.22-1.88a46.15,46.15,0,0,0,8.73,8c.55-.08.91.32,1.35.54a42,42,0,0,0,12.44,5.84,7.29,7.29,0,0,0,1.3.33,26.25,26.25,0,0,0,12.43.1A2.47,2.47,0,0,1,268.73,403Z"/><path class="cls-4" d="M196.39,317.43,198.1,322a8.64,8.64,0,0,0,.91,2.52c2,5.94,4.41,11.68,6.81,17.43.2.49.32,1,.48,1.5-.51,1.81-1,3.61-1.61,5.68-1.45-2-2.78-3.88-4.12-5.73l-1.51-2.12c-.22-.33-.4-.68-.88-.33s-.14.68.06,1a53,53,0,0,0,4.17,5.72c2.07,2.21,2,4.37.44,6.9-1.35-1.45-2.69-2.92-4-4.38-.59-.64-1.16-1.29-1.75-1.92-.26-.28-.5-.64-.95-.24s0,.68.2.94c1.78,2,3.51,4,5.37,5.87a1.91,1.91,0,0,1,.5,2.41c-.39.86-.67,1.77-1.08,2.89l-5.6-5.62c-.38-.38-.78-.89-1.18-.06-.21.45.32.64.56.88,1.69,1.72,3.4,3.43,5.11,5.12.43.42.77.77.47,1.48-2.57,6.2-5.25,12.32-9.92,17.31-4.3,4.59-10.35,6.08-15.81,3.91-.55-.72-.1-1.4.12-2.05,2.07-6.12,4.14-12.24,6.1-18.39,3.39-10.61,7.06-21.12,10.42-31.74,1.25-3.95,2.62-7.86,3.89-11.81C195.46,318.46,195.48,317.61,196.39,317.43Z"/><path class="cls-3" d="M336.72,266.58q0,30.62,0,61.24a2.26,2.26,0,0,1-.17,1.11c-1,1.73-1.7,3.67-2.94,5.28-.73.41-1.4-.09-2.09-.15a12.8,12.8,0,0,0-6.43,1.06c-.51.22-1.12.72-1.64-.07a4.85,4.85,0,0,1-.21-1.85q0-32.29,0-64.57a3.83,3.83,0,0,1,.33-2.11,2.21,2.21,0,0,1,1.76-.49c3.32,0,6.64.15,10,0C335.84,266,336.39,266,336.72,266.58Z"/><path class="cls-5" d="M196.39,317.43c-1.29,2.95-2.12,6.05-3.14,9.09q-5.2,15.6-10.32,31.21-4,12-7.92,24.09c-.13.41-.19.84-.28,1.26a20.13,20.13,0,0,1-7-3.35,1.5,1.5,0,0,1-.67-2q7.29-24.45,14.51-48.94Q186,313.91,190.4,299a1.93,1.93,0,0,1,.22-.36l4.65,15.27C195.63,315.06,196,316.24,196.39,317.43Z"/><path class="cls-3" d="M350.36,273.77c0,7.37-.05,14.75,0,22.12a12,12,0,0,1-1.13,4.71c-3.31,8.36-7,16.57-10.82,24.7a1.67,1.67,0,0,1-.79.83V266.56c.35-.51.9-.48,1.42-.52,3.2-.23,6.41-.4,9.59-.79a2.27,2.27,0,0,1,1.79.32,17.3,17.3,0,0,1,.19,6.8c-.33.72-1,.78-1.67.91-1.89.36-3.83.17-5.72.55a32.63,32.63,0,0,0,5.5-.33C349.3,273.46,349.9,273.23,350.36,273.77Z"/><path class="cls-6" d="M377.31,247.34c1.05-5.79,3.89-10.71,7.59-15.17,3-3.64,6.3-7,10.48-9.39a30.8,30.8,0,0,1,18.52-3.58,40.83,40.83,0,0,1,5.82,1c.46.11,1,.13,1.24.6a143,143,0,0,1-23.6,16.59,3.3,3.3,0,0,0-.54.46,2.78,2.78,0,0,1-1.22-3.3,13,13,0,0,1,3.13-5.56,7.82,7.82,0,0,0-3,8.54,1.12,1.12,0,0,1,.07.84c-4.89,2.53-9.74,5.17-14.79,7.4Z"/><path class="cls-3" d="M177,185.15c-.1,1,.61,1.39,1.34,1.78s1.39.81,2.08,1.22c.69,1.18,2,1.37,3.09,2a1.62,1.62,0,0,1,1,1.54c0,26.36,0,52.73-.26,79.13-.59-3.17-1.24-6.33-1.74-9.51-.9-5.68-1.78-11.36-2.54-17.06-.6-4.51-1-9-1.53-13.58-.5-4.72-1-9.44-1.39-14.17-.32-3.93-.44-7.87-.64-11.81-.1-2-.16-3.94-.18-5.9a117.51,117.51,0,0,1,.58-13.39C176.86,185.3,177,185.23,177,185.15Z"/><path class="cls-7" d="M231.08,388.33c-.22,1.38.4,2.62.73,3.88,2.19,8.41,4.43,16.81,7.74,24.87,2.06,5,4.18,10.13,8.37,13.84a20,20,0,0,0,14,5.36c4.95-.12,8.89-2.49,12.25-6.15s4.17-8.29,4.79-13c.82-6.23.46-12.5.59-18.75a35.06,35.06,0,0,1,.49,6.3c.21,5.29.3,10.59,0,15.88a51.54,51.54,0,0,1-1.55,11c-2.86,10.49-14.19,15.34-24.4,10.68-5.83-2.66-9.25-7.34-11.88-12.83-5-10.47-8.1-21.58-10.79-32.81-.84-3.5-1.74-7-2.26-10.55C229.79,386.8,230.43,387.57,231.08,388.33Z"/><path class="cls-8" d="M323.74,335.35a13.63,13.63,0,0,1,7.27-1.78,19.66,19.66,0,0,1,2.62.64,89.53,89.53,0,0,1-7.48,10.59c-5.66,6.65-12.43,11.55-21.06,13.58-.55.13-1.18-.08-1.65.39-.75-.16-.56-.67-.39-1.12a23,23,0,0,1,5.94-9,11.68,11.68,0,0,0,1-1.85,9.64,9.64,0,0,1,2.25-2.59,76.91,76.91,0,0,1,8.88-7.54,2.52,2.52,0,0,1,1.25-.65C323,336.12,323.28,335.58,323.74,335.35Z"/><path class="cls-6" d="M55.77,68.87l-1.13,3.45c-.71.63-1.55.4-2.35.31-2-.21-4-.54-6-.8a38.37,38.37,0,0,0,6,1c.71.07,1.46,0,2,.7-.63,2-1.27,3.93-1.88,5.9-.16.54-.25.9-.93.46-6.39-4.19-12.8-8.36-19.61-12.8l26-5.38c-.56,1.84-1.05,3.47-1.55,5.1-.14.44-.48.91.26,1.14-.47.57-1.06.23-1.6.21-1.29-.05-2.54-.36-3.83-.45a9.37,9.37,0,0,0,2.46.51A3,3,0,0,1,55.77,68.87Z"/><path class="cls-9" d="M464.06,194.53a92.2,92.2,0,0,0,5.5-19.83,186.27,186.27,0,0,0,2.58-42.89c-1.36-24.8-8.94-47.48-23.72-67.6-.71-1-1.51-1.88-2.25-2.82-.22-.27-.66-.49-.21-.94s.77,0,1,.32a88.14,88.14,0,0,1,8.7,12.39,126.21,126.21,0,0,1,16.56,48.19c1.55,11.61,1.38,23.26.61,34.91a149,149,0,0,1-4.73,29.6,61,61,0,0,1-3.19,9.26C464.4,195.27,464.11,195.08,464.06,194.53Z"/><path class="cls-9" d="M295.74,283.87c.46,6.73.85,13.46.78,20.21-.07,6.46-.29,12.91-.78,19.35a8.29,8.29,0,0,0,0,.86l-1,12.41A110.85,110.85,0,0,1,293.19,351a151.61,151.61,0,0,1-6.71,26.69,65.07,65.07,0,0,1-3.35,7.66,2.44,2.44,0,0,1-1,1.21l-1,1.71a11.09,11.09,0,0,1-1.11,1.49c-.33.33-.37,1.37-1.18.76s.12-.9.35-1.28a22.21,22.21,0,0,0,2-3.47,10.63,10.63,0,0,1,1-2.73,109.11,109.11,0,0,0,7.13-22.23,231.87,231.87,0,0,0,4.21-28.11c.47-4.89.66-9.79,1.1-14.67.44-9.7.48-19.39,0-29.08-.66-7.82-1.32-15.65-2.59-23.41-.44-2.66-.84-5.33-1.37-8a4.81,4.81,0,0,1-.14-1.14c0-.42.11-.77.59-.86a.87.87,0,0,1,1,.42,5,5,0,0,1,.51,1.65c1,4.91,1.77,9.85,2.27,14.84,0,.34.14.66.21,1A75.22,75.22,0,0,1,295.74,283.87Z"/><path class="cls-3" d="M282.15,386.57c6.28-12.43,9.13-25.83,11.2-39.45.52-3.46.95-6.94,1.42-10.42,0,7.71.13,15.43,0,23.13,0,1.46-1,3-1.39,4.52-2.24,9.1-5.27,17.89-10.2,25.93-.15.24-.32.48-.59.88C282,389.54,282.65,388,282.15,386.57Z"/><path class="cls-9" d="M54.31,73.49,46.1,72.32c-.48-.06-1.09-.1-.92-.78s.68-.29,1.08-.23a50.34,50.34,0,0,0,8.38,1,61.26,61.26,0,0,0,12.26.13C88,71,106.83,63.14,124.56,52.18c11.21-6.93,22.57-13.61,34-20.19.3-.18.7-.89,1.15-.11s-.31.78-.63,1c-14.16,8-27.82,16.84-42,24.86A122.66,122.66,0,0,1,75.78,72.5a83.81,83.81,0,0,1-18.72,1.08C56.14,73.52,55.23,73.52,54.31,73.49Z"/><path class="cls-10" d="M352.42,255.79a1.44,1.44,0,0,0,1-.3,35.79,35.79,0,0,0,3.85-.88h0a21.4,21.4,0,0,0,5.68-1.41c.92-.29,1.39-.26,1.33.93-.1,1.83-.05,3.65,0,5.48a4.55,4.55,0,0,1-.58,2.48c-.38.67-1.08.75-1.72.9-2.9.65-5.82,1.11-8.76,1.5a2,2,0,0,1-1.88-.4c-.59-2.4-.24-4.83-.22-7.25C351.14,256,351.83,256,352.42,255.79Z"/><path class="cls-9" d="M351.46,264.19a71.46,71.46,0,0,0,12.25-2.09,110.62,110.62,0,0,0,22.58-7.29,104.79,104.79,0,0,0,21.22-12.44c.32-.25.7-1.08,1.24-.33s-.33.89-.67,1.15c-13,9.84-27.54,16.15-43.33,19.82-.47.1-.93.23-1.4.35a4.88,4.88,0,0,1-1.39.69,86,86,0,0,1-11.16,1.73.8.8,0,0,1-.45-.17l-12.7.95-.92,0-13-.1a1.66,1.66,0,0,1-1.24.4c-2.59-.24-5.19-.37-7.75-.81a4.4,4.4,0,0,1-1.13-.25c-.41-.19-.77-.44-.74-1s.47-.68.91-.77a2.81,2.81,0,0,1,1,0c2.58.37,5.19.44,7.76.84.44,0,.88,0,1.32,0,3.3,0,6.6.34,9.92.27,5.42-.1,10.8-.58,16.19-1.12C350.46,264.09,351,263.92,351.46,264.19Z"/><path class="cls-11" d="M464.06,194.53l.86.59,5.86,3.49-14.6,11a14.87,14.87,0,0,1,.95-3.94c1.08-3.83,2.28-7.63,3.32-11.47.33-1.26.79-1.25,1.71-.64A20.13,20.13,0,0,0,464.06,194.53Z"/><path class="cls-3" d="M360.19,272c-2.64,7.5-5.47,14.93-8.7,22.26v-20.6c.06-.5.47-.57.84-.63,2.27-.39,4.53-.87,6.8-1.28A1,1,0,0,1,360.19,272Z"/><path class="cls-12" d="M483.17,140.21a143,143,0,0,1-4.06,34.35c-.05.23-.13.46-.19.69s0,.72-.57.62-.52-.42-.42-.85c.45-1.92.9-3.84,1.31-5.77a146.42,146.42,0,0,0,2.6-37.95A198.22,198.22,0,0,0,476.1,95c-.12-.47-.19-.94-.29-1.41s-.28-.8.33-.89.59.28.68.69c.6,2.73,1.24,5.44,1.85,8.17A181,181,0,0,1,483.17,140.21Z"/><path class="cls-3" d="M350.69,265.53l12.66-2.17c-.8,2.2-1.59,4.4-2.41,6.59a.59.59,0,0,0,.08.66c0,.52-.47.55-.82.64a71.43,71.43,0,0,1-7.92,1.54,1.31,1.31,0,0,1-1.1-.2,31.4,31.4,0,0,1-.08-4.55A6.89,6.89,0,0,0,350.69,265.53Z"/><path class="cls-9" d="M351.3,272.5a72.55,72.55,0,0,0,9.72-1.89,132.81,132.81,0,0,0,19-5.75c4.64-1.74,9.21-3.63,13.66-5.82.26-.12.53-.23.8-.33s.54.15.63.41c.2.58-.35.58-.65.72-3.9,1.89-7.86,3.6-11.89,5.16a150.41,150.41,0,0,1-21.87,6.79,2.78,2.78,0,0,0-.54.22l-8.7,1.66-1.13.1c-2.44.19-4.87.41-7.31.57-.44,0-1.2.38-1.28-.4s.73-.5,1.17-.55a57.52,57.52,0,0,0,7.41-.82A.71.71,0,0,1,351.3,272.5Z"/><path class="cls-9" d="M61.9,169c-16.47-.26-32.13-4.34-47.33-10.43-.36-.14-1.16-.06-.93-.79s.81-.33,1.27-.14a150.13,150.13,0,0,0,34.68,9.52,84.14,84.14,0,0,0,18,.81c.44,0,1.06-.31,1.11.48s-.66.52-1,.53C65.75,169,63.83,169,61.9,169Z"/><path class="cls-12" d="M187.17,17.7a.46.46,0,0,1-.58-.36c-.08-.23-.13-.46.18-.59s.68-.35,1-.53A308.5,308.5,0,0,1,225.25.29c.29-.1.72-.66,1.05.1s-.39.75-.73.88c-7.71,2.93-15.48,5.69-23,9.07q-7.22,3.24-14.29,6.8Z"/><path class="cls-13" d="M109.44,54.11a.48.48,0,0,1-.62-.32c-.24-.55.24-.65.56-.81,1.54-.77,3.13-1.48,4.65-2.3,7.58-4.1,14.66-9,22-13.56,2.69-1.68,5.45-3.25,8.19-4.85.32-.19.75-.6,1.05.07s-.24.65-.55.82c-8.31,4.58-16,10.08-24.15,15-3.09,1.86-6.21,3.67-9.46,5.23C110.52,53.63,109.94,53.88,109.44,54.11Z"/><path class="cls-12" d="M54.44,175.09a106.4,106.4,0,0,1-25.22-4.78c-2.71-.82-5.38-1.79-8.06-2.72-.39-.13-1.12-.07-.86-.83s.82-.25,1.19-.11a136.6,136.6,0,0,0,22.63,6.21A85.18,85.18,0,0,0,55.6,174.1c.39,0,1.1-.32,1.06.52s-.72.4-1.12.46A6.73,6.73,0,0,1,54.44,175.09Z"/><path class="cls-14" d="M395.77,238.33c-1.49-2.33-1-4.6.28-6.79a24,24,0,0,1,2.06-2.77c.24-.28.5-1,1.1-.38s-.09.76-.33,1a11.74,11.74,0,0,0-2.87,4.93,3.59,3.59,0,0,0,.81,3.46c1.22,1.7,2.88,1.92,4.75,1.36a15.61,15.61,0,0,0,3.79-1.72c.34-.21.64-.43.95.07s-.18.66-.45.83a17.45,17.45,0,0,1-3.76,1.77A5.35,5.35,0,0,1,395.77,238.33Z"/><path class="cls-14" d="M55.77,68.87c-1.52-.21-3-.39-4.55-.67-.41-.08-1.29.06-1.08-.77.15-.62.82-.31,1.25-.26,1.75.23,3.5.49,5.24.74a61.64,61.64,0,0,0,14.66-1.14c.39-.07,1-.55,1.13.3s-.61.58-1,.66A56.79,56.79,0,0,1,55.77,68.87Z"/><path class="cls-15" d="M313.87,64c6.2,7.25,10.25,15.79,14.46,24.23,2,4,4.05,8,6.23,11.9,2.9,5.21,7,9.43,11.21,13.51a63,63,0,0,1,6.36,6.71c.67.85,1.68,1.83.95,2.93s-1.94.63-3,.44c-5-.88-9.56-2.86-14.24-4.63-.27-.1-.52-.24-.8-.33-2.35-.77-3.54.07-3.47,2.56a25.81,25.81,0,0,0,1.86,7.83c1.68,4.77,3.77,9.37,5.78,14a10.61,10.61,0,0,1,1,4.6,4,4,0,0,1-3.89,4.2c-3,.31-5.7-.68-8.35-1.88a53.38,53.38,0,0,1-8.27-5,46.94,46.94,0,0,0-7.42-4.46c-2.93-1.3-4.3-.78-5.61,2.15-.71,1.57-1.33,3.19-2.11,4.74-2.25,4.47-5.42,5.42-9.87,3a26,26,0,0,1-5.66-4.22A73.86,73.86,0,0,1,277.41,132c-3.9-6.22-5.4-13.24-6-20.44a90.3,90.3,0,0,1,4.91-37.66c.91-2.58,2.11-5,3.17-7.58.38-2,1.76-3.5,2.95-5,2.88-3.76,6.69-6.1,11.48-6a29.41,29.41,0,0,1,11.69,2.37,28.22,28.22,0,0,1,6.86,4.52A4.62,4.62,0,0,1,313.87,64Z"/><path class="cls-2" d="M313.87,64a25.78,25.78,0,0,0-11.13-7,29.76,29.76,0,0,0-9.55-1.32c-5.17.25-8.72,3.2-11.53,7.26-.76,1.1-1.44,2.27-2.16,3.4-3.84-7.28-4.36-13.66,3.59-19.67,6.7-5.07,14.43-6.29,22.34-3.17,5.52,2.19,8.32,6.8,8.73,12.7A27.75,27.75,0,0,1,313.87,64Z"/><path class="cls-15" d="M364.28,143.51a6.73,6.73,0,0,1-3.75-1.32,16.54,16.54,0,0,1-5.33-5.58c-1.14-1.93-.56-3.37,1.55-4.18a4.09,4.09,0,0,1,4.08.36c2.48,1.7,4.81,3.55,6.19,6.31C368.22,141.49,366.94,143.5,364.28,143.51Z"/><path class="cls-3" d="M267.61,403.37a23.72,23.72,0,0,1-13.05-.09,2.09,2.09,0,0,1-.45-1.48c0-.58,0-1.16,0-1.74V240.59a12.63,12.63,0,0,1,.08-2.46c.11-.54.19-1.25,1.09-.86l12.26,6.34a2,2,0,0,1,.55,1.59c0,.63,0,1.26,0,1.88q0,51.07,0,102.14c0,17.17.09,34.34,0,51.51A3.81,3.81,0,0,1,267.61,403.37Z"/><path class="cls-3" d="M253.45,403a37.42,37.42,0,0,1-12.51-6,4.23,4.23,0,0,1-.44-2.66q0-18.8,0-37.58V231.88c0-.73,0-1.45,0-2.17.11-1.54.35-1.65,1.7-.83,3.58,2.44,7.14,4.93,10.91,7.1a2.39,2.39,0,0,1,.77,1.94c0,.48,0,1,0,1.45q0,80.34,0,160.69C253.9,401.05,254.16,402.1,253.45,403Z"/><path class="cls-3" d="M295,318.3c-.2,5.29-.61,10.58-1.13,15.85a218.6,218.6,0,0,1-4.3,27.65A108.32,108.32,0,0,1,283,382.5c-.16.34-.38.65-.57,1a1.92,1.92,0,0,1-.49-1.46c0-.53,0-1.06,0-1.59q0-63.85,0-127.69a13,13,0,0,1,0-1.87c.07-.45,0-1,.67-1.12l12.2,3.62a3,3,0,0,1,.49,2.06c0,5.33,0,10.67,0,16a2.48,2.48,0,0,1-.5,2c-.57-3.7-1.12-7.41-1.72-11.1-.32-1.95-.72-3.88-1.1-5.81-.07-.38.05-1-.68-.83s-.38.6-.31,1a225.5,225.5,0,0,1,3.36,23.43c.25,2.87.45,5.75.68,8.63a43.42,43.42,0,0,0,.08,5.47q0,9.16,0,18.32A46.14,46.14,0,0,0,295,318.3Z"/><path class="cls-10" d="M322.58,265.23l-7-.63a14,14,0,0,0-1.58-.13c-.3,0-.84-.27-.85.37a.74.74,0,0,0,.75.72c1.66.1,3.28.5,4.91.58a34.81,34.81,0,0,1,3.82.39,2.47,2.47,0,0,1,.47,1.91q0,32.94,0,65.88a2.45,2.45,0,0,1-.49,1.9,27.25,27.25,0,0,0-5.83,4.33,55.34,55.34,0,0,0-6.62,6.37c-.67-.79-.46-1.74-.46-2.64q0-23.29,0-46.58V259.5a8.45,8.45,0,0,1,.1-2c.11-.49.15-1.15,1-.85l7.44.86c1.37.45,2.82-.11,4.19.3h.14a1,1,0,0,1,.44.7,29.77,29.77,0,0,1-.05,6.26A.77.77,0,0,1,322.58,265.23Z"/><path class="cls-16" d="M242.22,228.88l-1.25-.42v166.4c0,.72,0,1.44,0,2.16-.38-.24-.76-.48-1.13-.73q0-24.57,0-49.15,0-60.08,0-120.15A13.23,13.23,0,0,1,242.22,228.88Z"/><path class="cls-16" d="M253.45,403V238.23a4.45,4.45,0,0,0-.32-2.25l2.14,1.29c-.37,0-.67.11-.68.56s0,1,0,1.44V401.11c0,.72,0,1.45,0,2.17Z"/><path class="cls-17" d="M267.61,403.37q0-58.33,0-116.68v-41.2c0-.62-.05-1.25-.07-1.88a4.13,4.13,0,0,1,1.91.88.61.61,0,0,0-.71.69c0,.43,0,.87,0,1.3,0,34,.08,68.06-.07,102.09,0,8.28-.26,16.57-.11,24.85.19,9.88.11,19.75.18,29.62A1.47,1.47,0,0,1,267.61,403.37Z"/><path class="cls-16" d="M282.59,249.75c-.41.4-.25.91-.25,1.37V382.46c0,.34,0,.68,0,1a7.18,7.18,0,0,1-1.14,2.3c0-1.11,0-2.22,0-3.33V251.21a3.26,3.26,0,0,0-.31-2.1A2.28,2.28,0,0,1,282.59,249.75Z"/><path class="cls-16" d="M310.73,256.64c-.3,0-.57.13-.6.49s0,.68,0,1v88.2c0,.19,0,.39,0,.58a1.84,1.84,0,0,1-1.13,1.73q0-45.11,0-90.2a3.42,3.42,0,0,0-.29-2.11C309.37,256.41,310.1,256.17,310.73,256.64Z"/><path class="cls-18" d="M322.58,265.23c0-2.48-.05-5-.08-7.43,3.22,0,6.44,0,9.66,0a107.74,107.74,0,0,0,18.69-1.94,10.26,10.26,0,0,1,1.57-.07,1.4,1.4,0,0,0-.95,1.51c.06,2.29,0,4.59,0,6.89a1.19,1.19,0,0,1-1.1.23,2.35,2.35,0,0,1-.45-1.77c0-1.49,0-3,0-4.48,0-1-.4-1.27-1.34-1.1-3.08.53-6.2.87-9.31,1.18a1.14,1.14,0,0,0-1.17,1.31c0,1.26,0,2.51,0,3.76a5.3,5.3,0,0,1-.13,1.43c-.12.39-.29.72-.78.7s-.68-.34-.75-.73a20.72,20.72,0,0,1-.11-3.61c0-2.56,0-2.56-2.5-2.56-2.7,0-5.4,0-8.09,0-1.1,0-1.58.41-1.53,1.53s0,2.31,0,3.46a2.24,2.24,0,0,1-.48,1.76Z"/><path class="cls-19" d="M294.78,273.46q0-10,0-20.09c.41.14.91,0,1.25.37,0,2.69-.07,5.39-.08,8.08,0,6.79,0,13.57,0,20.36a2.74,2.74,0,0,1-.21,1.69Z"/><path class="cls-18" d="M322.36,257.8c-1.39-.13-2.83.31-4.19-.3C319.57,257.61,321,257.29,322.36,257.8Z"/><path class="cls-20" d="M268.49,411.66c.37,0,.79-.22.85.41s-.53.57-.9.62q-8.06,1.28-16.12,2.51c-1.14.18-2.28.38-3.42.53-.38,0-1,.32-1-.39s.51-.6.91-.67L266.06,412Z"/><path class="cls-21" d="M248.06,411.68c-.43.07-.64-.11-.66-.54,0-.59.44-.51.81-.56l9-1.4c3.56-.55,7.13-1.08,10.69-1.62.41-.06.89-.34,1.06.32s-.37.62-.79.68l-19.8,3.07Z"/><path class="cls-22" d="M249.13,419.86c-.37,0-.85.16-.88-.43s.6-.55.95-.6c4.7-.75,9.4-1.45,14.1-2.18,1.81-.27,3.61-.58,5.42-.84.39-.06.92-.23,1,.44s-.5.53-.8.58c-6.5,1-13,2-19.52,3Z"/><path class="cls-16" d="M322.57,336.22q0-34.85,0-69.69l1.13,0q0,34.44,0,68.87A.9.9,0,0,1,322.57,336.22Z"/><path class="cls-23" d="M351.3,272.5l-.95.07v-7l.34-.08c.45.09.82.22.8.81C351.39,268.39,351.7,270.45,351.3,272.5Z"/><path class="cls-24" d="M295,318.3a1.91,1.91,0,0,1-.21-1.26V290a2,2,0,0,1,.2-1.26A240.78,240.78,0,0,1,295,318.3Z"/><path class="cls-3" d="M323.71,265.28c0-2,0-4,0-5.93,0-.89.18-1.3,1.19-1.28,3.57.05,7.13,0,10.7,0,.9,0,1.18.3,1.15,1.17-.05,1.74,0,3.47,0,5.21,0,.35-.09.87.52.81s.38-.49.38-.81c0-1.83.05-3.66,0-5.49,0-.89.3-1.13,1.16-1.17a82.31,82.31,0,0,0,10.27-1.27c1.18-.22,1.32.14,1.3,1.11,0,2.27,0,4.53,0,6.8A132,132,0,0,1,323.71,265.28Z"/></g></g></svg>