<svg xmlns="http://www.w3.org/2000/svg" viewBox="0 0 565.81 433.17"><defs><style>.cls-1{fill:#e2603d;}.cls-2{fill:#3d519f;}.cls-3{fill:#e998a4;}.cls-4{fill:#65150f;}.cls-5{fill:#661610;}.cls-6{fill:#6a1d15;}.cls-7{fill:#671711;}.cls-8{fill:#4ba2d5;}.cls-9{fill:#e3613f;}.cls-10{fill:#752724;}.cls-11{fill:#e46644;}.cls-12{fill:#e3603d;}.cls-13{fill:#671610;}.cls-14{fill:#f1d0da;}.cls-15{fill:#e3613e;}.cls-16{fill:#681711;}.cls-17{fill:#681812;}.cls-18{fill:#e26241;}.cls-19{fill:#f3c0ba;}.cls-20{fill:#9aa0d0;}.cls-21{fill:#671812;}.cls-22{fill:#691a15;}.cls-23{fill:#e36341;}.cls-24{fill:#e77b5c;}.cls-25{fill:#e56e4d;}.cls-26{fill:#99a0d0;}</style></defs><title>illustration_05_feedback</title><g id="Layer_2" data-name="Layer 2"><g id="base"><path class="cls-1" d="M256.53,207.61c15.26-.55,30.53-1.08,45.53-4.19,10.21-2.11,19.94-5.82,29.59-9.71,1.54,0,2.46,1.2,3.59,1.95,3.16,2.06,3.14,2.08,6.21.05,1.68-1.11,3.35-2.23,5.07-3.28a3,3,0,0,1,3.66.09c2,1.45,4.25,2.65,6.29,4.09a2.54,2.54,0,0,0,3.38.06c2.35-1.71,4.84-3.24,7.2-5a41,41,0,0,0-6,3.58c-1.91,1.49-3.58,1.63-5.61.11-1.83-1.36-3.85-2.48-5.74-3.79a2.21,2.21,0,0,0-2.85,0c-2,1.39-4.19,2.49-6.11,4a3.35,3.35,0,0,1-4.7,0c-.83-.7-2-1-2.42-2.18-.25-.68.28-.84.71-1,10.36-5,18.73-12.61,26.8-20.61.6-.6,1-1.59,2.17-1.32,2.26.63,4,2.17,5.91,3.4a2.62,2.62,0,0,0,3.39,0c1.8-1.31,3.74-2.42,5.47-3.82a3.17,3.17,0,0,1,4.32-.15c2,1.43,4.21,2.71,6.27,4.12.87.58,1.7.95,2.68.25,2.54-1.81,5.33-3.25,7.72-5.3a62,62,0,0,0-6.57,4c-1.61,1.09-2.95,1.21-4.52,0-1.93-1.48-4.1-2.61-6.11-4a2.3,2.3,0,0,0-3,.05c-2,1.45-4.08,2.64-6,4.13a2.6,2.6,0,0,1-3.59.06c-1.76-1.4-4.17-1.94-5.41-4,4.62-5.22,9.42-10.29,13.57-15.91,2-2.72,3.94-5.5,5.91-8.25.61-.43,1.2-.17,1.78.06,6.33,2.43,12.71,4.75,19,7.24a1.73,1.73,0,0,1,1,.73c-1.22,2.25-3,2.75-5,1.53s-4.18-2.87-6.58-3.77c2.42,1.83,5,3.36,7.6,5a2,2,0,0,0,2.15-.27,20.11,20.11,0,0,1,3.68-1.92c3.33.73,6.38,2.23,9.55,3.41,8.35,3.12,16.68,6.32,25,9.48a4.06,4.06,0,0,1,1.42.83c.48.82-.23,1.15-.69,1.47-1.93,1.35-3.88,2.67-5.89,3.91a3.11,3.11,0,0,1-3.66-.1c-2.3-1.48-4.6-3-7-4.31,2.46,2.23,5.39,3.75,8.11,5.58.78.52,1.44.08,2.1-.34,2.05-1.3,4.11-2.57,6.12-3.93a4.74,4.74,0,0,1,2.42-1.12,3.63,3.63,0,0,1,2.64,1.72,20.89,20.89,0,0,1,.37,4.53c-.37.84-.95.42-1.34.11-1.23-1-2.24-.56-3.4.18-2,1.28-4,2.49-5.92,3.89a3.12,3.12,0,0,1-4.12.09c-2.31-1.52-4.6-3.07-7.06-4.37a57.34,57.34,0,0,0,8.33,5.66c.69.42,1.33,0,1.94-.36,1.78-1.08,3.53-2.2,5.27-3.36,3.73-2.48,3-2.37,6.64.13,1.31,3.21,2.95,6.13,6.44,7.47a.88.88,0,0,1,.51.62,135.89,135.89,0,0,1-20.3,33.54c-.68.85-1.14.89-2,.34-2.12-1.32-4.3-2.55-6.45-3.81-.49-.29-1-.65-1.34.16s.14.84.57,1.09c2,1.15,4,2.29,5.9,3.51.5.31,1.91.51.9,1.5-.76.74-1,2.83-2.92,1.6-1-.64-2-1.28-3-1.9-.42-.26-.86-.87-1.39-.12s.15,1.07.65,1.4a27.82,27.82,0,0,0,2.62,1.69c1.12.59.88,1.09.16,1.86-3.9,4.16-8,8.11-12.24,11.93-1,.86-1.7,1-2.63.14s-1.84-.75-2.91,0c-2.33,1.63-4.8,3.06-7.13,4.69a1.84,1.84,0,0,1-2.55,0c-2.12-1.57-4.33-3-6.52-4.49-.44-.3-.91-1.09-1.54-.23s.18,1,.65,1.37c2.45,1.7,4.94,3.34,7.36,5.09a1.88,1.88,0,0,0,2.57.06c2.39-1.67,4.91-3.16,7.31-4.8,1-.7,1.86-.83,2.82.33-3.5,3.11-7.26,5.93-11,8.81-.72.55-1.16.08-1.66-.23-2.24-1.39-4.47-2.81-6.71-4.2-.45-.27-.92-.76-1.39,0s.11,1,.59,1.26l7.21,4.53-5.82,4.46c-3.62,2.44-7.24,4.89-10.87,7.31-.54.36-1.14,1.14-1.83.55-1.47-1.28-2.51-.22-3.67.47-2.45,1.42-4.72,4.16-7.28,4.07s-4.78-2.55-7.24-3.82c-.76-.39-1.72-2-2.53-.57-.61,1.09,1.05,1.26,1.75,1.71,2.11,1.34,4.33,2.5,6.42,3.86a2.52,2.52,0,0,0,3.31,0c2.09-1.49,4.33-2.76,6.52-4.1.43-.26.81-.81,1.59-.45-.49.94-1.44,1.25-2.17,1.77-2.88,2.06-5.83,4-8.69,6.13a1.73,1.73,0,0,1-2.38.07c-1.46-1.05-3-2-4.53-2.95-.55-.33-1.21-1.36-1.89-.27s.56,1.06,1,1.39c1.3.93,2.64,1.81,4,2.61,1.06.62,1.24,1,.13,1.87-4.72,3.57-9.24,7.36-12.75,12.19-.58.8-1.12.75-1.68.18-2.49-2.51-4.81-2.08-7.31.09-1.46,1.26-3.29,2.08-4.85,3.23a1.9,1.9,0,0,1-2.59-.05c-2.19-1.59-4.45-3.09-6.68-4.62-.44-.3-.88-.78-1.38,0s.18,1,.6,1.24c2.57,1.78,5.17,3.51,7.7,5.34a1.63,1.63,0,0,0,2.21-.06c2.41-1.63,4.88-3.18,7.33-4.76a4,4,0,0,1,4.78,1.35c.59,1.17-.68,2.08-1,3.14-.17.5-.73.29-1.05,0-1-.88-1.84-.43-2.8.17-2.18,1.35-4.49,2.51-6.62,3.94a2.7,2.7,0,0,1-3.52-.08c-1.94-1.35-4-2.55-6-3.78-.48-.29-1-.95-1.57-.09s.35,1,.79,1.32c2.46,1.57,5,3.06,7.4,4.66a1.82,1.82,0,0,0,2.25,0c2.47-1.53,5-3,7.52-4.44.74-.44,1.35-.79,2.27-.19s.42,1.34.25,2c-2.81,10.93-3.18,22.11-3.15,33.3,0,2.86-.84,4.43-3.21,6.18-3.53,2.59-6.29,3-9.43-.22a19.23,19.23,0,0,0-3.41-2.38c-.42-.28-.86-.79-1.35,0s.08.87.46,1.13c2.68,1.86,5.4,3.67,8,5.57.83.59,1.39.24,2.05-.19,2.14-1.39,4.29-2.76,6.48-4.17.91,3.87.84,4.11-2.16,6-1.8,1.15-3.64,3.1-5.47,3.12s-3.48-2-5.21-3.17c-1-.65-1.95-1.33-2.92-2-.45-.31-.84-.43-1.23.12s.09.86.45,1.11c2.68,1.87,5.38,3.69,8,5.6.84.6,1.38.18,2-.24,2.24-1.46,4.5-2.9,6.94-4.46.65,7.06,1.09,13.83,1.94,20.55a83.65,83.65,0,0,0,4.44,19.62c-.2.07-.36.16-.4.13-3-2.71-6-2.18-8.76.31-3.63,3.25-7.1,3.1-10.63-.16a17.11,17.11,0,0,0-2.8-1.79c-.41-.24-.81-.57-1.24,0s-.09.87.36,1.15c2.77,1.73,5.55,3.45,8.3,5.2.78.49,1.32,0,1.9-.32q3.78-2.2,7.54-4.44c.54-.32,1-.68,1.72-.35,3.65,1.7,6.58,4,6.9,8.6-2.06-1.33-4.05-2.55-6-3.89a2.19,2.19,0,0,0-2.95,0c-2.32,1.64-4.79,3.08-7.14,4.69a1.93,1.93,0,0,1-2.59,0c-2.18-1.6-4.44-3.1-6.68-4.62-.41-.29-.82-.87-1.37-.13s0,1,.47,1.28c2.63,1.82,5.29,3.59,7.88,5.45a1.52,1.52,0,0,0,2-.08c2.48-1.65,5-3.19,7.5-4.88a2,2,0,0,1,2.6-.08c2.23,1.53,4.53,3,6.8,4.43.24.15.56.28.66.5,1.55,3.47,3.07,7,4.6,10.44-1.45,1.92.69,2.27,1.34,3.35a55.89,55.89,0,0,1,2.69,5.89c-1.43-.82-2.43-1.35-3.4-1.94-.52-.33-.85-.3-1.17.26s.05.73.39,1a2.37,2.37,0,0,0,.53.34c5.69,1.83,6.51,7.27,8.61,11.72.68,1.47-.78.92-1.3.92-6.81,0-13.62.1-20.44,0-16-.21-32.09-.44-48.13-1.14-18.53-.82-37-1.88-55.51-3.69l-14.51-1.42c-1.59-.42-1.44-1.35-.73-2.45a13.46,13.46,0,0,0,1.38-1.23c1.11-1.31,1-2.82.72-4.35-.84-4.83-4-7.89-7.9-10.42a45.26,45.26,0,0,0-11.82-5c-.62-.2-1.43-.08-1.71-.93,2.86-2.33,6.23-3.83,9.37-5.71a2.82,2.82,0,0,1,3,.35c2.1,1.23,4.23,2.39,6.27,3.7a2.82,2.82,0,0,0,3.45,0c2.25-1.47,4.59-2.83,6.74-4.47a29.22,29.22,0,0,0-5.84,3.38,3.94,3.94,0,0,1-5.12.05c-1.81-1.29-3.86-2.2-5.72-3.4a2.7,2.7,0,0,0-3.28,0c-1.91,1.25-4,2.27-5.9,3.52a3.93,3.93,0,0,1-4.78,0c-2.44-1.55-4.82-3.29-7.65-4.16-1.08-.6-1.29-1.75-1.67-2.76-1.66-4.39-3.29-8.78-4.94-13.17-.33-.86-.9-1.79,0-2.69,1.41-.25,2.33.76,3.32,1.42a2.71,2.71,0,0,0,3.4,0c2.48-1.58,4.93-3.2,7.28-5a37.61,37.61,0,0,0-6.35,3.86c-1.66,1.25-3.13,1.46-4.88.17-1.32-1-2.82-1.73-4.12-2.78a5.39,5.39,0,0,1-1-1.54c-1.36-2.77-1.52-2.84-4.62-2.49-.8.1-1.65.48-2.32-.33,1.52-2.95,4.31-3.8,6.94-2,2,1.31,4,2.46,6,3.82.7.49,1.42.9,2.3.38a80.74,80.74,0,0,0,8.21-5.53,34.73,34.73,0,0,0-6.51,4,3.75,3.75,0,0,1-4.76.11c-2-1.3-4-2.52-5.91-3.9a2.62,2.62,0,0,0-3.41-.05c-1.55,1.05-3.12,2.08-4.69,3.11a5.33,5.33,0,0,1-2.43,1.1,11.05,11.05,0,0,1-2.44,0c-2.82-1-5-3.13-7.74-4.37a37.73,37.73,0,0,0,3.51,2.67c.56.45,1.64.84.75,1.91-3.52.92-7.16.78-10.73,1.14-5.1.5-10.23.75-15.33,1.25a13.57,13.57,0,0,1-3.12,0c-1-.37-2,.16-2.9.38-2-.08-4,.74-6,.32-1.25-1.1,0-1.51.62-1.93a74.06,74.06,0,0,0,6.69-4.91,66.24,66.24,0,0,0-5.69,3.65,4.64,4.64,0,0,1-2.53,1.32,1.2,1.2,0,0,1-.95-.69c-2.66-1.76-5.34-3.49-8-5.3A1.59,1.59,0,0,0,125,357c-2,1.3-4,2.52-5.92,3.88-1.18.85-1.53.54-1.87-.75a168,168,0,0,1-3.94-18.52c-.23-1.58-.57-3.11-.86-4.67-.18-.95-.69-2,.66-2.73a.64.64,0,0,0-.05-1.15c-1.78,0-1.34-1.43-1.45-2.29-.43-3.42-.73-6.87-1.08-10.39a3.79,3.79,0,0,1,2.34,1.17c2.25,2.18,4.32,2.06,6.62.05,1.23-1.09,2.91-1.68,4.13-2.79,1.8-1.63,3.26-1.31,5,0,2,1.51,4.19,2.73,6.25,4.14a1.68,1.68,0,0,0,2.23,0c2.48-1.78,5-3.47,7.53-5.22.43-.31,1.32-.51.66-1.38s-1.1-.08-1.56.22c-2.19,1.47-4.41,2.91-6.5,4.51a1.83,1.83,0,0,1-2.54,0c-2.35-1.61-4.81-3.06-7.14-4.68a2.2,2.2,0,0,0-2.94,0c-2.34,1.63-4.82,3-7.13,4.7a2,2,0,0,1-2.74-.07,6.34,6.34,0,0,0-1.56-1c-2.78-1.07-3.34-3.2-2.84-5.95a20.35,20.35,0,0,1,4.49,2.44,2.16,2.16,0,0,0,2.62,0c2.46-1.56,5-2.94,7.52-4.47a1.79,1.79,0,0,1,2.23,0c2.4,1.52,4.91,2.87,7.33,4.36a2.21,2.21,0,0,0,2.79,0c2.4-1.65,4.93-3.11,7.39-4.67.41-.26,1.15-.44.62-1.23s-.95-.27-1.4,0c-2.07,1.28-4.19,2.48-6.17,3.89a2.66,2.66,0,0,1-3.5.08c-2.25-1.49-4.67-2.73-7-4.16a2,2,0,0,0-2.44,0c-2.41,1.52-4.91,2.88-7.33,4.37a2.52,2.52,0,0,1-2.61.1c-3.87-1.52-5.38-4-4.87-8.26.4-3.35.24-6.79.48-10.19a2.78,2.78,0,0,1,1.26-2.2c.57-.44,2.16-.45,1.39-1.77-.66-1.11-1.34.55-2.29.17.55-1.89-.42-4.31,2.12-5.56a.66.66,0,0,0,0-1.25c-1.64,0-1-.9-.8-1.63q.66-3.46,1.34-6.93c-.26-.76.09-1.19.75-1.48,1.67.62,3.07,0,4.44-.93,1.84-1.25,3.7-2.47,5.55-3.69a2.88,2.88,0,0,1,3.64,0c2,1.46,4.27,2.6,6.28,4.09a2.59,2.59,0,0,0,3.4.07c2.29-1.57,4.54-3.19,6.72-4.93-1.94,1.15-3.82,2.39-5.7,3.64-2.65,1.77-2.66,1.78-5.32,0-1.84-1.24-3.81-2.29-5.6-3.61a2.38,2.38,0,0,0-3,0c-2.23,1.41-4.46,2.83-6.63,4.32-1.44,1-2.68,1-3.8-.44a5.83,5.83,0,0,1,1.45-4c2.77-1.84,5.68-3.47,8.38-5.43a3.11,3.11,0,0,1,4,0c2.11,1.45,4.36,2.71,6.45,4.2a2.25,2.25,0,0,0,2.86,0c2.36-1.59,4.62-3.3,6.9-5a30.25,30.25,0,0,0-4.29,2.69c-4.65,3-3.48,2.93-7.92.06-1.46-.94-3-1.76-4.39-2.79a2.42,2.42,0,0,0-3.06,0c-1.89,1.16-3.72,2.42-5.59,3.62a3.91,3.91,0,0,1-2.22,1c-1.14-.63-.43-1.47-.17-2.17a63.13,63.13,0,0,1,12.38-20.61,107.23,107.23,0,0,1,33-24.73c2.37-1.16,4.82-2.16,7.24-3.21a3.65,3.65,0,0,1,2.23-.35c2.43,1.06,4.45,2.79,6.71,4.14a2.61,2.61,0,0,0,3.22-.07c1.9-1.28,3.93-2.37,5.75-3.76a3.74,3.74,0,0,1,5.09.05c1.83,1.38,3.86,2.46,5.75,3.76a2.51,2.51,0,0,0,3.2,0c2.48-1.61,5-3.17,7.33-5a47.75,47.75,0,0,0-6.66,4.09,3.4,3.4,0,0,1-4.22.1c-1.92-1.24-3.91-2.4-5.74-3.76a3,3,0,0,0-4.1-.15c-1.87,1.3-3.87,2.46-5.72,3.79a3.43,3.43,0,0,1-4.39.08c-1.21-.82-2.47-1.55-3.65-2.41-.59-.43-1.38-.84-.81-1.83,4.12-2.13,8.63-3.07,13.07-4.13a147.54,147.54,0,0,1,30.12-3.93c3.4-.1,6.78-.6,10.17-.12,1.33.87.38,1.74-.1,2.46-2.33,3.54-4.67,7.08-7.16,10.5-3.1,4.25-1.84,7.11.5,10,3.37,4.16,7.92,6.71,12.79,8.71.81.33,1.82.42,2,1.55-2.09,2.51-3.41,2.79-6,1.25-1.84-1.09-3.78-2.05-5.55-3.27a3.23,3.23,0,0,0-4,.07c-1.8,1.17-3.71,2.18-5.52,3.33a3.83,3.83,0,0,1-4.77-.08c-1.87-1.31-3.93-2.34-5.92-3.47-.13-.07-.26-.09-.8,0,2.94,1.79,5.59,3.43,8.32,5a2.05,2.05,0,0,0,2.15-.24c2.3-1.29,4.57-2.63,6.79-4a3,3,0,0,1,3.66,0c2.09,1.36,4.35,2.44,6.44,3.81a2.59,2.59,0,0,0,3.23,0,12.3,12.3,0,0,1,4.2-2.22c2.55.13,5,.82,7.62.76,5.93-.15,10.09-3.21,11.8-8.91a45.75,45.75,0,0,0,1.24-7.34c.8-1,1.61-.29,2.14.18,2.45,2.16,4.71,1.88,7.14-.09,1.44-1.18,3.1-2.09,4.66-3.14a1.75,1.75,0,0,0,.72-.92,51.73,51.73,0,0,0-4.82,3.07c-4.33,2.86-4.35,2.87-8.59-.19a12.35,12.35,0,0,1-1-.76,5.49,5.49,0,0,1-1.06-4.87c.9-1,1.79-.21,2.36.29,2.87,2.5,5.53,2.12,8.34-.14,1.42-1.14,3.23-1.75,4.61-3a59.65,59.65,0,0,0-6.87,3.8,3.33,3.33,0,0,1-4,0c-1.47-1-3.19-1.7-4.54-2.94-1-3-.51-6.13-.66-9.19C255.84,208,256.19,207.75,256.53,207.61Z"/><path class="cls-2" d="M227,170.47a54,54,0,0,1-.79-19.86c1-6.23,4.39-10.67,10.34-13.37-3-2.63-4.52-6.09-6.61-9.15-3.73-5.43-7.41-6.72-13.79-4.86-7.31,2.14-13.13,6.75-19,11.35-4.41,3.47-8.73,7.11-14.14,9-8.36,2.93-18.51-2.45-20.5-11-.92-3.91,0-7.7,1.26-11.42,1.32-4,3.3-7.8,4-12,.79-4.8-1.37-7.83-6.21-8.82a15.84,15.84,0,0,0-8.95,1.09c-5.36,2-10.1,5.17-15,8a56.94,56.94,0,0,1-8.86,4.54A14.92,14.92,0,0,1,110,106.94c-3.06-5.66-2.41-11.53-.87-17.42A74.14,74.14,0,0,1,113,79.24c1-2.28,1.94-4.62,1.28-7.21-.15-3-2.19-4.52-4.46-5.82a50.22,50.22,0,0,0-8.26-3.37,27.08,27.08,0,0,1-11.11-7.07c-3-3.19-6.33-6-9-9.55-5.71-7.58-6.85-15.76-3-24.47,3-6.82,7.16-12.92,13.14-17.44,7-5.28,15-5.47,22.34-.75,6,3.85,11.84,8,17.8,11.94a28.41,28.41,0,0,0,8.57,4.12c3.61.93,6.17,0,8.28-3.11a25,25,0,0,0,2.66-5.84c.42-1.17.81-2.35,1.26-3.51,2.38-6.09,5.42-8.1,11.76-6.77C175.85,2.82,187.05,6.45,197,13.15c4.9,3.31,9.12,7.3,11.25,13,2.56,6.91.9,13.52-1.64,20-.43,1.1-.93,2.16-1.4,3.23-2.12,3.49-4.36,6.9-6.32,10.48-1.85,3.37-1.12,6,1.93,8.37,4.94,3.92,10.89,5.3,16.84,6.68,4.45,1,9,1.9,13.17,3.72,5.63,2.44,9.83,6.22,11.27,12.43.76,3.28.12,6.46-.85,9.62-1.31,4.3-3.54,8.27-4.46,12.72a9.69,9.69,0,0,0,1.49,7.92A32,32,0,0,0,243.9,128a10.93,10.93,0,0,1,2.91,4.26c.45,1,.95,1.3,2.16,1.2,8-.7,15.47.73,20.75,7.5,3.41,4.38,5.27,9.55,6.43,15a26.73,26.73,0,0,1,.35,7.88c-.08.91.22,2.17-1.16,2.56-.86.29-1.43-.33-2.09-.67-9.77-5-16.39-12.79-20.65-23.25,0,.22-.47.55-.21.46.09,0,.09,0,.13.14a2.28,2.28,0,0,1-.26,1.6c-2.54,6.58-5.64,12.81-10.89,17.74-3.5,3.28-7.93,5.05-12,7.41C228.67,170.21,228,171.08,227,170.47Z"/><path class="cls-3" d="M230.29,414.55c-.7.92-.7,1.72.38,2.36a.92.92,0,0,0-.78,1,3.49,3.49,0,0,1-2,3.67c-.56.26.31.4.28.69-.59.8-1.37.33-2.08.33-.88,0-1.81-.25-2.46.62-.79,4.86-3.24,5.85-7.58,5.81-1.66,0-3.32,0-5,0,.68,3.06-.27,4.26-3.34,4.09a10.87,10.87,0,0,1-6.62-2.1c-4.18-3.46-9.18-4.12-14.39-4.5-14.09-1-27.65-4.08-40-11.29a30.45,30.45,0,0,1-10.24-10.41,2.35,2.35,0,0,1-1.26-2.07q-3.18-6.45-6.35-12.91c-1.07-.87-1.43-2.15-2-3.33-1.25-2.61-2.23-5.34-3.39-8a3.07,3.07,0,0,1-.36-2.18q-2-5.13-4.1-10.26a1.5,1.5,0,0,1,1.92-.6c0,.34-.32.95.56.57a32.07,32.07,0,0,1,3.1-1,7,7,0,0,0,2.43-.41c.76.09,1.43.5,2.18.61.19.21.18-.37.08-.11,0,.09-.08,0-.2-.06-.46-.43-1-.83-.17-1.42,2.12-.51,4.3-.08,6.43-.4.81,0,.88.61,1.08,1.14l6.72-.39a2.7,2.7,0,0,0,2.2-.45c4.91.09,9.76-.69,14.64-.92,4.54-.22,9.06-.74,13.59-1.14.59,0,1.26.18,1.73-.42,1-.45,1.94.78,2.91,0h2.94c1.54.56,2.67-1.07,4.16-.76,1.35.62,2.7,0,4-.16a2.4,2.4,0,0,1,2.94,2.05,5.51,5.51,0,0,0,1.37,2.49c-.18,1.13,1.25,1.48,1.21,2.54-.56.33-.41.79-.23,1.26,2.08,5.52,4.15,11.05,6.25,16.57.08.23.38.37.58.56.34.63,1,1,1.17,1.8.51,2.68.82,3,3.29,3.53a22.9,22.9,0,0,1,4.62,1.12l.2.21c3.83,1.36,7.78,2.36,11.39,4.3,3.45,1.86,6.61,4.08,8.76,7.45a12.3,12.3,0,0,1,2,6.88,2.89,2.89,0,0,1-1.28,2.68C231.17,414.06,230.49,414,230.29,414.55Z"/><path class="cls-4" d="M223.59,423.25c-.16-.88-.05-1.47,1.11-1.29s2.29.24,3.43.34c23.45,2.79,47,4.67,70.56,5.87q53.1,2.7,106.26,1.4,29.39-.69,58.71-2.64c23-1.57,45.93-3.85,68.75-7.1,5.83-.83,11.68-1.56,17.44-2.87,1.56-.73,3-.8,4.08.81-7.75,1.59-15.58,2.68-23.4,3.79-14.09,2-28.23,3.59-42.4,4.88-12,1.09-23.94,1.95-35.94,2.68-22,1.32-44,2-66,2.27-18.9.26-37.79-.05-56.68-.55Q299.2,430,269,427.74,246.22,426,223.59,423.25Z"/><path class="cls-4" d="M135.13,402.78a5.26,5.26,0,0,1,1.26,2.07c-8.31-3-16.38-6.41-22.81-12.76a11.6,11.6,0,0,1-3.47-5.58c-.33-1.49-1-1.72-2.42-1.72q-30.33.06-60.66,0c-5.77,0-11.54,0-17.3,0-.63,0-1.75.5-1.69-.83.05-1.13,1-.69,1.62-.69q39.83,0,79.64,0c1.18,0,1.67.25,1.86,1.51.54,3.5,2.78,6,5.39,8.15C122.07,397.42,128.44,400.42,135.13,402.78Z"/><path class="cls-5" d="M95.52,281a150.09,150.09,0,0,1,4.53-17.67c3.59-10.35,8.79-19.72,16.68-27.45.58-.57,1.3-2,2.15-1.18,1.26,1.24-.65,1.65-1.21,2.21-8.35,8.32-13.61,18.43-17.09,29.55A81.11,81.11,0,0,0,97.24,281a130.25,130.25,0,0,0-2.07,26.07c0,3.6.34,7.2.53,10.8,0,.58.45,1.33-.56,1.46-1.21.15-.82-.84-.87-1.42a147.88,147.88,0,0,1,1.2-35.67A10.2,10.2,0,0,0,95.52,281Z"/><path class="cls-5" d="M361.68,338.58c0,8.93,1.94,17.55,4.31,26.07a140.24,140.24,0,0,0,8.52,23c.22.46,1,1.08,0,1.59-1.08.59-1.11-.47-1.35-1a149.09,149.09,0,0,1-11.61-36.51c-.77-4.37-1.06-8.78-1.65-13.17,0-5.75.06-11.5,1.27-17.16.14-.64-.17-1.82,1.11-1.5,1.07.27.4,1.1.3,1.72A64.63,64.63,0,0,0,361.68,338.58Z"/><path class="cls-6" d="M135.92,363.62c-2.45.93-5,.35-7.49.48-1.63.66-3.34.47-5,.54-1.69-.2-3.48.5-5.06-.61-.82-.06-1.65-.18-2.47-.18q-15.75,0-31.49,0a15.17,15.17,0,0,1-1.66-.06c-.43,0-.49-.41-.5-.79s.19-.62.6-.63H84.5l35.24-.07a28.09,28.09,0,0,1,12.54,0l2.71,0,1,.41A.65.65,0,0,1,135.92,363.62Z"/><path class="cls-4" d="M40,391.16H12.72c-.48,0-1,0-1.46,0s-.8-.13-.77-.71.39-.66.83-.68.84,0,1.25,0H67.42c.49,0,1,0,1.46,0s.58.3.58.71a.58.58,0,0,1-.63.64c-.49,0-1,0-1.46,0Z"/><path class="cls-7" d="M474.9,338.15c11.91.89,23.79,2,35.65,3.42a1.51,1.51,0,0,1,.61.13c.51.31,1.63-.25,1.52.91s-1.08.58-1.63.53c-2.69-.25-5.38-.57-8.06-.91-10-1.24-20.05-1.92-30.07-2.83-.64,0-1.76.4-1.55-1,.19-1.17,1.08-.43,1.66-.44A14.87,14.87,0,0,1,474.9,338.15Z"/><path class="cls-8" d="M123,376.37l5.75,13.5c-3.11-2.09-5.75-4.53-6.67-8.38A6.07,6.07,0,0,1,123,376.37Z"/><path class="cls-9" d="M132.28,362.28H119.74a4.38,4.38,0,0,1,.45-.41c1.94-1.21,3.9-3.39,5.82-3.36C128.24,358.56,130.28,360.79,132.28,362.28Z"/><path class="cls-10" d="M5.2,384.84H1c-.49,0-1,0-1-.69s.4-.92,1-.91H9.6c.56,0,.92.14.91.81s-.38.8-.93.79Z"/><path class="cls-11" d="M118.35,364a29,29,0,0,1,5.35,0,2.39,2.39,0,0,1-2.76,1.73l-2,.35C118.74,365.42,118.55,364.73,118.35,364Z"/><path class="cls-3" d="M405,153.29,383.32,145A83.41,83.41,0,0,0,391.47,122c1.69-9.29,1.38-18.38-3.13-26.94-2.42-4.6-6.07-8.26-9.65-12-2.31-2.4-4.78-4.66-6.61-7.48-1.68-2.58-1.07-4,1.93-4.81a15.11,15.11,0,0,1,6.2-.26,15.26,15.26,0,0,0,4.74-.24c2.45-.39,3.78-2.11,4.26-4.74.7-3.83-.07-7.61-.26-11.4-.14-2.77-.44-5.54.2-8.28.4-1.71,1-3.18,3.06-3.48a4.06,4.06,0,0,1,4.61,2.38c1.38,2.7,3.79,3.73,6.65,3.92a2.87,2.87,0,0,0,3.25-2.3c.2-.74.39-1.48.59-2.21,1-3.51,4.09-4.73,7.25-2.83a6.8,6.8,0,0,1,2.84,3c3.18,7.16,8.65,5.73,13,.68a18.65,18.65,0,0,1,3.38-3.38c1.88-1.3,2.88-1.14,4.25.66a13.25,13.25,0,0,1,2.48,5.43,14.28,14.28,0,0,0,.67,2.61c1.14,2.79,3.31,3.46,5.72,1.83,2.57-1.73,3.49-1.53,4.77,1.3,2.07,4.6,2.81,9.57,3.77,14.45q3.27,16.6,6.2,33.27c2,11.43,3.3,23,2.57,34.58a191.63,191.63,0,0,1-5.87,37.7c-.59.41-1.11,0-1.64-.14a17.82,17.82,0,0,0-1.86-.65c-1.3-.42-2.48-1.26-3.95-1.12-.82.14-1.48-1.58-2.41-.2a.58.58,0,0,1-.54-.06c-.71-.93-.44-2-.27-3a17.93,17.93,0,0,0,.17-4c-.84,1.48-.19,3.13-.95,4.48-1,.74-1.75-.38-2.65-.39a1.37,1.37,0,0,1-1.27-.83l-34.48-13c-.58-.22-1.15-.47-1.72-.7A1.45,1.45,0,0,1,405,153.29Z"/><path class="cls-3" d="M227,170.47c12.79-5.05,21.28-14.11,25.33-27.29a2.16,2.16,0,0,1,.49-.89,45.34,45.34,0,0,0,22.56,24.08c-1,10.42-4.37,19.95-11,28.15A13.17,13.17,0,0,1,258,199c-1,.29-1.6.76-1.42,1.88.35,2.25-.88,4.49,0,6.74a32.63,32.63,0,0,0,.44,9.91c0,.58.3,1.15,0,1.72.05,1.76-.12,3.56,1.21,5-.13.55.14,1.19-.37,1.66a23.09,23.09,0,0,1-1.66,9.52c-2.59,6.07-8.44,8.84-15.63,7.46l-4.06-.79c-.69,0-1.43.15-2-.39-.47-.82-1.4-.83-2.14-1.14-5.37-2.25-10.35-5-13.76-10-1.89-2.71-2.54-5.61,0-9s4.89-7.05,7.27-10.62c.45-.67,1.15-1.23,1.15-2.15,3.22-3.77,5.22-8.26,7.53-12.58,1.63-3.05,1.29-5.26-.73-8.14A41.24,41.24,0,0,1,227,170.47Z"/><path class="cls-12" d="M490.15,106.07l-6,.78c-1.07-.13-.81-1.08-.95-1.7-.69-3.18-1.36-6.36-2.2-9.51.17,2.93,1.09,5.73,1.56,8.61.15.91.69,1.86,0,2.79-2.9.29-5.82.46-8.69.93-1.87.31-1.91-.44-1.66-1.86q2-11.48,3.93-23c.69-4.08,1.38-8.16,2.16-12.82,2.07,3,3.84,5.46,5.59,8,5.71,8.21,11.38,16.43,17.13,24.61,1,1.41.92,1.92-.9,2.06-2.76.22-5.51.6-8.27.91-1.42-1-1.07-2.89-2-4.34C489.49,103.19,491,104.56,490.15,106.07Z"/><path class="cls-5" d="M490.15,106.07c-.32-1.26-.64-2.52-1-3.77-.17-.64-.69-1.41.33-1.71s.88.62,1.05,1.16c.45,1.37.87,2.75,1.3,4.13a147.08,147.08,0,0,1,4.53,43.72c-.21,4.37-.72,8.72-1.32,13.05-.09.57.11,1.65-.95,1.51-1.24-.15-.63-1.22-.53-1.83a137.26,137.26,0,0,0-3-55.32A7.8,7.8,0,0,0,490.15,106.07Z"/><path class="cls-7" d="M487.1,145.71c-.21,14.8-2.45,29.25-7.74,43.14a4.87,4.87,0,0,1-.47,1.15c-.29.4,0,1.41-1.09,1s-.46-.94-.26-1.48c.65-1.82,1.36-3.62,2-5.46a125.51,125.51,0,0,0,5.77-48.23c0-.59-.36-1.31.63-1.41s.83.71.87,1.27c.13,1.6.27,3.19.32,4.78C487.14,142.24,487.1,144,487.1,145.71Z"/><path class="cls-13" d="M446.65,168.81c.16-1.65.31-3.3.47-4.95.05-.5.1-1,.82-.87s.61.49.61,1c0,2.46-.84,4.9-.21,7.37a8.68,8.68,0,0,1,.73,5.49c.28.64.56,1.28.83,1.92a20.15,20.15,0,0,0,5.54,4.49c2.95.6,5.1-.63,6.86-2.88a25.14,25.14,0,0,0,4-8.84c.14-.48-.06-1.21.86-1.06s.67.8.52,1.41a24,24,0,0,1-4.33,9.56c-2.2,2.77-5,4.07-8.62,3.26-4-1.16-6.16-4.08-7.21-8-.48-.53-1-1.05-.39-1.81a29.29,29.29,0,0,1-.46-4.94A1.18,1.18,0,0,1,446.65,168.81Z"/><path class="cls-14" d="M363.84,169.17l3.5,2.24c3.69,2.37,3.69,2.37,7.36-.15a26.23,26.23,0,0,0,3.22-2.27c1.65-1.53,3.05-1.5,4.83-.1,2,1.57,4.31,2.77,6.41,4.22a1.65,1.65,0,0,0,2.2,0c2.34-1.6,4.75-3.12,7.15-4.64.52-.33,1.15-1.11,1.7-.08s-.52,1-.94,1.29c-2.64,1.77-5.36,3.45-8,5.25a1.64,1.64,0,0,1-2.19-.1c-2.29-1.56-4.72-2.92-6.94-4.57a2.53,2.53,0,0,0-3.6.09c-2,1.55-4.24,2.89-6.31,4.4a1.77,1.77,0,0,1-2.39.12c-2.14-1.52-4.35-2.94-6.53-4.41C362.93,169.8,363.17,169.4,363.84,169.17Z"/><path class="cls-14" d="M333.64,193.42c3.26,3.24,6.51,3.1,9.67-.1,3.42-3.46,6.74-3.08,10.06.12,3.07,2.94,6.13,3.33,9.4.18a23.86,23.86,0,0,1,4-2.61c.44-.28.87-.76,1.35,0s-.08.88-.46,1.13c-2.91,1.89-5.83,3.75-8.72,5.66-.75.5-1.25.18-1.86-.22-2.43-1.6-4.91-3.12-7.3-4.78a2.22,2.22,0,0,0-2.95-.06c-2.38,1.67-4.89,3.16-7.3,4.79a1.81,1.81,0,0,1-2.41-.05c-1.78-1.32-3.64-2.54-5.46-3.8A1.9,1.9,0,0,1,333.64,193.42Z"/><path class="cls-15" d="M449.07,176.9a15.94,15.94,0,0,1-.73-5.49.44.44,0,0,0,.1-.19c1.49.05,2.47,1.14,3.53,1.93s2.17,1.33,3.4.18a1.63,1.63,0,0,1,1.34-.41l1.63.52c-.17,1.48-.2,3.06-1.4,4.14-2.41,2.15-2.84,2.11-5.58.37C450.67,177.51,450.14,176.55,449.07,176.9Z"/><path class="cls-16" d="M482.57,107c-.78-3.72-1.58-7.43-2.33-11.16-.12-.6-.56-1.51.51-1.67.87-.12.84.8,1,1.34.85,3.76,1.65,7.53,2.46,11.3.9,4.38,1.81,8.77,2.7,13.16.12.6.75,1.42-.44,1.61-1,.16-.82-.7-.94-1.26Q484,113.7,482.57,107Z"/><path class="cls-17" d="M445.58,235.23a5.07,5.07,0,0,1-.72-.78c-.33-.56.26-.69.52-.94,2.05-2,4.16-3.89,6.17-5.91a101.46,101.46,0,0,0,9.66-11.44c.29-.4.43-1.32,1.35-.68s.12,1.09-.18,1.5a103.45,103.45,0,0,1-15.76,17.42C446.31,234.66,446,234.91,445.58,235.23Z"/><path class="cls-18" d="M455.44,183.31a7.13,7.13,0,0,1-5.53-4.48,15.19,15.19,0,0,1,1.39.85c1.53,1.13,3,2.56,4.8-.13C456.52,181.29,455.49,182.2,455.44,183.31Z"/><path class="cls-14" d="M294.59,392.43c-.4-.24-.82-.46-1.22-.72-2.33-1.51-4.73-2.93-7-4.56a2.55,2.55,0,0,0-3.48.05c-2.25,1.61-4.67,3-7,4.57a1.85,1.85,0,0,1-2.41,0c-2.65-1.78-5.36-3.47-8-5.22-.41-.27-1.15-.42-.71-1.21s1.07-.32,1.55,0c2.4,1.53,4.83,3,7.16,4.66a1.93,1.93,0,0,0,2.57-.05c2.41-1.63,4.93-3.12,7.32-4.78a1.94,1.94,0,0,1,2.58,0c2.35,1.62,4.84,3,7.13,4.7,1.2.89,2,.66,3.1-.07,2.29-1.57,4.65-3,7-4.55.4-.26.81-.64,1.25-.06s0,1-.47,1.3L295.39,392C295.16,392.15,294.91,392.26,294.59,392.43Z"/><path class="cls-14" d="M265.56,331.75l1,.62c2.38,1.54,4.79,3,7.14,4.64a1.65,1.65,0,0,0,2.18,0c2.34-1.61,4.82-3,7.12-4.69a2.54,2.54,0,0,1,3.47.05c2.25,1.61,4.66,3,6.94,4.57a1.79,1.79,0,0,0,2.39,0c2.34-1.61,4.75-3.11,7.14-4.64.48-.31,1-1,1.57-.18s-.24,1.06-.7,1.36c-2.67,1.75-5.39,3.42-8,5.22a1.8,1.8,0,0,1-2.38,0c-2.41-1.64-4.93-3.11-7.3-4.8a2.14,2.14,0,0,0-2.91.06c-2.39,1.66-4.87,3.18-7.31,4.77-.58.38-1.05.8-1.84.27-2.88-1.94-5.8-3.8-8.7-5.7-.32-.21-.82-.36-.59-.92A.82.82,0,0,1,265.56,331.75Z"/><path class="cls-14" d="M263.06,417c-.47-.29-.89-.53-1.3-.8-2.45-1.57-4.94-3.1-7.33-4.76a1.92,1.92,0,0,0-2.57,0c-2.39,1.66-4.91,3.14-7.3,4.8a2,2,0,0,1-2.58,0c-2.58-1.77-5.24-3.41-7.84-5.13-.46-.3-1.29-.5-.77-1.39s1.07-.12,1.48.14c2.35,1.47,4.71,2.94,7,4.53a2.18,2.18,0,0,0,2.94,0c2.33-1.64,4.79-3.08,7.13-4.7a1.94,1.94,0,0,1,2.59,0c2.4,1.65,4.89,3.17,7.31,4.8a2,2,0,0,0,2.59,0c2.32-1.64,4.75-3.13,7.15-4.65.4-.25.81-.92,1.38-.19s-.12,1.08-.6,1.4c-2.78,1.83-5.58,3.63-8.37,5.44C263.66,416.66,263.34,416.79,263.06,417Z"/><path class="cls-14" d="M284.66,239.21c-.46.27-.88.51-1.28.77-2.51,1.61-5.05,3.18-7.52,4.86a1.66,1.66,0,0,1-2.18,0c-2.7-1.82-5.47-3.54-8.2-5.32-.42-.27-1.14-.42-.66-1.22s1.06-.28,1.54,0c2.39,1.53,4.82,3,7.14,4.66a2,2,0,0,0,2.59,0c2.41-1.63,4.9-3.15,7.31-4.79a2,2,0,0,1,2.61,0c2.33,1.62,4.8,3.06,7.12,4.69a2.24,2.24,0,0,0,3,0c2.28-1.57,4.63-3,7-4.53.42-.27.86-.87,1.4-.14s-.17,1.07-.64,1.38c-2.73,1.78-5.5,3.5-8.2,5.33a1.66,1.66,0,0,1-2.2-.1c-2.4-1.64-4.87-3.18-7.33-4.75C285.64,239.75,285.16,239.49,284.66,239.21Z"/><path class="cls-14" d="M209.63,222.86c-.06.63-.53.73-.86.94-2.73,1.78-5.5,3.5-8.2,5.33a1.67,1.67,0,0,1-2.21-.08c-2.47-1.66-5-3.21-7.48-4.91a1.93,1.93,0,0,0-2.57,0c-2.46,1.69-5,3.23-7.49,4.9a1.67,1.67,0,0,1-2.21,0c-2.64-1.79-5.36-3.46-8-5.21-.44-.29-1.36-.43-.83-1.33s1.08-.26,1.57.06c2.33,1.49,4.69,3,7,4.54a2.16,2.16,0,0,0,2.91,0c2.3-1.66,4.78-3.08,7.12-4.7a2,2,0,0,1,2.59,0c2.34,1.62,4.83,3,7.12,4.7a2.25,2.25,0,0,0,3.08-.06c2.28-1.58,4.65-3,7-4.55.34-.22.7-.53,1.12-.21A2.31,2.31,0,0,1,209.63,222.86Z"/><path class="cls-14" d="M243.35,410.46a9.26,9.26,0,0,1-1.1-.53q-4.12-2.64-8.22-5.31c-.51-.32-1.23-.6-.62-1.41s1-.07,1.4.18c2.4,1.52,4.81,3,7.16,4.65a2,2,0,0,0,2.6,0c2.39-1.65,4.91-3.14,7.31-4.79a2,2,0,0,1,2.59,0c2.34,1.62,4.83,3,7.13,4.69a2.29,2.29,0,0,0,3.12-.08c2.28-1.59,4.65-3,7-4.54.47-.3.92-.71,1.36.06s-.14.89-.53,1.14c-2.85,1.86-5.73,3.67-8.55,5.56-.84.56-1.41.22-2.06-.21-2.45-1.59-4.93-3.12-7.33-4.77a2.1,2.1,0,0,0-2.78,0c-2.39,1.67-4.88,3.2-7.33,4.78C244.13,410.05,243.76,410.23,243.35,410.46Z"/><path class="cls-14" d="M209.62,269.5c0,.5-.38.67-.72.89-2.84,1.85-5.72,3.67-8.55,5.55-.72.48-1.2.27-1.84-.15-2.42-1.62-4.9-3.15-7.31-4.78a2.33,2.33,0,0,0-3.12,0c-2.36,1.7-4.9,3.15-7.3,4.79a1.67,1.67,0,0,1-2.19,0c-2.66-1.77-5.37-3.46-8-5.21-.45-.29-1.33-.47-.8-1.36s1.07-.18,1.53.11c2.4,1.53,4.8,3,7.16,4.64a1.81,1.81,0,0,0,2.4,0c2.22-1.54,4.61-2.85,6.77-4.46a2.93,2.93,0,0,1,4,.05c2.18,1.58,4.54,2.93,6.77,4.45a1.69,1.69,0,0,0,2.21,0c2.42-1.62,4.89-3.16,7.33-4.75C208.61,268.82,209.2,268.48,209.62,269.5Z"/><path class="cls-14" d="M273.18,362.91c0,.49-.45.62-.78.83-2.79,1.81-5.61,3.58-8.38,5.43a1.55,1.55,0,0,1-2-.1c-2.42-1.62-4.92-3.12-7.31-4.78a2.23,2.23,0,0,0-3,0c-2.34,1.63-4.79,3.08-7.13,4.68A1.94,1.94,0,0,1,242,369c-2.62-1.82-5.34-3.49-8-5.24-.41-.27-1.14-.41-.68-1.22s1-.27,1.51,0c2.45,1.57,4.91,3.13,7.32,4.76a1.73,1.73,0,0,0,2.23,0c2.4-1.65,4.91-3.14,7.3-4.8a2.22,2.22,0,0,1,2.95,0c2.26,1.6,4.68,3,6.94,4.57a2.19,2.19,0,0,0,2.94.07c2.32-1.63,4.76-3.1,7.13-4.67C272.39,362,272.89,361.9,273.18,362.91Z"/><path class="cls-14" d="M263.07,269.88c-.38-.2-.82-.41-1.22-.66-2.33-1.5-4.7-3-7-4.54a2.46,2.46,0,0,0-3.32-.06c-2.24,1.64-4.67,3-7,4.59a2.05,2.05,0,0,1-2.63,0c-2.59-1.75-5.23-3.41-7.84-5.13-.46-.31-1.31-.51-.77-1.38s1.08-.13,1.52.14c2.35,1.48,4.71,2.95,7,4.54a2.1,2.1,0,0,0,2.78,0c2.4-1.66,4.91-3.15,7.32-4.8a1.79,1.79,0,0,1,2.39,0c2.4,1.65,4.92,3.12,7.32,4.79a2.2,2.2,0,0,0,2.94-.06c2.32-1.64,4.76-3.13,7.15-4.67.39-.25.78-.63,1.22,0s.09.89-.35,1.18l-8.92,5.77A4.36,4.36,0,0,1,263.07,269.88Z"/><path class="cls-14" d="M304.68,291.66c.1.53-.39.66-.71.87-2.84,1.86-5.72,3.68-8.53,5.59-.87.59-1.41.13-2-.28-2.45-1.58-4.93-3.11-7.34-4.76a2,2,0,0,0-2.72,0c-2.32,1.65-4.8,3.06-7.13,4.69a2.18,2.18,0,0,1-2.93,0c-2.51-1.74-5.12-3.32-7.67-5-.42-.29-1.35-.48-.75-1.36s1.11-.12,1.56.17c2.35,1.48,4.71,2.95,7,4.54a2.07,2.07,0,0,0,2.74,0c2.41-1.65,4.91-3.15,7.31-4.8a1.82,1.82,0,0,1,2.39,0c2.53,1.72,5.14,3.31,7.67,5a1.7,1.7,0,0,0,2.21,0c2.41-1.64,4.9-3.16,7.33-4.77C303.72,291,304.27,290.63,304.68,291.66Z"/><path class="cls-14" d="M265.6,378.41l1,.66c2.27,1.47,4.59,2.87,6.8,4.43a2,2,0,0,0,2.75,0c2.27-1.58,4.68-3,6.95-4.57a2.25,2.25,0,0,1,3.1,0c2.18,1.59,4.57,2.89,6.77,4.46a2.33,2.33,0,0,0,3.14.07c2.27-1.59,4.63-3,7-4.53.42-.27.84-.87,1.38-.12s-.18,1.06-.65,1.37c-2.73,1.77-5.5,3.49-8.2,5.32a1.64,1.64,0,0,1-2.19-.07c-2.46-1.68-5-3.21-7.48-4.9a1.94,1.94,0,0,0-2.58,0c-2.4,1.65-4.91,3.15-7.31,4.8a1.91,1.91,0,0,1-2.54.07c-2.68-1.86-5.45-3.57-8.18-5.35-.37-.24-1-.4-.56-1.08C265,378.61,265.13,378.32,265.6,378.41Z"/><path class="cls-14" d="M326.7,369.69c-.44-.25-.87-.47-1.28-.73-2.33-1.51-4.7-3-7-4.56a2.41,2.41,0,0,0-3.31,0c-2.23,1.65-4.66,3-6.95,4.58a1.88,1.88,0,0,1-2.56.05c-2.41-1.77-4.92-3.38-7.37-5.1-.42-.3-1.34-.51-.77-1.37s1.2-.08,1.68.24c2.14,1.41,4.3,2.82,6.35,4.37a2,2,0,0,0,2.76,0c2.28-1.58,4.69-3,7-4.58a2.19,2.19,0,0,1,2.94-.07c2.39,1.66,4.89,3.17,7.31,4.8a1.88,1.88,0,0,0,2.42,0c2.35-1.61,4.76-3.13,7.16-4.66.46-.29.95-1,1.53-.11s-.32,1-.76,1.32c-2.72,1.8-5.47,3.57-8.21,5.34Z"/><path class="cls-14" d="M294.61,292.07c-.37-.2-.81-.4-1.21-.66-2.51-1.61-5-3.2-7.5-4.87a1.89,1.89,0,0,0-2.42,0c-2.42,1.62-4.91,3.14-7.31,4.78a2.12,2.12,0,0,1-2.77.06c-2.57-1.77-5.24-3.4-7.83-5.12-.42-.28-1.36-.39-.72-1.32s1.1-.16,1.55.12c2.4,1.52,4.8,3,7.15,4.64a1.89,1.89,0,0,0,2.43,0c2.29-1.56,4.72-2.92,6.94-4.58,1.39-1,2.36-.82,3.64.09,2.2,1.57,4.55,2.91,6.77,4.46a2,2,0,0,0,2.6,0c2.4-1.64,4.87-3.19,7.32-4.77.39-.25.77-.63,1.22,0s.17.85-.3,1.16l-8.91,5.75A5.83,5.83,0,0,1,294.61,292.07Z"/><path class="cls-14" d="M209.62,310.39c0,.37-.29.53-.57.71-2.91,1.89-5.83,3.75-8.71,5.68-.86.57-1.41.12-2-.29-2.51-1.61-5-3.19-7.5-4.87a1.81,1.81,0,0,0-2.39,0c-2.41,1.63-4.92,3.12-7.31,4.78a2.2,2.2,0,0,1-2.94-.06c-2.5-1.74-5.1-3.33-7.64-5-.46-.3-1.32-.51-.72-1.37s1.09-.1,1.55.19c2.11,1.34,4.29,2.58,6.26,4.09,1.55,1.19,2.72,1.08,4.22,0,2-1.52,4.32-2.76,6.41-4.24a2.07,2.07,0,0,1,2.77,0c2.27,1.58,4.67,3,7,4.56a2.28,2.28,0,0,0,3.1,0c2.25-1.61,4.66-3,7-4.55C208.74,309.55,209.24,309.38,209.62,310.39Z"/><path class="cls-14" d="M166.81,299.09c-.47-.29-.88-.54-1.27-.81-2.23-1.52-4.49-3-6.67-4.61a2,2,0,0,0-2.71-.05c-2.37,1.67-4.89,3.15-7.28,4.81a2,2,0,0,1-2.6-.08c-2.58-1.75-5.24-3.39-7.84-5.11-.4-.27-1.37-.31-.79-1.27s1.06-.29,1.54,0c2.39,1.53,4.81,3,7.15,4.65a1.94,1.94,0,0,0,2.58,0c2.4-1.66,4.9-3.16,7.3-4.8a1.85,1.85,0,0,1,2.54,0c2.22,1.67,4.58,3.13,6.82,4.76a1.92,1.92,0,0,0,2.58.06c2.34-1.61,4.75-3.12,7.14-4.66.5-.32,1-.89,1.53,0s-.3.94-.71,1.21c-2.73,1.79-5.47,3.55-8.21,5.31C167.57,298.72,167.19,298.89,166.81,299.09Z"/><path class="cls-14" d="M166.9,252.44c-.47-.28-1-.53-1.41-.83-2.23-1.53-4.49-3-6.67-4.62a1.91,1.91,0,0,0-2.58-.06c-2.4,1.67-4.9,3.16-7.31,4.8a2,2,0,0,1-2.59,0c-2.57-1.77-5.24-3.39-7.84-5.11-.43-.29-1.38-.4-.82-1.32s1.2-.16,1.69.15c2.35,1.48,4.7,2.95,7,4.54a2,2,0,0,0,2.6,0c2.46-1.68,5-3.23,7.48-4.91a1.64,1.64,0,0,1,2.19,0c2.25,1.62,4.6,3.11,6.83,4.76a2,2,0,0,0,2.75.11c2.21-1.56,4.51-3,6.81-4.41.49-.3,1-1.24,1.72-.32s-.37,1.15-.83,1.46c-2.54,1.7-5.11,3.34-7.68,5C167.82,251.92,167.39,252.15,166.9,252.44Z"/><path class="cls-14" d="M336.76,216c.09.41-.43.52-.73.72-2.85,1.87-5.72,3.69-8.55,5.58-.75.51-1.26.2-1.87-.2-2.56-1.67-5.16-3.28-7.68-5a1.79,1.79,0,0,0-2.38,0c-2.45,1.7-5,3.25-7.49,4.91a1.69,1.69,0,0,1-2.23.11c-2.53-1.83-5.14-3.55-7.71-5.33-.49-.34-1.18-.65-.54-1.43s1,0,1.4.25c2.24,1.51,4.5,3,6.68,4.61a1.75,1.75,0,0,0,2.38.06c2.29-1.57,4.75-2.91,6.95-4.59,1.4-1.07,2.37-.81,3.64.07,2.28,1.59,4.67,3,7,4.56a1.67,1.67,0,0,0,2.22,0c2.4-1.64,4.88-3.18,7.32-4.78C335.77,215.13,336.36,214.76,336.76,216Z"/><path class="cls-14" d="M336.8,269.19c0,.31-.46.42-.78.63-2.74,1.77-5.5,3.5-8.2,5.33a1.88,1.88,0,0,1-2.43-.06c-2.42-1.63-4.92-3.12-7.3-4.8a2.05,2.05,0,0,0-2.75,0c-2.46,1.68-5,3.26-7.49,4.89-.6.4-1.06.69-1.82.14-2.64-1.91-5.35-3.73-8-5.57-.46-.32-1-.54-.47-1.25s1-.15,1.39.13c2.24,1.52,4.5,3,6.68,4.61a1.88,1.88,0,0,0,2.57,0c2.39-1.66,4.9-3.14,7.31-4.79a1.94,1.94,0,0,1,2.56,0c2.33,1.62,4.8,3,7.12,4.68a2.18,2.18,0,0,0,3,.06c2.32-1.63,4.76-3.1,7.13-4.67C336,268.05,336.51,268,336.8,269.19Z"/><path class="cls-14" d="M400.35,221.78c0,.51-.48.62-.81.83-2.73,1.78-5.49,3.51-8.2,5.34a1.74,1.74,0,0,1-2.23,0c-2.49-1.65-5-3.19-7.5-4.89a1.87,1.87,0,0,0-2.55,0c-2.28,1.69-4.68,3.23-7,4.88a1.51,1.51,0,0,1-2,.1c-2.75-1.86-5.57-3.64-8.36-5.45-.44-.29-1.1-.47-.57-1.24s1-.25,1.4,0c2.34,1.5,4.74,2.92,7,4.56a2.22,2.22,0,0,0,3.09-.1c2.18-1.6,4.47-3.05,6.66-4.64a1.63,1.63,0,0,1,2.19-.05c2.47,1.67,5,3.19,7.49,4.89a2.06,2.06,0,0,0,2.75,0c2.34-1.61,4.77-3.09,7.15-4.66C399.53,220.85,400.06,220.79,400.35,221.78Z"/><path class="cls-14" d="M368.25,244.46c0,.43-.32.56-.6.75-2.91,1.9-5.84,3.77-8.71,5.71-.79.53-1.26.12-1.83-.25-2.51-1.63-5.06-3.19-7.51-4.88a2.08,2.08,0,0,0-2.77.06c-2.33,1.63-4.78,3.1-7.14,4.68a1.87,1.87,0,0,1-2.56.06c-2.4-1.78-4.93-3.37-7.36-5.1-.42-.29-1.37-.48-.8-1.36.67-1,1.19-.11,1.68.22,2.14,1.42,4.29,2.83,6.34,4.37a2,2,0,0,0,2.77,0c2.27-1.59,4.7-3,6.95-4.58a2.31,2.31,0,0,1,3.14,0c2.32,1.63,4.78,3.07,7.13,4.68a1.84,1.84,0,0,0,2.41,0c2.41-1.64,4.9-3.17,7.32-4.79C367.45,243.58,368,243.5,368.25,244.46Z"/><path class="cls-14" d="M336.68,356.39c.05.59-.46.77-.85,1-2.72,1.78-5.48,3.52-8.18,5.34a1.6,1.6,0,0,1-2-.08c-2.36-1.59-4.83-3-7.12-4.69a2.5,2.5,0,0,0-3.45,0c-2.19,1.58-4.54,2.92-6.77,4.45a2,2,0,0,1-2.75,0c-2.4-1.77-4.89-3.41-7.35-5.1-.51-.35-1.17-.68-.55-1.44s1,0,1.39.24c2.24,1.51,4.49,3,6.67,4.61a1.74,1.74,0,0,0,2.36.05c2.52-1.72,5.14-3.29,7.66-5a1.69,1.69,0,0,1,2.21,0c2.36,1.58,4.82,3,7.12,4.68a2.5,2.5,0,0,0,3.44-.08c2.2-1.57,4.53-2.95,6.79-4.44C335.86,355.65,336.37,355.46,336.68,356.39Z"/><path class="cls-14" d="M211.14,345.75c-.32-.17-.57-.29-.8-.43-2.8-1.82-5.6-3.62-8.38-5.46-.4-.26-1.16-.43-.72-1.22s1-.28,1.53,0c2.28,1.46,4.61,2.85,6.79,4.44a2.44,2.44,0,0,0,3.29,0c2.28-1.59,4.69-3,7-4.58a1.89,1.89,0,0,1,2.56,0c2.32,1.64,4.81,3,7.12,4.7a2.14,2.14,0,0,0,2.93,0c2.11-1.57,4.31-3,6.5-4.51.4-.26.83-.9,1.4-.16s-.16,1.05-.62,1.37c-2.51,1.74-5.06,3.43-7.52,5.23a1.81,1.81,0,0,1-2.41,0c-2.49-1.66-5-3.21-7.49-4.91a1.79,1.79,0,0,0-2.39,0c-2.4,1.65-4.88,3.2-7.33,4.77C212.1,345.27,211.61,345.5,211.14,345.75Z"/><path class="cls-14" d="M240.54,379.76c0,.61-.51.72-.83.94-2.56,1.79-5.15,3.53-7.69,5.36-.86.62-1.45.38-2.21-.13-2.42-1.63-4.91-3.15-7.31-4.8a2,2,0,0,0-2.73-.05c-2.43,1.72-5,3.27-7.48,4.92a1.55,1.55,0,0,1-2,.1c-2.75-1.86-5.58-3.64-8.37-5.45-.44-.29-1.1-.5-.59-1.25s1-.27,1.41,0c2.45,1.58,4.92,3.13,7.33,4.78a1.78,1.78,0,0,0,2.38,0c2.46-1.69,5-3.22,7.49-4.91a1.79,1.79,0,0,1,2.39,0c2.46,1.69,5,3.22,7.49,4.91a1.72,1.72,0,0,0,2.36,0c2.23-1.64,4.56-3.17,6.85-4.73.33-.22.68-.59,1.11-.26A2.32,2.32,0,0,1,240.54,379.76Z"/><path class="cls-14" d="M166.81,339.91c-.38-.23-.8-.46-1.19-.73-2.35-1.6-4.72-3.18-7-4.85a1.64,1.64,0,0,0-2.2,0c-2.47,1.66-5,3.23-7.49,4.9a1.87,1.87,0,0,1-2.43.12c-2.64-1.8-5.35-3.49-8-5.23-.49-.32-1.28-.57-.7-1.39s1.12-.07,1.56.21c2.3,1.44,4.6,2.87,6.81,4.42a2.18,2.18,0,0,0,2.94,0c2.15-1.53,4.5-2.78,6.6-4.36a2.67,2.67,0,0,1,3.79.08c1.92,1.49,4,2.72,6,4.21a2.22,2.22,0,0,0,3.09,0c2.28-1.58,4.64-3,7-4.54.39-.26.79-.66,1.23-.05s.14.89-.32,1.19l-8.92,5.77A4.81,4.81,0,0,1,166.81,339.91Z"/><path class="cls-14" d="M231,251.89c-.42-.25-.84-.48-1.23-.74-2.51-1.61-5-3.19-7.51-4.88a1.76,1.76,0,0,0-2.37,0c-2.46,1.69-5,3.22-7.49,4.91a1.8,1.8,0,0,1-2.39,0c-2.57-1.76-5.24-3.4-7.84-5.13-.47-.32-1.59-.48-.85-1.46s1.23,0,1.74.33c2.24,1.4,4.48,2.78,6.64,4.3a2.12,2.12,0,0,0,2.91,0c2.31-1.66,4.81-3.06,7.13-4.7a2,2,0,0,1,2.75,0c2.4,1.65,4.91,3.13,7.31,4.79a1.71,1.71,0,0,0,2.36,0c2.18-1.6,4.44-3.1,6.68-4.62.48-.32,1-.91,1.53,0s-.33.94-.71,1.21c-2.56,1.8-5.13,3.57-7.71,5.34C231.69,251.52,231.39,251.68,231,251.89Z"/><path class="cls-14" d="M338.33,244.85c-.41-.23-.78-.4-1.12-.63-2.51-1.73-5-3.46-7.52-5.22-.46-.31-1.28-.53-.64-1.38s1.12,0,1.54.25c2.2,1.45,4.41,2.9,6.51,4.48a1.87,1.87,0,0,0,2.57,0c2.4-1.64,4.91-3.14,7.3-4.8a1.94,1.94,0,0,1,2.58,0c2.33,1.62,4.82,3,7.11,4.69a2.26,2.26,0,0,0,3.11-.06c2.22-1.54,4.52-3,6.8-4.42.46-.29,1-1,1.53-.1s-.37,1.06-.82,1.35c-2.66,1.76-5.36,3.46-8,5.23a1.74,1.74,0,0,1-2.25,0c-2.29-1.56-4.7-2.94-6.94-4.57a2.69,2.69,0,0,0-3.68,0c-2.19,1.58-4.52,3-6.8,4.43C339.2,244.38,338.78,244.59,338.33,244.85Z"/><path class="cls-14" d="M211.18,339.38c-.37-.22-.67-.38-1-.57-2.74-1.76-5.49-3.52-8.22-5.31-.46-.3-1.28-.52-.69-1.39s1.1-.06,1.51.19c2.41,1.5,4.81,3,7.16,4.64a1.82,1.82,0,0,0,2.4,0c2.46-1.68,5-3.22,7.48-4.9a1.88,1.88,0,0,1,2.44,0c2.29,1.55,4.69,3,6.95,4.57a2.42,2.42,0,0,0,3.44,0c1.95-1.56,4.1-2.86,6.16-4.27.51-.35,1-.89,1.55,0s-.31.95-.68,1.22c-2.56,1.79-5.17,3.5-7.72,5.32a1.5,1.5,0,0,1-2,0c-2.48-1.67-5-3.2-7.5-4.89a2.08,2.08,0,0,0-2.76,0c-2.4,1.65-4.88,3.19-7.33,4.76C212,338.9,211.59,339.13,211.18,339.38Z"/><path class="cls-14" d="M336.87,315.78c-.34.28-.63.55-1,.77-2.73,1.77-5.49,3.51-8.2,5.32a1.74,1.74,0,0,1-2.24-.08c-2.36-1.59-4.83-3-7.12-4.68a2.39,2.39,0,0,0-3.26,0c-2.27,1.58-4.68,3-7,4.56a1.87,1.87,0,0,1-2.56,0c-2.29-1.68-4.69-3.21-7-4.86-.52-.37-1.72-.63-1-1.65s1.21.09,1.7.41c2,1.33,4.05,2.68,6,4.13a2.23,2.23,0,0,0,3.09.1c2.3-1.66,4.78-3.08,7.12-4.69a1.9,1.9,0,0,1,2.57,0c2.39,1.65,4.91,3.13,7.29,4.79a1.94,1.94,0,0,0,2.59,0c2.41-1.64,4.88-3.18,7.32-4.76.34-.22.69-.57,1.11-.2A3.79,3.79,0,0,1,336.87,315.78Z"/><path class="cls-14" d="M273.18,309.83c0,.49-.45.6-.77.81-2.78,1.83-5.59,3.61-8.35,5.47A1.6,1.6,0,0,1,262,316c-2.55-1.68-5.16-3.26-7.67-5a1.8,1.8,0,0,0-2.39,0c-2.46,1.68-5,3.25-7.48,4.9a1.77,1.77,0,0,1-2.25.11c-2.71-1.82-5.46-3.56-8.18-5.35-.48-.31-1.24-.57-.6-1.4s1-.05,1.39.19c2.4,1.52,4.82,3,7.14,4.65a2,2,0,0,0,2.59,0c2.34-1.6,4.79-3.05,7.12-4.68a2.13,2.13,0,0,1,2.91,0c2.37,1.69,4.88,3.17,7.3,4.8a1.84,1.84,0,0,0,2.41,0c2.39-1.65,4.88-3.17,7.3-4.78C272.3,309,272.84,308.78,273.18,309.83Z"/><path class="cls-14" d="M166.82,246c-.44-.27-.91-.54-1.36-.84-2.3-1.57-4.61-3.11-6.85-4.74a1.64,1.64,0,0,0-2.19,0c-2.53,1.7-5.14,3.3-7.68,5a1.71,1.71,0,0,1-2.23.06c-2.57-1.76-5.23-3.4-7.82-5.15-.47-.31-1.6-.46-1-1.43s1.33,0,1.86.32c2.3,1.42,4.6,2.86,6.82,4.4a1.8,1.8,0,0,0,2.39,0c2.47-1.67,5-3.21,7.49-4.9a1.89,1.89,0,0,1,2.57,0c2.24,1.64,4.61,3.1,6.82,4.78a1.8,1.8,0,0,0,2.53,0c2.4-1.66,4.88-3.19,7.33-4.78.42-.28.82-.58,1.23,0s.11.88-.36,1.18l-8.91,5.78A4.68,4.68,0,0,1,166.82,246Z"/><path class="cls-14" d="M431.86,197.3c0,.45-.47.55-.79.76-2.79,1.82-5.61,3.59-8.36,5.46a1.59,1.59,0,0,1-2-.08c-2.37-1.58-4.81-3-7.13-4.67a2.4,2.4,0,0,0-3.31-.06c-2.29,1.68-4.76,3.11-7.12,4.68a1.65,1.65,0,0,1-2.22.08c-2.52-1.83-5.12-3.55-7.68-5.34-.37-.27-1.16-.37-.68-1.19s1-.35,1.51,0c2.17,1.49,4.4,2.91,6.49,4.5a2.1,2.1,0,0,0,2.91,0c2.33-1.63,4.8-3.05,7.12-4.69a1.94,1.94,0,0,1,2.57,0c2.29,1.56,4.68,3,6.95,4.57a2.4,2.4,0,0,0,3.29,0c2.23-1.63,4.64-3,6.94-4.57C431.07,196.28,431.56,196.3,431.86,197.3Z"/><path class="cls-14" d="M306.82,416.36c-.3-.18-.6-.35-.88-.54q-3.94-2.71-7.88-5.44c-.42-.29-1.09-.45-.59-1.22s.92-.29,1.37,0c2.12,1.45,4.3,2.82,6.32,4.39a2.44,2.44,0,0,0,3.45,0c2.25-1.62,4.66-3,6.95-4.57a1.79,1.79,0,0,1,2.37,0c2.34,1.61,4.81,3.05,7.13,4.68a2.3,2.3,0,0,0,3.12.06c2.24-1.63,4.63-3.06,7-4.55.47-.31,1-.89,1.5.06s-.35.91-.73,1.16c-2.66,1.76-5.38,3.43-8,5.25a2,2,0,0,1-2.61-.06c-2.42-1.62-4.92-3.13-7.31-4.8a1.94,1.94,0,0,0-2.58,0c-2.46,1.69-5,3.28-7.49,4.9C307.59,416,307.22,416.14,306.82,416.36Z"/><path class="cls-14" d="M326.66,269.38c-.46-.27-.88-.51-1.28-.77-2.39-1.54-4.81-3-7.14-4.65a2.14,2.14,0,0,0-2.92,0c-2.31,1.66-4.78,3.08-7.12,4.69a1.87,1.87,0,0,1-2.56.07c-2.39-1.78-4.9-3.4-7.35-5.1-.46-.32-1.29-.55-.76-1.39s1.07-.15,1.53.16c2.18,1.48,4.38,2.93,6.5,4.5a1.86,1.86,0,0,0,2.55.06c2.27-1.58,4.71-3,6.95-4.58a2.51,2.51,0,0,1,3.46,0c2.14,1.54,4.43,2.85,6.59,4.35a2.26,2.26,0,0,0,3.1,0c2.17-1.6,4.51-3,6.79-4.43.47-.3,1-1,1.56-.16s-.31,1.06-.79,1.38c-2.72,1.79-5.46,3.56-8.19,5.33C327.29,269.05,327,269.2,326.66,269.38Z"/><path class="cls-14" d="M411.82,191.33c-.47.3-.88.55-1.28.82-2.45,1.57-4.93,3.11-7.33,4.75a1.85,1.85,0,0,1-2.55,0c-2.38-1.78-4.9-3.4-7.34-5.11-.46-.32-1.29-.6-.7-1.4s1.13-.06,1.57.24c2.19,1.46,4.4,2.91,6.5,4.5a1.87,1.87,0,0,0,2.55,0c2.41-1.64,4.91-3.13,7.31-4.78a1.88,1.88,0,0,1,2.56,0c2.32,1.64,4.8,3,7.11,4.7a2.28,2.28,0,0,0,3.11-.06c2.26-1.59,4.64-3,7-4.54.49-.32.94-.7,1.37,0s-.13.89-.52,1.15c-2.91,1.88-5.85,3.73-8.73,5.65-.81.53-1.28,0-1.85-.33-2.5-1.61-5-3.24-7.51-4.85Z"/><path class="cls-14" d="M390.26,222.15c-.43-.26-.84-.5-1.24-.76-2.39-1.54-4.81-3-7.15-4.65a2.15,2.15,0,0,0-2.94,0c-2.15,1.63-4.46,3.06-6.65,4.64a1.88,1.88,0,0,1-2.56,0c-2.57-1.78-5.24-3.4-7.84-5.13-.42-.28-1.37-.44-.8-1.34s1.08-.19,1.55.11c2.4,1.53,4.81,3.05,7.16,4.65a1.76,1.76,0,0,0,2.38,0c2.23-1.63,4.6-3.1,6.82-4.77a2,2,0,0,1,2.75,0c2.4,1.66,4.9,3.16,7.31,4.8a1.8,1.8,0,0,0,2.37,0c2.34-1.62,4.76-3.13,7.16-4.66.46-.29.95-1,1.55-.14s-.31,1-.74,1.33c-2.72,1.8-5.46,3.56-8.2,5.33C390.9,221.78,390.6,222,390.26,222.15Z"/><path class="cls-14" d="M240.69,286c-.32.27-.57.5-.84.69-2.62,1.81-5.27,3.6-7.87,5.45a1.53,1.53,0,0,1-2-.07c-2.36-1.6-4.81-3.05-7.14-4.69a2.56,2.56,0,0,0-3.47,0c-2.24,1.63-4.66,3-7,4.57a1.69,1.69,0,0,1-2.21.12c-2.76-1.86-5.59-3.61-8.39-5.42-.38-.25-.95-.46-.57-1.11s.88-.46,1.39-.13c2.44,1.58,4.93,3.11,7.33,4.76a1.9,1.9,0,0,0,2.55,0c2.46-1.7,5-3.24,7.49-4.9a1.74,1.74,0,0,1,2.24,0c2.47,1.67,5,3.2,7.48,4.91a2,2,0,0,0,2.7-.11c2.12-1.57,4.33-3,6.51-4.5.38-.27.76-.71,1.28-.29A4,4,0,0,1,240.69,286Z"/><path class="cls-14" d="M304.66,339.06c0,.46-.5.56-.82.75-2.8,1.67-5.63,3.29-8.42,5a1.59,1.59,0,0,1-1.89-.16c-2.43-1.46-4.93-2.83-7.33-4.36a2.4,2.4,0,0,0-3,0c-2.4,1.53-4.91,2.88-7.33,4.37a1.82,1.82,0,0,1-2.24,0c-2.65-1.65-5.37-3.18-8.06-4.76-.51-.3-1.27-.5-.7-1.35s1-.16,1.41.08c2.46,1.42,4.93,2.83,7.35,4.33a1.83,1.83,0,0,0,2.23,0c2.42-1.5,4.94-2.83,7.34-4.37a2.4,2.4,0,0,1,3,0c2.27,1.46,4.67,2.73,7,4.17a2.27,2.27,0,0,0,2.8,0c2.34-1.5,4.78-2.83,7.16-4.26C303.87,338.07,304.41,338,304.66,339.06Z"/><path class="cls-14" d="M304.64,245.1c0,.54-.5.62-.83.82-2.75,1.63-5.53,3.2-8.24,4.88a1.87,1.87,0,0,1-2.26-.19c-2.49-1.51-5-2.94-7.51-4.47a1.87,1.87,0,0,0-2.25,0c-2.55,1.55-5.16,3-7.69,4.57a1.84,1.84,0,0,1-2.24,0c-2.61-1.59-5.26-3.11-7.88-4.68-.48-.28-1.34-.43-.88-1.31s1.08-.24,1.55,0c2.17,1.24,4.37,2.44,6.45,3.82a2.92,2.92,0,0,0,3.74,0c2.24-1.51,4.66-2.75,7-4.17a1.88,1.88,0,0,1,2.26,0c2.35,1.47,4.82,2.76,7.14,4.29a2.65,2.65,0,0,0,3.35-.07c2.2-1.44,4.54-2.68,6.8-4C303.87,244.17,304.39,244.1,304.64,245.1Z"/><path class="cls-14" d="M253.15,270.1c-.49.26-.92.48-1.33.73-2.39,1.4-4.8,2.78-7.16,4.23a2.2,2.2,0,0,1-2.65.08c-2.58-1.61-5.25-3.09-7.87-4.66-.47-.28-1.3-.46-.76-1.36s1.08-.12,1.5.12c2.41,1.37,4.81,2.75,7.17,4.21a2,2,0,0,0,2.46,0c2.36-1.46,4.8-2.78,7.14-4.26a2.42,2.42,0,0,1,3-.05c2.33,1.49,4.79,2.79,7.13,4.27a2.18,2.18,0,0,0,2.64,0c2.3-1.43,4.64-2.78,7-4.12.45-.25,1-1,1.54-.19s-.36,1.16-.87,1.46c-2.55,1.55-5.14,3-7.68,4.58a2.16,2.16,0,0,1-2.64,0c-2.34-1.49-4.76-2.84-7.15-4.24C254.14,270.57,253.64,270.35,253.15,270.1Z"/><path class="cls-14" d="M209.61,263.72c-.07.57-.54.67-.87.87-2.69,1.59-5.41,3.12-8.06,4.77a2.07,2.07,0,0,1-2.47-.1c-2.44-1.47-4.93-2.85-7.33-4.36a2.15,2.15,0,0,0-2.63.05c-2.41,1.51-4.91,2.87-7.33,4.36a2.07,2.07,0,0,1-2.47,0c-2.6-1.61-5.26-3.1-7.88-4.67-.47-.28-1.34-.47-.76-1.34s1.1-.14,1.57.13c2.34,1.34,4.69,2.69,7,4.12a2.18,2.18,0,0,0,2.64,0c2.23-1.41,4.6-2.6,6.78-4.08a2.93,2.93,0,0,1,3.74.06c2.2,1.44,4.54,2.67,6.77,4.07a2,2,0,0,0,2.46,0c2.43-1.48,4.9-2.9,7.35-4.35.35-.2.7-.54,1.11-.21C209.42,263.2,209.5,263.52,209.61,263.72Z"/><path class="cls-14" d="M209.6,316.77c0,.57-.48.66-.81.85-2.8,1.67-5.63,3.3-8.41,5-.82.51-1.38.18-2.06-.23-2.43-1.47-4.94-2.82-7.33-4.34a2.25,2.25,0,0,0-2.79,0c-2.35,1.48-4.79,2.8-7.15,4.25a2.16,2.16,0,0,1-2.63.06c-2.57-1.63-5.25-3.1-7.87-4.66-.48-.29-1.29-.51-.73-1.37s1-.16,1.4.09c2.34,1.35,4.7,2.68,7,4.13a2.39,2.39,0,0,0,3,0c2.15-1.39,4.48-2.52,6.59-4a2.9,2.9,0,0,1,3.72,0c2,1.34,4.2,2.42,6.22,3.76a2.71,2.71,0,0,0,3.51.05c2.18-1.47,4.53-2.69,6.79-4C208.74,315.94,209.29,315.81,209.6,316.77Z"/><path class="cls-14" d="M177,339.57c0,.46-.44.57-.78.76-2.8,1.66-5.63,3.29-8.41,5a1.7,1.7,0,0,1-2.08-.19c-2.27-1.46-4.59-2.85-6.85-4.34a2.15,2.15,0,0,0-2.64-.05c-2.34,1.48-4.81,2.77-7.14,4.27a2.42,2.42,0,0,1-3-.06c-2.33-1.5-4.79-2.8-7.14-4.27-.52-.33-1.78-.39-1.22-1.49s1.33-.06,1.85.23c2.19,1.2,4.35,2.45,6.45,3.8a2.53,2.53,0,0,0,3.18,0c2.26-1.49,4.68-2.71,6.95-4.18a2.24,2.24,0,0,1,2.81,0c2.2,1.45,4.5,2.75,6.68,4.24a2,2,0,0,0,2.6,0c2.35-1.48,4.77-2.84,7.15-4.26C176.05,338.69,176.65,338.47,177,339.57Z"/><path class="cls-14" d="M273.19,357.23c0,.3-.44.41-.78.61-2.8,1.66-5.63,3.27-8.41,5a1.74,1.74,0,0,1-2.07-.16c-2.44-1.47-4.92-2.86-7.33-4.36a2.3,2.3,0,0,0-2.82,0c-2.28,1.46-4.68,2.71-7,4.16a2.4,2.4,0,0,1-3,.06c-2.5-1.6-5.13-3-7.68-4.55-.46-.27-1.31-.44-.75-1.35s1.11-.13,1.54.11c2.29,1.3,4.6,2.57,6.79,4a2.49,2.49,0,0,0,3.16-.05c2.28-1.45,4.67-2.73,7-4.16a2.2,2.2,0,0,1,2.65,0c2.29,1.45,4.69,2.69,6.95,4.18a2.68,2.68,0,0,0,3.36,0c2.21-1.42,4.52-2.7,6.79-4C272.24,356.23,272.86,355.88,273.19,357.23Z"/><path class="cls-14" d="M273.23,316.21c-.12.55-.55.69-.89.91-2.74,1.78-5.51,3.5-8.21,5.34a1.68,1.68,0,0,1-2.21-.08c-2.37-1.58-4.86-3-7.14-4.69-1.27-.94-2.14-.73-3.3.07-2.34,1.61-4.78,3.09-7.14,4.67a1.52,1.52,0,0,1-2,.1c-2.69-1.84-5.47-3.55-8.19-5.35-.46-.3-1.33-.49-.78-1.38s1.07-.14,1.52.14c2.35,1.49,4.71,3,7,4.54a2.08,2.08,0,0,0,2.78,0c2.33-1.63,4.79-3.07,7.13-4.69a2.09,2.09,0,0,1,2.79,0c2.39,1.67,4.9,3.16,7.3,4.81a1.83,1.83,0,0,0,2.4,0c2.41-1.65,4.88-3.21,7.34-4.77.34-.22.71-.79,1.23-.29A2.81,2.81,0,0,1,273.23,316.21Z"/><path class="cls-14" d="M336.75,309.89c0,.44-.49.54-.81.73-2.8,1.68-5.63,3.3-8.41,5-.84.52-1.4.15-2.07-.24-2.5-1.49-5-2.91-7.52-4.45a2,2,0,0,0-2.41,0c-2.41,1.5-4.93,2.84-7.33,4.36a2.19,2.19,0,0,1-2.78-.07c-2.29-1.56-4.69-3-7-4.44-.49-.31-1.35-.49-.87-1.34.6-1,1.21-.14,1.7.16,2.2,1.32,4.4,2.65,6.53,4.08a1.75,1.75,0,0,0,2.22,0c2.36-1.46,4.79-2.79,7.15-4.26a2.48,2.48,0,0,1,3.15-.07c2.18,1.48,4.54,2.67,6.77,4.08a2.54,2.54,0,0,0,3.18,0c2.25-1.49,4.64-2.78,7-4.16C335.88,308.94,336.48,308.73,336.75,309.89Z"/><path class="cls-14" d="M336.8,403.82c0,.39-.46.47-.78.66-2.81,1.66-5.64,3.27-8.41,5a1.72,1.72,0,0,1-2.07-.13c-2.43-1.46-4.92-2.84-7.32-4.36a2.46,2.46,0,0,0-3,0c-2.33,1.5-4.78,2.82-7.14,4.27a1.85,1.85,0,0,1-2.26.11c-2.54-1.68-5.15-3.26-7.72-4.9-.43-.27-1.13-.42-.61-1.2s.93-.33,1.4,0c2.24,1.4,4.51,2.73,6.68,4.23a2,2,0,0,0,2.6,0c2.41-1.5,4.92-2.85,7.33-4.35a2.15,2.15,0,0,1,2.62,0c2.41,1.5,4.9,2.87,7.32,4.37a2,2,0,0,0,2.43,0c2.41-1.51,4.9-2.89,7.33-4.36C335.93,402.81,336.46,402.71,336.8,403.82Z"/><path class="cls-14" d="M202.31,387.28c-.36-.5-1.53-.54-.94-1.6.68-.76,1.13,0,1.59.3,2.29,1.29,4.57,2.61,6.8,4a2.25,2.25,0,0,0,2.8,0c2.38-1.54,4.91-2.85,7.32-4.35a2,2,0,0,1,2.44,0c2.36,1.46,4.83,2.74,7.14,4.26a2.44,2.44,0,0,0,3.15-.07c2-1.36,4.07-2.63,6.15-3.87.43-.26.93-1.09,1.55-.2.71,1-.39,1.16-.85,1.45-2.38,1.55-4.85,3-7.2,4.55a2.05,2.05,0,0,1-2.61,0c-2.35-1.46-4.8-2.76-7.13-4.26a2.28,2.28,0,0,0-2.82,0c-2.36,1.47-4.76,2.84-7.16,4.23-.58.34-1.1.91-1.89.65l0,0a43.41,43.41,0,0,1-7.65-4.13A1.31,1.31,0,0,1,202.31,387.28Z"/><path class="cls-14" d="M240.65,292.45c-.29.23-.54.45-.81.63-2.64,1.66-5.31,3.28-7.92,5a1.68,1.68,0,0,1-2.06-.14c-2.42-1.48-4.9-2.87-7.31-4.37a2.3,2.3,0,0,0-2.81,0c-2.4,1.52-4.91,2.86-7.32,4.36a2,2,0,0,1-2.43,0c-2.53-1.57-5.15-3-7.68-4.57-.46-.28-1.59-.33-1-1.39s1.22-.15,1.68.11c2.24,1.25,4.48,2.51,6.61,3.93a2.65,2.65,0,0,0,3.33-.09c2.16-1.39,4.47-2.53,6.59-4a2.69,2.69,0,0,1,3.36.07c2.28,1.44,4.68,2.7,7,4.16a1.89,1.89,0,0,0,2.41,0c2.26-1.48,4.57-2.88,6.86-4.31.34-.21.68-.58,1.09-.17A4.29,4.29,0,0,1,240.65,292.45Z"/><path class="cls-14" d="M368.23,197.77c.1.52-.39.63-.72.83-2.81,1.66-5.64,3.28-8.43,5a1.78,1.78,0,0,1-2.1-.16c-2.5-1.49-5-2.94-7.51-4.47a2.09,2.09,0,0,0-2.47,0c-2.48,1.53-5,2.95-7.51,4.48a1.82,1.82,0,0,1-2.26,0c-2.44-1.59-5-3.08-7.41-4.66-.4-.26-1.39-.34-.83-1.31s1.07-.23,1.53.05c2.14,1.3,4.29,2.58,6.36,4a2.39,2.39,0,0,0,3,0c2.22-1.42,4.58-2.62,6.79-4.06a2.53,2.53,0,0,1,3.19,0c2.2,1.44,4.57,2.62,6.78,4.06a2.41,2.41,0,0,0,3,0c2.27-1.46,4.65-2.76,7-4.14C367.27,197,367.87,196.66,368.23,197.77Z"/><path class="cls-14" d="M400.35,175.14c0,.46-.48.54-.8.73-2.8,1.67-5.63,3.28-8.4,5a1.75,1.75,0,0,1-2.08-.16c-2.49-1.49-5-2.93-7.49-4.47a1.91,1.91,0,0,0-2.41,0c-2.24,1.51-4.6,2.85-6.85,4.34a2.06,2.06,0,0,1-2.6.06c-2.46-1.55-5-2.93-7.49-4.47-.49-.3-1.85-.37-1.09-1.51s1.35.05,1.9.35c2.24,1.23,4.46,2.52,6.63,3.89a2,2,0,0,0,2.59,0c2.24-1.51,4.59-2.85,6.84-4.35a1.93,1.93,0,0,1,2.42,0c2.47,1.53,5,2.92,7.5,4.46a2,2,0,0,0,2.43,0c2.4-1.5,4.89-2.88,7.33-4.34C399.51,174.18,400,174.06,400.35,175.14Z"/><path class="cls-14" d="M176.91,286.42c-.13.56-.53.73-.88.94-2.74,1.62-5.5,3.22-8.22,4.89a1.73,1.73,0,0,1-2.07-.15c-2.33-1.5-4.72-2.91-7-4.45a1.91,1.91,0,0,0-2.41,0c-2.41,1.51-4.91,2.86-7.33,4.36a2.09,2.09,0,0,1-2.61.08c-2.57-1.63-5.25-3.09-7.87-4.66-.45-.27-1.34-.45-.77-1.34s1.11-.16,1.57.1c2.29,1.31,4.61,2.58,6.79,4.05a2.51,2.51,0,0,0,3.16-.05c2.22-1.41,4.57-2.62,6.77-4.08a2.44,2.44,0,0,1,3.14.12c2.13,1.44,4.37,2.7,6.51,4.12a1.93,1.93,0,0,0,2.42,0c2.4-1.51,4.88-2.91,7.34-4.33.33-.19.69-.59,1.11-.22A2.08,2.08,0,0,1,176.91,286.42Z"/><path class="cls-14" d="M316.75,222.86c-.54.28-1,.52-1.51.8-2.4,1.4-4.79,2.79-7.16,4.23a1.84,1.84,0,0,1-2.26.12c-2.49-1.65-5-3.18-7.56-4.77-.49-.31-1.29-.56-.71-1.39s1.1,0,1.56.23c2.19,1.33,4.38,2.67,6.52,4.08a1.94,1.94,0,0,0,2.43.05c2.4-1.51,4.92-2.85,7.31-4.38a2.3,2.3,0,0,1,2.81,0c2.23,1.39,4.58,2.61,6.77,4.07a2.79,2.79,0,0,0,3.54-.06c2.14-1.41,4.38-2.66,6.61-3.94.46-.27,1-.93,1.52,0,.38.79-.32.94-.75,1.2-2.74,1.63-5.51,3.21-8.23,4.88a1.92,1.92,0,0,1-2.27-.2c-2.37-1.43-4.76-2.84-7.15-4.24C317.75,223.35,317.25,223.12,316.75,222.86Z"/><path class="cls-14" d="M171.46,217.93a2.65,2.65,0,0,1,1.59-.74c1.9,1.27,3.85,2.47,5.69,3.82.91.67,1.51.28,2.23-.19,2.38-1.56,4.84-3,7.13-4.68a2.24,2.24,0,0,1,3.09.06c2.26,1.6,4.68,3,7,4.57a2.05,2.05,0,0,0,2.76,0c2.28-1.59,4.64-3.05,7-4.53.45-.29.92-1.06,1.53-.16s-.28,1.05-.72,1.34c-2.72,1.8-5.5,3.51-8.18,5.36a1.67,1.67,0,0,1-2.2-.13c-2.43-1.62-4.92-3.13-7.32-4.79a2,2,0,0,0-2.75,0c-2.21,1.56-4.59,2.89-6.78,4.47-1.24.88-2.16,1-3.46.06C175.93,220.74,173.66,219.39,171.46,217.93Z"/><path class="cls-14" d="M234.42,241.71a2.27,2.27,0,0,1,2,.39c-3.49,3.32-7,3.71-10.74.3-3.13-2.89-6.26-2.71-9.39.09-3.32,3-6.65,3.21-10.15.14a29.73,29.73,0,0,0-4.26-2.57c-.44-.26-1.13-.47-.64-1.23s.95-.29,1.42,0c2.33,1.37,4.69,2.68,7,4.14a2.42,2.42,0,0,0,3,0c2.34-1.48,4.79-2.79,7.14-4.26a2.08,2.08,0,0,1,2.6,0c2.09,1.36,4.39,2.41,6.42,3.84,1.61,1.14,2.93,1.18,4.38-.09A9.08,9.08,0,0,1,234.42,241.71Z"/><path class="cls-14" d="M114.29,275.84c0-.56,0-1.12.07-1.68,1.22,1.14,2.3.93,3.61,0,2.12-1.57,4.45-2.84,6.6-4.37a2.2,2.2,0,0,1,2.93,0c2.4,1.66,4.9,3.17,7.31,4.8a1.64,1.64,0,0,0,2.21,0c2.19-1.6,4.44-3.11,6.69-4.62.44-.29.93-1.06,1.54-.18s-.27,1.05-.71,1.36c-2.49,1.76-5,3.46-7.51,5.24a1.72,1.72,0,0,1-2.25,0c-2.48-1.66-5-3.22-7.48-4.91a2,2,0,0,0-2.6,0c-2.23,1.54-4.61,2.86-6.78,4.48C116.56,276.93,115.48,277,114.29,275.84Z"/><path class="cls-14" d="M116,270.44a1.78,1.78,0,0,1,.82-1.88c2.78-1.84,5.58-3.64,8.32-5.53.9-.63,1.51-.25,2.23.23,2.44,1.6,4.93,3.12,7.31,4.79a1.88,1.88,0,0,0,2.57,0c2.12-1.55,4.32-3,6.51-4.49.46-.32,1-1,1.57-.14s-.38,1.05-.79,1.34c-2.49,1.77-5.06,3.42-7.51,5.24a1.59,1.59,0,0,1-2.18-.07c-2.48-1.65-5-3.2-7.49-4.9a2,2,0,0,0-2.58,0C121.81,266.81,119.14,269.05,116,270.44Z"/><path class="cls-14" d="M185.23,360.37c-1.29.76-2.54,1.79-4.16.76,2.47-1.54,5-3,7.38-4.65a1.81,1.81,0,0,1,2.37,0c2.34,1.59,4.8,3,7.11,4.67a2.29,2.29,0,0,0,3.12.06c2.26-1.61,4.63-3.05,7-4.55.51-.32,1-.86,1.51.06s-.37.92-.74,1.16c-2.71,1.8-5.47,3.53-8.16,5.36a1.72,1.72,0,0,1-2.22,0c-2.36-1.58-4.81-3-7.12-4.67-1.19-.85-2.12-1-3.29,0A27.49,27.49,0,0,1,185.23,360.37Z"/><path class="cls-14" d="M447.11,175l.39,1.8c-2.47-2.3-4.6-1.07-6.78.57-1.61,1.2-3.39,2.18-5,3.34a1.66,1.66,0,0,1-2.21,0c-2.58-1.77-5.24-3.4-7.83-5.15-.48-.32-1.59-.44-1-1.45s1.21-.09,1.7.22c2.29,1.44,4.58,2.9,6.81,4.42a2,2,0,0,0,2.72.08c1.9-1.4,4.08-2.42,5.9-3.91S445.35,173.15,447.11,175Z"/><path class="cls-14" d="M443,167.57l1.26.44a.4.4,0,0,1,0,.69c-2.79,1.82-5.6,3.62-8.37,5.47a1.86,1.86,0,0,1-2.42.11c-2.63-1.81-5.36-3.48-8-5.24-.43-.29-1.32-.46-.75-1.36s1.07-.15,1.52.13c2.4,1.53,4.78,3.09,7.17,4.64.65.42,1.24.83,2.07.23C437.89,170.91,440.63,169.55,443,167.57Z"/><path class="cls-14" d="M257,219.24c-.2-.57-.65-1.15,0-1.72,1.62.93,3.29,1.77,4.84,2.81a2.08,2.08,0,0,0,2.62,0c2.35-1.46,4.75-2.83,7.15-4.22.41-.24.85-.85,1.38-.09s-.17,1.06-.67,1.36c-2.68,1.59-5.39,3.12-8,4.76a2,2,0,0,1-2.45-.07C260.22,221.07,258.58,220.18,257,219.24Z"/><path class="cls-14" d="M194.77,367.29c-.52-.79-2.38-.94-1.21-2.54,1.63,1.05,3.29,2,4.87,3.16a1.62,1.62,0,0,0,2.17,0c2.34-1.6,4.73-3.12,7.13-4.63.52-.33,1.13-1.12,1.72-.14s-.43,1-.86,1.3c-2.59,1.72-5.25,3.33-7.8,5.11a1.84,1.84,0,0,1-2.55,0C197.15,368.72,195.93,368,194.77,367.29Z"/><path class="cls-14" d="M257.8,225.91c.19-.54-.75-1.33.37-1.66,3.21,3.17,6.41,3.32,9.76.12a18.36,18.36,0,0,1,3.49-2.27c.44-.26.9-1.09,1.54-.23s-.21,1.09-.67,1.39c-2.72,1.79-5.49,3.52-8.21,5.33a1.58,1.58,0,0,1-2.05-.05C260.66,227.61,259.22,226.78,257.8,225.91Z"/><path class="cls-14" d="M405,153.29l1.8.53c-1.22,1.17-2.83,1.7-4.18,2.65-.55.39-1,.21-1.52-.12q-3.94-2.5-7.92-5c-.49-.3-1-.52-.58-1.25s1-.24,1.38,0A39.8,39.8,0,0,1,399,153.4C401.15,155.16,403,155.09,405,153.29Z"/><path class="cls-14" d="M135.92,363.62c0-.32.07-.63.1-.95,2.51-1.71,5-3.44,7.52-5.1.48-.32,1-1.25,1.71-.31s-.4,1.11-.85,1.44c-2.66,1.94-5.37,3.82-8.06,5.72C135.6,364.47,135.89,364,135.92,363.62Z"/><path class="cls-14" d="M178.13,361.12c.35.73-.11.74-.65.8-.91.1-1.52-.52-2.26-.82-1.61-1.06-3.22-2.11-4.82-3.18-.48-.33-1.18-.57-.58-1.39s1-.09,1.37.15C173.52,358.14,175.82,359.64,178.13,361.12Z"/><path class="cls-14" d="M444.22,168.7V168l2.42.81v1.24Z"/><path class="cls-14" d="M145.26,363.58c-.27,1.08-.73,1.17-2.2.45C143.83,364.06,144.3,362.6,145.26,363.58Z"/><path class="cls-19" d="M230.29,414.55c.08-.64.08-.64,1.19-.9A1.29,1.29,0,0,1,230.29,414.55Z"/><path class="cls-20" d="M136.94,219.52c-.92-2.43-2.63-4.37-4.05-6.49-.88-1.32-.48-1.76.87-2,7.88-1.37,15.76-2.76,24.21-4.25-1.89,2.14-3.43,3.93-5,5.68-3.5,3.85-7.05,7.64-10.51,11.52-1,1.14-1.6,1.14-2.4-.23a7.48,7.48,0,0,0-2.24-2.93c.15-1.57,1.94-1.46,2.67-2.55C139,218.12,138.35,219.84,136.94,219.52Z"/><path class="cls-21" d="M111.75,229.9c-.08.62-.64.89-1,1.27A82.55,82.55,0,0,0,94,255.76c-.23.52-.08,1.57-1.25,1.13s-.27-1.21-.08-1.65a79.7,79.7,0,0,1,14.48-22.38c1-1.14,2.12-2.2,3.16-3.31C111.05,228.78,111.37,229.39,111.75,229.9Z"/><path class="cls-22" d="M136.94,219.52c1-.65,2.05-1.31,3.09-2,.39-.25.78-.57,1.13.13s.22.84-.31,1.15c-1,.63-2,1.32-3,2-1.66,1.23-3.31,2.48-5,3.69-.44.31-.85,1.09-1.54.3s.17-1.07.56-1.39C133.52,222.1,135.24,220.82,136.94,219.52Z"/><path class="cls-23" d="M202.31,387.28l8.37,5.1c-2.3-.41-4.61-.76-6.89-1.25C202.6,390.87,201.87,388.77,202.31,387.28Z"/><path class="cls-14" d="M120.94,365.76,123.7,364a10.49,10.49,0,0,1,4.73.07l1.81,1.44a3.48,3.48,0,0,1-3.41-.64c-.73-.06-1.34.46-2.07.42a6.21,6.21,0,0,1-3.86,1.12C119.93,366.36,121.07,366,120.94,365.76Z"/><path class="cls-24" d="M124.76,365.32c.61-.54,1.23-1.05,2.07-.42C126.22,365.44,125.61,366,124.76,365.32Z"/><path class="cls-14" d="M456.71,172.92c-2.65,2.23-2.66,2.24-5.44.31-.95-.66-1.89-1.34-2.83-2,.05-.46-.06-1.12.2-1.32.46-.37.77.28,1.13.54l1.14.81c.83-.14,1.36.52,2,.8s1.38.64,2.12.12Z"/><path class="cls-25" d="M455.07,172.17c-.65,1.06-1.42,1-2.33.32-.58-.45-1.22-.83-1.83-1.24C452.53,170.46,453.63,172.08,455.07,172.17Z"/><path class="cls-26" d="M564.15,379.73a27.5,27.5,0,0,0-4.27-7.57c-6-7.61-15.18-12.08-24.37-15.22-10.87-3.7-21.87-7.38-33.09-9.19-13.24-2.12-26.57-3.27-39.91-4.49-13.19-1.2-26.41-2.11-39.62-2.93-9.77-.61-19.55-1-29.33-1.25-10.62-.29-21.25-.34-31.88-.5-.95,1.08-.63,2.39-.52,3.59A136.18,136.18,0,0,0,369,375.76c1.47,4.1,3.23,8.1,4.83,12.15a74.43,74.43,0,0,1-4.17-9.46c-4.46-11.74-7.71-23.77-8.74-36.34-.1-1.2-.06-2.52-1-3.54-3.41,0-6.81.09-10.21,0-1.62-.06-2,.5-2,2a109.94,109.94,0,0,0,1.38,14.27c1,6.79,1.5,13.68,3.5,20.25,4.8,15.86,12,30.74,19,45.72a1.93,1.93,0,0,0,2.14,1.18c4.51-.14,9-.24,13.53-.35,7.71-.18,15.42-.22,23.12-.59,11.22-.53,22.43-1.24,33.64-2,7.4-.49,14.8-1,22.18-1.78,9.3-1,18.59-2.06,27.87-3.23,12.56-1.59,25.22-2.51,37.72-4.54,5.86-1,11.51-2.56,17.25-3.82,5.39-1.19,9.93-2.49,13.41-7.2C566.67,392.82,566.52,386.06,564.15,379.73Z"/></g></g></svg>