<svg xmlns="http://www.w3.org/2000/svg" viewBox="0 0 120.09 120.48"><defs><style>.cls-1{font-size:21.48px;font-family:ProximaNovaSoft-Bold, Proxima Nova Soft;font-weight:700;}.cls-1,.cls-5{fill:#f1d0da;}.cls-2{letter-spacing:-0.02em;}.cls-3{letter-spacing:0em;}.cls-4{letter-spacing:-0.04em;}</style></defs><title>logo_4.5_grafikWeek</title><g id="Layer_2" data-name="Layer 2"><g id="base"><text class="cls-1" transform="translate(0 114.42)">Grafi<tspan class="cls-2" x="47.32" y="0">k</tspan><tspan class="cls-3" x="58.29" y="0">•</tspan><tspan class="cls-4" x="65.98" y="0">W</tspan><tspan x="84.84" y="0">eek</tspan></text><path class="cls-5" d="M40.32,79A23.39,23.39,0,0,1,14.69,64.2a3.86,3.86,0,0,1,3-5.14l.16,0a3.84,3.84,0,0,1,4.2,2.46,15.49,15.49,0,0,0,30-4.92A3.86,3.86,0,0,1,55.2,52.9l.16,0a3.87,3.87,0,0,1,4.5,3.91A23.38,23.38,0,0,1,40.32,79Z"/><path class="cls-5" d="M54.2,19.55A23.34,23.34,0,1,0,35,46.35,23.37,23.37,0,0,0,54.2,19.55ZM33.68,38.61A15.49,15.49,0,1,1,46.45,20.82,15.5,15.5,0,0,1,33.68,38.61Z"/><circle class="cls-5" cx="104.91" cy="43.09" r="5.3"/><rect class="cls-5" x="83.86" y="16.39" width="7.84" height="44.68" rx="3.92" transform="matrix(0.99, -0.15, 0.15, 0.99, -4.92, 13.99)"/><rect class="cls-5" x="65.15" y="0.4" width="7.84" height="69.32" rx="3.92" transform="translate(-4.58 11.06) rotate(-8.86)"/></g></g></svg>