<svg xmlns="http://www.w3.org/2000/svg" viewBox="0 0 112.29 75.48"><defs><style>.cls-1,.cls-3{font-size:36.47px;font-family:BlackerDisplay-Heavy, Blacker Display;font-weight:800;}.cls-1,.cls-3,.cls-6{fill:#fff;}.cls-1{letter-spacing:-0.06em;}.cls-2{letter-spacing:-0.04em;}.cls-3{letter-spacing:-0.05em;}.cls-4{letter-spacing:-0.04em;}.cls-5{fill:#334798;}</style></defs><title>logo_00_designFreaksClub</title><g id="Layer_2" data-name="Layer 2"><g id="base"><text class="cls-1" transform="translate(0 31.05)">d<tspan class="cls-2" x="21.66" y="0">esign</tspan></text><text class="cls-3" transform="translate(38.3 60.82)">c<tspan class="cls-4" x="17.85" y="0">lub</tspan></text><path class="cls-5" d="M21.73,44.14a37.61,37.61,0,0,0-4.46,1.91,72.41,72.41,0,0,1,1.24-8.95,1,1,0,0,0-1.22-.37l-1.84.53c4.32-1.56,6.83-2.4,12.16-4.22-.16.57-.27.84-.17,1.13a2.62,2.62,0,0,0,2.81,1c1.2-.29,2.14-5,1.92-5.61-.13-.38-.59-.8-1.64-.58a90,90,0,0,0-9,2.54c3.22-1.28,10.37-3.82,10.89-2.42v0c-.8-2.42-18.61,5.71-27.64,8.34-.67.19-1.23.4-.33,2.15a1.22,1.22,0,0,0,1.25.55c1.92-.59,4.42.81,5.87,3.9A29.48,29.48,0,0,1,13,48c-2.76,1.3-2.89,1.45-2.75,1.73a3,3,0,0,0,2.66.91,7.89,7.89,0,0,0,.84-.35c.38,1.5.57,2.78.93,4.13l-.3-.55a23.11,23.11,0,0,1-1-2.83,20.85,20.85,0,0,0,1.16,4.38c.82,1.92,2.65,5.28,4.79,4.35.52-.23-.16-1.38-.41-2a27.54,27.54,0,0,1-1.71-8,.93.93,0,0,0-1.16-.35l-1.85.67s10.58-4.39,10.29-5.15A2.56,2.56,0,0,0,21.73,44.14Zm-7.94,1.21c-.35-1-.7-2-1.15-3a10.35,10.35,0,0,0-2.4-3.45c1.58-.5,3.15-1,4.74-1.54A38.79,38.79,0,0,0,13.79,45.35Z"/><path class="cls-5" d="M85.26,31.24l.2-.16-.18,0a51.85,51.85,0,0,0-7,3,6.94,6.94,0,0,1-.07-1,4.34,4.34,0,0,1,1.5-3.42c-.09.46-.14.69-.23,1.16,0,.92,1.76,1.05,2.33,1l.62-.31c.08-.42.2-.84.26-1.22a7.9,7.9,0,0,1,0,1.09c.73-3.27,1-3.64,1.23-4.1,0-.63-1.67-.86-2.17-.81-.84.09-1.17.92-1.54,1.73a4,4,0,0,0-4.53,1.26,4.74,4.74,0,0,1,2.34-1.19l.34,0c-1.86.31-3.15,2.3-3.14,4.57l0,.27c-1.08,1.47-3.34,3.43-4.43,3.67-1.37.3-3.12-1.09-3.68-1.71,2.86-.61,8-4.68,8-7,0-.61-.81-1.44-2.49-1.23a6.11,6.11,0,0,0-1.77.51,7.42,7.42,0,0,1,2.75-1,5.27,5.27,0,0,1,1,0,5.76,5.76,0,0,0-1.31,0,11.15,11.15,0,0,0-5.59,2.93c1.33-2.24,3-5,2.94-7.13,0-1.21-.69-2.3-2.49-3a3.28,3.28,0,0,1,2.28,2.8c.09,1.86-1.3,4.29-2.66,6.18,1.24-1.72,2.42-3.51,2.35-4.55-.07-1.27-2.37-1.92-3.3-1.84l-.34.25c0,.15.23.29.26.62C67,24.79,62,31.62,61.11,36.6a13.8,13.8,0,0,1-3.89,4.06l-.13-.6c-.37-2.38,1.33-7.91,1.3-8.1-.06-.44-1.57-1-2.34-.84-.39.07-.46.23-.86,1.08a3.67,3.67,0,0,0-3.34-.69,6,6,0,0,0-2.72,1.27,6.07,6.07,0,0,1,2.24-.93,5.65,5.65,0,0,1,1.27-.11,6.38,6.38,0,0,0-1,.1c-3.47.69-5.77,5.76-6.21,9.15a10.57,10.57,0,0,1-5.54,4.73,1.57,1.57,0,0,1-1.94-1,5.74,5.74,0,0,1-.1-2.15c3.33-.92,7.13-4.77,6.6-7-.36-1.46-2.32-1.88-4.44-1.39a6.37,6.37,0,0,0-3.47,2.05A6.67,6.67,0,0,1,40,34.35a8.69,8.69,0,0,0-5.28,8.27,14.38,14.38,0,0,1-3,5.73c-1.21-3.62.72-6.31.37-7.36-.27-.83-2.14-1.5-3.87-1-.59.17-1.07.38-2,.64-.34-1.34.17-2-.09-2.74a1.86,1.86,0,0,0-2-.87c-.75.2-1.52,2.06-1,3.35a3.48,3.48,0,0,0,2.47,1.9A3.56,3.56,0,0,1,24,41a5.15,5.15,0,0,0,3.84,1.21,10.18,10.18,0,0,0-.2,5.85c.64,1.77,2,2.7,4.3,2.72-1.92-.14-3.26-.87-3.83-2.48a5.51,5.51,0,0,1-.21-2.62,5.27,5.27,0,0,0,.27,1.71c.7,2,3.5,2.57,4.42,2.24,1.36-.49,2.17-3,2.55-4.9l.18.53c1,2.13,3.09,3.12,6.06,1.81-2.06.76-3.6.54-4.69-.73a5.1,5.1,0,0,0,4.13.52c1.48-.49,3.38-2.3,4.57-4.15l0,.43c.26,1.08,2.49,1.51,2.49,1.51s-2-.36-2.26-1.32l-.08-.91.17-.32a2.9,2.9,0,0,0,3.44,2.26c1.64-.5,3.49-3.83,4.31-5.54a4.32,4.32,0,0,0,0,1.09,2.81,2.81,0,0,0,3,2.61,2.41,2.41,0,0,1-2.51-2.05L54,39.7A3,3,0,0,0,57.47,42c1.33-.37,2.61-2,3.53-3.53v.35a2.71,2.71,0,0,0,2.44,2.56A2.46,2.46,0,0,1,61.25,39a6.16,6.16,0,0,1,0-1.05l.29-.53,0,.82a1.92,1.92,0,0,0,2.34,1.67.6.6,0,0,0,.44-.62,12.25,12.25,0,0,1,.17-3c1.36,1.63,3.49,3.4,6.87,2.36A5.37,5.37,0,0,1,66.71,38a5.24,5.24,0,0,0,3.26.41c1.62-.38,4-2.32,5.41-4.38a8.59,8.59,0,0,0,.4,1.55c-2.86,2-3.74,3.61-3.71,4.46,0,1.2,1.88,1.19,3.32.81a6.32,6.32,0,0,0,2.73-1.4,7.43,7.43,0,0,1-2.81,2.23C78,40.39,79.14,39,79.19,37.48c0-.62-.3-2.27-1.26-2.07a4.43,4.43,0,0,0-1.42.79C78.26,34.65,82.69,32.39,85.26,31.24ZM42.13,35.66a.84.84,0,0,1,.55.61c.4,1.53-2.08,4.66-4.76,5.74C38.28,39.93,39.62,36.49,42.13,35.66Zm6.67,7.45C48,39.32,51,33.61,53.72,33.05c0,0,.35.28.47,1C54.22,34.18,53.87,38,48.8,43.11Zm17-9.59c.69-1.43,3.77-4.63,6.24-5.45C71.07,30.2,67.89,32.56,65.77,33.52Zm8.29,6.29c.13-.6-.08-1.4,2.08-3.34l.09.73C76.23,38.14,75.69,39.14,74.06,39.81Z"/><path class="cls-5" d="M32.56,52.74s-.18,0,.06-.13c.76-.29,1.42-.35,2.18-.64l0-.08,1.88-.49,3.5-1.12s0,0,.06-.07l1.86-.54.3-.1c.08,0,.09-.06.1-.08l.86-.23C46.8,48.15,50.26,47,54,45.89l2.35-.76c1.15-.32,2.63-.65,3.76-.93-.23-.18,2.48-1,1.88-1.07a14.82,14.82,0,0,0,1.92-.53c.13-.23.65-.6,2.62-1.2.77-.22,2-.44,2.25-.54.42-.17-1,.11-.62,0C62.37,42.17,56.8,43.65,51,45.2c-2,.57-15.26,4.43-18.63,5.58l-.31.1c-1.85.6-4.07,1.38-5.59,2l-2.09,1,.95-.22c-.73.26-1.46.52-1.72.66-1.51.69-.59.46,0,.38.45-.1-.09.21.61,0l-1.21.45c0,.08,1.47-.6,1.17-.37-.47.14-1,.39-1.45.57.19,0,1.67-.61,1.63-.49A7.41,7.41,0,0,0,23,55.4s.47-.16.71-.25c-1.46.6-2.24,1-.85.6l-1.63.6h0l.91-.33-.84.32h.16l.65-.22-.56.21.51-.09c.69-.19,1.36-.35,1.72-.48C26.65,54.7,29.61,53.7,32.56,52.74Z"/><circle class="cls-6" cx="34.67" cy="59.33" r="2.81"/></g></g></svg>